<svg xmlns="http://www.w3.org/2000/svg" xmlns:xlink="http://www.w3.org/1999/xlink" contentStyleType="text/css" height="679px" preserveAspectRatio="none" style="width:2406px;height:679px;background:#FFFFFF;" version="1.1" viewBox="0 0 2406 679" width="2406px" zoomAndPan="magnify"><title>Admin View Status Report Activity Diagram</title><defs/><g><text fill="#000000" font-family="sans-serif" font-size="14" font-weight="bold" lengthAdjust="spacing" textLength="344.5654" x="1029.5139" y="32.9951">Admin View Status Report Activity Diagram</text><rect fill="none" height="20.9531" style="stroke:none;stroke-width:1.0;" width="2373.5933" x="15" y="50.042"/><ellipse cx="164.292" cy="85.9951" fill="#222222" rx="10" ry="10" style="stroke:#222222;stroke-width:1.0;"/><rect fill="#F1F1F1" height="33.9688" rx="12.5" ry="12.5" style="stroke:#181818;stroke-width:0.5;" width="56.3984" x="136.0928" y="115.9951"/><text fill="#000000" font-family="sans-serif" font-size="12" lengthAdjust="spacing" textLength="36.3984" x="146.0928" y="137.1338">Log in</text><rect fill="#F1F1F1" height="33.9688" rx="12.5" ry="12.5" style="stroke:#181818;stroke-width:0.5;" width="286.584" x="21" y="169.9639"/><text fill="#000000" font-family="sans-serif" font-size="12" lengthAdjust="spacing" textLength="266.584" x="31" y="191.1025">Select specific date to view status report (1)</text><line style="stroke:#000000;stroke-width:1.5;" x1="15" x2="15" y1="50.042" y2="667.8076"/><rect fill="#F1F1F1" height="33.9688" rx="12.5" ry="12.5" style="stroke:#181818;stroke-width:0.5;" width="178.7246" x="943.4093" y="223.9326"/><text fill="#000000" font-family="sans-serif" font-size="12" lengthAdjust="spacing" textLength="158.7246" x="953.4093" y="245.0713">Validate date selection (2)</text><polygon fill="#F1F1F1" points="995.6439,277.9014,1069.8993,277.9014,1081.8993,289.9014,1069.8993,301.9014,995.6439,301.9014,983.6439,289.9014,995.6439,277.9014" style="stroke:#181818;stroke-width:0.5;"/><text fill="#000000" font-family="sans-serif" font-size="11" lengthAdjust="spacing" textLength="74.2554" x="995.6439" y="293.7095">Date is valid?</text><text fill="#000000" font-family="sans-serif" font-size="11" lengthAdjust="spacing" textLength="19.2178" x="964.4261" y="287.3071">Yes</text><text fill="#000000" font-family="sans-serif" font-size="11" lengthAdjust="spacing" textLength="14.9585" x="1081.8993" y="287.3071">No</text><rect fill="#F1F1F1" height="33.9688" rx="12.5" ry="12.5" style="stroke:#181818;stroke-width:0.5;" width="487.9824" x="317.584" y="321.9014"/><text fill="#000000" font-family="sans-serif" font-size="12" lengthAdjust="spacing" textLength="467.9824" x="327.584" y="343.04">Display error message: "Invalid date selection. Please select a valid date." (8)</text><polygon fill="#F1F1F1" points="1491.343,429.8389,1576.593,429.8389,1588.593,441.8389,1576.593,453.8389,1491.343,453.8389,1479.343,441.8389,1491.343,429.8389" style="stroke:#181818;stroke-width:0.5;"/><text fill="#000000" font-family="sans-serif" font-size="11" lengthAdjust="spacing" textLength="85.25" x="1491.343" y="445.647">Data available?</text><text fill="#000000" font-family="sans-serif" font-size="11" lengthAdjust="spacing" textLength="19.2178" x="1460.1252" y="439.2446">Yes</text><text fill="#000000" font-family="sans-serif" font-size="11" lengthAdjust="spacing" textLength="14.9585" x="1588.593" y="439.2446">No</text><polygon fill="#F1F1F1" points="1126.2627,463.8389,1213.2422,463.8389,1225.2422,475.8389,1213.2422,487.8389,1126.2627,487.8389,1114.2627,475.8389,1126.2627,463.8389" style="stroke:#181818;stroke-width:0.5;"/><text fill="#000000" font-family="sans-serif" font-size="11" lengthAdjust="spacing" textLength="86.9795" x="1126.2627" y="479.647">Data complete?</text><text fill="#000000" font-family="sans-serif" font-size="11" lengthAdjust="spacing" textLength="19.2178" x="1095.0449" y="473.2446">Yes</text><text fill="#000000" font-family="sans-serif" font-size="11" lengthAdjust="spacing" textLength="14.9585" x="1225.2422" y="473.2446">No</text><rect fill="#F1F1F1" height="33.9688" rx="12.5" ry="12.5" style="stroke:#181818;stroke-width:0.5;" width="280.3496" x="815.5664" y="497.8389"/><text fill="#000000" font-family="sans-serif" font-size="12" lengthAdjust="spacing" textLength="260.3496" x="825.5664" y="518.9775">Display status report for all warehouses (5)</text><rect fill="#F1F1F1" height="33.9688" rx="12.5" ry="12.5" style="stroke:#181818;stroke-width:0.5;" width="535.6953" x="1115.916" y="497.8389"/><text fill="#000000" font-family="sans-serif" font-size="12" lengthAdjust="spacing" textLength="515.6953" x="1125.916" y="518.9775">Display status report with warning: "Some data might be incomplete for this day." (6)</text><polygon fill="#F1F1F1" points="1169.7524,537.8076,1181.7524,549.8076,1169.7524,561.8076,1157.7524,549.8076,1169.7524,537.8076" style="stroke:#181818;stroke-width:0.5;"/><rect fill="#F1F1F1" height="33.9688" rx="12.5" ry="12.5" style="stroke:#181818;stroke-width:0.5;" width="433.1445" x="1661.6113" y="463.8389"/><text fill="#000000" font-family="sans-serif" font-size="12" lengthAdjust="spacing" textLength="413.1445" x="1671.6113" y="484.9775">Display error message: "No data available for the selected date." (7)</text><polygon fill="#F1F1F1" points="1533.968,567.8076,1545.968,579.8076,1533.968,591.8076,1521.968,579.8076,1533.968,567.8076" style="stroke:#181818;stroke-width:0.5;"/><polygon fill="#F1F1F1" points="1032.7716,601.8076,1044.7716,613.8076,1032.7716,625.8076,1020.7716,613.8076,1032.7716,601.8076" style="stroke:#181818;stroke-width:0.5;"/><ellipse cx="1032.7716" cy="656.8076" fill="none" rx="11" ry="11" style="stroke:#222222;stroke-width:1.0;"/><ellipse cx="1032.7716" cy="656.8076" fill="#222222" rx="6" ry="6" style="stroke:#222222;stroke-width:1.0;"/><line style="stroke:#000000;stroke-width:1.5;" x1="311.584" x2="311.584" y1="50.042" y2="667.8076"/><rect fill="#F1F1F1" height="33.9688" rx="12.5" ry="12.5" style="stroke:#181818;stroke-width:0.5;" width="277.9766" x="2104.7559" y="321.9014"/><text fill="#000000" font-family="sans-serif" font-size="12" lengthAdjust="spacing" textLength="257.9766" x="2114.7559" y="343.04">Query status data for the selected date (3)</text><rect fill="#F1F1F1" height="33.9688" rx="12.5" ry="12.5" style="stroke:#181818;stroke-width:0.5;" width="182.4688" x="2152.5098" y="375.8701"/><text fill="#000000" font-family="sans-serif" font-size="12" lengthAdjust="spacing" textLength="162.4688" x="2162.5098" y="397.0088">Return result to system (4)</text><line style="stroke:#000000;stroke-width:1.5;" x1="2098.7559" x2="2098.7559" y1="50.042" y2="667.8076"/><line style="stroke:#000000;stroke-width:1.5;" x1="2386.7324" x2="2386.7324" y1="50.042" y2="667.8076"/><line style="stroke:#181818;stroke-width:1.0;" x1="164.292" x2="164.292" y1="95.9951" y2="115.9951"/><polygon fill="#181818" points="160.292,105.9951,164.292,115.9951,168.292,105.9951,164.292,109.9951" style="stroke:#181818;stroke-width:1.0;"/><line style="stroke:#181818;stroke-width:1.0;" x1="164.292" x2="164.292" y1="149.9639" y2="169.9639"/><polygon fill="#181818" points="160.292,159.9639,164.292,169.9639,168.292,159.9639,164.292,163.9639" style="stroke:#181818;stroke-width:1.0;"/><line style="stroke:#181818;stroke-width:1.0;" x1="1114.2627" x2="955.7412" y1="475.8389" y2="475.8389"/><line style="stroke:#181818;stroke-width:1.0;" x1="955.7412" x2="955.7412" y1="475.8389" y2="497.8389"/><polygon fill="#181818" points="951.7412,487.8389,955.7412,497.8389,959.7412,487.8389,955.7412,491.8389" style="stroke:#181818;stroke-width:1.0;"/><line style="stroke:#181818;stroke-width:1.0;" x1="1225.2422" x2="1383.7637" y1="475.8389" y2="475.8389"/><line style="stroke:#181818;stroke-width:1.0;" x1="1383.7637" x2="1383.7637" y1="475.8389" y2="497.8389"/><polygon fill="#181818" points="1379.7637,487.8389,1383.7637,497.8389,1387.7637,487.8389,1383.7637,491.8389" style="stroke:#181818;stroke-width:1.0;"/><line style="stroke:#181818;stroke-width:1.0;" x1="955.7412" x2="955.7412" y1="531.8076" y2="549.8076"/><line style="stroke:#181818;stroke-width:1.0;" x1="955.7412" x2="1157.7524" y1="549.8076" y2="549.8076"/><polygon fill="#181818" points="1147.7524,545.8076,1157.7524,549.8076,1147.7524,553.8076,1151.7524,549.8076" style="stroke:#181818;stroke-width:1.0;"/><line style="stroke:#181818;stroke-width:1.0;" x1="1383.7637" x2="1383.7637" y1="531.8076" y2="549.8076"/><line style="stroke:#181818;stroke-width:1.0;" x1="1383.7637" x2="1181.7524" y1="549.8076" y2="549.8076"/><polygon fill="#181818" points="1191.7524,545.8076,1181.7524,549.8076,1191.7524,553.8076,1187.7524,549.8076" style="stroke:#181818;stroke-width:1.0;"/><line style="stroke:#181818;stroke-width:1.0;" x1="1479.343" x2="1169.7524" y1="441.8389" y2="441.8389"/><line style="stroke:#181818;stroke-width:1.0;" x1="1169.7524" x2="1169.7524" y1="441.8389" y2="463.8389"/><polygon fill="#181818" points="1165.7524,453.8389,1169.7524,463.8389,1173.7524,453.8389,1169.7524,457.8389" style="stroke:#181818;stroke-width:1.0;"/><line style="stroke:#181818;stroke-width:1.0;" x1="1588.593" x2="1878.1836" y1="441.8389" y2="441.8389"/><line style="stroke:#181818;stroke-width:1.0;" x1="1878.1836" x2="1878.1836" y1="441.8389" y2="463.8389"/><polygon fill="#181818" points="1874.1836,453.8389,1878.1836,463.8389,1882.1836,453.8389,1878.1836,457.8389" style="stroke:#181818;stroke-width:1.0;"/><line style="stroke:#181818;stroke-width:1.0;" x1="1169.7524" x2="1169.7524" y1="561.8076" y2="579.8076"/><line style="stroke:#181818;stroke-width:1.0;" x1="1169.7524" x2="1521.968" y1="579.8076" y2="579.8076"/><polygon fill="#181818" points="1511.968,575.8076,1521.968,579.8076,1511.968,583.8076,1515.968,579.8076" style="stroke:#181818;stroke-width:1.0;"/><line style="stroke:#181818;stroke-width:1.0;" x1="1878.1836" x2="1878.1836" y1="497.8076" y2="579.8076"/><line style="stroke:#181818;stroke-width:1.0;" x1="1878.1836" x2="1545.968" y1="579.8076" y2="579.8076"/><polygon fill="#181818" points="1555.968,575.8076,1545.968,579.8076,1555.968,583.8076,1551.968,579.8076" style="stroke:#181818;stroke-width:1.0;"/><line style="stroke:#181818;stroke-width:1.0;" x1="983.6439" x2="561.5752" y1="289.9014" y2="289.9014"/><line style="stroke:#181818;stroke-width:1.0;" x1="561.5752" x2="561.5752" y1="289.9014" y2="321.9014"/><polygon fill="#181818" points="557.5752,311.9014,561.5752,321.9014,565.5752,311.9014,561.5752,315.9014" style="stroke:#181818;stroke-width:1.0;"/><line style="stroke:#181818;stroke-width:1.0;" x1="561.5752" x2="561.5752" y1="355.8701" y2="613.8076"/><line style="stroke:#181818;stroke-width:1.0;" x1="561.5752" x2="1020.7716" y1="613.8076" y2="613.8076"/><polygon fill="#181818" points="1010.7716,609.8076,1020.7716,613.8076,1010.7716,617.8076,1014.7716,613.8076" style="stroke:#181818;stroke-width:1.0;"/><line style="stroke:#181818;stroke-width:1.0;" x1="1533.968" x2="1533.968" y1="591.8076" y2="613.8076"/><line style="stroke:#181818;stroke-width:1.0;" x1="1533.968" x2="1044.7716" y1="613.8076" y2="613.8076"/><polygon fill="#181818" points="1054.7716,609.8076,1044.7716,613.8076,1054.7716,617.8076,1050.7716,613.8076" style="stroke:#181818;stroke-width:1.0;"/><line style="stroke:#181818;stroke-width:1.0;" x1="1032.7716" x2="1032.7716" y1="257.9014" y2="277.9014"/><polygon fill="#181818" points="1028.7716,267.9014,1032.7716,277.9014,1036.7716,267.9014,1032.7716,271.9014" style="stroke:#181818;stroke-width:1.0;"/><line style="stroke:#181818;stroke-width:1.0;" x1="1032.7716" x2="1032.7716" y1="625.8076" y2="645.8076"/><polygon fill="#181818" points="1028.7716,635.8076,1032.7716,645.8076,1036.7716,635.8076,1032.7716,639.8076" style="stroke:#181818;stroke-width:1.0;"/><line style="stroke:#181818;stroke-width:1.0;" x1="2243.7441" x2="2243.7441" y1="355.8701" y2="375.8701"/><polygon fill="#181818" points="2239.7441,365.8701,2243.7441,375.8701,2247.7441,365.8701,2243.7441,369.8701" style="stroke:#181818;stroke-width:1.0;"/><line style="stroke:#181818;stroke-width:1.0;" x1="164.292" x2="164.292" y1="203.9326" y2="208.9326"/><line style="stroke:#181818;stroke-width:1.0;" x1="164.292" x2="1032.7716" y1="208.9326" y2="208.9326"/><line style="stroke:#181818;stroke-width:1.0;" x1="1032.7716" x2="1032.7716" y1="208.9326" y2="223.9326"/><polygon fill="#181818" points="1028.7716,213.9326,1032.7716,223.9326,1036.7716,213.9326,1032.7716,217.9326" style="stroke:#181818;stroke-width:1.0;"/><line style="stroke:#181818;stroke-width:1.0;" x1="2243.7441" x2="2243.7441" y1="409.8389" y2="414.8389"/><line style="stroke:#181818;stroke-width:1.0;" x1="2243.7441" x2="1533.968" y1="414.8389" y2="414.8389"/><line style="stroke:#181818;stroke-width:1.0;" x1="1533.968" x2="1533.968" y1="414.8389" y2="429.8389"/><polygon fill="#181818" points="1529.968,419.8389,1533.968,429.8389,1537.968,419.8389,1533.968,423.8389" style="stroke:#181818;stroke-width:1.0;"/><line style="stroke:#181818;stroke-width:1.0;" x1="1081.8993" x2="2243.7441" y1="289.9014" y2="289.9014"/><line style="stroke:#181818;stroke-width:1.0;" x1="2243.7441" x2="2243.7441" y1="289.9014" y2="321.9014"/><polygon fill="#181818" points="2239.7441,311.9014,2243.7441,321.9014,2247.7441,311.9014,2243.7441,315.9014" style="stroke:#181818;stroke-width:1.0;"/><text fill="#000000" font-family="sans-serif" font-size="18" lengthAdjust="spacing" textLength="57.6826" x="134.4507" y="66.75">Admin</text><text fill="#000000" font-family="sans-serif" font-size="18" lengthAdjust="spacing" textLength="67.1221" x="1171.6089" y="66.75">System</text><text fill="#000000" font-family="sans-serif" font-size="18" lengthAdjust="spacing" textLength="85.8867" x="2199.8008" y="66.75">Database</text><!--SRC=[VL9DQzj04BthLpnoaY-1VgGDog44V2cKaCOGo74iZ-M1rQxO7Ta8_ECxkxATDaqhn1uqRzxNIaKTutxJYyUpy04h9HqJddW8KN7Vgkn59oo5kaXzLHqBzbWbfQXLyoDq47zNDIjst2hImArifSM6bA41-qoQPj8uazOV5dT6j9gISd-iccToKk3bI8L8WaVzCUDaYtgP1vAmpyXl2-YERVp2QL71dcOfQN0qWMCC4JsdH1qtkFhkoyORuciyEgPq_WB2A-hw2lMjoRApUVqG5cRKr6bj-AE9DJz7ZjCva6qGjYPfXaviV5AhFncBuPzOn-WjUXgTva9IYOtwSvdRUoa2E6Kbq9x4qThnts4lc3RqWsDz1_9R8tysdwsISpXGv5qO4oVKDyK7y9hulnG7qLtUz-8xQtWLUfvhwANRATPsJ_xix5IDvAActEoNivRVoBPwg_dFQtm8iyIbbVSxpmfVYyBCFv_sfuRX5m00]--></g></svg>