<svg xmlns="http://www.w3.org/2000/svg" xmlns:xlink="http://www.w3.org/1999/xlink" contentStyleType="text/css" height="881px" preserveAspectRatio="none" style="width:1504px;height:881px;background:#FFFFFF;" version="1.1" viewBox="0 0 1504 881" width="1504px" zoomAndPan="magnify"><defs/><g><rect fill="none" height="20.9531" style="stroke:none;stroke-width:1.0;" width="1471.5498" x="15" y="12.7451"/><ellipse cx="140.7256" cy="48.6982" fill="#222222" rx="10" ry="10" style="stroke:#222222;stroke-width:1.0;"/><rect fill="#F1F1F1" height="33.9688" rx="12.5" ry="12.5" style="stroke:#181818;stroke-width:0.5;" width="159.9629" x="60.7441" y="78.6982"/><text fill="#000000" font-family="sans-serif" font-size="12" lengthAdjust="spacing" textLength="139.9629" x="70.7441" y="99.8369">Login to the system (1)</text><rect fill="#F1F1F1" height="33.9688" rx="12.5" ry="12.5" style="stroke:#181818;stroke-width:0.5;" width="239.4512" x="21" y="132.667"/><text fill="#000000" font-family="sans-serif" font-size="12" lengthAdjust="spacing" textLength="219.4512" x="31" y="153.8057">Select "Asset Inventory" function (2)</text><rect fill="#F1F1F1" height="33.9688" rx="12.5" ry="12.5" style="stroke:#181818;stroke-width:0.5;" width="324.5645" x="176.3491" y="739.2529"/><text fill="#000000" font-family="sans-serif" font-size="12" lengthAdjust="spacing" textLength="304.5645" x="186.3491" y="760.3916">Review and make notes on incorrect quantities (6)</text><rect fill="#F1F1F1" height="33.9688" rx="12.5" ry="12.5" style="stroke:#181818;stroke-width:0.5;" width="243.084" x="217.0894" y="793.2217"/><text fill="#000000" font-family="sans-serif" font-size="12" lengthAdjust="spacing" textLength="223.084" x="227.0894" y="814.3604">Provide reasons for discrepancies (7)</text><ellipse cx="140.7256" cy="858.1904" fill="none" rx="11" ry="11" style="stroke:#222222;stroke-width:1.0;"/><ellipse cx="140.7256" cy="858.1904" fill="#222222" rx="6" ry="6" style="stroke:#222222;stroke-width:1.0;"/><line style="stroke:#000000;stroke-width:1.5;" x1="15" x2="15" y1="12.7451" y2="869.1904"/><rect fill="#F1F1F1" height="33.9688" rx="12.5" ry="12.5" style="stroke:#181818;stroke-width:0.5;" width="253.0684" x="753.7988" y="186.6357"/><text fill="#000000" font-family="sans-serif" font-size="12" lengthAdjust="spacing" textLength="233.0684" x="763.7988" y="207.7744">Navigate to "Asset Inventory" page (3)</text><rect fill="#F1F1F1" height="33.9688" rx="12.5" ry="12.5" style="stroke:#181818;stroke-width:0.5;" width="183.1426" x="788.7617" y="240.6045"/><text fill="#000000" font-family="sans-serif" font-size="12" lengthAdjust="spacing" textLength="163.1426" x="798.7617" y="261.7432">Retrieve inventory data (4)</text><polygon fill="#F1F1F1" points="775.1589,348.542,985.5071,348.542,997.5071,360.542,985.5071,372.542,775.1589,372.542,763.1589,360.542,775.1589,348.542" style="stroke:#181818;stroke-width:0.5;"/><text fill="#000000" font-family="sans-serif" font-size="11" lengthAdjust="spacing" textLength="210.3481" x="775.1589" y="364.3501">Inventory data retrieved successfully?</text><text fill="#000000" font-family="sans-serif" font-size="11" lengthAdjust="spacing" textLength="13.7017" x="749.4573" y="357.9478">no</text><text fill="#000000" font-family="sans-serif" font-size="11" lengthAdjust="spacing" textLength="19.0083" x="997.5071" y="357.9478">yes</text><rect fill="#F1F1F1" height="33.9688" rx="12.5" ry="12.5" style="stroke:#181818;stroke-width:0.5;" width="343.0273" x="510.9136" y="392.542"/><text fill="#000000" font-family="sans-serif" font-size="12" lengthAdjust="spacing" textLength="323.0273" x="520.9136" y="413.6807">Display error "Failed to retrieve inventory data." (4.1)</text><ellipse cx="682.4272" cy="457.5107" fill="none" rx="11" ry="11" style="stroke:#222222;stroke-width:1.0;"/><ellipse cx="682.4272" cy="457.5107" fill="#222222" rx="6" ry="6" style="stroke:#222222;stroke-width:1.0;"/><rect fill="#F1F1F1" height="33.9688" rx="12.5" ry="12.5" style="stroke:#181818;stroke-width:0.5;" width="249.752" x="953.3628" y="392.542"/><text fill="#000000" font-family="sans-serif" font-size="12" lengthAdjust="spacing" textLength="229.752" x="963.3628" y="413.6807">Display asset inventory checklist (5.1)</text><rect fill="#F1F1F1" height="33.9688" rx="12.5" ry="12.5" style="stroke:#181818;stroke-width:0.5;" width="378.5996" x="888.939" y="494.9131"/><text fill="#000000" font-family="sans-serif" font-size="12" lengthAdjust="spacing" textLength="358.5996" x="898.939" y="516.0518">Display warning "The inventory checklist is outdated." (5.2)</text><polygon fill="#F1F1F1" points="961.3396,446.5107,1195.1379,446.5107,1207.1379,458.5107,1195.1379,470.5107,961.3396,470.5107,949.3396,458.5107,961.3396,446.5107" style="stroke:#181818;stroke-width:0.5;"/><text fill="#000000" font-family="sans-serif" font-size="11" lengthAdjust="spacing" textLength="19.0083" x="1082.2388" y="480.7212">yes</text><text fill="#000000" font-family="sans-serif" font-size="11" lengthAdjust="spacing" textLength="233.7983" x="961.3396" y="462.3188">Checklist outdated by more than 30 days?</text><polygon fill="#F1F1F1" points="1078.2388,548.8818,1090.2388,560.8818,1078.2388,572.8818,1066.2388,560.8818,1078.2388,548.8818" style="stroke:#181818;stroke-width:0.5;"/><rect fill="#F1F1F1" height="33.9688" rx="12.5" ry="12.5" style="stroke:#181818;stroke-width:0.5;" width="388.5957" x="883.9409" y="641.2842"/><text fill="#000000" font-family="sans-serif" font-size="12" lengthAdjust="spacing" textLength="368.5957" x="893.9409" y="662.4229">Display notification "Warning: Missing assets detected." (5.3)</text><polygon fill="#F1F1F1" points="963.0396,592.8818,1193.438,592.8818,1205.438,604.8818,1193.438,616.8818,963.0396,616.8818,951.0396,604.8818,963.0396,592.8818" style="stroke:#181818;stroke-width:0.5;"/><text fill="#000000" font-family="sans-serif" font-size="11" lengthAdjust="spacing" textLength="19.0083" x="1082.2388" y="627.0923">yes</text><text fill="#000000" font-family="sans-serif" font-size="11" lengthAdjust="spacing" textLength="230.3984" x="963.0396" y="608.6899">Any missing assets from previous month?</text><polygon fill="#F1F1F1" points="1078.2388,695.2529,1090.2388,707.2529,1078.2388,719.2529,1066.2388,707.2529,1078.2388,695.2529" style="stroke:#181818;stroke-width:0.5;"/><line style="stroke:#000000;stroke-width:1.5;" x1="504.9136" x2="504.9136" y1="12.7451" y2="869.1904"/><rect fill="#F1F1F1" height="33.9688" rx="12.5" ry="12.5" style="stroke:#181818;stroke-width:0.5;" width="173.1523" x="1307.5366" y="294.5732"/><text fill="#000000" font-family="sans-serif" font-size="12" lengthAdjust="spacing" textLength="153.1523" x="1317.5366" y="315.7119">Return inventory data (5)</text><line style="stroke:#000000;stroke-width:1.5;" x1="1301.5366" x2="1301.5366" y1="12.7451" y2="869.1904"/><line style="stroke:#000000;stroke-width:1.5;" x1="1484.689" x2="1484.689" y1="12.7451" y2="869.1904"/><line style="stroke:#181818;stroke-width:1.0;" x1="140.7256" x2="140.7256" y1="58.6982" y2="78.6982"/><polygon fill="#181818" points="136.7256,68.6982,140.7256,78.6982,144.7256,68.6982,140.7256,72.6982" style="stroke:#181818;stroke-width:1.0;"/><line style="stroke:#181818;stroke-width:1.0;" x1="140.7256" x2="140.7256" y1="112.667" y2="132.667"/><polygon fill="#181818" points="136.7256,122.667,140.7256,132.667,144.7256,122.667,140.7256,126.667" style="stroke:#181818;stroke-width:1.0;"/><line style="stroke:#181818;stroke-width:1.0;" x1="338.6313" x2="338.6313" y1="773.2217" y2="793.2217"/><polygon fill="#181818" points="334.6313,783.2217,338.6313,793.2217,342.6313,783.2217,338.6313,787.2217" style="stroke:#181818;stroke-width:1.0;"/><line style="stroke:#181818;stroke-width:1.0;" x1="880.333" x2="880.333" y1="220.6045" y2="240.6045"/><polygon fill="#181818" points="876.333,230.6045,880.333,240.6045,884.333,230.6045,880.333,234.6045" style="stroke:#181818;stroke-width:1.0;"/><line style="stroke:#181818;stroke-width:1.0;" x1="682.4272" x2="682.4272" y1="426.5107" y2="446.5107"/><polygon fill="#181818" points="678.4272,436.5107,682.4272,446.5107,686.4272,436.5107,682.4272,440.5107" style="stroke:#181818;stroke-width:1.0;"/><line style="stroke:#181818;stroke-width:1.0;" x1="1078.2388" x2="1078.2388" y1="470.5107" y2="494.9131"/><polygon fill="#181818" points="1074.2388,484.9131,1078.2388,494.9131,1082.2388,484.9131,1078.2388,488.9131" style="stroke:#181818;stroke-width:1.0;"/><line style="stroke:#181818;stroke-width:1.0;" x1="1207.1379" x2="1277.5386" y1="458.5107" y2="458.5107"/><polygon fill="#181818" points="1273.5386,501.8975,1277.5386,511.8975,1281.5386,501.8975,1277.5386,505.8975" style="stroke:#181818;stroke-width:1.0;"/><line style="stroke:#181818;stroke-width:1.0;" x1="1277.5386" x2="1277.5386" y1="458.5107" y2="560.8818"/><line style="stroke:#181818;stroke-width:1.0;" x1="1277.5386" x2="1090.2388" y1="560.8818" y2="560.8818"/><polygon fill="#181818" points="1100.2388,556.8818,1090.2388,560.8818,1100.2388,564.8818,1096.2388,560.8818" style="stroke:#181818;stroke-width:1.0;"/><line style="stroke:#181818;stroke-width:1.0;" x1="1078.2388" x2="1078.2388" y1="528.8818" y2="548.8818"/><polygon fill="#181818" points="1074.2388,538.8818,1078.2388,548.8818,1082.2388,538.8818,1078.2388,542.8818" style="stroke:#181818;stroke-width:1.0;"/><line style="stroke:#181818;stroke-width:1.0;" x1="1078.2388" x2="1078.2388" y1="426.5107" y2="446.5107"/><polygon fill="#181818" points="1074.2388,436.5107,1078.2388,446.5107,1082.2388,436.5107,1078.2388,440.5107" style="stroke:#181818;stroke-width:1.0;"/><line style="stroke:#181818;stroke-width:1.0;" x1="1078.2388" x2="1078.2388" y1="616.8818" y2="641.2842"/><polygon fill="#181818" points="1074.2388,631.2842,1078.2388,641.2842,1082.2388,631.2842,1078.2388,635.2842" style="stroke:#181818;stroke-width:1.0;"/><line style="stroke:#181818;stroke-width:1.0;" x1="1205.438" x2="1282.5366" y1="604.8818" y2="604.8818"/><polygon fill="#181818" points="1278.5366,648.2686,1282.5366,658.2686,1286.5366,648.2686,1282.5366,652.2686" style="stroke:#181818;stroke-width:1.0;"/><line style="stroke:#181818;stroke-width:1.0;" x1="1282.5366" x2="1282.5366" y1="604.8818" y2="707.2529"/><line style="stroke:#181818;stroke-width:1.0;" x1="1282.5366" x2="1090.2388" y1="707.2529" y2="707.2529"/><polygon fill="#181818" points="1100.2388,703.2529,1090.2388,707.2529,1100.2388,711.2529,1096.2388,707.2529" style="stroke:#181818;stroke-width:1.0;"/><line style="stroke:#181818;stroke-width:1.0;" x1="1078.2388" x2="1078.2388" y1="675.2529" y2="695.2529"/><polygon fill="#181818" points="1074.2388,685.2529,1078.2388,695.2529,1082.2388,685.2529,1078.2388,689.2529" style="stroke:#181818;stroke-width:1.0;"/><line style="stroke:#181818;stroke-width:1.0;" x1="1078.2388" x2="1078.2388" y1="572.8818" y2="592.8818"/><polygon fill="#181818" points="1074.2388,582.8818,1078.2388,592.8818,1082.2388,582.8818,1078.2388,586.8818" style="stroke:#181818;stroke-width:1.0;"/><line style="stroke:#181818;stroke-width:1.0;" x1="763.1589" x2="682.4272" y1="360.542" y2="360.542"/><line style="stroke:#181818;stroke-width:1.0;" x1="682.4272" x2="682.4272" y1="360.542" y2="392.542"/><polygon fill="#181818" points="678.4272,382.542,682.4272,392.542,686.4272,382.542,682.4272,386.542" style="stroke:#181818;stroke-width:1.0;"/><line style="stroke:#181818;stroke-width:1.0;" x1="997.5071" x2="1078.2388" y1="360.542" y2="360.542"/><line style="stroke:#181818;stroke-width:1.0;" x1="1078.2388" x2="1078.2388" y1="360.542" y2="392.542"/><polygon fill="#181818" points="1074.2388,382.542,1078.2388,392.542,1082.2388,382.542,1078.2388,386.542" style="stroke:#181818;stroke-width:1.0;"/><line style="stroke:#181818;stroke-width:1.0;" x1="140.7256" x2="140.7256" y1="166.6357" y2="171.6357"/><line style="stroke:#181818;stroke-width:1.0;" x1="140.7256" x2="880.333" y1="171.6357" y2="171.6357"/><line style="stroke:#181818;stroke-width:1.0;" x1="880.333" x2="880.333" y1="171.6357" y2="186.6357"/><polygon fill="#181818" points="876.333,176.6357,880.333,186.6357,884.333,176.6357,880.333,180.6357" style="stroke:#181818;stroke-width:1.0;"/><line style="stroke:#181818;stroke-width:1.0;" x1="880.333" x2="880.333" y1="274.5732" y2="279.5732"/><line style="stroke:#181818;stroke-width:1.0;" x1="880.333" x2="1394.1128" y1="279.5732" y2="279.5732"/><line style="stroke:#181818;stroke-width:1.0;" x1="1394.1128" x2="1394.1128" y1="279.5732" y2="294.5732"/><polygon fill="#181818" points="1390.1128,284.5732,1394.1128,294.5732,1398.1128,284.5732,1394.1128,288.5732" style="stroke:#181818;stroke-width:1.0;"/><line style="stroke:#181818;stroke-width:1.0;" x1="1078.2388" x2="1078.2388" y1="719.2529" y2="724.2529"/><line style="stroke:#181818;stroke-width:1.0;" x1="1078.2388" x2="338.6313" y1="724.2529" y2="724.2529"/><line style="stroke:#181818;stroke-width:1.0;" x1="338.6313" x2="338.6313" y1="724.2529" y2="739.2529"/><polygon fill="#181818" points="334.6313,729.2529,338.6313,739.2529,342.6313,729.2529,338.6313,733.2529" style="stroke:#181818;stroke-width:1.0;"/><line style="stroke:#181818;stroke-width:1.0;" x1="338.6313" x2="338.6313" y1="827.1904" y2="832.1904"/><line style="stroke:#181818;stroke-width:1.0;" x1="338.6313" x2="140.7256" y1="832.1904" y2="832.1904"/><line style="stroke:#181818;stroke-width:1.0;" x1="140.7256" x2="140.7256" y1="832.1904" y2="847.1904"/><polygon fill="#181818" points="136.7256,837.1904,140.7256,847.1904,144.7256,837.1904,140.7256,841.1904" style="stroke:#181818;stroke-width:1.0;"/><line style="stroke:#181818;stroke-width:1.0;" x1="1394.1128" x2="1394.1128" y1="328.542" y2="333.542"/><line style="stroke:#181818;stroke-width:1.0;" x1="1394.1128" x2="880.333" y1="333.542" y2="333.542"/><line style="stroke:#181818;stroke-width:1.0;" x1="880.333" x2="880.333" y1="333.542" y2="348.542"/><polygon fill="#181818" points="876.333,338.542,880.333,348.542,884.333,338.542,880.333,342.542" style="stroke:#181818;stroke-width:1.0;"/><text fill="#000000" font-family="sans-serif" font-size="18" lengthAdjust="spacing" textLength="186.2051" x="166.8542" y="29.4531">Warehouse Manager</text><text fill="#000000" font-family="sans-serif" font-size="18" lengthAdjust="spacing" textLength="67.1221" x="869.6641" y="29.4531">System</text><text fill="#000000" font-family="sans-serif" font-size="18" lengthAdjust="spacing" textLength="85.8867" x="1350.1694" y="29.4531">Database</text><!--SRC=[VP9FQzj04CNl-XI3JlB5j77JWdee8I4GQ4f92ZbFLYDhYBohxemS1FhmdTtQRaHCRs8rxxtV_9cVC58NHY6uHuzRYdCXYb6B-dlOiWSDe1s1JAAqW-hZwcjHr8_KarCehqH8uSxloMk8Kmdjw9roy51TfCBvCSlcelw1UzwYKl9xBnii6AgDIUe7qiYq9-3ZRsXG4QfFsV36lfzHQCwLO_JlwYuNmTn2TRUiY8U41cHqZaJQiU-dRwlKfu7xi2e0wXkMeSS9ACOGeRn5xarXzF4yuBeqn7KQ3u1e60hgRQRLHBAmmzpwFwdhoBtqB6hWMMt5YVdwz1v6DN_BVfvW5w9Di4CFcm-MEic9-f3p9kaLesU_XV9NHsS3MKxU2VvoVP7XoJVS7Z6kl8MoI3BAw09j33iO8ktPhiQ8l7R_eV11kMM7-IZAfxzCDTmlFHjIkwSZnsR9CPyvKKjuC09w1VGDxF25KX9PH-aWN8WntUVl4RsoihrNdxDf_JE6FJTaMqG9thgnvJOiBjA0tkNABsaBX_IqoJy0]--></g></svg>