<svg xmlns="http://www.w3.org/2000/svg" xmlns:xlink="http://www.w3.org/1999/xlink" contentStyleType="text/css" height="837px" preserveAspectRatio="none" style="width:2050px;height:837px;background:#FFFFFF;" version="1.1" viewBox="0 0 2050 837" width="2050px" zoomAndPan="magnify"><defs/><g><rect fill="none" height="20.9531" style="stroke:none;stroke-width:1.0;" width="2017.7308" x="15" y="12.7451"/><ellipse cx="180.2412" cy="48.6982" fill="#222222" rx="10" ry="10" style="stroke:#222222;stroke-width:1.0;"/><rect fill="#F1F1F1" height="33.9688" rx="12.5" ry="12.5" style="stroke:#181818;stroke-width:0.5;" width="159.9629" x="100.2598" y="78.6982"/><text fill="#000000" font-family="sans-serif" font-size="12" lengthAdjust="spacing" textLength="139.9629" x="110.2598" y="99.8369">Login to the system (1)</text><rect fill="#F1F1F1" height="33.9688" rx="12.5" ry="12.5" style="stroke:#181818;stroke-width:0.5;" width="264.4824" x="48" y="132.667"/><text fill="#000000" font-family="sans-serif" font-size="12" lengthAdjust="spacing" textLength="244.4824" x="58" y="153.8057">Navigate to "My Product List" section (3)</text><rect fill="#F1F1F1" height="33.9688" rx="12.5" ry="12.5" style="stroke:#181818;stroke-width:0.5;" width="243.5117" x="174.2921" y="484.9443"/><text fill="#000000" font-family="sans-serif" font-size="12" lengthAdjust="spacing" textLength="223.5117" x="184.2921" y="506.083">Enter product name in search bar (7)</text><polygon fill="#F1F1F1" points="188.2904,436.542,403.8055,436.542,415.8055,448.542,403.8055,460.542,188.2904,460.542,176.2904,448.542,188.2904,436.542" style="stroke:#181818;stroke-width:0.5;"/><text fill="#000000" font-family="sans-serif" font-size="11" lengthAdjust="spacing" textLength="19.0083" x="300.048" y="470.7524">yes</text><text fill="#000000" font-family="sans-serif" font-size="11" lengthAdjust="spacing" textLength="215.5151" x="188.2904" y="452.3501">Search for a specific product by name?</text><polygon fill="#F1F1F1" points="296.048,725.8506,308.048,737.8506,296.048,749.8506,284.048,737.8506,296.048,725.8506" style="stroke:#181818;stroke-width:0.5;"/><line style="stroke:#000000;stroke-width:1.5;" x1="15" x2="15" y1="12.7451" y2="825.8506"/><polygon fill="#F1F1F1" points="954.2822,186.6357,1063.7397,186.6357,1075.7397,198.6357,1063.7397,210.6357,954.2822,210.6357,942.2822,198.6357,954.2822,186.6357" style="stroke:#181818;stroke-width:0.5;"/><text fill="#000000" font-family="sans-serif" font-size="11" lengthAdjust="spacing" textLength="109.4575" x="954.2822" y="202.4438">Is warehouse open?</text><text fill="#000000" font-family="sans-serif" font-size="11" lengthAdjust="spacing" textLength="13.7017" x="928.5806" y="196.0415">no</text><text fill="#000000" font-family="sans-serif" font-size="11" lengthAdjust="spacing" textLength="19.0083" x="1075.7397" y="196.0415">yes</text><rect fill="#F1F1F1" height="33.9688" rx="12.5" ry="12.5" style="stroke:#181818;stroke-width:0.5;" width="413.3574" x="436.8055" y="230.6357"/><text fill="#000000" font-family="sans-serif" font-size="12" lengthAdjust="spacing" textLength="393.3574" x="446.8055" y="251.7744">Display error "Cannot view products in a closed warehouse" (3.1)</text><ellipse cx="643.4843" cy="295.6045" fill="none" rx="11" ry="11" style="stroke:#222222;stroke-width:1.0;"/><ellipse cx="643.4843" cy="295.6045" fill="#222222" rx="6" ry="6" style="stroke:#222222;stroke-width:1.0;"/><rect fill="#F1F1F1" height="33.9688" rx="12.5" ry="12.5" style="stroke:#181818;stroke-width:0.5;" width="259.3496" x="1284.8629" y="230.6357"/><text fill="#000000" font-family="sans-serif" font-size="12" lengthAdjust="spacing" textLength="239.3496" x="1294.8629" y="251.7744">Query all products in the warehouse (4)</text><polygon fill="#F1F1F1" points="1314.5333,338.5732,1514.5421,338.5732,1526.5421,350.5732,1514.5421,362.5732,1314.5333,362.5732,1302.5333,350.5732,1314.5333,338.5732" style="stroke:#181818;stroke-width:0.5;"/><text fill="#000000" font-family="sans-serif" font-size="11" lengthAdjust="spacing" textLength="200.0088" x="1314.5333" y="354.3813">Product data retrieved successfully?</text><text fill="#000000" font-family="sans-serif" font-size="11" lengthAdjust="spacing" textLength="19.0083" x="1283.525" y="347.979">yes</text><text fill="#000000" font-family="sans-serif" font-size="11" lengthAdjust="spacing" textLength="13.7017" x="1526.5421" y="347.979">no</text><rect fill="#F1F1F1" height="33.9688" rx="12.5" ry="12.5" style="stroke:#181818;stroke-width:0.5;" width="156.7168" x="1046.4594" y="382.5732"/><text fill="#000000" font-family="sans-serif" font-size="12" lengthAdjust="spacing" textLength="136.7168" x="1056.4594" y="403.7119">Display product list (6)</text><rect fill="#F1F1F1" height="33.9688" rx="12.5" ry="12.5" style="stroke:#181818;stroke-width:0.5;" width="261.0254" x="994.3051" y="538.9131"/><text fill="#000000" font-family="sans-serif" font-size="12" lengthAdjust="spacing" textLength="241.0254" x="1004.3051" y="560.0518">Filter and display matching products (8)</text><polygon fill="#F1F1F1" points="1035.4508,607.8818,1214.1847,607.8818,1226.1847,619.8818,1214.1847,631.8818,1035.4508,631.8818,1023.4508,619.8818,1035.4508,607.8818" style="stroke:#181818;stroke-width:0.5;"/><text fill="#000000" font-family="sans-serif" font-size="11" lengthAdjust="spacing" textLength="178.7339" x="1035.4508" y="623.6899">Any products match the search?</text><text fill="#000000" font-family="sans-serif" font-size="11" lengthAdjust="spacing" textLength="19.0083" x="1004.4425" y="617.2876">yes</text><text fill="#000000" font-family="sans-serif" font-size="11" lengthAdjust="spacing" textLength="13.7017" x="1226.1847" y="617.2876">no</text><rect fill="#F1F1F1" height="33.9688" rx="12.5" ry="12.5" style="stroke:#181818;stroke-width:0.5;" width="203.041" x="860.163" y="641.8818"/><text fill="#000000" font-family="sans-serif" font-size="12" lengthAdjust="spacing" textLength="183.041" x="870.163" y="663.0205">Show filtered product list (8.1)</text><rect fill="#F1F1F1" height="33.9688" rx="12.5" ry="12.5" style="stroke:#181818;stroke-width:0.5;" width="409.4961" x="1083.204" y="641.8818"/><text fill="#000000" font-family="sans-serif" font-size="12" lengthAdjust="spacing" textLength="389.4961" x="1093.204" y="663.0205">Display warning "No products found matching your search" (8.2)</text><polygon fill="#F1F1F1" points="1124.8177,681.8506,1136.8177,693.8506,1124.8177,705.8506,1112.8177,693.8506,1124.8177,681.8506" style="stroke:#181818;stroke-width:0.5;"/><rect fill="#F1F1F1" height="33.9688" rx="12.5" ry="12.5" style="stroke:#181818;stroke-width:0.5;" width="319.1152" x="1544.7001" y="382.5732"/><text fill="#000000" font-family="sans-serif" font-size="12" lengthAdjust="spacing" textLength="299.1152" x="1554.7001" y="403.7119">Display error "Failed to retrieve product list" (6.1)</text><polygon fill="#F1F1F1" points="1414.5377,759.8506,1426.5377,771.8506,1414.5377,783.8506,1402.5377,771.8506,1414.5377,759.8506" style="stroke:#181818;stroke-width:0.5;"/><ellipse cx="1009.011" cy="814.8506" fill="none" rx="11" ry="11" style="stroke:#222222;stroke-width:1.0;"/><ellipse cx="1009.011" cy="814.8506" fill="#222222" rx="6" ry="6" style="stroke:#222222;stroke-width:1.0;"/><line style="stroke:#000000;stroke-width:1.5;" x1="430.8055" x2="430.8055" y1="12.7451" y2="825.8506"/><rect fill="#F1F1F1" height="33.9688" rx="12.5" ry="12.5" style="stroke:#181818;stroke-width:0.5;" width="153.0547" x="1873.8153" y="284.6045"/><text fill="#000000" font-family="sans-serif" font-size="12" lengthAdjust="spacing" textLength="133.0547" x="1883.8153" y="305.7432">Return product list (5)</text><line style="stroke:#000000;stroke-width:1.5;" x1="1867.8153" x2="1867.8153" y1="12.7451" y2="825.8506"/><line style="stroke:#000000;stroke-width:1.5;" x1="2030.87" x2="2030.87" y1="12.7451" y2="825.8506"/><line style="stroke:#181818;stroke-width:1.0;" x1="180.2412" x2="180.2412" y1="58.6982" y2="78.6982"/><polygon fill="#181818" points="176.2412,68.6982,180.2412,78.6982,184.2412,68.6982,180.2412,72.6982" style="stroke:#181818;stroke-width:1.0;"/><line style="stroke:#181818;stroke-width:1.0;" x1="180.2412" x2="180.2412" y1="112.667" y2="132.667"/><polygon fill="#181818" points="176.2412,122.667,180.2412,132.667,184.2412,122.667,180.2412,126.667" style="stroke:#181818;stroke-width:1.0;"/><line style="stroke:#181818;stroke-width:1.0;" x1="296.048" x2="296.048" y1="460.542" y2="484.9443"/><polygon fill="#181818" points="292.048,474.9443,296.048,484.9443,300.048,474.9443,296.048,478.9443" style="stroke:#181818;stroke-width:1.0;"/><line style="stroke:#181818;stroke-width:1.0;" x1="176.2904" x2="34" y1="448.542" y2="448.542"/><polygon fill="#181818" points="30,577.8975,34,587.8975,38,577.8975,34,581.8975" style="stroke:#181818;stroke-width:1.0;"/><line style="stroke:#181818;stroke-width:1.0;" x1="34" x2="34" y1="448.542" y2="737.8506"/><line style="stroke:#181818;stroke-width:1.0;" x1="34" x2="284.048" y1="737.8506" y2="737.8506"/><polygon fill="#181818" points="274.048,733.8506,284.048,737.8506,274.048,741.8506,278.048,737.8506" style="stroke:#181818;stroke-width:1.0;"/><line style="stroke:#181818;stroke-width:1.0;" x1="643.4843" x2="643.4843" y1="264.6045" y2="284.6045"/><polygon fill="#181818" points="639.4843,274.6045,643.4843,284.6045,647.4843,274.6045,643.4843,278.6045" style="stroke:#181818;stroke-width:1.0;"/><line style="stroke:#181818;stroke-width:1.0;" x1="1023.4508" x2="961.6835" y1="619.8818" y2="619.8818"/><line style="stroke:#181818;stroke-width:1.0;" x1="961.6835" x2="961.6835" y1="619.8818" y2="641.8818"/><polygon fill="#181818" points="957.6835,631.8818,961.6835,641.8818,965.6835,631.8818,961.6835,635.8818" style="stroke:#181818;stroke-width:1.0;"/><line style="stroke:#181818;stroke-width:1.0;" x1="1226.1847" x2="1287.952" y1="619.8818" y2="619.8818"/><line style="stroke:#181818;stroke-width:1.0;" x1="1287.952" x2="1287.952" y1="619.8818" y2="641.8818"/><polygon fill="#181818" points="1283.952,631.8818,1287.952,641.8818,1291.952,631.8818,1287.952,635.8818" style="stroke:#181818;stroke-width:1.0;"/><line style="stroke:#181818;stroke-width:1.0;" x1="961.6835" x2="961.6835" y1="675.8506" y2="693.8506"/><line style="stroke:#181818;stroke-width:1.0;" x1="961.6835" x2="1112.8177" y1="693.8506" y2="693.8506"/><polygon fill="#181818" points="1102.8177,689.8506,1112.8177,693.8506,1102.8177,697.8506,1106.8177,693.8506" style="stroke:#181818;stroke-width:1.0;"/><line style="stroke:#181818;stroke-width:1.0;" x1="1287.952" x2="1287.952" y1="675.8506" y2="693.8506"/><line style="stroke:#181818;stroke-width:1.0;" x1="1287.952" x2="1136.8177" y1="693.8506" y2="693.8506"/><polygon fill="#181818" points="1146.8177,689.8506,1136.8177,693.8506,1146.8177,697.8506,1142.8177,693.8506" style="stroke:#181818;stroke-width:1.0;"/><line style="stroke:#181818;stroke-width:1.0;" x1="1124.8177" x2="1124.8177" y1="572.8818" y2="607.8818"/><polygon fill="#181818" points="1120.8177,597.8818,1124.8177,607.8818,1128.8177,597.8818,1124.8177,601.8818" style="stroke:#181818;stroke-width:1.0;"/><line style="stroke:#181818;stroke-width:1.0;" x1="1302.5333" x2="1124.8177" y1="350.5732" y2="350.5732"/><line style="stroke:#181818;stroke-width:1.0;" x1="1124.8177" x2="1124.8177" y1="350.5732" y2="382.5732"/><polygon fill="#181818" points="1120.8177,372.5732,1124.8177,382.5732,1128.8177,372.5732,1124.8177,376.5732" style="stroke:#181818;stroke-width:1.0;"/><line style="stroke:#181818;stroke-width:1.0;" x1="1526.5421" x2="1704.2577" y1="350.5732" y2="350.5732"/><line style="stroke:#181818;stroke-width:1.0;" x1="1704.2577" x2="1704.2577" y1="350.5732" y2="382.5732"/><polygon fill="#181818" points="1700.2577,372.5732,1704.2577,382.5732,1708.2577,372.5732,1704.2577,376.5732" style="stroke:#181818;stroke-width:1.0;"/><line style="stroke:#181818;stroke-width:1.0;" x1="1704.2577" x2="1704.2577" y1="416.542" y2="771.8506"/><line style="stroke:#181818;stroke-width:1.0;" x1="1704.2577" x2="1426.5377" y1="771.8506" y2="771.8506"/><polygon fill="#181818" points="1436.5377,767.8506,1426.5377,771.8506,1436.5377,775.8506,1432.5377,771.8506" style="stroke:#181818;stroke-width:1.0;"/><line style="stroke:#181818;stroke-width:1.0;" x1="942.2822" x2="643.4843" y1="198.6357" y2="198.6357"/><line style="stroke:#181818;stroke-width:1.0;" x1="643.4843" x2="643.4843" y1="198.6357" y2="230.6357"/><polygon fill="#181818" points="639.4843,220.6357,643.4843,230.6357,647.4843,220.6357,643.4843,224.6357" style="stroke:#181818;stroke-width:1.0;"/><line style="stroke:#181818;stroke-width:1.0;" x1="1075.7397" x2="1414.5377" y1="198.6357" y2="198.6357"/><line style="stroke:#181818;stroke-width:1.0;" x1="1414.5377" x2="1414.5377" y1="198.6357" y2="230.6357"/><polygon fill="#181818" points="1410.5377,220.6357,1414.5377,230.6357,1418.5377,220.6357,1414.5377,224.6357" style="stroke:#181818;stroke-width:1.0;"/><line style="stroke:#181818;stroke-width:1.0;" x1="1414.5377" x2="1414.5377" y1="783.8506" y2="788.8506"/><line style="stroke:#181818;stroke-width:1.0;" x1="1414.5377" x2="1009.011" y1="788.8506" y2="788.8506"/><line style="stroke:#181818;stroke-width:1.0;" x1="1009.011" x2="1009.011" y1="788.8506" y2="803.8506"/><polygon fill="#181818" points="1005.011,793.8506,1009.011,803.8506,1013.011,793.8506,1009.011,797.8506" style="stroke:#181818;stroke-width:1.0;"/><line style="stroke:#181818;stroke-width:1.0;" x1="1414.5377" x2="1414.5377" y1="264.6045" y2="269.6045"/><line style="stroke:#181818;stroke-width:1.0;" x1="1414.5377" x2="1950.3427" y1="269.6045" y2="269.6045"/><line style="stroke:#181818;stroke-width:1.0;" x1="1950.3427" x2="1950.3427" y1="269.6045" y2="284.6045"/><polygon fill="#181818" points="1946.3427,274.6045,1950.3427,284.6045,1954.3427,274.6045,1950.3427,278.6045" style="stroke:#181818;stroke-width:1.0;"/><line style="stroke:#181818;stroke-width:1.0;" x1="296.048" x2="296.048" y1="518.9131" y2="523.9131"/><line style="stroke:#181818;stroke-width:1.0;" x1="296.048" x2="1124.8177" y1="523.9131" y2="523.9131"/><line style="stroke:#181818;stroke-width:1.0;" x1="1124.8177" x2="1124.8177" y1="523.9131" y2="538.9131"/><polygon fill="#181818" points="1120.8177,528.9131,1124.8177,538.9131,1128.8177,528.9131,1124.8177,532.9131" style="stroke:#181818;stroke-width:1.0;"/><line style="stroke:#181818;stroke-width:1.0;" x1="1124.8177" x2="1124.8177" y1="705.8506" y2="713.6494"/><line style="stroke:#181818;stroke-width:1.0;" x1="1124.8177" x2="296.048" y1="713.6494" y2="713.6494"/><line style="stroke:#181818;stroke-width:1.0;" x1="296.048" x2="296.048" y1="713.6494" y2="725.8506"/><polygon fill="#181818" points="292.048,715.8506,296.048,725.8506,300.048,715.8506,296.048,719.8506" style="stroke:#181818;stroke-width:1.0;"/><line style="stroke:#181818;stroke-width:1.0;" x1="1124.8177" x2="1124.8177" y1="416.542" y2="421.542"/><line style="stroke:#181818;stroke-width:1.0;" x1="1124.8177" x2="296.048" y1="421.542" y2="421.542"/><line style="stroke:#181818;stroke-width:1.0;" x1="296.048" x2="296.048" y1="421.542" y2="436.542"/><polygon fill="#181818" points="292.048,426.542,296.048,436.542,300.048,426.542,296.048,430.542" style="stroke:#181818;stroke-width:1.0;"/><line style="stroke:#181818;stroke-width:1.0;" x1="296.048" x2="296.048" y1="749.8506" y2="771.8506"/><line style="stroke:#181818;stroke-width:1.0;" x1="296.048" x2="1402.5377" y1="771.8506" y2="771.8506"/><polygon fill="#181818" points="1392.5377,767.8506,1402.5377,771.8506,1392.5377,775.8506,1396.5377,771.8506" style="stroke:#181818;stroke-width:1.0;"/><line style="stroke:#181818;stroke-width:1.0;" x1="1950.3427" x2="1950.3427" y1="318.5732" y2="323.5732"/><line style="stroke:#181818;stroke-width:1.0;" x1="1950.3427" x2="1414.5377" y1="323.5732" y2="323.5732"/><line style="stroke:#181818;stroke-width:1.0;" x1="1414.5377" x2="1414.5377" y1="323.5732" y2="338.5732"/><polygon fill="#181818" points="1410.5377,328.5732,1414.5377,338.5732,1418.5377,328.5732,1414.5377,332.5732" style="stroke:#181818;stroke-width:1.0;"/><line style="stroke:#181818;stroke-width:1.0;" x1="180.2412" x2="180.2412" y1="166.6357" y2="171.6357"/><line style="stroke:#181818;stroke-width:1.0;" x1="180.2412" x2="1009.011" y1="171.6357" y2="171.6357"/><line style="stroke:#181818;stroke-width:1.0;" x1="1009.011" x2="1009.011" y1="171.6357" y2="186.6357"/><polygon fill="#181818" points="1005.011,176.6357,1009.011,186.6357,1013.011,176.6357,1009.011,180.6357" style="stroke:#181818;stroke-width:1.0;"/><text fill="#000000" font-family="sans-serif" font-size="18" lengthAdjust="spacing" textLength="186.2051" x="129.8002" y="29.4531">Warehouse Manager</text><text fill="#000000" font-family="sans-serif" font-size="18" lengthAdjust="spacing" textLength="67.1221" x="1115.7494" y="29.4531">System</text><text fill="#000000" font-family="sans-serif" font-size="18" lengthAdjust="spacing" textLength="85.8867" x="1906.3993" y="29.4531">Database</text><!--SRC=[RPDDQzmm48Rl-XM3JzvBeKsRXksXbAI1GXBQxg7dMNcy5cWbev5t4VZ7T-JFk8qFnaWpx_lCX_i_6AZn7HCyeyCJXLvnn13L_icVZ8Fe8JO4d3ZI6Shtkozg_u8NSy98-R9uJl0p-AhJ4PuCnmAOT3JUGNaZiQe_39czCZMKFnYkYvzloNtTPNM9TNwd0FOFXbkB2IW47w2uH-TyX8kXAxIZ2OD08MZhcQfLhH2xTnaEWADl5LbnA1Fn8Fkhev00hTsevBfMdF9ZnWNe7p3Y4PdwdFcROXVSd0PMAeJoqnGvbmQGYvkxK4a-18h1q4KGkTEQcElEshIKEu6zgdZhS3iwYCSRyyddsV1067G3jNGAWLlIfZPw4JecS7Yc_ot5zBkB59R879RxmQFU4GEKdsU0JPb3ygEnEHjT1TK4VyQe6-DEQtlBkrKWitvpQRqSmiUr6YpVOXIZG-ElK0zkqiTjW-wcOUTddFMuGLFgt5KPhyjSnOjVxMlV2Vl2d7mN9f0Y2tzOXLrbQlNwQslrxxe-eh52Ad_5FFuDjQZVJjYZtlXMUM7_0W00]--></g></svg>