<svg xmlns="http://www.w3.org/2000/svg" xmlns:xlink="http://www.w3.org/1999/xlink" contentStyleType="text/css" height="706px" preserveAspectRatio="none" style="width:1577px;height:706px;background:#FFFFFF;" version="1.1" viewBox="0 0 1577 706" width="1577px" zoomAndPan="magnify"><defs/><g><rect fill="none" height="20.9531" style="stroke:none;stroke-width:1.0;" width="1544.6968" x="15" y="12.7451"/><ellipse cx="283.6006" cy="48.6982" fill="#222222" rx="10" ry="10" style="stroke:#222222;stroke-width:1.0;"/><rect fill="#F1F1F1" height="33.9688" rx="12.5" ry="12.5" style="stroke:#181818;stroke-width:0.5;" width="216.6289" x="175.2861" y="78.6982"/><text fill="#000000" font-family="sans-serif" font-size="12" lengthAdjust="spacing" textLength="196.6289" x="185.2861" y="99.8369">Press "Update Status" button (1)</text><rect fill="#F1F1F1" height="33.9688" rx="12.5" ry="12.5" style="stroke:#181818;stroke-width:0.5;" width="157.8594" x="204.6709" y="186.6357"/><text fill="#000000" font-family="sans-serif" font-size="12" lengthAdjust="spacing" textLength="137.8594" x="214.6709" y="207.7744">Select specific date (3)</text><rect fill="#F1F1F1" height="33.9688" rx="12.5" ry="12.5" style="stroke:#181818;stroke-width:0.5;" width="525.2012" x="21" y="240.6045"/><text fill="#000000" font-family="sans-serif" font-size="12" lengthAdjust="spacing" textLength="505.2012" x="31" y="261.7432">Enter actual warehouse status (current orders, pending orders, inventory levels) (4)</text><rect fill="#F1F1F1" height="33.9688" rx="12.5" ry="12.5" style="stroke:#181818;stroke-width:0.5;" width="160.5723" x="203.3145" y="294.5732"/><text fill="#000000" font-family="sans-serif" font-size="12" lengthAdjust="spacing" textLength="140.5723" x="213.3145" y="315.7119">Press "Save" button (5)</text><line style="stroke:#000000;stroke-width:1.5;" x1="15" x2="15" y1="12.7451" y2="694.417"/><rect fill="#F1F1F1" height="33.9688" rx="12.5" ry="12.5" style="stroke:#181818;stroke-width:0.5;" width="239.4336" x="825.7769" y="132.667"/><text fill="#000000" font-family="sans-serif" font-size="12" lengthAdjust="spacing" textLength="219.4336" x="835.7769" y="153.8057">Loading screen for status update (2)</text><rect fill="#F1F1F1" height="33.9688" rx="12.5" ry="12.5" style="stroke:#181818;stroke-width:0.5;" width="289.3438" x="800.8218" y="348.542"/><text fill="#000000" font-family="sans-serif" font-size="12" lengthAdjust="spacing" textLength="269.3438" x="810.8218" y="369.6807">Submit warehouse status update request (6)</text><polygon fill="#F1F1F1" points="820.5889,402.5107,1070.3984,402.5107,1082.3984,414.5107,1070.3984,426.5107,820.5889,426.5107,808.5889,414.5107,820.5889,402.5107" style="stroke:#181818;stroke-width:0.5;"/><text fill="#000000" font-family="sans-serif" font-size="11" lengthAdjust="spacing" textLength="249.8096" x="820.5889" y="418.3188">Check if data already exists for selected date</text><text fill="#000000" font-family="sans-serif" font-size="11" lengthAdjust="spacing" textLength="27.5913" x="780.9976" y="411.9165">[yes]</text><text fill="#000000" font-family="sans-serif" font-size="11" lengthAdjust="spacing" textLength="22.2847" x="1082.3984" y="411.9165">[no]</text><rect fill="#F1F1F1" height="33.9688" rx="12.5" ry="12.5" style="stroke:#181818;stroke-width:0.5;" width="414.6406" x="556.2012" y="446.5107"/><text fill="#000000" font-family="sans-serif" font-size="12" lengthAdjust="spacing" textLength="394.6406" x="566.2012" y="467.6494">Display "Data already exists for the selected date" message (6.1)</text><ellipse cx="763.5215" cy="511.4795" fill="none" rx="11" ry="11" style="stroke:#222222;stroke-width:1.0;"/><ellipse cx="763.5215" cy="511.4795" fill="#222222" rx="6" ry="6" style="stroke:#222222;stroke-width:1.0;"/><polygon fill="#F1F1F1" points="879.7139,554.4482,1011.2734,554.4482,1023.2734,566.4482,1011.2734,578.4482,879.7139,578.4482,867.7139,566.4482,879.7139,554.4482" style="stroke:#181818;stroke-width:0.5;"/><text fill="#000000" font-family="sans-serif" font-size="11" lengthAdjust="spacing" textLength="131.5596" x="879.7139" y="570.2563">Check successful status</text><text fill="#000000" font-family="sans-serif" font-size="11" lengthAdjust="spacing" textLength="27.5913" x="840.1226" y="563.854">[yes]</text><text fill="#000000" font-family="sans-serif" font-size="11" lengthAdjust="spacing" textLength="22.2847" x="1023.2734" y="563.854">[no]</text><rect fill="#F1F1F1" height="33.9688" rx="12.5" ry="12.5" style="stroke:#181818;stroke-width:0.5;" width="337.3965" x="605.5313" y="588.4482"/><text fill="#000000" font-family="sans-serif" font-size="12" lengthAdjust="spacing" textLength="317.3965" x="615.5313" y="609.5869">Display "Status updated successfully" message (8.1)</text><rect fill="#F1F1F1" height="33.9688" rx="12.5" ry="12.5" style="stroke:#181818;stroke-width:0.5;" width="307.6602" x="962.9277" y="588.4482"/><text fill="#000000" font-family="sans-serif" font-size="12" lengthAdjust="spacing" textLength="287.6602" x="972.9277" y="609.5869">Display "Failed to update status" message (8.2)</text><polygon fill="#F1F1F1" points="945.4937,628.417,957.4937,640.417,945.4937,652.417,933.4937,640.417,945.4937,628.417" style="stroke:#181818;stroke-width:0.5;"/><ellipse cx="945.4937" cy="683.417" fill="none" rx="11" ry="11" style="stroke:#222222;stroke-width:1.0;"/><ellipse cx="945.4937" cy="683.417" fill="#222222" rx="6" ry="6" style="stroke:#222222;stroke-width:1.0;"/><line style="stroke:#000000;stroke-width:1.5;" x1="550.2012" x2="550.2012" y1="12.7451" y2="694.417"/><rect fill="#F1F1F1" height="33.9688" rx="12.5" ry="12.5" style="stroke:#181818;stroke-width:0.5;" width="273.248" x="1280.5879" y="446.5107"/><text fill="#000000" font-family="sans-serif" font-size="12" lengthAdjust="spacing" textLength="253.248" x="1290.5879" y="467.6494">Add warehouse status to the database (7)</text><rect fill="#F1F1F1" height="33.9688" rx="12.5" ry="12.5" style="stroke:#181818;stroke-width:0.5;" width="119.4102" x="1357.5068" y="500.4795"/><text fill="#000000" font-family="sans-serif" font-size="12" lengthAdjust="spacing" textLength="99.4102" x="1367.5068" y="521.6182">Return result (8)</text><line style="stroke:#000000;stroke-width:1.5;" x1="1274.5879" x2="1274.5879" y1="12.7451" y2="694.417"/><line style="stroke:#000000;stroke-width:1.5;" x1="1557.8359" x2="1557.8359" y1="12.7451" y2="694.417"/><line style="stroke:#181818;stroke-width:1.0;" x1="283.6006" x2="283.6006" y1="58.6982" y2="78.6982"/><polygon fill="#181818" points="279.6006,68.6982,283.6006,78.6982,287.6006,68.6982,283.6006,72.6982" style="stroke:#181818;stroke-width:1.0;"/><line style="stroke:#181818;stroke-width:1.0;" x1="283.6006" x2="283.6006" y1="220.6045" y2="240.6045"/><polygon fill="#181818" points="279.6006,230.6045,283.6006,240.6045,287.6006,230.6045,283.6006,234.6045" style="stroke:#181818;stroke-width:1.0;"/><line style="stroke:#181818;stroke-width:1.0;" x1="283.6006" x2="283.6006" y1="274.5732" y2="294.5732"/><polygon fill="#181818" points="279.6006,284.5732,283.6006,294.5732,287.6006,284.5732,283.6006,288.5732" style="stroke:#181818;stroke-width:1.0;"/><line style="stroke:#181818;stroke-width:1.0;" x1="763.5215" x2="763.5215" y1="480.4795" y2="500.4795"/><polygon fill="#181818" points="759.5215,490.4795,763.5215,500.4795,767.5215,490.4795,763.5215,494.4795" style="stroke:#181818;stroke-width:1.0;"/><line style="stroke:#181818;stroke-width:1.0;" x1="808.5889" x2="763.5215" y1="414.5107" y2="414.5107"/><line style="stroke:#181818;stroke-width:1.0;" x1="763.5215" x2="763.5215" y1="414.5107" y2="446.5107"/><polygon fill="#181818" points="759.5215,436.5107,763.5215,446.5107,767.5215,436.5107,763.5215,440.5107" style="stroke:#181818;stroke-width:1.0;"/><line style="stroke:#181818;stroke-width:1.0;" x1="945.4937" x2="945.4937" y1="382.5107" y2="402.5107"/><polygon fill="#181818" points="941.4937,392.5107,945.4937,402.5107,949.4937,392.5107,945.4937,396.5107" style="stroke:#181818;stroke-width:1.0;"/><line style="stroke:#181818;stroke-width:1.0;" x1="867.7139" x2="774.2295" y1="566.4482" y2="566.4482"/><line style="stroke:#181818;stroke-width:1.0;" x1="774.2295" x2="774.2295" y1="566.4482" y2="588.4482"/><polygon fill="#181818" points="770.2295,578.4482,774.2295,588.4482,778.2295,578.4482,774.2295,582.4482" style="stroke:#181818;stroke-width:1.0;"/><line style="stroke:#181818;stroke-width:1.0;" x1="1023.2734" x2="1116.7578" y1="566.4482" y2="566.4482"/><line style="stroke:#181818;stroke-width:1.0;" x1="1116.7578" x2="1116.7578" y1="566.4482" y2="588.4482"/><polygon fill="#181818" points="1112.7578,578.4482,1116.7578,588.4482,1120.7578,578.4482,1116.7578,582.4482" style="stroke:#181818;stroke-width:1.0;"/><line style="stroke:#181818;stroke-width:1.0;" x1="774.2295" x2="774.2295" y1="622.417" y2="640.417"/><line style="stroke:#181818;stroke-width:1.0;" x1="774.2295" x2="933.4937" y1="640.417" y2="640.417"/><polygon fill="#181818" points="923.4937,636.417,933.4937,640.417,923.4937,644.417,927.4937,640.417" style="stroke:#181818;stroke-width:1.0;"/><line style="stroke:#181818;stroke-width:1.0;" x1="1116.7578" x2="1116.7578" y1="622.417" y2="640.417"/><line style="stroke:#181818;stroke-width:1.0;" x1="1116.7578" x2="957.4937" y1="640.417" y2="640.417"/><polygon fill="#181818" points="967.4937,636.417,957.4937,640.417,967.4937,644.417,963.4937,640.417" style="stroke:#181818;stroke-width:1.0;"/><line style="stroke:#181818;stroke-width:1.0;" x1="1417.2119" x2="1417.2119" y1="534.4482" y2="538.4482"/><line style="stroke:#181818;stroke-width:1.0;" x1="1417.2119" x2="945.4937" y1="538.4482" y2="538.4482"/><line style="stroke:#181818;stroke-width:1.0;" x1="945.4937" x2="945.4937" y1="538.4482" y2="554.4482"/><polygon fill="#181818" points="941.4937,544.4482,945.4937,554.4482,949.4937,544.4482,945.4937,548.4482" style="stroke:#181818;stroke-width:1.0;"/><line style="stroke:#181818;stroke-width:1.0;" x1="945.4937" x2="945.4937" y1="652.417" y2="672.417"/><polygon fill="#181818" points="941.4937,662.417,945.4937,672.417,949.4937,662.417,945.4937,666.417" style="stroke:#181818;stroke-width:1.0;"/><line style="stroke:#181818;stroke-width:1.0;" x1="1417.2119" x2="1417.2119" y1="480.4795" y2="500.4795"/><polygon fill="#181818" points="1413.2119,490.4795,1417.2119,500.4795,1421.2119,490.4795,1417.2119,494.4795" style="stroke:#181818;stroke-width:1.0;"/><line style="stroke:#181818;stroke-width:1.0;" x1="283.6006" x2="283.6006" y1="112.667" y2="117.667"/><line style="stroke:#181818;stroke-width:1.0;" x1="283.6006" x2="945.4937" y1="117.667" y2="117.667"/><line style="stroke:#181818;stroke-width:1.0;" x1="945.4937" x2="945.4937" y1="117.667" y2="132.667"/><polygon fill="#181818" points="941.4937,122.667,945.4937,132.667,949.4937,122.667,945.4937,126.667" style="stroke:#181818;stroke-width:1.0;"/><line style="stroke:#181818;stroke-width:1.0;" x1="945.4937" x2="945.4937" y1="166.6357" y2="171.6357"/><line style="stroke:#181818;stroke-width:1.0;" x1="945.4937" x2="283.6006" y1="171.6357" y2="171.6357"/><line style="stroke:#181818;stroke-width:1.0;" x1="283.6006" x2="283.6006" y1="171.6357" y2="186.6357"/><polygon fill="#181818" points="279.6006,176.6357,283.6006,186.6357,287.6006,176.6357,283.6006,180.6357" style="stroke:#181818;stroke-width:1.0;"/><line style="stroke:#181818;stroke-width:1.0;" x1="283.6006" x2="283.6006" y1="328.542" y2="333.542"/><line style="stroke:#181818;stroke-width:1.0;" x1="283.6006" x2="945.4937" y1="333.542" y2="333.542"/><line style="stroke:#181818;stroke-width:1.0;" x1="945.4937" x2="945.4937" y1="333.542" y2="348.542"/><polygon fill="#181818" points="941.4937,338.542,945.4937,348.542,949.4937,338.542,945.4937,342.542" style="stroke:#181818;stroke-width:1.0;"/><line style="stroke:#181818;stroke-width:1.0;" x1="1082.3984" x2="1417.2119" y1="414.5107" y2="414.5107"/><line style="stroke:#181818;stroke-width:1.0;" x1="1417.2119" x2="1417.2119" y1="414.5107" y2="446.5107"/><polygon fill="#181818" points="1413.2119,436.5107,1417.2119,446.5107,1421.2119,436.5107,1417.2119,440.5107" style="stroke:#181818;stroke-width:1.0;"/><text fill="#000000" font-family="sans-serif" font-size="18" lengthAdjust="spacing" textLength="186.2051" x="189.498" y="29.4531">Warehouse Manager</text><text fill="#000000" font-family="sans-serif" font-size="18" lengthAdjust="spacing" textLength="67.1221" x="878.8335" y="29.4531">System</text><text fill="#000000" font-family="sans-serif" font-size="18" lengthAdjust="spacing" textLength="85.8867" x="1373.2686" y="29.4531">Database</text><!--SRC=[VP9BJyCm48Jl-HMhdX898V56uOHud412H8W3uk3Q6shXsi6xBaJAZsUJXZQ8nossTyRpZTCzgeYBa0ZXLddrWh7BY5NahBoBI0IpXyOeHgXOSQ8Pp1Dpy93l5MUGPLtL4kEooygRe8prBq0w8dgeGmGQ993M1lb-SIQ2N-uhAtIe6QX1RMkhOJr_8FFbbMUCe3GdvU1zensjSvrYHCyGei58Ez2W7r9yhQrVoN68BJXSeQC2yiFUTcIhr0gtI4T3m0rHbUPBopyl7NaYlYKaXlnOPBQ6_6A1-XNaIuuLA1THcHRmmnBJkey14yt0Lm0lfAVygKLwBZA0yj9IurGBiyi_z2BuxZ63fM18YH9YLnv4N8X3amceR3tv8CPPrzlD5Q4WdHlpauV3u6p6CSXF-eRkaLFqGad92UIfxFNTrfE6jj2Kj9OaTNAZwJzqrRH5Cv6wTi9pEl1CGQOUryewqKhoyJ5e_3id-lrjuhwKJm00]--></g></svg>