<svg xmlns="http://www.w3.org/2000/svg" xmlns:xlink="http://www.w3.org/1999/xlink" contentStyleType="text/css" height="652px" preserveAspectRatio="none" style="width:1096px;height:652px;background:#FFFFFF;" version="1.1" viewBox="0 0 1096 652" width="1096px" zoomAndPan="magnify"><defs/><g><rect fill="none" height="20.9531" style="stroke:none;stroke-width:1.0;" width="1063.6865" x="15" y="12.7451"/><ellipse cx="192.417" cy="48.6982" fill="#222222" rx="10" ry="10" style="stroke:#222222;stroke-width:1.0;"/><rect fill="#F1F1F1" height="33.9688" rx="12.5" ry="12.5" style="stroke:#181818;stroke-width:0.5;" width="154.5605" x="115.1367" y="78.6982"/><text fill="#000000" font-family="sans-serif" font-size="12" lengthAdjust="spacing" textLength="134.5605" x="125.1367" y="99.8369">Press "Add" button (1)</text><rect fill="#F1F1F1" height="33.9688" rx="12.5" ry="12.5" style="stroke:#181818;stroke-width:0.5;" width="342.834" x="21" y="186.6357"/><text fill="#000000" font-family="sans-serif" font-size="12" lengthAdjust="spacing" textLength="322.834" x="31" y="207.7744">Enter warehouse name, address, type, manager... (3)</text><rect fill="#F1F1F1" height="33.9688" rx="12.5" ry="12.5" style="stroke:#181818;stroke-width:0.5;" width="171.2539" x="106.79" y="240.6045"/><text fill="#000000" font-family="sans-serif" font-size="12" lengthAdjust="spacing" textLength="151.2539" x="116.79" y="261.7432">Press "Create" button (4)</text><line style="stroke:#000000;stroke-width:1.5;" x1="15" x2="15" y1="12.7451" y2="640.4482"/><rect fill="#F1F1F1" height="33.9688" rx="12.5" ry="12.5" style="stroke:#181818;stroke-width:0.5;" width="247.8242" x="482.6992" y="132.667"/><text fill="#000000" font-family="sans-serif" font-size="12" lengthAdjust="spacing" textLength="227.8242" x="492.6992" y="153.8057">Loading screen Create Warehouse (2)</text><rect fill="#F1F1F1" height="33.9688" rx="12.5" ry="12.5" style="stroke:#181818;stroke-width:0.5;" width="213.7285" x="499.7471" y="294.5732"/><text fill="#000000" font-family="sans-serif" font-size="12" lengthAdjust="spacing" textLength="193.7285" x="509.7471" y="315.7119">Submit a warehouse request (5)</text><polygon fill="#F1F1F1" points="490.4668,348.542,722.7559,348.542,734.7559,360.542,722.7559,372.542,490.4668,372.542,478.4668,360.542,490.4668,348.542" style="stroke:#181818;stroke-width:0.5;"/><text fill="#000000" font-family="sans-serif" font-size="11" lengthAdjust="spacing" textLength="232.2891" x="490.4668" y="364.3501">Check if the warehouse information exists</text><text fill="#000000" font-family="sans-serif" font-size="11" lengthAdjust="spacing" textLength="22.2847" x="456.1821" y="357.9478">[no]</text><text fill="#000000" font-family="sans-serif" font-size="11" lengthAdjust="spacing" textLength="22.2847" x="734.7559" y="357.9478">[no]</text><rect fill="#F1F1F1" height="33.9688" rx="12.5" ry="12.5" style="stroke:#181818;stroke-width:0.5;" width="189.2656" x="373.834" y="392.542"/><text fill="#000000" font-family="sans-serif" font-size="12" lengthAdjust="spacing" textLength="169.2656" x="383.834" y="413.6807">Display exists message(5.1)</text><ellipse cx="468.4668" cy="457.5107" fill="none" rx="11" ry="11" style="stroke:#222222;stroke-width:1.0;"/><ellipse cx="468.4668" cy="457.5107" fill="#222222" rx="6" ry="6" style="stroke:#222222;stroke-width:1.0;"/><polygon fill="#F1F1F1" points="540.8315,500.4795,672.3911,500.4795,684.3911,512.4795,672.3911,524.4795,540.8315,524.4795,528.8315,512.4795,540.8315,500.4795" style="stroke:#181818;stroke-width:0.5;"/><text fill="#000000" font-family="sans-serif" font-size="11" lengthAdjust="spacing" textLength="131.5596" x="540.8315" y="516.2876">Check successful status</text><text fill="#000000" font-family="sans-serif" font-size="11" lengthAdjust="spacing" textLength="27.5913" x="501.2402" y="509.8853">[yes]</text><text fill="#000000" font-family="sans-serif" font-size="11" lengthAdjust="spacing" textLength="22.2847" x="684.3911" y="509.8853">[no]</text><rect fill="#F1F1F1" height="33.9688" rx="12.5" ry="12.5" style="stroke:#181818;stroke-width:0.5;" width="220.1563" x="382.439" y="534.4795"/><text fill="#000000" font-family="sans-serif" font-size="12" lengthAdjust="spacing" textLength="200.1563" x="392.439" y="555.6182">Display successful message (6.1)</text><rect fill="#F1F1F1" height="33.9688" rx="12.5" ry="12.5" style="stroke:#181818;stroke-width:0.5;" width="196.2207" x="622.5952" y="534.4795"/><text fill="#000000" font-family="sans-serif" font-size="12" lengthAdjust="spacing" textLength="176.2207" x="632.5952" y="555.6182">Display failure message (6.2)</text><polygon fill="#F1F1F1" points="606.6113,574.4482,618.6113,586.4482,606.6113,598.4482,594.6113,586.4482,606.6113,574.4482" style="stroke:#181818;stroke-width:0.5;"/><ellipse cx="606.6113" cy="629.4482" fill="none" rx="11" ry="11" style="stroke:#222222;stroke-width:1.0;"/><ellipse cx="606.6113" cy="629.4482" fill="#222222" rx="6" ry="6" style="stroke:#222222;stroke-width:1.0;"/><line style="stroke:#000000;stroke-width:1.5;" x1="367.834" x2="367.834" y1="12.7451" y2="640.4482"/><rect fill="#F1F1F1" height="33.9688" rx="12.5" ry="12.5" style="stroke:#181818;stroke-width:0.5;" width="244.0098" x="828.8159" y="392.542"/><text fill="#000000" font-family="sans-serif" font-size="12" lengthAdjust="spacing" textLength="224.0098" x="838.8159" y="413.6807">Add warehouse to the database (5.2)</text><rect fill="#F1F1F1" height="33.9688" rx="12.5" ry="12.5" style="stroke:#181818;stroke-width:0.5;" width="119.4102" x="891.1157" y="446.5107"/><text fill="#000000" font-family="sans-serif" font-size="12" lengthAdjust="spacing" textLength="99.4102" x="901.1157" y="467.6494">Return result (6)</text><line style="stroke:#000000;stroke-width:1.5;" x1="822.8159" x2="822.8159" y1="12.7451" y2="640.4482"/><line style="stroke:#000000;stroke-width:1.5;" x1="1076.8257" x2="1076.8257" y1="12.7451" y2="640.4482"/><line style="stroke:#181818;stroke-width:1.0;" x1="192.417" x2="192.417" y1="58.6982" y2="78.6982"/><polygon fill="#181818" points="188.417,68.6982,192.417,78.6982,196.417,68.6982,192.417,72.6982" style="stroke:#181818;stroke-width:1.0;"/><line style="stroke:#181818;stroke-width:1.0;" x1="192.417" x2="192.417" y1="220.6045" y2="240.6045"/><polygon fill="#181818" points="188.417,230.6045,192.417,240.6045,196.417,230.6045,192.417,234.6045" style="stroke:#181818;stroke-width:1.0;"/><line style="stroke:#181818;stroke-width:1.0;" x1="468.4668" x2="468.4668" y1="426.5107" y2="446.5107"/><polygon fill="#181818" points="464.4668,436.5107,468.4668,446.5107,472.4668,436.5107,468.4668,440.5107" style="stroke:#181818;stroke-width:1.0;"/><line style="stroke:#181818;stroke-width:1.0;" x1="478.4668" x2="468.4668" y1="360.542" y2="360.542"/><line style="stroke:#181818;stroke-width:1.0;" x1="468.4668" x2="468.4668" y1="360.542" y2="392.542"/><polygon fill="#181818" points="464.4668,382.542,468.4668,392.542,472.4668,382.542,468.4668,386.542" style="stroke:#181818;stroke-width:1.0;"/><line style="stroke:#181818;stroke-width:1.0;" x1="606.6113" x2="606.6113" y1="328.542" y2="348.542"/><polygon fill="#181818" points="602.6113,338.542,606.6113,348.542,610.6113,338.542,606.6113,342.542" style="stroke:#181818;stroke-width:1.0;"/><line style="stroke:#181818;stroke-width:1.0;" x1="528.8315" x2="492.5171" y1="512.4795" y2="512.4795"/><line style="stroke:#181818;stroke-width:1.0;" x1="492.5171" x2="492.5171" y1="512.4795" y2="534.4795"/><polygon fill="#181818" points="488.5171,524.4795,492.5171,534.4795,496.5171,524.4795,492.5171,528.4795" style="stroke:#181818;stroke-width:1.0;"/><line style="stroke:#181818;stroke-width:1.0;" x1="684.3911" x2="720.7056" y1="512.4795" y2="512.4795"/><line style="stroke:#181818;stroke-width:1.0;" x1="720.7056" x2="720.7056" y1="512.4795" y2="534.4795"/><polygon fill="#181818" points="716.7056,524.4795,720.7056,534.4795,724.7056,524.4795,720.7056,528.4795" style="stroke:#181818;stroke-width:1.0;"/><line style="stroke:#181818;stroke-width:1.0;" x1="492.5171" x2="492.5171" y1="568.4482" y2="586.4482"/><line style="stroke:#181818;stroke-width:1.0;" x1="492.5171" x2="594.6113" y1="586.4482" y2="586.4482"/><polygon fill="#181818" points="584.6113,582.4482,594.6113,586.4482,584.6113,590.4482,588.6113,586.4482" style="stroke:#181818;stroke-width:1.0;"/><line style="stroke:#181818;stroke-width:1.0;" x1="720.7056" x2="720.7056" y1="568.4482" y2="586.4482"/><line style="stroke:#181818;stroke-width:1.0;" x1="720.7056" x2="618.6113" y1="586.4482" y2="586.4482"/><polygon fill="#181818" points="628.6113,582.4482,618.6113,586.4482,628.6113,590.4482,624.6113,586.4482" style="stroke:#181818;stroke-width:1.0;"/><line style="stroke:#181818;stroke-width:1.0;" x1="950.8208" x2="950.8208" y1="480.4795" y2="484.4795"/><line style="stroke:#181818;stroke-width:1.0;" x1="950.8208" x2="606.6113" y1="484.4795" y2="484.4795"/><line style="stroke:#181818;stroke-width:1.0;" x1="606.6113" x2="606.6113" y1="484.4795" y2="500.4795"/><polygon fill="#181818" points="602.6113,490.4795,606.6113,500.4795,610.6113,490.4795,606.6113,494.4795" style="stroke:#181818;stroke-width:1.0;"/><line style="stroke:#181818;stroke-width:1.0;" x1="606.6113" x2="606.6113" y1="598.4482" y2="618.4482"/><polygon fill="#181818" points="602.6113,608.4482,606.6113,618.4482,610.6113,608.4482,606.6113,612.4482" style="stroke:#181818;stroke-width:1.0;"/><line style="stroke:#181818;stroke-width:1.0;" x1="950.8208" x2="950.8208" y1="426.5107" y2="446.5107"/><polygon fill="#181818" points="946.8208,436.5107,950.8208,446.5107,954.8208,436.5107,950.8208,440.5107" style="stroke:#181818;stroke-width:1.0;"/><line style="stroke:#181818;stroke-width:1.0;" x1="192.417" x2="192.417" y1="112.667" y2="117.667"/><line style="stroke:#181818;stroke-width:1.0;" x1="192.417" x2="606.6113" y1="117.667" y2="117.667"/><line style="stroke:#181818;stroke-width:1.0;" x1="606.6113" x2="606.6113" y1="117.667" y2="132.667"/><polygon fill="#181818" points="602.6113,122.667,606.6113,132.667,610.6113,122.667,606.6113,126.667" style="stroke:#181818;stroke-width:1.0;"/><line style="stroke:#181818;stroke-width:1.0;" x1="606.6113" x2="606.6113" y1="166.6357" y2="171.6357"/><line style="stroke:#181818;stroke-width:1.0;" x1="606.6113" x2="192.417" y1="171.6357" y2="171.6357"/><line style="stroke:#181818;stroke-width:1.0;" x1="192.417" x2="192.417" y1="171.6357" y2="186.6357"/><polygon fill="#181818" points="188.417,176.6357,192.417,186.6357,196.417,176.6357,192.417,180.6357" style="stroke:#181818;stroke-width:1.0;"/><line style="stroke:#181818;stroke-width:1.0;" x1="192.417" x2="192.417" y1="274.5732" y2="279.5732"/><line style="stroke:#181818;stroke-width:1.0;" x1="192.417" x2="606.6113" y1="279.5732" y2="279.5732"/><line style="stroke:#181818;stroke-width:1.0;" x1="606.6113" x2="606.6113" y1="279.5732" y2="294.5732"/><polygon fill="#181818" points="602.6113,284.5732,606.6113,294.5732,610.6113,284.5732,606.6113,288.5732" style="stroke:#181818;stroke-width:1.0;"/><line style="stroke:#181818;stroke-width:1.0;" x1="734.7559" x2="950.8208" y1="360.542" y2="360.542"/><line style="stroke:#181818;stroke-width:1.0;" x1="950.8208" x2="950.8208" y1="360.542" y2="392.542"/><polygon fill="#181818" points="946.8208,382.542,950.8208,392.542,954.8208,382.542,950.8208,386.542" style="stroke:#181818;stroke-width:1.0;"/><text fill="#000000" font-family="sans-serif" font-size="18" lengthAdjust="spacing" textLength="41.0273" x="170.9033" y="29.4531">User</text><text fill="#000000" font-family="sans-serif" font-size="18" lengthAdjust="spacing" textLength="67.1221" x="561.7639" y="29.4531">System</text><text fill="#000000" font-family="sans-serif" font-size="18" lengthAdjust="spacing" textLength="85.8867" x="906.8774" y="29.4531">Database</text><!--SRC=[JP51JyCm38Nl-HNMJgqqLM8m3jq9RTmu82R40N7mMdUBQ9CHEu9A_V6utRJcbiJFpzzpXdUcC1WM36BArq3Ci7YgwmKSeeXtaDtb6p33lcUXRZ3bYyVQkYDm5OWSR0EX47nWe9EFJ92j9lt5jdnsGW5-RrM77Iq1wteSj0JfpthjqE6HGb4KaDtdcnl6nNicUT1QGhAFXyuAO68Vw2SI2sHhbTe6iks9gc_GavmeqLdN-D2XMBMbFyl2-QZG6P_EV-K6m9Gxo-SM-siTEaLIocnTw49qN_vig1tpNZhCi4F10p8fcUul6IP-cbvVwmfNhCQKRoGnE6Ncs2hoexwHgsrZaf1p1evLfGXDR44_I-9Ct1DFo3VYH7gbLlS9EoLE6XgqRGoKgbSppPZr7m00]--></g></svg>