<svg xmlns="http://www.w3.org/2000/svg" xmlns:xlink="http://www.w3.org/1999/xlink" contentStyleType="text/css" height="722px" preserveAspectRatio="none" style="width:1336px;height:722px;background:#FFFFFF;" version="1.1" viewBox="0 0 1336 722" width="1336px" zoomAndPan="magnify"><defs/><g><rect fill="none" height="20.9531" style="stroke:none;stroke-width:1.0;" width="1303.5193" x="15" y="12.7451"/><ellipse cx="276.9133" cy="48.6982" fill="#222222" rx="10" ry="10" style="stroke:#222222;stroke-width:1.0;"/><rect fill="#F1F1F1" height="33.9688" rx="12.5" ry="12.5" style="stroke:#181818;stroke-width:0.5;" width="142.3555" x="205.7356" y="78.6982"/><text fill="#000000" font-family="sans-serif" font-size="12" lengthAdjust="spacing" textLength="122.3555" x="215.7356" y="99.8369">Press warehouse (1)</text><rect fill="#F1F1F1" height="33.9688" rx="12.5" ry="12.5" style="stroke:#181818;stroke-width:0.5;" width="170.5449" x="191.6409" y="186.6357"/><text fill="#000000" font-family="sans-serif" font-size="12" lengthAdjust="spacing" textLength="150.5449" x="201.6409" y="207.7744">Press "Delete" button (3)</text><polygon fill="#F1F1F1" points="276.9133,294.5732,276.9133,294.5732,288.9133,306.5732,276.9133,318.5732,276.9133,318.5732,264.9133,306.5732,276.9133,294.5732" style="stroke:#181818;stroke-width:0.5;"/><rect fill="#F1F1F1" height="33.9688" rx="12.5" ry="12.5" style="stroke:#181818;stroke-width:0.5;" width="171.7695" x="21" y="338.5732"/><text fill="#000000" font-family="sans-serif" font-size="12" lengthAdjust="spacing" textLength="151.7695" x="31" y="359.7119">Press "Cancel" button (5)</text><ellipse cx="106.8848" cy="403.542" fill="none" rx="11" ry="11" style="stroke:#222222;stroke-width:1.0;"/><ellipse cx="106.8848" cy="403.542" fill="#222222" rx="6" ry="6" style="stroke:#222222;stroke-width:1.0;"/><rect fill="#F1F1F1" height="33.9688" rx="12.5" ry="12.5" style="stroke:#181818;stroke-width:0.5;" width="165.8633" x="364.0103" y="338.5732"/><text fill="#000000" font-family="sans-serif" font-size="12" lengthAdjust="spacing" textLength="145.8633" x="374.0103" y="359.7119">Press "Delete" button 6)</text><line style="stroke:#000000;stroke-width:1.5;" x1="15" x2="15" y1="12.7451" y2="710.417"/><rect fill="#F1F1F1" height="33.9688" rx="12.5" ry="12.5" style="stroke:#181818;stroke-width:0.5;" width="315.084" x="539.8735" y="132.667"/><text fill="#000000" font-family="sans-serif" font-size="12" lengthAdjust="spacing" textLength="295.084" x="549.8735" y="153.8057">Loading screen warehouse information details(2)</text><rect fill="#F1F1F1" height="33.9688" rx="12.5" ry="12.5" style="stroke:#181818;stroke-width:0.5;" width="198.1895" x="598.3208" y="240.6045"/><text fill="#000000" font-family="sans-serif" font-size="12" lengthAdjust="spacing" textLength="178.1895" x="608.3208" y="261.7432">Loading warning message (4)</text><rect fill="#F1F1F1" height="33.9688" rx="12.5" ry="12.5" style="stroke:#181818;stroke-width:0.5;" width="133.0742" x="800.907" y="392.542"/><text fill="#000000" font-family="sans-serif" font-size="12" lengthAdjust="spacing" textLength="113.0742" x="810.907" y="413.6807">Submit request (7)</text><polygon fill="#F1F1F1" points="801.6643,554.4482,933.2239,554.4482,945.2239,566.4482,933.2239,578.4482,801.6643,578.4482,789.6643,566.4482,801.6643,554.4482" style="stroke:#181818;stroke-width:0.5;"/><text fill="#000000" font-family="sans-serif" font-size="11" lengthAdjust="spacing" textLength="131.5596" x="801.6643" y="570.2563">Check successful status</text><text fill="#000000" font-family="sans-serif" font-size="11" lengthAdjust="spacing" textLength="27.5913" x="762.073" y="563.854">[yes]</text><text fill="#000000" font-family="sans-serif" font-size="11" lengthAdjust="spacing" textLength="22.2847" x="945.2239" y="563.854">[no]</text><rect fill="#F1F1F1" height="33.9688" rx="12.5" ry="12.5" style="stroke:#181818;stroke-width:0.5;" width="220.1563" x="643.2717" y="588.4482"/><text fill="#000000" font-family="sans-serif" font-size="12" lengthAdjust="spacing" textLength="200.1563" x="653.2717" y="609.5869">Display successful message (9.1)</text><rect fill="#F1F1F1" height="33.9688" rx="12.5" ry="12.5" style="stroke:#181818;stroke-width:0.5;" width="196.2207" x="883.428" y="588.4482"/><text fill="#000000" font-family="sans-serif" font-size="12" lengthAdjust="spacing" textLength="176.2207" x="893.428" y="609.5869">Display failure message (9.2)</text><polygon fill="#F1F1F1" points="867.4441,628.417,879.4441,640.417,867.4441,652.417,855.4441,640.417,867.4441,628.417" style="stroke:#181818;stroke-width:0.5;"/><ellipse cx="867.4441" cy="683.417" fill="none" rx="11" ry="11" style="stroke:#222222;stroke-width:1.0;"/><ellipse cx="867.4441" cy="683.417" fill="#222222" rx="6" ry="6" style="stroke:#222222;stroke-width:1.0;"/><line style="stroke:#000000;stroke-width:1.5;" x1="533.8735" x2="533.8735" y1="12.7451" y2="710.417"/><rect fill="#F1F1F1" height="33.9688" rx="12.5" ry="12.5" style="stroke:#181818;stroke-width:0.5;" width="223.0098" x="1089.6487" y="446.5107"/><text fill="#000000" font-family="sans-serif" font-size="12" lengthAdjust="spacing" textLength="203.0098" x="1099.6487" y="467.6494">Delete warehouse information (8)</text><rect fill="#F1F1F1" height="33.9688" rx="12.5" ry="12.5" style="stroke:#181818;stroke-width:0.5;" width="119.4102" x="1141.4485" y="500.4795"/><text fill="#000000" font-family="sans-serif" font-size="12" lengthAdjust="spacing" textLength="99.4102" x="1151.4485" y="521.6182">Return result (9)</text><line style="stroke:#000000;stroke-width:1.5;" x1="1083.6487" x2="1083.6487" y1="12.7451" y2="710.417"/><line style="stroke:#000000;stroke-width:1.5;" x1="1316.6584" x2="1316.6584" y1="12.7451" y2="710.417"/><line style="stroke:#181818;stroke-width:1.0;" x1="276.9133" x2="276.9133" y1="58.6982" y2="78.6982"/><polygon fill="#181818" points="272.9133,68.6982,276.9133,78.6982,280.9133,68.6982,276.9133,72.6982" style="stroke:#181818;stroke-width:1.0;"/><line style="stroke:#181818;stroke-width:1.0;" x1="106.8848" x2="106.8848" y1="372.542" y2="392.542"/><polygon fill="#181818" points="102.8848,382.542,106.8848,392.542,110.8848,382.542,106.8848,386.542" style="stroke:#181818;stroke-width:1.0;"/><line style="stroke:#181818;stroke-width:1.0;" x1="264.9133" x2="106.8848" y1="306.5732" y2="306.5732"/><line style="stroke:#181818;stroke-width:1.0;" x1="106.8848" x2="106.8848" y1="306.5732" y2="338.5732"/><polygon fill="#181818" points="102.8848,328.5732,106.8848,338.5732,110.8848,328.5732,106.8848,332.5732" style="stroke:#181818;stroke-width:1.0;"/><line style="stroke:#181818;stroke-width:1.0;" x1="288.9133" x2="446.9419" y1="306.5732" y2="306.5732"/><line style="stroke:#181818;stroke-width:1.0;" x1="446.9419" x2="446.9419" y1="306.5732" y2="338.5732"/><polygon fill="#181818" points="442.9419,328.5732,446.9419,338.5732,450.9419,328.5732,446.9419,332.5732" style="stroke:#181818;stroke-width:1.0;"/><line style="stroke:#181818;stroke-width:1.0;" x1="789.6643" x2="753.3499" y1="566.4482" y2="566.4482"/><line style="stroke:#181818;stroke-width:1.0;" x1="753.3499" x2="753.3499" y1="566.4482" y2="588.4482"/><polygon fill="#181818" points="749.3499,578.4482,753.3499,588.4482,757.3499,578.4482,753.3499,582.4482" style="stroke:#181818;stroke-width:1.0;"/><line style="stroke:#181818;stroke-width:1.0;" x1="945.2239" x2="981.5383" y1="566.4482" y2="566.4482"/><line style="stroke:#181818;stroke-width:1.0;" x1="981.5383" x2="981.5383" y1="566.4482" y2="588.4482"/><polygon fill="#181818" points="977.5383,578.4482,981.5383,588.4482,985.5383,578.4482,981.5383,582.4482" style="stroke:#181818;stroke-width:1.0;"/><line style="stroke:#181818;stroke-width:1.0;" x1="753.3499" x2="753.3499" y1="622.417" y2="640.417"/><line style="stroke:#181818;stroke-width:1.0;" x1="753.3499" x2="855.4441" y1="640.417" y2="640.417"/><polygon fill="#181818" points="845.4441,636.417,855.4441,640.417,845.4441,644.417,849.4441,640.417" style="stroke:#181818;stroke-width:1.0;"/><line style="stroke:#181818;stroke-width:1.0;" x1="981.5383" x2="981.5383" y1="622.417" y2="640.417"/><line style="stroke:#181818;stroke-width:1.0;" x1="981.5383" x2="879.4441" y1="640.417" y2="640.417"/><polygon fill="#181818" points="889.4441,636.417,879.4441,640.417,889.4441,644.417,885.4441,640.417" style="stroke:#181818;stroke-width:1.0;"/><line style="stroke:#181818;stroke-width:1.0;" x1="867.4441" x2="867.4441" y1="652.417" y2="672.417"/><polygon fill="#181818" points="863.4441,662.417,867.4441,672.417,871.4441,662.417,867.4441,666.417" style="stroke:#181818;stroke-width:1.0;"/><line style="stroke:#181818;stroke-width:1.0;" x1="1201.1536" x2="1201.1536" y1="480.4795" y2="500.4795"/><polygon fill="#181818" points="1197.1536,490.4795,1201.1536,500.4795,1205.1536,490.4795,1201.1536,494.4795" style="stroke:#181818;stroke-width:1.0;"/><line style="stroke:#181818;stroke-width:1.0;" x1="276.9133" x2="276.9133" y1="112.667" y2="117.667"/><line style="stroke:#181818;stroke-width:1.0;" x1="276.9133" x2="697.4155" y1="117.667" y2="117.667"/><line style="stroke:#181818;stroke-width:1.0;" x1="697.4155" x2="697.4155" y1="117.667" y2="132.667"/><polygon fill="#181818" points="693.4155,122.667,697.4155,132.667,701.4155,122.667,697.4155,126.667" style="stroke:#181818;stroke-width:1.0;"/><line style="stroke:#181818;stroke-width:1.0;" x1="697.4155" x2="697.4155" y1="166.6357" y2="171.6357"/><line style="stroke:#181818;stroke-width:1.0;" x1="697.4155" x2="276.9133" y1="171.6357" y2="171.6357"/><line style="stroke:#181818;stroke-width:1.0;" x1="276.9133" x2="276.9133" y1="171.6357" y2="186.6357"/><polygon fill="#181818" points="272.9133,176.6357,276.9133,186.6357,280.9133,176.6357,276.9133,180.6357" style="stroke:#181818;stroke-width:1.0;"/><line style="stroke:#181818;stroke-width:1.0;" x1="276.9133" x2="276.9133" y1="220.6045" y2="225.6045"/><line style="stroke:#181818;stroke-width:1.0;" x1="276.9133" x2="697.4155" y1="225.6045" y2="225.6045"/><line style="stroke:#181818;stroke-width:1.0;" x1="697.4155" x2="697.4155" y1="225.6045" y2="240.6045"/><polygon fill="#181818" points="693.4155,230.6045,697.4155,240.6045,701.4155,230.6045,697.4155,234.6045" style="stroke:#181818;stroke-width:1.0;"/><line style="stroke:#181818;stroke-width:1.0;" x1="446.9419" x2="446.9419" y1="372.542" y2="377.542"/><line style="stroke:#181818;stroke-width:1.0;" x1="446.9419" x2="867.4441" y1="377.542" y2="377.542"/><line style="stroke:#181818;stroke-width:1.0;" x1="867.4441" x2="867.4441" y1="377.542" y2="392.542"/><polygon fill="#181818" points="863.4441,382.542,867.4441,392.542,871.4441,382.542,867.4441,386.542" style="stroke:#181818;stroke-width:1.0;"/><line style="stroke:#181818;stroke-width:1.0;" x1="867.4441" x2="867.4441" y1="426.5107" y2="431.5107"/><line style="stroke:#181818;stroke-width:1.0;" x1="867.4441" x2="1201.1536" y1="431.5107" y2="431.5107"/><line style="stroke:#181818;stroke-width:1.0;" x1="1201.1536" x2="1201.1536" y1="431.5107" y2="446.5107"/><polygon fill="#181818" points="1197.1536,436.5107,1201.1536,446.5107,1205.1536,436.5107,1201.1536,440.5107" style="stroke:#181818;stroke-width:1.0;"/><line style="stroke:#181818;stroke-width:1.0;" x1="1201.1536" x2="1201.1536" y1="534.4482" y2="539.4482"/><line style="stroke:#181818;stroke-width:1.0;" x1="1201.1536" x2="867.4441" y1="539.4482" y2="539.4482"/><line style="stroke:#181818;stroke-width:1.0;" x1="867.4441" x2="867.4441" y1="539.4482" y2="554.4482"/><polygon fill="#181818" points="863.4441,544.4482,867.4441,554.4482,871.4441,544.4482,867.4441,548.4482" style="stroke:#181818;stroke-width:1.0;"/><line style="stroke:#181818;stroke-width:1.0;" x1="697.4155" x2="697.4155" y1="274.5732" y2="279.5732"/><line style="stroke:#181818;stroke-width:1.0;" x1="697.4155" x2="276.9133" y1="279.5732" y2="279.5732"/><line style="stroke:#181818;stroke-width:1.0;" x1="276.9133" x2="276.9133" y1="279.5732" y2="294.5732"/><polygon fill="#181818" points="272.9133,284.5732,276.9133,294.5732,280.9133,284.5732,276.9133,288.5732" style="stroke:#181818;stroke-width:1.0;"/><text fill="#000000" font-family="sans-serif" font-size="18" lengthAdjust="spacing" textLength="41.0273" x="253.9231" y="29.4531">User</text><text fill="#000000" font-family="sans-serif" font-size="18" lengthAdjust="spacing" textLength="67.1221" x="775.2001" y="29.4531">System</text><text fill="#000000" font-family="sans-serif" font-size="18" lengthAdjust="spacing" textLength="85.8867" x="1157.2102" y="29.4531">Database</text><!--SRC=[TP6zRiCm38HtFmMHILuADFsDCyPZXg91fw23RDEnK5bAH0g50JzywJXr7Q2P9877JtTa_q4O-eHO1qwoju14yAq3DZuIWhfFrv3qkuuOspx9jbvNnXs0oe3ePaBZQXzQpSOxg92riQIMvzwHVo4lShJ8k80YCejKFQJhV_32TSFPIey-Y8r7aVsYJ0qg1Mxa_mcxqQv4-uTz4ZsnFoOmEK0hDkLzmydpbP5TB5h34F0KaHZKor3DDUj24qfzRBwHNxsAEdj7Zi49Wg8LmchE7o9i6Yo_W69PYfqwMf0LSAHBChNla3xJmMzkw6XrDvTESrdToOB6Q6hl_7L3BLk80UVgvQ1sbQd7wPolFm00]--></g></svg>