<svg xmlns="http://www.w3.org/2000/svg" xmlns:xlink="http://www.w3.org/1999/xlink" contentStyleType="text/css" height="733px" preserveAspectRatio="none" style="width:945px;height:733px;background:#FFFFFF;" version="1.1" viewBox="0 0 945 733" width="945px" zoomAndPan="magnify"><defs/><g><rect fill="none" height="20.9531" style="stroke:none;stroke-width:1.0;" width="912.5288" x="15" y="12.7451"/><ellipse cx="116.8574" cy="48.6982" fill="#222222" rx="10" ry="10" style="stroke:#222222;stroke-width:1.0;"/><rect fill="#F1F1F1" height="33.9688" rx="12.5" ry="12.5" style="stroke:#181818;stroke-width:0.5;" width="142.3555" x="45.6797" y="78.6982"/><text fill="#000000" font-family="sans-serif" font-size="12" lengthAdjust="spacing" textLength="122.3555" x="55.6797" y="99.8369">Press warehouse (1)</text><rect fill="#F1F1F1" height="33.9688" rx="12.5" ry="12.5" style="stroke:#181818;stroke-width:0.5;" width="154.3555" x="39.6797" y="186.6357"/><text fill="#000000" font-family="sans-serif" font-size="12" lengthAdjust="spacing" textLength="134.3555" x="49.6797" y="207.7744">Press "Edit" button (3)</text><rect fill="#F1F1F1" height="33.9688" rx="12.5" ry="12.5" style="stroke:#181818;stroke-width:0.5;" width="191.7148" x="21" y="294.5732"/><text fill="#000000" font-family="sans-serif" font-size="12" lengthAdjust="spacing" textLength="171.7148" x="31" y="315.7119">Enter editing information (5)</text><rect fill="#F1F1F1" height="33.9688" rx="12.5" ry="12.5" style="stroke:#181818;stroke-width:0.5;" width="160.5723" x="36.5713" y="348.542"/><text fill="#000000" font-family="sans-serif" font-size="12" lengthAdjust="spacing" textLength="140.5723" x="46.5713" y="369.6807">Press "Save" button (6)</text><line style="stroke:#000000;stroke-width:1.5;" x1="15" x2="15" y1="12.7451" y2="721.645"/><rect fill="#F1F1F1" height="33.9688" rx="12.5" ry="12.5" style="stroke:#181818;stroke-width:0.5;" width="315.084" x="289.3452" y="132.667"/><text fill="#000000" font-family="sans-serif" font-size="12" lengthAdjust="spacing" textLength="295.084" x="299.3452" y="153.8057">Loading screen warehouse information details(2)</text><rect fill="#F1F1F1" height="33.9688" rx="12.5" ry="12.5" style="stroke:#181818;stroke-width:0.5;" width="228.6758" x="332.5493" y="240.6045"/><text fill="#000000" font-family="sans-serif" font-size="12" lengthAdjust="spacing" textLength="208.6758" x="342.5493" y="261.7432">Loading screen edit warehouse (4)</text><rect fill="#F1F1F1" height="33.9688" rx="12.5" ry="12.5" style="stroke:#181818;stroke-width:0.5;" width="213.7285" x="340.0229" y="402.5107"/><text fill="#000000" font-family="sans-serif" font-size="12" lengthAdjust="spacing" textLength="193.7285" x="350.0229" y="423.6494">Submit a warehouse request (7)</text><polygon fill="#F1F1F1" points="381.1074,581.6763,512.667,581.6763,524.667,593.6763,512.667,605.6763,381.1074,605.6763,369.1074,593.6763,381.1074,581.6763" style="stroke:#181818;stroke-width:0.5;"/><text fill="#000000" font-family="sans-serif" font-size="11" lengthAdjust="spacing" textLength="131.5596" x="381.1074" y="597.4844">Check successful status</text><text fill="#000000" font-family="sans-serif" font-size="11" lengthAdjust="spacing" textLength="27.5913" x="341.5161" y="591.082">[yes]</text><text fill="#000000" font-family="sans-serif" font-size="11" lengthAdjust="spacing" textLength="22.2847" x="524.667" y="591.082">[no]</text><rect fill="#F1F1F1" height="33.9688" rx="12.5" ry="12.5" style="stroke:#181818;stroke-width:0.5;" width="220.1563" x="222.7148" y="615.6763"/><text fill="#000000" font-family="sans-serif" font-size="12" lengthAdjust="spacing" textLength="200.1563" x="232.7148" y="636.8149">Display successful message (9.1)</text><rect fill="#F1F1F1" height="33.9688" rx="12.5" ry="12.5" style="stroke:#181818;stroke-width:0.5;" width="196.2207" x="462.8711" y="615.6763"/><text fill="#000000" font-family="sans-serif" font-size="12" lengthAdjust="spacing" textLength="176.2207" x="472.8711" y="636.8149">Display failure message (9.2)</text><polygon fill="#F1F1F1" points="446.8872,655.645,458.8872,667.645,446.8872,679.645,434.8872,667.645,446.8872,655.645" style="stroke:#181818;stroke-width:0.5;"/><ellipse cx="446.8872" cy="710.645" fill="none" rx="11" ry="11" style="stroke:#222222;stroke-width:1.0;"/><ellipse cx="446.8872" cy="710.645" fill="#222222" rx="6" ry="6" style="stroke:#222222;stroke-width:1.0;"/><line style="stroke:#000000;stroke-width:1.5;" x1="216.7148" x2="216.7148" y1="12.7451" y2="721.645"/><rect fill="#F1F1F1" height="33.9688" rx="12.5" ry="12.5" style="stroke:#181818;stroke-width:0.5;" width="252.5762" x="669.0918" y="473.7388"/><text fill="#000000" font-family="sans-serif" font-size="12" lengthAdjust="spacing" textLength="232.5762" x="679.0918" y="494.8774">Update warehouse to the database (8)</text><rect fill="#F1F1F1" height="33.9688" rx="12.5" ry="12.5" style="stroke:#181818;stroke-width:0.5;" width="119.4102" x="735.6748" y="527.7075"/><text fill="#000000" font-family="sans-serif" font-size="12" lengthAdjust="spacing" textLength="99.4102" x="745.6748" y="548.8462">Return result (9)</text><line style="stroke:#000000;stroke-width:1.5;" x1="663.0918" x2="663.0918" y1="12.7451" y2="721.645"/><line style="stroke:#000000;stroke-width:1.5;" x1="925.668" x2="925.668" y1="12.7451" y2="721.645"/><line style="stroke:#181818;stroke-width:1.0;" x1="116.8574" x2="116.8574" y1="58.6982" y2="78.6982"/><polygon fill="#181818" points="112.8574,68.6982,116.8574,78.6982,120.8574,68.6982,116.8574,72.6982" style="stroke:#181818;stroke-width:1.0;"/><line style="stroke:#181818;stroke-width:1.0;" x1="116.8574" x2="116.8574" y1="328.542" y2="348.542"/><polygon fill="#181818" points="112.8574,338.542,116.8574,348.542,120.8574,338.542,116.8574,342.542" style="stroke:#181818;stroke-width:1.0;"/><line style="stroke:#181818;stroke-width:1.0;" x1="369.1074" x2="332.793" y1="593.6763" y2="593.6763"/><line style="stroke:#181818;stroke-width:1.0;" x1="332.793" x2="332.793" y1="593.6763" y2="615.6763"/><polygon fill="#181818" points="328.793,605.6763,332.793,615.6763,336.793,605.6763,332.793,609.6763" style="stroke:#181818;stroke-width:1.0;"/><line style="stroke:#181818;stroke-width:1.0;" x1="524.667" x2="560.9814" y1="593.6763" y2="593.6763"/><line style="stroke:#181818;stroke-width:1.0;" x1="560.9814" x2="560.9814" y1="593.6763" y2="615.6763"/><polygon fill="#181818" points="556.9814,605.6763,560.9814,615.6763,564.9814,605.6763,560.9814,609.6763" style="stroke:#181818;stroke-width:1.0;"/><line style="stroke:#181818;stroke-width:1.0;" x1="332.793" x2="332.793" y1="649.645" y2="667.645"/><line style="stroke:#181818;stroke-width:1.0;" x1="332.793" x2="434.8872" y1="667.645" y2="667.645"/><polygon fill="#181818" points="424.8872,663.645,434.8872,667.645,424.8872,671.645,428.8872,667.645" style="stroke:#181818;stroke-width:1.0;"/><line style="stroke:#181818;stroke-width:1.0;" x1="560.9814" x2="560.9814" y1="649.645" y2="667.645"/><line style="stroke:#181818;stroke-width:1.0;" x1="560.9814" x2="458.8872" y1="667.645" y2="667.645"/><polygon fill="#181818" points="468.8872,663.645,458.8872,667.645,468.8872,671.645,464.8872,667.645" style="stroke:#181818;stroke-width:1.0;"/><line style="stroke:#181818;stroke-width:1.0;" x1="446.8872" x2="446.8872" y1="679.645" y2="699.645"/><polygon fill="#181818" points="442.8872,689.645,446.8872,699.645,450.8872,689.645,446.8872,693.645" style="stroke:#181818;stroke-width:1.0;"/><line style="stroke:#181818;stroke-width:1.0;" x1="795.3799" x2="795.3799" y1="507.7075" y2="527.7075"/><polygon fill="#181818" points="791.3799,517.7075,795.3799,527.7075,799.3799,517.7075,795.3799,521.7075" style="stroke:#181818;stroke-width:1.0;"/><line style="stroke:#181818;stroke-width:1.0;" x1="116.8574" x2="116.8574" y1="112.667" y2="117.667"/><line style="stroke:#181818;stroke-width:1.0;" x1="116.8574" x2="446.8872" y1="117.667" y2="117.667"/><line style="stroke:#181818;stroke-width:1.0;" x1="446.8872" x2="446.8872" y1="117.667" y2="132.667"/><polygon fill="#181818" points="442.8872,122.667,446.8872,132.667,450.8872,122.667,446.8872,126.667" style="stroke:#181818;stroke-width:1.0;"/><line style="stroke:#181818;stroke-width:1.0;" x1="446.8872" x2="446.8872" y1="166.6357" y2="171.6357"/><line style="stroke:#181818;stroke-width:1.0;" x1="446.8872" x2="116.8574" y1="171.6357" y2="171.6357"/><line style="stroke:#181818;stroke-width:1.0;" x1="116.8574" x2="116.8574" y1="171.6357" y2="186.6357"/><polygon fill="#181818" points="112.8574,176.6357,116.8574,186.6357,120.8574,176.6357,116.8574,180.6357" style="stroke:#181818;stroke-width:1.0;"/><line style="stroke:#181818;stroke-width:1.0;" x1="116.8574" x2="116.8574" y1="220.6045" y2="225.6045"/><line style="stroke:#181818;stroke-width:1.0;" x1="116.8574" x2="446.8872" y1="225.6045" y2="225.6045"/><line style="stroke:#181818;stroke-width:1.0;" x1="446.8872" x2="446.8872" y1="225.6045" y2="240.6045"/><polygon fill="#181818" points="442.8872,230.6045,446.8872,240.6045,450.8872,230.6045,446.8872,234.6045" style="stroke:#181818;stroke-width:1.0;"/><line style="stroke:#181818;stroke-width:1.0;" x1="446.8872" x2="446.8872" y1="274.5732" y2="279.5732"/><line style="stroke:#181818;stroke-width:1.0;" x1="446.8872" x2="116.8574" y1="279.5732" y2="279.5732"/><line style="stroke:#181818;stroke-width:1.0;" x1="116.8574" x2="116.8574" y1="279.5732" y2="294.5732"/><polygon fill="#181818" points="112.8574,284.5732,116.8574,294.5732,120.8574,284.5732,116.8574,288.5732" style="stroke:#181818;stroke-width:1.0;"/><line style="stroke:#181818;stroke-width:1.0;" x1="116.8574" x2="116.8574" y1="382.5107" y2="387.5107"/><line style="stroke:#181818;stroke-width:1.0;" x1="116.8574" x2="446.8872" y1="387.5107" y2="387.5107"/><line style="stroke:#181818;stroke-width:1.0;" x1="446.8872" x2="446.8872" y1="387.5107" y2="402.5107"/><polygon fill="#181818" points="442.8872,392.5107,446.8872,402.5107,450.8872,392.5107,446.8872,396.5107" style="stroke:#181818;stroke-width:1.0;"/><line style="stroke:#181818;stroke-width:1.0;" x1="446.8872" x2="446.8872" y1="436.4795" y2="458.7388"/><line style="stroke:#181818;stroke-width:1.0;" x1="446.8872" x2="795.3799" y1="458.7388" y2="458.7388"/><line style="stroke:#181818;stroke-width:1.0;" x1="795.3799" x2="795.3799" y1="458.7388" y2="473.7388"/><polygon fill="#181818" points="791.3799,463.7388,795.3799,473.7388,799.3799,463.7388,795.3799,467.7388" style="stroke:#181818;stroke-width:1.0;"/><text fill="#000000" font-family="sans-serif" font-size="11" lengthAdjust="spacing" textLength="269.876" x="450.8872" y="452.2388">[Update warehouse information to the database]</text><line style="stroke:#181818;stroke-width:1.0;" x1="795.3799" x2="795.3799" y1="561.6763" y2="566.6763"/><line style="stroke:#181818;stroke-width:1.0;" x1="795.3799" x2="446.8872" y1="566.6763" y2="566.6763"/><line style="stroke:#181818;stroke-width:1.0;" x1="446.8872" x2="446.8872" y1="566.6763" y2="581.6763"/><polygon fill="#181818" points="442.8872,571.6763,446.8872,581.6763,450.8872,571.6763,446.8872,575.6763" style="stroke:#181818;stroke-width:1.0;"/><text fill="#000000" font-family="sans-serif" font-size="18" lengthAdjust="spacing" textLength="41.0273" x="95.3438" y="29.4531">User</text><text fill="#000000" font-family="sans-serif" font-size="18" lengthAdjust="spacing" textLength="67.1221" x="406.3423" y="29.4531">System</text><text fill="#000000" font-family="sans-serif" font-size="18" lengthAdjust="spacing" textLength="85.8867" x="751.4365" y="29.4531">Database</text><!--SRC=[TP8zJyCm48Pt_ufJ9sS0YVBPLcAXtHWGKQUgWvDSMel4Bhupg59-F9TGYWlg54LwtlUvqxbR4ePE4Pl0QleIa0W-JS2jZuIWhx8Pg2xV4sFRgUcpDvLr6w0o8Be4jAxseJLilOCAsTY6z7Z8VlSVcaUBol88YiWieBxEPkVBKT1qb1k1ZtKBnnW6f4-aTdqht8ykDn_ugxiR6ew-F1QjA4mY2VWUaHZqlQ0NZx1QxYh3U6PHzi1R125COGZNVVlyy2Fz_x9_UD0F_QYlo34uKLDin3mv6TBMe9-sMBu1nRAKdUhOW1oB8sLzcMorsYEjCmKmdLlQDMQVegrypKPKaqivfSAcrwwSFmtKSgyOCAN7FUqgMojv6txt1G00]--></g></svg>