<svg xmlns="http://www.w3.org/2000/svg" xmlns:xlink="http://www.w3.org/1999/xlink" contentStyleType="text/css" height="328px" preserveAspectRatio="none" style="width:657px;height:328px;background:#FFFFFF;" version="1.1" viewBox="0 0 657 328" width="657px" zoomAndPan="magnify"><defs/><g><rect fill="none" height="20.9531" style="stroke:none;stroke-width:1.0;" width="624.3433" x="15" y="12.7451"/><ellipse cx="110.4678" cy="48.6982" fill="#222222" rx="10" ry="10" style="stroke:#222222;stroke-width:1.0;"/><rect fill="#F1F1F1" height="33.9688" rx="12.5" ry="12.5" style="stroke:#181818;stroke-width:0.5;" width="178.9355" x="21" y="78.6982"/><text fill="#000000" font-family="sans-serif" font-size="12" lengthAdjust="spacing" textLength="158.9355" x="31" y="99.8369">Press "Warehouse" tab (1)</text><line style="stroke:#000000;stroke-width:1.5;" x1="15" x2="15" y1="12.7451" y2="316.5732"/><rect fill="#F1F1F1" height="33.9688" rx="12.5" ry="12.5" style="stroke:#181818;stroke-width:0.5;" width="228.6641" x="209.9355" y="132.667"/><text fill="#000000" font-family="sans-serif" font-size="12" lengthAdjust="spacing" textLength="208.6641" x="219.9355" y="153.8057">Loading screen Warehouse List (2)</text><rect fill="#F1F1F1" height="33.9688" rx="12.5" ry="12.5" style="stroke:#181818;stroke-width:0.5;" width="227.8145" x="210.3604" y="240.6045"/><text fill="#000000" font-family="sans-serif" font-size="12" lengthAdjust="spacing" textLength="207.8145" x="220.3604" y="261.7432">Display warehouse information (4)</text><ellipse cx="324.2676" cy="305.5732" fill="none" rx="11" ry="11" style="stroke:#222222;stroke-width:1.0;"/><ellipse cx="324.2676" cy="305.5732" fill="#222222" rx="6" ry="6" style="stroke:#222222;stroke-width:1.0;"/><line style="stroke:#000000;stroke-width:1.5;" x1="203.9355" x2="203.9355" y1="12.7451" y2="316.5732"/><rect fill="#F1F1F1" height="33.9688" rx="12.5" ry="12.5" style="stroke:#181818;stroke-width:0.5;" width="184.8828" x="448.5996" y="186.6357"/><text fill="#000000" font-family="sans-serif" font-size="12" lengthAdjust="spacing" textLength="164.8828" x="458.5996" y="207.7744">Loading warehouse data(3)</text><line style="stroke:#000000;stroke-width:1.5;" x1="442.5996" x2="442.5996" y1="12.7451" y2="316.5732"/><line style="stroke:#000000;stroke-width:1.5;" x1="637.4824" x2="637.4824" y1="12.7451" y2="316.5732"/><line style="stroke:#181818;stroke-width:1.0;" x1="110.4678" x2="110.4678" y1="58.6982" y2="78.6982"/><polygon fill="#181818" points="106.4678,68.6982,110.4678,78.6982,114.4678,68.6982,110.4678,72.6982" style="stroke:#181818;stroke-width:1.0;"/><line style="stroke:#181818;stroke-width:1.0;" x1="324.2676" x2="324.2676" y1="274.5732" y2="294.5732"/><polygon fill="#181818" points="320.2676,284.5732,324.2676,294.5732,328.2676,284.5732,324.2676,288.5732" style="stroke:#181818;stroke-width:1.0;"/><line style="stroke:#181818;stroke-width:1.0;" x1="110.4678" x2="110.4678" y1="112.667" y2="117.667"/><line style="stroke:#181818;stroke-width:1.0;" x1="110.4678" x2="324.2676" y1="117.667" y2="117.667"/><line style="stroke:#181818;stroke-width:1.0;" x1="324.2676" x2="324.2676" y1="117.667" y2="132.667"/><polygon fill="#181818" points="320.2676,122.667,324.2676,132.667,328.2676,122.667,324.2676,126.667" style="stroke:#181818;stroke-width:1.0;"/><line style="stroke:#181818;stroke-width:1.0;" x1="324.2676" x2="324.2676" y1="166.6357" y2="171.6357"/><line style="stroke:#181818;stroke-width:1.0;" x1="324.2676" x2="541.041" y1="171.6357" y2="171.6357"/><line style="stroke:#181818;stroke-width:1.0;" x1="541.041" x2="541.041" y1="171.6357" y2="186.6357"/><polygon fill="#181818" points="537.041,176.6357,541.041,186.6357,545.041,176.6357,541.041,180.6357" style="stroke:#181818;stroke-width:1.0;"/><line style="stroke:#181818;stroke-width:1.0;" x1="541.041" x2="541.041" y1="220.6045" y2="225.6045"/><line style="stroke:#181818;stroke-width:1.0;" x1="541.041" x2="324.2676" y1="225.6045" y2="225.6045"/><line style="stroke:#181818;stroke-width:1.0;" x1="324.2676" x2="324.2676" y1="225.6045" y2="240.6045"/><polygon fill="#181818" points="320.2676,230.6045,324.2676,240.6045,328.2676,230.6045,324.2676,234.6045" style="stroke:#181818;stroke-width:1.0;"/><text fill="#000000" font-family="sans-serif" font-size="18" lengthAdjust="spacing" textLength="41.0273" x="88.9541" y="29.4531">User</text><text fill="#000000" font-family="sans-serif" font-size="18" lengthAdjust="spacing" textLength="67.1221" x="289.7065" y="29.4531">System</text><text fill="#000000" font-family="sans-serif" font-size="18" lengthAdjust="spacing" textLength="85.8867" x="497.0977" y="29.4531">Database</text><!--SRC=[JSwz2iCm30JWtKyXCZbZVwPapPYXK49dfL5RGMC7IQK4_F1nEmJFzzrnQL2IvDHGp3KN8LMeRYZqYX-b2Wn7y8Uw1PUkgnhDoJLzn8d34_GkH05s3JshWJ_-TOUvYag5_-vmog4_rQqhLZlMvOrheJWyeine70Fuyq_ddt7P0000]--></g></svg>