<svg xmlns="http://www.w3.org/2000/svg" xmlns:xlink="http://www.w3.org/1999/xlink" contentStyleType="text/css" height="438px" preserveAspectRatio="none" style="width:457px;height:438px;background:#FFFFFF;" version="1.1" viewBox="0 0 457 438" width="457px" zoomAndPan="magnify"><defs/><g><text fill="#000000" font-family="sans-serif" font-size="12" font-weight="bold" lengthAdjust="spacing" textLength="106.8574" x="6" y="17.1387">Asset Inventory</text><text fill="#000000" font-family="sans-serif" font-size="12" lengthAdjust="spacing" textLength="193.9688" x="6" y="33.1074">Warehouse Name: Warehouse 1</text><text fill="#000000" font-family="sans-serif" font-size="12" lengthAdjust="spacing" textLength="140.8535" x="6" y="49.0762">Manager: Nguyen Thi A</text><rect fill="#EEEEEE" height="17.9688" rx="5" ry="5" style="stroke:#000000;stroke-width:2.5;" width="92" x="9.5" y="57.4063"/><text fill="#000000" font-family="sans-serif" font-size="12" lengthAdjust="spacing" textLength="52.9336" x="24.0332" y="70.5449">Search...</text><path d="M81.4668,62.375 C79.5368,62.375 77.9668,63.945 77.9668,65.875 C77.9668,67.805 79.5368,69.375 81.4668,69.375 C82.0568,69.375 82.6368,69.235 83.1268,68.965 A1,1 0 0 0 83.2568,69.095 L84.2568,70.095 A1.02,1.02 0 1 0 85.6968,68.655 L84.6968,67.655 A1,1 0 0 0 84.5368,67.525 C84.8068,67.035 84.9768,66.465 84.9768,65.865 C84.9768,63.935 83.4068,62.365 81.4768,62.365 M81.4668,63.375 C82.8568,63.375 83.9668,64.485 83.9668,65.875 C83.9668,66.535 83.7268,67.145 83.3068,67.595 C83.2968,67.605 83.2868,67.615 83.2768,67.625 A1,1 0 0 0 83.1468,67.755 C82.7068,68.155 82.1068,68.385 81.4568,68.385 C80.0668,68.385 78.9568,67.275 78.9568,65.885 C78.9568,64.495 80.0668,63.385 81.4568,63.385 " fill="#000000" style="stroke:;stroke-width:0.0;stroke-dasharray:;"/><rect fill="#EEEEEE" height="17.9688" rx="5" ry="5" style="stroke:#000000;stroke-width:2.5;" width="52" x="109.5" y="58.4063"/><text fill="#000000" font-family="sans-serif" font-size="12" lengthAdjust="spacing" textLength="30.5918" x="120.2041" y="71.5449">Filter</text><rect fill="#EEEEEE" height="17.9688" rx="5" ry="5" style="stroke:#000000;stroke-width:2.5;" width="52" x="168.5" y="58.4063"/><text fill="#000000" font-family="sans-serif" font-size="12" lengthAdjust="spacing" textLength="39.2813" x="174.8594" y="71.5449">Export</text><text fill="#000000" font-family="sans-serif" font-size="12" lengthAdjust="spacing" textLength="49.3945" x="8" y="94.0137">Asset ID</text><line style="stroke:#000000;stroke-width:1.0;" x1="6" x2="6" y1="82.875" y2="96.8438"/><line style="stroke:#000000;stroke-width:1.0;" x1="6" x2="60.3945" y1="82.875" y2="82.875"/><line style="stroke:#000000;stroke-width:1.0;" x1="60.3945" x2="60.3945" y1="82.875" y2="96.8438"/><line style="stroke:#000000;stroke-width:1.0;" x1="60.3945" x2="70.3945" y1="96.8438" y2="96.8438"/><text fill="#000000" font-family="sans-serif" font-size="12" lengthAdjust="spacing" textLength="72.0176" x="72.3945" y="94.0137">Asset Name</text><line style="stroke:#000000;stroke-width:1.0;" x1="70.3945" x2="70.3945" y1="82.875" y2="96.8438"/><line style="stroke:#000000;stroke-width:1.0;" x1="70.3945" x2="147.4121" y1="82.875" y2="82.875"/><line style="stroke:#000000;stroke-width:1.0;" x1="147.4121" x2="147.4121" y1="82.875" y2="96.8438"/><line style="stroke:#000000;stroke-width:1.0;" x1="147.4121" x2="157.4121" y1="96.8438" y2="96.8438"/><text fill="#000000" font-family="sans-serif" font-size="12" lengthAdjust="spacing" textLength="51.8555" x="159.4121" y="94.0137">Quantity</text><line style="stroke:#000000;stroke-width:1.0;" x1="157.4121" x2="157.4121" y1="82.875" y2="96.8438"/><line style="stroke:#000000;stroke-width:1.0;" x1="157.4121" x2="214.2676" y1="82.875" y2="82.875"/><line style="stroke:#000000;stroke-width:1.0;" x1="214.2676" x2="214.2676" y1="82.875" y2="96.8438"/><line style="stroke:#000000;stroke-width:1.0;" x1="214.2676" x2="224.2676" y1="96.8438" y2="96.8438"/><text fill="#000000" font-family="sans-serif" font-size="12" lengthAdjust="spacing" textLength="24.4277" x="226.2676" y="94.0137">Unit</text><line style="stroke:#000000;stroke-width:1.0;" x1="224.2676" x2="224.2676" y1="82.875" y2="96.8438"/><line style="stroke:#000000;stroke-width:1.0;" x1="224.2676" x2="253.6953" y1="82.875" y2="82.875"/><line style="stroke:#000000;stroke-width:1.0;" x1="253.6953" x2="253.6953" y1="82.875" y2="96.8438"/><line style="stroke:#000000;stroke-width:1.0;" x1="253.6953" x2="263.6953" y1="96.8438" y2="96.8438"/><text fill="#000000" font-family="sans-serif" font-size="12" lengthAdjust="spacing" textLength="38.2383" x="265.6953" y="94.0137">Status</text><line style="stroke:#000000;stroke-width:1.0;" x1="263.6953" x2="263.6953" y1="82.875" y2="96.8438"/><line style="stroke:#000000;stroke-width:1.0;" x1="263.6953" x2="306.9336" y1="82.875" y2="82.875"/><line style="stroke:#000000;stroke-width:1.0;" x1="306.9336" x2="306.9336" y1="82.875" y2="96.8438"/><line style="stroke:#000000;stroke-width:1.0;" x1="306.9336" x2="316.9336" y1="96.8438" y2="96.8438"/><text fill="#000000" font-family="sans-serif" font-size="12" lengthAdjust="spacing" textLength="36.9141" x="318.9336" y="94.0137">Check</text><line style="stroke:#000000;stroke-width:1.0;" x1="316.9336" x2="316.9336" y1="82.875" y2="96.8438"/><line style="stroke:#000000;stroke-width:1.0;" x1="316.9336" x2="358.8477" y1="82.875" y2="82.875"/><line style="stroke:#000000;stroke-width:1.0;" x1="358.8477" x2="358.8477" y1="82.875" y2="96.8438"/><line style="stroke:#000000;stroke-width:1.0;" x1="358.8477" x2="368.8477" y1="96.8438" y2="96.8438"/><text fill="#000000" font-family="sans-serif" font-size="12" lengthAdjust="spacing" textLength="28.4063" x="370.8477" y="94.0137">Note</text><line style="stroke:#000000;stroke-width:1.0;" x1="368.8477" x2="368.8477" y1="82.875" y2="96.8438"/><line style="stroke:#000000;stroke-width:1.0;" x1="368.8477" x2="402.2539" y1="82.875" y2="82.875"/><line style="stroke:#000000;stroke-width:1.0;" x1="402.2539" x2="402.2539" y1="82.875" y2="96.8438"/><line style="stroke:#000000;stroke-width:1.0;" x1="402.2539" x2="412.2539" y1="96.8438" y2="96.8438"/><text fill="#000000" font-family="sans-serif" font-size="12" lengthAdjust="spacing" textLength="22.9043" x="7" y="110.9824">001</text><text fill="#000000" font-family="sans-serif" font-size="12" lengthAdjust="spacing" textLength="33.0176" x="39.9043" y="110.9824">Table</text><text fill="#000000" font-family="sans-serif" font-size="12" lengthAdjust="spacing" textLength="15.2695" x="109.5586" y="110.9824">50</text><text fill="#000000" font-family="sans-serif" font-size="12" lengthAdjust="spacing" textLength="20.4668" x="142.4629" y="110.9824">pcs</text><text fill="#000000" font-family="sans-serif" font-size="12" lengthAdjust="spacing" textLength="79.0957" x="172.9297" y="110.9824">Under Repair</text><text fill="#000000" font-family="sans-serif" font-size="12" lengthAdjust="spacing" textLength="36.9141" x="262.0254" y="110.9824">Check</text><text fill="#000000" font-family="sans-serif" font-size="12" lengthAdjust="spacing" textLength="75.6914" x="325.3281" y="110.9824">Under repair</text><text fill="#000000" font-family="sans-serif" font-size="12" lengthAdjust="spacing" textLength="22.9043" x="7" y="124.9512">002</text><text fill="#000000" font-family="sans-serif" font-size="12" lengthAdjust="spacing" textLength="59.6543" x="39.9043" y="124.9512">Computer</text><text fill="#000000" font-family="sans-serif" font-size="12" lengthAdjust="spacing" textLength="15.2695" x="109.5586" y="124.9512">10</text><text fill="#000000" font-family="sans-serif" font-size="12" lengthAdjust="spacing" textLength="20.4668" x="142.4629" y="124.9512">pcs</text><text fill="#000000" font-family="sans-serif" font-size="12" lengthAdjust="spacing" textLength="61.9102" x="172.9297" y="124.9512">In Storage</text><text fill="#000000" font-family="sans-serif" font-size="12" lengthAdjust="spacing" textLength="53.3027" x="262.0254" y="124.9512">UnCheck</text><text fill="#000000" font-family="sans-serif" font-size="12" lengthAdjust="spacing" textLength="45.2461" x="325.3281" y="124.9512">Unused</text><text fill="#000000" font-family="sans-serif" font-size="12" lengthAdjust="spacing" textLength="22.9043" x="7" y="138.9199">003</text><text fill="#000000" font-family="sans-serif" font-size="12" lengthAdjust="spacing" textLength="22.5586" x="39.9043" y="138.9199">Self</text><text fill="#000000" font-family="sans-serif" font-size="12" lengthAdjust="spacing" textLength="22.9043" x="109.5586" y="138.9199">200</text><text fill="#000000" font-family="sans-serif" font-size="12" lengthAdjust="spacing" textLength="20.4668" x="142.4629" y="138.9199">pcs</text><text fill="#000000" font-family="sans-serif" font-size="12" lengthAdjust="spacing" textLength="37.377" x="172.9297" y="138.9199">In Use</text><text fill="#000000" font-family="sans-serif" font-size="12" lengthAdjust="spacing" textLength="36.9141" x="262.0254" y="138.9199">Check</text><text fill="#000000" font-family="sans-serif" font-size="12" lengthAdjust="spacing" textLength="90.8965" x="325.3281" y="138.9199">Good condition</text><line style="stroke:#888888;stroke-width:1.0;" x1="7" x2="7" y1="99.8438" y2="141.75"/><line style="stroke:#888888;stroke-width:1.0;" x1="34.9043" x2="34.9043" y1="99.8438" y2="141.75"/><line style="stroke:#888888;stroke-width:1.0;" x1="104.5586" x2="104.5586" y1="99.8438" y2="141.75"/><line style="stroke:#888888;stroke-width:1.0;" x1="137.4629" x2="137.4629" y1="99.8438" y2="141.75"/><line style="stroke:#888888;stroke-width:1.0;" x1="167.9297" x2="167.9297" y1="99.8438" y2="141.75"/><line style="stroke:#888888;stroke-width:1.0;" x1="257.0254" x2="257.0254" y1="99.8438" y2="141.75"/><line style="stroke:#888888;stroke-width:1.0;" x1="320.3281" x2="320.3281" y1="99.8438" y2="141.75"/><line style="stroke:#888888;stroke-width:1.0;" x1="421.2246" x2="421.2246" y1="99.8438" y2="141.75"/><line style="stroke:#000000;stroke-width:1.0;" x1="6" x2="419.2246" y1="98.8438" y2="98.8438"/><line style="stroke:#000000;stroke-width:1.0;" x1="6" x2="419.2246" y1="142.75" y2="142.75"/><line style="stroke:#000000;stroke-width:1.0;" x1="6" x2="6" y1="98.8438" y2="142.75"/><line style="stroke:#000000;stroke-width:1.0;" x1="419.2246" x2="419.2246" y1="98.8438" y2="142.75"/><rect fill="none" height="43.9063" style="stroke:#000000;stroke-width:1.0;" width="15" x="423.2246" y="98.8438"/><line style="stroke:#000000;stroke-width:1.0;" x1="423.2246" x2="438.2246" y1="110.8438" y2="110.8438"/><line style="stroke:#000000;stroke-width:1.0;" x1="423.2246" x2="438.2246" y1="130.75" y2="130.75"/><path d="M430.2246,102.8438 L433.2246,107.8438 L427.2246,107.8438 L430.2246,102.8438 " fill="#000000" style="stroke:#000000;stroke-width:1.0;"/><path d="M430.2246,139.75 L433.2246,134.75 L427.2246,134.75 L430.2246,139.75 " fill="#000000" style="stroke:#000000;stroke-width:1.0;"/><rect fill="none" height="15" style="stroke:#000000;stroke-width:1.0;" width="413.2246" x="6" y="146.75"/><line style="stroke:#000000;stroke-width:1.0;" x1="18" x2="18" y1="146.75" y2="161.75"/><line style="stroke:#000000;stroke-width:1.0;" x1="407.2246" x2="407.2246" y1="146.75" y2="161.75"/><path d="M10,153.75 L15,156.75 L15,150.75 L10,153.75 " fill="#000000" style="stroke:#000000;stroke-width:1.0;"/><path d="M416.2246,153.75 L411.2246,156.75 L411.2246,150.75 L416.2246,153.75 " fill="#000000" style="stroke:#000000;stroke-width:1.0;"/><rect fill="#EEEEEE" height="17.9688" rx="5" ry="5" style="stroke:#000000;stroke-width:2.5;" width="44" x="8.5" y="177.25"/><text fill="#000000" font-family="sans-serif" font-size="12" lengthAdjust="spacing" textLength="32.6895" x="14.1553" y="190.3887">Close</text><line style="stroke:#AAAAAA;stroke-width:1.0;" x1="6" x2="450.2246" y1="202.2188" y2="202.2188"/><line style="stroke:#AAAAAA;stroke-width:1.0;" x1="6" x2="450.2246" y1="204.2188" y2="204.2188"/><text fill="#000000" font-family="sans-serif" font-size="12" lengthAdjust="spacing" textLength="68.8535" x="6" y="218.8574">Notification</text><text fill="#000000" font-family="sans-serif" font-size="12" font-weight="bold" lengthAdjust="spacing" textLength="34.1953" x="7" y="235.8262">Error</text><text fill="#000000" font-family="sans-serif" font-size="12" lengthAdjust="spacing" textLength="198.3398" x="7" y="251.7949">Failed to retrieve inventory data.</text><rect fill="#EEEEEE" height="17.9688" rx="5" ry="5" style="stroke:#000000;stroke-width:2.5;" width="52" x="9.5" y="259.125"/><text fill="#000000" font-family="sans-serif" font-size="12" lengthAdjust="spacing" textLength="38.8711" x="16.0645" y="272.2637">cancel</text><line style="stroke:#000000;stroke-width:1.0;" x1="6" x2="206.3398" y1="223.6875" y2="223.6875"/><line style="stroke:#000000;stroke-width:1.0;" x1="6" x2="206.3398" y1="280.5938" y2="280.5938"/><line style="stroke:#000000;stroke-width:1.0;" x1="6" x2="6" y1="223.6875" y2="239.6563"/><line style="stroke:#000000;stroke-width:1.0;" x1="206.3398" x2="206.3398" y1="239.6563" y2="255.625"/><line style="stroke:#000000;stroke-width:1.0;" x1="206.3398" x2="206.3398" y1="223.6875" y2="239.6563"/><line style="stroke:#000000;stroke-width:1.0;" x1="6" x2="6" y1="255.625" y2="280.5938"/><line style="stroke:#000000;stroke-width:1.0;" x1="6" x2="6" y1="239.6563" y2="255.625"/><line style="stroke:#000000;stroke-width:1.0;" x1="206.3398" x2="206.3398" y1="255.625" y2="280.5938"/><line style="stroke:#AAAAAA;stroke-width:1.0;stroke-dasharray:1.0,2.0;" x1="6" x2="450.2246" y1="286.0938" y2="286.0938"/><text fill="#000000" font-family="sans-serif" font-size="12" font-weight="bold" lengthAdjust="spacing" textLength="57.041" x="7" y="302.7324">Warning</text><text fill="#000000" font-family="sans-serif" font-size="12" lengthAdjust="spacing" textLength="215.1738" x="7" y="318.7012">The inventory checklist is outdated.</text><rect fill="#EEEEEE" height="17.9688" rx="5" ry="5" style="stroke:#000000;stroke-width:2.5;" width="52" x="9.5" y="326.0313"/><text fill="#000000" font-family="sans-serif" font-size="12" lengthAdjust="spacing" textLength="38.8711" x="16.0645" y="339.1699">cancel</text><rect fill="#EEEEEE" height="17.9688" rx="5" ry="5" style="stroke:#000000;stroke-width:2.5;" width="21.3145" x="226.6738" y="326.0313"/><text fill="#000000" font-family="sans-serif" font-size="12" lengthAdjust="spacing" textLength="17.3145" x="228.6738" y="339.1699">OK</text><line style="stroke:#000000;stroke-width:1.0;" x1="6" x2="223.1738" y1="290.5938" y2="290.5938"/><line style="stroke:#000000;stroke-width:1.0;" x1="223.1738" x2="251.4883" y1="290.5938" y2="290.5938"/><line style="stroke:#000000;stroke-width:1.0;" x1="6" x2="223.1738" y1="347.5" y2="347.5"/><line style="stroke:#000000;stroke-width:1.0;" x1="223.1738" x2="251.4883" y1="347.5" y2="347.5"/><line style="stroke:#000000;stroke-width:1.0;" x1="6" x2="6" y1="290.5938" y2="306.5625"/><line style="stroke:#000000;stroke-width:1.0;" x1="251.4883" x2="251.4883" y1="322.5313" y2="347.5"/><line style="stroke:#000000;stroke-width:1.0;" x1="251.4883" x2="251.4883" y1="306.5625" y2="322.5313"/><line style="stroke:#000000;stroke-width:1.0;" x1="251.4883" x2="251.4883" y1="290.5938" y2="306.5625"/><line style="stroke:#000000;stroke-width:1.0;" x1="6" x2="6" y1="322.5313" y2="347.5"/><line style="stroke:#000000;stroke-width:1.0;" x1="6" x2="6" y1="306.5625" y2="322.5313"/><line style="stroke:#AAAAAA;stroke-width:1.0;stroke-dasharray:1.0,2.0;" x1="6" x2="450.2246" y1="353" y2="353"/><text fill="#000000" font-family="sans-serif" font-size="12" font-weight="bold" lengthAdjust="spacing" textLength="57.041" x="7" y="369.6387">Warning</text><text fill="#000000" font-family="sans-serif" font-size="12" lengthAdjust="spacing" textLength="147.7793" x="7" y="385.6074">Missing assets detected.</text><rect fill="#EEEEEE" height="17.9688" rx="5" ry="5" style="stroke:#000000;stroke-width:2.5;" width="52" x="9.5" y="392.9375"/><text fill="#000000" font-family="sans-serif" font-size="12" lengthAdjust="spacing" textLength="38.8711" x="16.0645" y="406.0762">cancel</text><rect fill="#EEEEEE" height="17.9688" rx="5" ry="5" style="stroke:#000000;stroke-width:2.5;" width="21.3145" x="159.2793" y="392.9375"/><text fill="#000000" font-family="sans-serif" font-size="12" lengthAdjust="spacing" textLength="17.3145" x="161.2793" y="406.0762">OK</text><line style="stroke:#000000;stroke-width:1.0;" x1="6" x2="155.7793" y1="357.5" y2="357.5"/><line style="stroke:#000000;stroke-width:1.0;" x1="155.7793" x2="184.0938" y1="357.5" y2="357.5"/><line style="stroke:#000000;stroke-width:1.0;" x1="6" x2="155.7793" y1="414.4063" y2="414.4063"/><line style="stroke:#000000;stroke-width:1.0;" x1="155.7793" x2="184.0938" y1="414.4063" y2="414.4063"/><line style="stroke:#000000;stroke-width:1.0;" x1="6" x2="6" y1="357.5" y2="373.4688"/><line style="stroke:#000000;stroke-width:1.0;" x1="184.0938" x2="184.0938" y1="389.4375" y2="414.4063"/><line style="stroke:#000000;stroke-width:1.0;" x1="184.0938" x2="184.0938" y1="373.4688" y2="389.4375"/><line style="stroke:#000000;stroke-width:1.0;" x1="184.0938" x2="184.0938" y1="357.5" y2="373.4688"/><line style="stroke:#000000;stroke-width:1.0;" x1="6" x2="6" y1="389.4375" y2="414.4063"/><line style="stroke:#000000;stroke-width:1.0;" x1="6" x2="6" y1="373.4688" y2="389.4375"/><line style="stroke:#000000;stroke-width:1.0;" x1="5" x2="450.2246" y1="5" y2="5"/><line style="stroke:#000000;stroke-width:1.0;" x1="5" x2="450.2246" y1="431.375" y2="431.375"/><line style="stroke:#000000;stroke-width:1.0;" x1="5" x2="5" y1="5" y2="20.9688"/><line style="stroke:#000000;stroke-width:1.0;" x1="450.2246" x2="450.2246" y1="5" y2="20.9688"/><line style="stroke:#000000;stroke-width:1.0;" x1="5" x2="5" y1="289.5938" y2="348.5"/><line style="stroke:#000000;stroke-width:1.0;" x1="450.2246" x2="450.2246" y1="289.5938" y2="348.5"/><line style="stroke:#000000;stroke-width:1.0;" x1="5" x2="5" y1="198.7188" y2="206.7188"/><line style="stroke:#000000;stroke-width:1.0;" x1="450.2246" x2="450.2246" y1="198.7188" y2="206.7188"/><line style="stroke:#000000;stroke-width:1.0;" x1="5" x2="5" y1="52.9063" y2="81.875"/><line style="stroke:#000000;stroke-width:1.0;" x1="450.2246" x2="450.2246" y1="52.9063" y2="81.875"/><line style="stroke:#000000;stroke-width:1.0;" x1="5" x2="5" y1="415.4063" y2="431.375"/><line style="stroke:#000000;stroke-width:1.0;" x1="450.2246" x2="450.2246" y1="415.4063" y2="431.375"/><line style="stroke:#000000;stroke-width:1.0;" x1="5" x2="5" y1="281.5938" y2="289.5938"/><line style="stroke:#000000;stroke-width:1.0;" x1="450.2246" x2="450.2246" y1="281.5938" y2="289.5938"/><line style="stroke:#000000;stroke-width:1.0;" x1="5" x2="5" y1="173.75" y2="198.7188"/><line style="stroke:#000000;stroke-width:1.0;" x1="450.2246" x2="450.2246" y1="173.75" y2="198.7188"/><line style="stroke:#000000;stroke-width:1.0;" x1="5" x2="5" y1="36.9375" y2="52.9063"/><line style="stroke:#000000;stroke-width:1.0;" x1="450.2246" x2="450.2246" y1="36.9375" y2="52.9063"/><line style="stroke:#000000;stroke-width:1.0;" x1="5" x2="5" y1="356.5" y2="415.4063"/><line style="stroke:#000000;stroke-width:1.0;" x1="450.2246" x2="450.2246" y1="356.5" y2="415.4063"/><line style="stroke:#000000;stroke-width:1.0;" x1="5" x2="5" y1="222.6875" y2="281.5938"/><line style="stroke:#000000;stroke-width:1.0;" x1="450.2246" x2="450.2246" y1="222.6875" y2="281.5938"/><line style="stroke:#000000;stroke-width:1.0;" x1="5" x2="5" y1="97.8438" y2="173.75"/><line style="stroke:#000000;stroke-width:1.0;" x1="450.2246" x2="450.2246" y1="97.8438" y2="173.75"/><line style="stroke:#000000;stroke-width:1.0;" x1="5" x2="5" y1="20.9688" y2="36.9375"/><line style="stroke:#000000;stroke-width:1.0;" x1="450.2246" x2="450.2246" y1="20.9688" y2="36.9375"/><line style="stroke:#000000;stroke-width:1.0;" x1="5" x2="5" y1="348.5" y2="356.5"/><line style="stroke:#000000;stroke-width:1.0;" x1="450.2246" x2="450.2246" y1="348.5" y2="356.5"/><line style="stroke:#000000;stroke-width:1.0;" x1="5" x2="5" y1="206.7188" y2="222.6875"/><line style="stroke:#000000;stroke-width:1.0;" x1="450.2246" x2="450.2246" y1="206.7188" y2="222.6875"/><line style="stroke:#000000;stroke-width:1.0;" x1="5" x2="5" y1="81.875" y2="97.8438"/><line style="stroke:#000000;stroke-width:1.0;" x1="450.2246" x2="450.2246" y1="81.875" y2="97.8438"/><rect fill="none" height="43.9063" style="stroke:#000000;stroke-width:1.0;" width="15" x="423.2246" y="98.8438"/><line style="stroke:#000000;stroke-width:1.0;" x1="423.2246" x2="438.2246" y1="110.8438" y2="110.8438"/><line style="stroke:#000000;stroke-width:1.0;" x1="423.2246" x2="438.2246" y1="130.75" y2="130.75"/><path d="M430.2246,102.8438 L433.2246,107.8438 L427.2246,107.8438 L430.2246,102.8438 " fill="#000000" style="stroke:#000000;stroke-width:1.0;"/><path d="M430.2246,139.75 L433.2246,134.75 L427.2246,134.75 L430.2246,139.75 " fill="#000000" style="stroke:#000000;stroke-width:1.0;"/><rect fill="none" height="15" style="stroke:#000000;stroke-width:1.0;" width="413.2246" x="6" y="146.75"/><line style="stroke:#000000;stroke-width:1.0;" x1="18" x2="18" y1="146.75" y2="161.75"/><line style="stroke:#000000;stroke-width:1.0;" x1="407.2246" x2="407.2246" y1="146.75" y2="161.75"/><path d="M10,153.75 L15,156.75 L15,150.75 L10,153.75 " fill="#000000" style="stroke:#000000;stroke-width:1.0;"/><path d="M416.2246,153.75 L411.2246,156.75 L411.2246,150.75 L416.2246,153.75 " fill="#000000" style="stroke:#000000;stroke-width:1.0;"/><!--SRC=[RL9jRzem4Fv-l-BsPMeraIMi7LNKLkrugKg1TWtfFY0-cEG8re8TsGuQ0lxxpWn49pMMOj_BS_US7zzP9uopedIm-GBNizjxQydXergHSjgiuPSmjD2r9Ho99SLuiYCO2YKACZ6EYdfD2iSBYVS0iC59Gi9aYo08hZylHQ7aV2rLqIXAOUtj5BV8AJrPEZBUc7J_LDguwMxdmL_nmA73eNz7tvgDdxLGJherRbCbtHOnSSBLbYFj1MM_UHzfHuWxs2Im6Nz22CE8lMCnApqUBqF-Lvb7f2edWwzK2McE1OvUi_SokEaZUbdLJDJZenF-KN5tRNZ-VR4ZWLJnrUGC_SP6GkMSjsRu7oorz8xnWzOvPbhbqacjOCThqYwrfIa0ydTp0poKdCjCx1CECdMDqGPwGfQKezDCsHb9Aq9vL0vpuKG0aqoeZCefrms20vWrL2m7Z1VlypFFg9JMeRIeQyTuoay5l4xFJn_M6KfhUKVXnRAOawFiGoo3_KmGyE6ELBv_T_1IigpfS80hCfPdn2XeXisBe7MM2CUNM67OmYYAewiuQc4wRgCFdyFPmyi0hQvDHfWpRoDdjR-ZS-YBbS3NcX-BVxBF5Qb-v-demAvQIQFLakU6_jlmbF3zel53-ew6cU3R43eq5tNf697fd2UCkNklSGK3eOgQfO-H5BGrrpLhZYL_0G00]--></g></svg>