<svg xmlns="http://www.w3.org/2000/svg" xmlns:xlink="http://www.w3.org/1999/xlink" contentStyleType="text/css" height="375px" preserveAspectRatio="none" style="width:548px;height:375px;background:#FFFFFF;" version="1.1" viewBox="0 0 548 375" width="548px" zoomAndPan="magnify"><defs/><g><text fill="#000000" font-family="sans-serif" font-size="12" font-weight="bold" lengthAdjust="spacing" textLength="158.4609" x="6" y="17.1387">Create New Warehouse</text><text fill="#000000" font-family="sans-serif" font-size="12" lengthAdjust="spacing" textLength="110.9824" x="7" y="34.1074">Warehouse Name:</text><text fill="#000000" font-family="sans-serif" font-size="12" lengthAdjust="spacing" textLength="106.9395" x="304.3867" y="34.1074">Warehouse Name</text><line style="stroke:#000000;stroke-width:1.0;" x1="302.3867" x2="433.3867" y1="36.9375" y2="36.9375"/><line style="stroke:#000000;stroke-width:1.0;" x1="302.3867" x2="302.3867" y1="33.9375" y2="35.9375"/><line style="stroke:#000000;stroke-width:1.0;" x1="433.3867" x2="433.3867" y1="33.9375" y2="35.9375"/><text fill="#000000" font-family="sans-serif" font-size="12" lengthAdjust="spacing" textLength="52.3066" x="7" y="52.0762">Address:</text><text fill="#000000" font-family="sans-serif" font-size="12" lengthAdjust="spacing" textLength="121.1719" x="304.3867" y="52.0762">123, Tran Hung Dao</text><line style="stroke:#000000;stroke-width:1.0;" x1="302.3867" x2="489.3867" y1="54.9063" y2="54.9063"/><line style="stroke:#000000;stroke-width:1.0;" x1="302.3867" x2="302.3867" y1="51.9063" y2="53.9063"/><line style="stroke:#000000;stroke-width:1.0;" x1="489.3867" x2="489.3867" y1="51.9063" y2="53.9063"/><text fill="#000000" font-family="sans-serif" font-size="12" lengthAdjust="spacing" textLength="33.4746" x="7" y="70.0449">Type:</text><text fill="#000000" font-family="sans-serif" font-size="12" lengthAdjust="spacing" textLength="23.9297" x="321.3867" y="70.0449">Seft</text><ellipse cx="308.3867" cy="65.8906" fill="none" rx="5" ry="5" style="stroke:#000000;stroke-width:1.5;"/><text fill="#000000" font-family="sans-serif" font-size="12" lengthAdjust="spacing" textLength="28.0313" x="513.3867" y="70.0449">Rent</text><ellipse cx="500.3867" cy="65.8906" fill="none" rx="5" ry="5" style="stroke:#000000;stroke-width:1.5;"/><ellipse cx="500.3867" cy="65.8906" fill="#000000" rx="2" ry="2" style="stroke:#000000;stroke-width:1.5;"/><text fill="#000000" font-family="sans-serif" font-size="12" lengthAdjust="spacing" textLength="33.5273" x="7" y="86.0137">Price:</text><text fill="#000000" font-family="sans-serif" font-size="12" lengthAdjust="spacing" textLength="79.0781" x="304.3867" y="86.0137">100 000 USD</text><line style="stroke:#000000;stroke-width:1.0;" x1="302.3867" x2="409.3867" y1="88.8438" y2="88.8438"/><line style="stroke:#000000;stroke-width:1.0;" x1="302.3867" x2="302.3867" y1="85.8438" y2="87.8438"/><line style="stroke:#000000;stroke-width:1.0;" x1="409.3867" x2="409.3867" y1="85.8438" y2="87.8438"/><text fill="#000000" font-family="sans-serif" font-size="12" lengthAdjust="spacing" textLength="48.1934" x="7" y="103.9824">Partner:</text><text fill="#000000" font-family="sans-serif" font-size="12" lengthAdjust="spacing" textLength="76.4648" x="304.3867" y="103.9824">CTY TNHH....</text><line style="stroke:#000000;stroke-width:1.0;" x1="302.3867" x2="433.3867" y1="106.8125" y2="106.8125"/><line style="stroke:#000000;stroke-width:1.0;" x1="302.3867" x2="302.3867" y1="103.8125" y2="105.8125"/><line style="stroke:#000000;stroke-width:1.0;" x1="433.3867" x2="433.3867" y1="103.8125" y2="105.8125"/><text fill="#000000" font-family="sans-serif" font-size="12" lengthAdjust="spacing" textLength="56.6426" x="7" y="121.9512">Manager:</text><text fill="#000000" font-family="sans-serif" font-size="12" lengthAdjust="spacing" textLength="80.3965" x="304.3867" y="121.9512">Nguyen Thi A</text><line style="stroke:#000000;stroke-width:1.0;" x1="302.3867" x2="433.3867" y1="124.7813" y2="124.7813"/><line style="stroke:#000000;stroke-width:1.0;" x1="302.3867" x2="302.3867" y1="121.7813" y2="123.7813"/><line style="stroke:#000000;stroke-width:1.0;" x1="433.3867" x2="433.3867" y1="121.7813" y2="123.7813"/><rect fill="#EEEEEE" height="17.9688" rx="5" ry="5" style="stroke:#000000;stroke-width:2.5;" width="52" x="9.5" y="131.2813"/><text fill="#000000" font-family="sans-serif" font-size="12" lengthAdjust="spacing" textLength="40.6523" x="15.1738" y="144.4199">Cancel</text><rect fill="#EEEEEE" height="17.9688" rx="5" ry="5" style="stroke:#000000;stroke-width:2.5;" width="52" x="303.8867" y="131.2813"/><text fill="#000000" font-family="sans-serif" font-size="12" lengthAdjust="spacing" textLength="40.1367" x="309.8184" y="144.4199">Create</text><line style="stroke:#AAAAAA;stroke-width:1.0;" x1="7" x2="300.3867" y1="156.25" y2="156.25"/><line style="stroke:#AAAAAA;stroke-width:1.0;" x1="7" x2="300.3867" y1="158.25" y2="158.25"/><text fill="#000000" font-family="sans-serif" font-size="12" lengthAdjust="spacing" textLength="68.8535" x="7" y="172.8887">Notification</text><text fill="#000000" font-family="sans-serif" font-size="12" font-weight="bold" lengthAdjust="spacing" textLength="53.8359" x="8" y="189.8574">Success</text><text fill="#000000" font-family="sans-serif" font-size="12" lengthAdjust="spacing" textLength="193.8633" x="8" y="205.8262">Warehouse created successfully</text><rect fill="#EEEEEE" height="17.9688" rx="5" ry="5" style="stroke:#000000;stroke-width:2.5;" width="52" x="10.5" y="213.1563"/><text fill="#000000" font-family="sans-serif" font-size="12" lengthAdjust="spacing" textLength="38.8711" x="17.0645" y="226.2949">cancel</text><line style="stroke:#000000;stroke-width:1.0;" x1="7" x2="202.8633" y1="177.7188" y2="177.7188"/><line style="stroke:#000000;stroke-width:1.0;" x1="7" x2="202.8633" y1="234.625" y2="234.625"/><line style="stroke:#000000;stroke-width:1.0;" x1="7" x2="7" y1="177.7188" y2="193.6875"/><line style="stroke:#000000;stroke-width:1.0;" x1="202.8633" x2="202.8633" y1="193.6875" y2="209.6563"/><line style="stroke:#000000;stroke-width:1.0;" x1="202.8633" x2="202.8633" y1="177.7188" y2="193.6875"/><line style="stroke:#000000;stroke-width:1.0;" x1="7" x2="7" y1="209.6563" y2="234.625"/><line style="stroke:#000000;stroke-width:1.0;" x1="7" x2="7" y1="193.6875" y2="209.6563"/><line style="stroke:#000000;stroke-width:1.0;" x1="202.8633" x2="202.8633" y1="209.6563" y2="234.625"/><line style="stroke:#AAAAAA;stroke-width:1.0;stroke-dasharray:1.0,2.0;" x1="7" x2="300.3867" y1="240.125" y2="240.125"/><text fill="#000000" font-family="sans-serif" font-size="12" font-weight="bold" lengthAdjust="spacing" textLength="57.041" x="8" y="256.7637">Warning</text><text fill="#000000" font-family="sans-serif" font-size="12" lengthAdjust="spacing" textLength="189.6387" x="8" y="272.7324">Please fill in the required fields.</text><rect fill="#EEEEEE" height="17.9688" rx="5" ry="5" style="stroke:#000000;stroke-width:2.5;" width="52" x="10.5" y="280.0625"/><text fill="#000000" font-family="sans-serif" font-size="12" lengthAdjust="spacing" textLength="38.8711" x="17.0645" y="293.2012">cancel</text><rect fill="#EEEEEE" height="17.9688" rx="5" ry="5" style="stroke:#000000;stroke-width:2.5;" width="21.3145" x="202.1387" y="280.0625"/><text fill="#000000" font-family="sans-serif" font-size="12" lengthAdjust="spacing" textLength="17.3145" x="204.1387" y="293.2012">OK</text><line style="stroke:#000000;stroke-width:1.0;" x1="7" x2="198.6387" y1="244.625" y2="244.625"/><line style="stroke:#000000;stroke-width:1.0;" x1="198.6387" x2="226.9531" y1="244.625" y2="244.625"/><line style="stroke:#000000;stroke-width:1.0;" x1="7" x2="198.6387" y1="301.5313" y2="301.5313"/><line style="stroke:#000000;stroke-width:1.0;" x1="198.6387" x2="226.9531" y1="301.5313" y2="301.5313"/><line style="stroke:#000000;stroke-width:1.0;" x1="7" x2="7" y1="244.625" y2="260.5938"/><line style="stroke:#000000;stroke-width:1.0;" x1="226.9531" x2="226.9531" y1="276.5625" y2="301.5313"/><line style="stroke:#000000;stroke-width:1.0;" x1="226.9531" x2="226.9531" y1="260.5938" y2="276.5625"/><line style="stroke:#000000;stroke-width:1.0;" x1="226.9531" x2="226.9531" y1="244.625" y2="260.5938"/><line style="stroke:#000000;stroke-width:1.0;" x1="7" x2="7" y1="276.5625" y2="301.5313"/><line style="stroke:#000000;stroke-width:1.0;" x1="7" x2="7" y1="260.5938" y2="276.5625"/><line style="stroke:#AAAAAA;stroke-width:1.0;stroke-dasharray:1.0,2.0;" x1="7" x2="300.3867" y1="307.0313" y2="307.0313"/><text fill="#000000" font-family="sans-serif" font-size="12" font-weight="bold" lengthAdjust="spacing" textLength="57.041" x="8" y="323.6699">Warning</text><text fill="#000000" font-family="sans-serif" font-size="12" lengthAdjust="spacing" textLength="262.0723" x="8" y="339.6387">A warehouse with this name already exists.</text><rect fill="#EEEEEE" height="17.9688" rx="5" ry="5" style="stroke:#000000;stroke-width:2.5;" width="52" x="10.5" y="346.9688"/><text fill="#000000" font-family="sans-serif" font-size="12" lengthAdjust="spacing" textLength="38.8711" x="17.0645" y="360.1074">cancel</text><rect fill="#EEEEEE" height="17.9688" rx="5" ry="5" style="stroke:#000000;stroke-width:2.5;" width="21.3145" x="274.5723" y="346.9688"/><text fill="#000000" font-family="sans-serif" font-size="12" lengthAdjust="spacing" textLength="17.3145" x="276.5723" y="360.1074">OK</text><line style="stroke:#000000;stroke-width:1.0;" x1="7" x2="271.0723" y1="311.5313" y2="311.5313"/><line style="stroke:#000000;stroke-width:1.0;" x1="271.0723" x2="299.3867" y1="311.5313" y2="311.5313"/><line style="stroke:#000000;stroke-width:1.0;" x1="7" x2="271.0723" y1="368.4375" y2="368.4375"/><line style="stroke:#000000;stroke-width:1.0;" x1="271.0723" x2="299.3867" y1="368.4375" y2="368.4375"/><line style="stroke:#000000;stroke-width:1.0;" x1="7" x2="7" y1="311.5313" y2="327.5"/><line style="stroke:#000000;stroke-width:1.0;" x1="299.3867" x2="299.3867" y1="343.4688" y2="368.4375"/><line style="stroke:#000000;stroke-width:1.0;" x1="299.3867" x2="299.3867" y1="327.5" y2="343.4688"/><line style="stroke:#000000;stroke-width:1.0;" x1="299.3867" x2="299.3867" y1="311.5313" y2="327.5"/><line style="stroke:#000000;stroke-width:1.0;" x1="7" x2="7" y1="343.4688" y2="368.4375"/><line style="stroke:#000000;stroke-width:1.0;" x1="7" x2="7" y1="327.5" y2="343.4688"/><!--SRC=[RL9RQzim57xNhpZqAM6hiREo5BEEPiwsa2Pkg9rk8_H1jOyTWIfdkYGpNV_xZXqtPb23Z3ZVvTnqRIpNrd1fsJC3-FJuETB8BKAC1_Z1DMuhPv0HrC00_Uy4GioVC8I_SFP_2E2i9KxoNACnBICOVNWFgUOAPawLCELLm-Y8QRrhVGP3W0GBsrn_3k4EbMtnbHRPCL7W- -3JMIVJL_6Asb2eMpXAVq4QpsOUVRtzaYjUTeouT3KgIBS29Zs3TQrj8guob0_4t1p7yT36hwvON5bHY8nRKId6djyncbZYiemQP7txMIlAmHoHmabPiqrsT6KlpFCwAKcKK2LRIUIaAuIK81JOBOB6tqveCYa4ojnu9trJrUtDcpOJE9ngE0Yx9IDXG3NBu99gocl0FyBODzsw2RpGzHfLthu9AemhkrukO8_QKCyGU2D_TE6D1mctjAKT-6C8WZ2u38CnhDC86dZ81jzN2p2Lqnb2JXcrU7JDp8PiplSSxfooedarjpjKy-dDQm2-ghtGbNfgTZw_N_Q4ZnVdNqIJKLCbSBzaKoouavOKMPLJyo5b_tP-oHPSbOuM7G8g5bNagsl2ady0]--></g></svg>