<svg xmlns="http://www.w3.org/2000/svg" xmlns:xlink="http://www.w3.org/1999/xlink" contentStyleType="text/css" height="210px" preserveAspectRatio="none" style="width:578px;height:210px;background:#FFFFFF;" version="1.1" viewBox="0 0 578 210" width="578px" zoomAndPan="magnify"><defs/><g><text fill="#000000" font-family="sans-serif" font-size="12" font-weight="bold" lengthAdjust="spacing" textLength="104.8184" x="6" y="17.1387">Warehouse List</text><rect fill="#EEEEEE" height="17.9688" rx="5" ry="5" style="stroke:#000000;stroke-width:2.5;" width="92" x="8.5" y="24.4688"/><text fill="#000000" font-family="sans-serif" font-size="12" lengthAdjust="spacing" textLength="52.9336" x="23.0332" y="37.6074">Search...</text><path d="M80.4668,29.4375 C78.5368,29.4375 76.9668,31.0075 76.9668,32.9375 C76.9668,34.8675 78.5368,36.4375 80.4668,36.4375 C81.0568,36.4375 81.6368,36.2975 82.1268,36.0275 A1,1 0 0 0 82.2568,36.1575 L83.2568,37.1575 A1.02,1.02 0 1 0 84.6968,35.7175 L83.6968,34.7175 A1,1 0 0 0 83.5368,34.5875 C83.8068,34.0975 83.9768,33.5275 83.9768,32.9275 C83.9768,30.9975 82.4068,29.4275 80.4768,29.4275 M80.4668,30.4375 C81.8568,30.4375 82.9668,31.5475 82.9668,32.9375 C82.9668,33.5975 82.7268,34.2075 82.3068,34.6575 C82.2968,34.6675 82.2868,34.6775 82.2768,34.6875 A1,1 0 0 0 82.1468,34.8175 C81.7068,35.2175 81.1068,35.4475 80.4568,35.4475 C79.0668,35.4475 77.9568,34.3375 77.9568,32.9475 C77.9568,31.5575 79.0668,30.4475 80.4568,30.4475 " fill="#000000" style="stroke:;stroke-width:0.0;stroke-dasharray:;"/><rect fill="#EEEEEE" height="12" rx="5" ry="5" style="stroke:#000000;stroke-width:2.5;" width="20" x="9.5" y="50.4375"/><path d="M18.5,52.4375 L18.5,55.4375 L15.5,55.4375 L15.5,57.4375 L18.5,57.4375 L18.5,60.4375 L20.5,60.4375 L20.5,57.4375 L23.5,57.4375 L23.5,55.4375 L20.5,55.4375 L20.5,52.4375 L18.5,52.4375 " fill="#000000" style="stroke:;stroke-width:0.0;stroke-dasharray:;"/><rect fill="#EEEEEE" height="17.9688" rx="5" ry="5" style="stroke:#000000;stroke-width:2.5;" width="52" x="36.5" y="50.4375"/><text fill="#000000" font-family="sans-serif" font-size="12" lengthAdjust="spacing" textLength="39.2813" x="42.8594" y="63.5762">Export</text><text fill="#000000" font-family="sans-serif" font-size="12" lengthAdjust="spacing" textLength="106.9395" x="8" y="85.0449">Warehouse Name</text><line style="stroke:#000000;stroke-width:1.0;" x1="6" x2="6" y1="73.9063" y2="87.875"/><line style="stroke:#000000;stroke-width:1.0;" x1="6" x2="117.9395" y1="73.9063" y2="73.9063"/><line style="stroke:#000000;stroke-width:1.0;" x1="117.9395" x2="117.9395" y1="73.9063" y2="87.875"/><line style="stroke:#000000;stroke-width:1.0;" x1="117.9395" x2="127.9395" y1="87.875" y2="87.875"/><text fill="#000000" font-family="sans-serif" font-size="12" lengthAdjust="spacing" textLength="48.2637" x="129.9395" y="85.0449">Address</text><line style="stroke:#000000;stroke-width:1.0;" x1="127.9395" x2="127.9395" y1="73.9063" y2="87.875"/><line style="stroke:#000000;stroke-width:1.0;" x1="127.9395" x2="181.2031" y1="73.9063" y2="73.9063"/><line style="stroke:#000000;stroke-width:1.0;" x1="181.2031" x2="181.2031" y1="73.9063" y2="87.875"/><line style="stroke:#000000;stroke-width:1.0;" x1="181.2031" x2="191.2031" y1="87.875" y2="87.875"/><text fill="#000000" font-family="sans-serif" font-size="12" lengthAdjust="spacing" textLength="29.4316" x="193.2031" y="85.0449">Type</text><line style="stroke:#000000;stroke-width:1.0;" x1="191.2031" x2="191.2031" y1="73.9063" y2="87.875"/><line style="stroke:#000000;stroke-width:1.0;" x1="191.2031" x2="225.6348" y1="73.9063" y2="73.9063"/><line style="stroke:#000000;stroke-width:1.0;" x1="225.6348" x2="225.6348" y1="73.9063" y2="87.875"/><line style="stroke:#000000;stroke-width:1.0;" x1="225.6348" x2="235.6348" y1="87.875" y2="87.875"/><text fill="#000000" font-family="sans-serif" font-size="12" lengthAdjust="spacing" textLength="29.4844" x="237.6348" y="85.0449">Price</text><line style="stroke:#000000;stroke-width:1.0;" x1="235.6348" x2="235.6348" y1="73.9063" y2="87.875"/><line style="stroke:#000000;stroke-width:1.0;" x1="235.6348" x2="270.1191" y1="73.9063" y2="73.9063"/><line style="stroke:#000000;stroke-width:1.0;" x1="270.1191" x2="270.1191" y1="73.9063" y2="87.875"/><line style="stroke:#000000;stroke-width:1.0;" x1="270.1191" x2="280.1191" y1="87.875" y2="87.875"/><text fill="#000000" font-family="sans-serif" font-size="12" lengthAdjust="spacing" textLength="44.1504" x="282.1191" y="85.0449">Partner</text><line style="stroke:#000000;stroke-width:1.0;" x1="280.1191" x2="280.1191" y1="73.9063" y2="87.875"/><line style="stroke:#000000;stroke-width:1.0;" x1="280.1191" x2="329.2695" y1="73.9063" y2="73.9063"/><line style="stroke:#000000;stroke-width:1.0;" x1="329.2695" x2="329.2695" y1="73.9063" y2="87.875"/><line style="stroke:#000000;stroke-width:1.0;" x1="329.2695" x2="339.2695" y1="87.875" y2="87.875"/><text fill="#000000" font-family="sans-serif" font-size="12" lengthAdjust="spacing" textLength="52.5996" x="341.2695" y="85.0449">Manager</text><line style="stroke:#000000;stroke-width:1.0;" x1="339.2695" x2="339.2695" y1="73.9063" y2="87.875"/><line style="stroke:#000000;stroke-width:1.0;" x1="339.2695" x2="396.8691" y1="73.9063" y2="73.9063"/><line style="stroke:#000000;stroke-width:1.0;" x1="396.8691" x2="396.8691" y1="73.9063" y2="87.875"/><line style="stroke:#000000;stroke-width:1.0;" x1="396.8691" x2="406.8691" y1="87.875" y2="87.875"/><text fill="#000000" font-family="sans-serif" font-size="12" lengthAdjust="spacing" textLength="79.1719" x="7" y="102.0137">Warehouse 1</text><text fill="#000000" font-family="sans-serif" font-size="12" lengthAdjust="spacing" textLength="121.1719" x="96.1719" y="102.0137">123, Tran Hung Dao</text><text fill="#000000" font-family="sans-serif" font-size="12" lengthAdjust="spacing" textLength="23.9297" x="228.5332" y="102.0137">Seft</text><text fill="#000000" font-family="sans-serif" font-size="12" lengthAdjust="spacing" textLength="79.0781" x="266.5645" y="102.0137">100,000 USD</text><text fill="#000000" font-family="sans-serif" font-size="12" lengthAdjust="spacing" textLength="89.8418" x="355.6426" y="102.0137">CTY TNHH ABC</text><text fill="#000000" font-family="sans-serif" font-size="12" lengthAdjust="spacing" textLength="80.3965" x="456.6797" y="102.0137">Nguyen Thi A</text><text fill="#000000" font-family="sans-serif" font-size="12" lengthAdjust="spacing" textLength="79.1719" x="7" y="115.9824">Warehouse 2</text><text fill="#000000" font-family="sans-serif" font-size="12" lengthAdjust="spacing" textLength="65.7773" x="96.1719" y="115.9824">456, Le Loi</text><text fill="#000000" font-family="sans-serif" font-size="12" lengthAdjust="spacing" textLength="28.0313" x="228.5332" y="115.9824">Rent</text><text fill="#000000" font-family="sans-serif" font-size="12" lengthAdjust="spacing" textLength="79.0781" x="266.5645" y="115.9824">200,000 USD</text><text fill="#000000" font-family="sans-serif" font-size="12" lengthAdjust="spacing" textLength="88.793" x="355.6426" y="115.9824">CTY TNHH XYZ</text><text fill="#000000" font-family="sans-serif" font-size="12" lengthAdjust="spacing" textLength="66.252" x="456.6797" y="115.9824">Tran Van B</text><text fill="#000000" font-family="sans-serif" font-size="12" lengthAdjust="spacing" textLength="79.1719" x="7" y="129.9512">Warehouse 3</text><text fill="#000000" font-family="sans-serif" font-size="12" lengthAdjust="spacing" textLength="122.3613" x="96.1719" y="129.9512">789, Phan Chu Trinh</text><text fill="#000000" font-family="sans-serif" font-size="12" lengthAdjust="spacing" textLength="23.9297" x="228.5332" y="129.9512">Seft</text><text fill="#000000" font-family="sans-serif" font-size="12" lengthAdjust="spacing" textLength="79.0781" x="266.5645" y="129.9512">150,000 USD</text><text fill="#000000" font-family="sans-serif" font-size="12" lengthAdjust="spacing" textLength="91.0371" x="355.6426" y="129.9512">CTY TNHH LMN</text><text fill="#000000" font-family="sans-serif" font-size="12" lengthAdjust="spacing" textLength="68.1621" x="456.6797" y="129.9512">Pham Thi C</text><text fill="#000000" font-family="sans-serif" font-size="12" lengthAdjust="spacing" textLength="79.1719" x="7" y="143.9199">Warehouse 4</text><text fill="#000000" font-family="sans-serif" font-size="12" lengthAdjust="spacing" textLength="120.3457" x="96.1719" y="143.9199">111, Ly Thuong Kiet</text><text fill="#000000" font-family="sans-serif" font-size="12" lengthAdjust="spacing" textLength="28.0313" x="228.5332" y="143.9199">Rent</text><text fill="#000000" font-family="sans-serif" font-size="12" lengthAdjust="spacing" textLength="79.0781" x="266.5645" y="143.9199">250,000 USD</text><text fill="#000000" font-family="sans-serif" font-size="12" lengthAdjust="spacing" textLength="90.041" x="355.6426" y="143.9199">CTY TNHH PQR</text><text fill="#000000" font-family="sans-serif" font-size="12" lengthAdjust="spacing" textLength="49.207" x="456.6797" y="143.9199">Le Thi D</text><line style="stroke:#888888;stroke-width:1.0;" x1="7" x2="7" y1="90.875" y2="146.75"/><line style="stroke:#888888;stroke-width:1.0;" x1="91.1719" x2="91.1719" y1="90.875" y2="146.75"/><line style="stroke:#888888;stroke-width:1.0;" x1="223.5332" x2="223.5332" y1="90.875" y2="146.75"/><line style="stroke:#888888;stroke-width:1.0;" x1="261.5645" x2="261.5645" y1="90.875" y2="146.75"/><line style="stroke:#888888;stroke-width:1.0;" x1="350.6426" x2="350.6426" y1="90.875" y2="146.75"/><line style="stroke:#888888;stroke-width:1.0;" x1="451.6797" x2="451.6797" y1="90.875" y2="146.75"/><line style="stroke:#888888;stroke-width:1.0;" x1="542.0762" x2="542.0762" y1="90.875" y2="146.75"/><line style="stroke:#000000;stroke-width:1.0;" x1="6" x2="540.0762" y1="89.875" y2="89.875"/><line style="stroke:#000000;stroke-width:1.0;" x1="6" x2="540.0762" y1="147.75" y2="147.75"/><line style="stroke:#000000;stroke-width:1.0;" x1="6" x2="6" y1="89.875" y2="147.75"/><line style="stroke:#000000;stroke-width:1.0;" x1="540.0762" x2="540.0762" y1="89.875" y2="147.75"/><rect fill="none" height="57.875" style="stroke:#000000;stroke-width:1.0;" width="15" x="544.0762" y="89.875"/><line style="stroke:#000000;stroke-width:1.0;" x1="544.0762" x2="559.0762" y1="101.875" y2="101.875"/><line style="stroke:#000000;stroke-width:1.0;" x1="544.0762" x2="559.0762" y1="135.75" y2="135.75"/><path d="M551.0762,93.875 L554.0762,98.875 L548.0762,98.875 L551.0762,93.875 " fill="#000000" style="stroke:#000000;stroke-width:1.0;"/><path d="M551.0762,144.75 L554.0762,139.75 L548.0762,139.75 L551.0762,144.75 " fill="#000000" style="stroke:#000000;stroke-width:1.0;"/><rect fill="none" height="15" style="stroke:#000000;stroke-width:1.0;" width="534.0762" x="6" y="151.75"/><line style="stroke:#000000;stroke-width:1.0;" x1="18" x2="18" y1="151.75" y2="166.75"/><line style="stroke:#000000;stroke-width:1.0;" x1="528.0762" x2="528.0762" y1="151.75" y2="166.75"/><path d="M10,158.75 L15,161.75 L15,155.75 L10,158.75 " fill="#000000" style="stroke:#000000;stroke-width:1.0;"/><path d="M537.0762,158.75 L532.0762,161.75 L532.0762,155.75 L537.0762,158.75 " fill="#000000" style="stroke:#000000;stroke-width:1.0;"/><rect fill="#EEEEEE" height="17.9688" rx="5" ry="5" style="stroke:#000000;stroke-width:2.5;" width="44" x="8.5" y="182.25"/><text fill="#000000" font-family="sans-serif" font-size="12" lengthAdjust="spacing" textLength="32.6895" x="14.1553" y="195.3887">Close</text><line style="stroke:#000000;stroke-width:1.0;" x1="5" x2="571.0762" y1="5" y2="5"/><line style="stroke:#000000;stroke-width:1.0;" x1="5" x2="571.0762" y1="203.7188" y2="203.7188"/><line style="stroke:#000000;stroke-width:1.0;" x1="5" x2="5" y1="5" y2="20.9688"/><line style="stroke:#000000;stroke-width:1.0;" x1="571.0762" x2="571.0762" y1="20.9688" y2="45.9375"/><line style="stroke:#000000;stroke-width:1.0;" x1="571.0762" x2="571.0762" y1="5" y2="20.9688"/><line style="stroke:#000000;stroke-width:1.0;" x1="5" x2="5" y1="178.75" y2="203.7188"/><line style="stroke:#000000;stroke-width:1.0;" x1="5" x2="5" y1="88.875" y2="178.75"/><line style="stroke:#000000;stroke-width:1.0;" x1="571.0762" x2="571.0762" y1="178.75" y2="203.7188"/><line style="stroke:#000000;stroke-width:1.0;" x1="5" x2="5" y1="72.9063" y2="88.875"/><line style="stroke:#000000;stroke-width:1.0;" x1="571.0762" x2="571.0762" y1="88.875" y2="178.75"/><line style="stroke:#000000;stroke-width:1.0;" x1="5" x2="5" y1="45.9375" y2="72.9063"/><line style="stroke:#000000;stroke-width:1.0;" x1="571.0762" x2="571.0762" y1="72.9063" y2="88.875"/><line style="stroke:#000000;stroke-width:1.0;" x1="5" x2="5" y1="20.9688" y2="45.9375"/><line style="stroke:#000000;stroke-width:1.0;" x1="571.0762" x2="571.0762" y1="45.9375" y2="72.9063"/><rect fill="none" height="57.875" style="stroke:#000000;stroke-width:1.0;" width="15" x="544.0762" y="89.875"/><line style="stroke:#000000;stroke-width:1.0;" x1="544.0762" x2="559.0762" y1="101.875" y2="101.875"/><line style="stroke:#000000;stroke-width:1.0;" x1="544.0762" x2="559.0762" y1="135.75" y2="135.75"/><path d="M551.0762,93.875 L554.0762,98.875 L548.0762,98.875 L551.0762,93.875 " fill="#000000" style="stroke:#000000;stroke-width:1.0;"/><path d="M551.0762,144.75 L554.0762,139.75 L548.0762,139.75 L551.0762,144.75 " fill="#000000" style="stroke:#000000;stroke-width:1.0;"/><rect fill="none" height="15" style="stroke:#000000;stroke-width:1.0;" width="534.0762" x="6" y="151.75"/><line style="stroke:#000000;stroke-width:1.0;" x1="18" x2="18" y1="151.75" y2="166.75"/><line style="stroke:#000000;stroke-width:1.0;" x1="528.0762" x2="528.0762" y1="151.75" y2="166.75"/><path d="M10,158.75 L15,161.75 L15,155.75 L10,158.75 " fill="#000000" style="stroke:#000000;stroke-width:1.0;"/><path d="M537.0762,158.75 L532.0762,161.75 L532.0762,155.75 L537.0762,158.75 " fill="#000000" style="stroke:#000000;stroke-width:1.0;"/><!--SRC=[RP9lRzem4CRV-rFStbIj1Yn9QM4HgWf9LqGJcf70rY5Uk60IIy56_eCMiNxtNf0cyW95KUxkiNz-Bhv7RQWocfQ67B-ImVl3BwfO8Qrc475jo39bLAsBJgSpkDhHNF1jnKNUpakgzSEA79U3gtrfCGI0Vx1y-hkNogm-oF4Rd4bJkcEe3ZSRnRJ6AAlsTI5HV7tweWN154On5JJ7204fEMPVW9mfBkgkTzk2J541Oojo2Ad4OigsfjOSf-Ku3ipJ4BCWUuDiEXx3S1HWEirjnGHa1OTXW-cXrBsxRq64_KgEsOo96kPTXlr- -rFRhmqiy1qrKBSezFhVMv0Kg0I5nMLS50r_TnUHKJojVq51ToTtGGFPhNUvBhghKBCIEtxXp3HSNaOcFsUOOairC2GV-2o3KcgsmkYHYStflabIKc7cSGG7fZIN0joEvtZTJkywfGPTxy7fuVc-s_VT7iop06hvXbm_9n5eQHLUtWQ7HF5tQt3_3PdG0uMP5ORlc0-lUoOcuSl_0Zo90rTIxD0xcIpYyuBxRdl4wnCLEe55J4AsfROqk6CjDpXlFfx-ezqd4HMvnG7nWGaIIEIg2hNq4m00]--></g></svg>