<svg xmlns="http://www.w3.org/2000/svg" xmlns:xlink="http://www.w3.org/1999/xlink" contentStyleType="text/css" height="438px" preserveAspectRatio="none" style="width:654px;height:438px;background:#FFFFFF;" version="1.1" viewBox="0 0 654 438" width="654px" zoomAndPan="magnify"><defs/><g><text fill="#000000" font-family="sans-serif" font-size="12" font-weight="bold" lengthAdjust="spacing" textLength="145.4473" x="6" y="17.1387">Product Management</text><text fill="#000000" font-family="sans-serif" font-size="12" lengthAdjust="spacing" textLength="193.9688" x="6" y="33.1074">Warehouse Name: Warehouse 1</text><text fill="#000000" font-family="sans-serif" font-size="12" lengthAdjust="spacing" textLength="140.8535" x="6" y="49.0762">Manager: Nguyen Thi A</text><rect fill="#EEEEEE" height="17.9688" rx="5" ry="5" style="stroke:#000000;stroke-width:2.5;" width="92" x="9.5" y="57.4063"/><text fill="#000000" font-family="sans-serif" font-size="12" lengthAdjust="spacing" textLength="52.9336" x="24.0332" y="70.5449">Search...</text><path d="M81.4668,62.375 C79.5368,62.375 77.9668,63.945 77.9668,65.875 C77.9668,67.805 79.5368,69.375 81.4668,69.375 C82.0568,69.375 82.6368,69.235 83.1268,68.965 A1,1 0 0 0 83.2568,69.095 L84.2568,70.095 A1.02,1.02 0 1 0 85.6968,68.655 L84.6968,67.655 A1,1 0 0 0 84.5368,67.525 C84.8068,67.035 84.9768,66.465 84.9768,65.865 C84.9768,63.935 83.4068,62.365 81.4768,62.365 M81.4668,63.375 C82.8568,63.375 83.9668,64.485 83.9668,65.875 C83.9668,66.535 83.7268,67.145 83.3068,67.595 C83.2968,67.605 83.2868,67.615 83.2768,67.625 A1,1 0 0 0 83.1468,67.755 C82.7068,68.155 82.1068,68.385 81.4568,68.385 C80.0668,68.385 78.9568,67.275 78.9568,65.885 C78.9568,64.495 80.0668,63.385 81.4568,63.385 " fill="#000000" style="stroke:;stroke-width:0.0;stroke-dasharray:;"/><rect fill="#EEEEEE" height="17.9688" rx="5" ry="5" style="stroke:#000000;stroke-width:2.5;" width="52" x="109.5" y="58.4063"/><text fill="#000000" font-family="sans-serif" font-size="12" lengthAdjust="spacing" textLength="30.5918" x="120.2041" y="71.5449">Filter</text><rect fill="#EEEEEE" height="17.9688" rx="5" ry="5" style="stroke:#000000;stroke-width:2.5;" width="52" x="168.5" y="58.4063"/><text fill="#000000" font-family="sans-serif" font-size="12" lengthAdjust="spacing" textLength="39.2813" x="174.8594" y="71.5449">Export</text><text fill="#000000" font-family="sans-serif" font-size="12" lengthAdjust="spacing" textLength="50.9063" x="8" y="94.0137">Order ID</text><line style="stroke:#000000;stroke-width:1.0;" x1="6" x2="6" y1="82.875" y2="96.8438"/><line style="stroke:#000000;stroke-width:1.0;" x1="6" x2="61.9063" y1="82.875" y2="82.875"/><line style="stroke:#000000;stroke-width:1.0;" x1="61.9063" x2="61.9063" y1="82.875" y2="96.8438"/><line style="stroke:#000000;stroke-width:1.0;" x1="61.9063" x2="71.9063" y1="96.8438" y2="96.8438"/><text fill="#000000" font-family="sans-serif" font-size="12" lengthAdjust="spacing" textLength="62.6309" x="73.9063" y="94.0137">Product ID</text><line style="stroke:#000000;stroke-width:1.0;" x1="71.9063" x2="71.9063" y1="82.875" y2="96.8438"/><line style="stroke:#000000;stroke-width:1.0;" x1="71.9063" x2="139.5371" y1="82.875" y2="82.875"/><line style="stroke:#000000;stroke-width:1.0;" x1="139.5371" x2="139.5371" y1="82.875" y2="96.8438"/><line style="stroke:#000000;stroke-width:1.0;" x1="139.5371" x2="149.5371" y1="96.8438" y2="96.8438"/><text fill="#000000" font-family="sans-serif" font-size="12" lengthAdjust="spacing" textLength="85.2539" x="151.5371" y="94.0137">Product Name</text><line style="stroke:#000000;stroke-width:1.0;" x1="149.5371" x2="149.5371" y1="82.875" y2="96.8438"/><line style="stroke:#000000;stroke-width:1.0;" x1="149.5371" x2="239.791" y1="82.875" y2="82.875"/><line style="stroke:#000000;stroke-width:1.0;" x1="239.791" x2="239.791" y1="82.875" y2="96.8438"/><line style="stroke:#000000;stroke-width:1.0;" x1="239.791" x2="249.791" y1="96.8438" y2="96.8438"/><text fill="#000000" font-family="sans-serif" font-size="12" lengthAdjust="spacing" textLength="51.8555" x="251.791" y="94.0137">Quantity</text><line style="stroke:#000000;stroke-width:1.0;" x1="249.791" x2="249.791" y1="82.875" y2="96.8438"/><line style="stroke:#000000;stroke-width:1.0;" x1="249.791" x2="306.6465" y1="82.875" y2="82.875"/><line style="stroke:#000000;stroke-width:1.0;" x1="306.6465" x2="306.6465" y1="82.875" y2="96.8438"/><line style="stroke:#000000;stroke-width:1.0;" x1="306.6465" x2="316.6465" y1="96.8438" y2="96.8438"/><text fill="#000000" font-family="sans-serif" font-size="12" lengthAdjust="spacing" textLength="24.4277" x="318.6465" y="94.0137">Unit</text><line style="stroke:#000000;stroke-width:1.0;" x1="316.6465" x2="316.6465" y1="82.875" y2="96.8438"/><line style="stroke:#000000;stroke-width:1.0;" x1="316.6465" x2="346.0742" y1="82.875" y2="82.875"/><line style="stroke:#000000;stroke-width:1.0;" x1="346.0742" x2="346.0742" y1="82.875" y2="96.8438"/><line style="stroke:#000000;stroke-width:1.0;" x1="346.0742" x2="356.0742" y1="96.8438" y2="96.8438"/><text fill="#000000" font-family="sans-serif" font-size="12" lengthAdjust="spacing" textLength="29.4844" x="358.0742" y="94.0137">Price</text><line style="stroke:#000000;stroke-width:1.0;" x1="356.0742" x2="356.0742" y1="82.875" y2="96.8438"/><line style="stroke:#000000;stroke-width:1.0;" x1="356.0742" x2="390.5586" y1="82.875" y2="82.875"/><line style="stroke:#000000;stroke-width:1.0;" x1="390.5586" x2="390.5586" y1="82.875" y2="96.8438"/><line style="stroke:#000000;stroke-width:1.0;" x1="390.5586" x2="400.5586" y1="96.8438" y2="96.8438"/><text fill="#000000" font-family="sans-serif" font-size="12" lengthAdjust="spacing" textLength="72.3223" x="402.5586" y="94.0137">Import Date</text><line style="stroke:#000000;stroke-width:1.0;" x1="400.5586" x2="400.5586" y1="82.875" y2="96.8438"/><line style="stroke:#000000;stroke-width:1.0;" x1="400.5586" x2="477.8809" y1="82.875" y2="82.875"/><line style="stroke:#000000;stroke-width:1.0;" x1="477.8809" x2="477.8809" y1="82.875" y2="96.8438"/><line style="stroke:#000000;stroke-width:1.0;" x1="477.8809" x2="487.8809" y1="96.8438" y2="96.8438"/><text fill="#000000" font-family="sans-serif" font-size="12" lengthAdjust="spacing" textLength="90.0527" x="489.8809" y="94.0137">Shipment Date</text><line style="stroke:#000000;stroke-width:1.0;" x1="487.8809" x2="487.8809" y1="82.875" y2="96.8438"/><line style="stroke:#000000;stroke-width:1.0;" x1="487.8809" x2="582.9336" y1="82.875" y2="82.875"/><line style="stroke:#000000;stroke-width:1.0;" x1="582.9336" x2="582.9336" y1="82.875" y2="96.8438"/><line style="stroke:#000000;stroke-width:1.0;" x1="582.9336" x2="592.9336" y1="96.8438" y2="96.8438"/><text fill="#000000" font-family="sans-serif" font-size="12" lengthAdjust="spacing" textLength="38.2383" x="594.9336" y="94.0137">Status</text><line style="stroke:#000000;stroke-width:1.0;" x1="592.9336" x2="592.9336" y1="82.875" y2="96.8438"/><line style="stroke:#000000;stroke-width:1.0;" x1="592.9336" x2="636.1719" y1="82.875" y2="82.875"/><line style="stroke:#000000;stroke-width:1.0;" x1="636.1719" x2="636.1719" y1="82.875" y2="96.8438"/><line style="stroke:#000000;stroke-width:1.0;" x1="636.1719" x2="646.1719" y1="96.8438" y2="96.8438"/><text fill="#000000" font-family="sans-serif" font-size="12" lengthAdjust="spacing" textLength="30.5391" x="7" y="110.9824">1001</text><text fill="#000000" font-family="sans-serif" font-size="12" lengthAdjust="spacing" textLength="30.1406" x="47.5391" y="110.9824">P001</text><text fill="#000000" font-family="sans-serif" font-size="12" lengthAdjust="spacing" textLength="111.5391" x="87.6797" y="110.9824">iPhone 14 Pro Max</text><text fill="#000000" font-family="sans-serif" font-size="12" lengthAdjust="spacing" textLength="15.2695" x="225.4785" y="110.9824">50</text><text fill="#000000" font-family="sans-serif" font-size="12" lengthAdjust="spacing" textLength="20.4668" x="250.748" y="110.9824">pcs</text><text fill="#000000" font-family="sans-serif" font-size="12" lengthAdjust="spacing" textLength="99.0059" x="281.2148" y="110.9824">30,000,000 VN&#272;</text><text fill="#000000" font-family="sans-serif" font-size="12" lengthAdjust="spacing" textLength="69.7383" x="390.2207" y="110.9824">01-09-2024</text><text fill="#000000" font-family="sans-serif" font-size="12" lengthAdjust="spacing" textLength="69.7383" x="469.959" y="110.9824">05-09-2024</text><text fill="#000000" font-family="sans-serif" font-size="12" lengthAdjust="spacing" textLength="48.791" x="549.6973" y="110.9824">Shipped</text><text fill="#000000" font-family="sans-serif" font-size="12" lengthAdjust="spacing" textLength="30.5391" x="7" y="124.9512">1002</text><text fill="#000000" font-family="sans-serif" font-size="12" lengthAdjust="spacing" textLength="30.1406" x="47.5391" y="124.9512">P002</text><text fill="#000000" font-family="sans-serif" font-size="12" lengthAdjust="spacing" textLength="127.7988" x="87.6797" y="124.9512">Samsung Galaxy S23</text><text fill="#000000" font-family="sans-serif" font-size="12" lengthAdjust="spacing" textLength="15.2695" x="225.4785" y="124.9512">30</text><text fill="#000000" font-family="sans-serif" font-size="12" lengthAdjust="spacing" textLength="20.4668" x="250.748" y="124.9512">pcs</text><text fill="#000000" font-family="sans-serif" font-size="12" lengthAdjust="spacing" textLength="99.0059" x="281.2148" y="124.9512">25,000,000 VN&#272;</text><text fill="#000000" font-family="sans-serif" font-size="12" lengthAdjust="spacing" textLength="69.7383" x="390.2207" y="124.9512">02-09-2024</text><text fill="#000000" font-family="sans-serif" font-size="12" lengthAdjust="spacing" textLength="69.7383" x="469.959" y="124.9512">08-09-2024</text><text fill="#000000" font-family="sans-serif" font-size="12" lengthAdjust="spacing" textLength="46.8047" x="549.6973" y="124.9512">In stock</text><text fill="#000000" font-family="sans-serif" font-size="12" lengthAdjust="spacing" textLength="30.5391" x="7" y="138.9199">1003</text><text fill="#000000" font-family="sans-serif" font-size="12" lengthAdjust="spacing" textLength="30.1406" x="47.5391" y="138.9199">P003</text><text fill="#000000" font-family="sans-serif" font-size="12" lengthAdjust="spacing" textLength="96.2637" x="87.6797" y="138.9199">MacBook Air M2</text><text fill="#000000" font-family="sans-serif" font-size="12" lengthAdjust="spacing" textLength="15.2695" x="225.4785" y="138.9199">20</text><text fill="#000000" font-family="sans-serif" font-size="12" lengthAdjust="spacing" textLength="20.4668" x="250.748" y="138.9199">pcs</text><text fill="#000000" font-family="sans-serif" font-size="12" lengthAdjust="spacing" textLength="99.0059" x="281.2148" y="138.9199">40,000,000 VN&#272;</text><text fill="#000000" font-family="sans-serif" font-size="12" lengthAdjust="spacing" textLength="69.7383" x="390.2207" y="138.9199">10-09-2024</text><text fill="#000000" font-family="sans-serif" font-size="12" lengthAdjust="spacing" textLength="69.7383" x="469.959" y="138.9199">12-09-2024</text><text fill="#000000" font-family="sans-serif" font-size="12" lengthAdjust="spacing" textLength="48.3984" x="549.6973" y="138.9199">Pending</text><line style="stroke:#888888;stroke-width:1.0;" x1="7" x2="7" y1="99.8438" y2="141.75"/><line style="stroke:#888888;stroke-width:1.0;" x1="42.5391" x2="42.5391" y1="99.8438" y2="141.75"/><line style="stroke:#888888;stroke-width:1.0;" x1="82.6797" x2="82.6797" y1="99.8438" y2="141.75"/><line style="stroke:#888888;stroke-width:1.0;" x1="220.4785" x2="220.4785" y1="99.8438" y2="141.75"/><line style="stroke:#888888;stroke-width:1.0;" x1="245.748" x2="245.748" y1="99.8438" y2="141.75"/><line style="stroke:#888888;stroke-width:1.0;" x1="276.2148" x2="276.2148" y1="99.8438" y2="141.75"/><line style="stroke:#888888;stroke-width:1.0;" x1="385.2207" x2="385.2207" y1="99.8438" y2="141.75"/><line style="stroke:#888888;stroke-width:1.0;" x1="464.959" x2="464.959" y1="99.8438" y2="141.75"/><line style="stroke:#888888;stroke-width:1.0;" x1="544.6973" x2="544.6973" y1="99.8438" y2="141.75"/><line style="stroke:#888888;stroke-width:1.0;" x1="603.4883" x2="603.4883" y1="99.8438" y2="141.75"/><line style="stroke:#000000;stroke-width:1.0;" x1="6" x2="601.4883" y1="98.8438" y2="98.8438"/><line style="stroke:#000000;stroke-width:1.0;" x1="6" x2="601.4883" y1="142.75" y2="142.75"/><line style="stroke:#000000;stroke-width:1.0;" x1="6" x2="6" y1="98.8438" y2="142.75"/><line style="stroke:#000000;stroke-width:1.0;" x1="601.4883" x2="601.4883" y1="98.8438" y2="142.75"/><rect fill="none" height="43.9063" style="stroke:#000000;stroke-width:1.0;" width="15" x="605.4883" y="98.8438"/><line style="stroke:#000000;stroke-width:1.0;" x1="605.4883" x2="620.4883" y1="110.8438" y2="110.8438"/><line style="stroke:#000000;stroke-width:1.0;" x1="605.4883" x2="620.4883" y1="130.75" y2="130.75"/><path d="M612.4883,102.8438 L615.4883,107.8438 L609.4883,107.8438 L612.4883,102.8438 " fill="#000000" style="stroke:#000000;stroke-width:1.0;"/><path d="M612.4883,139.75 L615.4883,134.75 L609.4883,134.75 L612.4883,139.75 " fill="#000000" style="stroke:#000000;stroke-width:1.0;"/><rect fill="none" height="15" style="stroke:#000000;stroke-width:1.0;" width="595.4883" x="6" y="146.75"/><line style="stroke:#000000;stroke-width:1.0;" x1="18" x2="18" y1="146.75" y2="161.75"/><line style="stroke:#000000;stroke-width:1.0;" x1="589.4883" x2="589.4883" y1="146.75" y2="161.75"/><path d="M10,153.75 L15,156.75 L15,150.75 L10,153.75 " fill="#000000" style="stroke:#000000;stroke-width:1.0;"/><path d="M598.4883,153.75 L593.4883,156.75 L593.4883,150.75 L598.4883,153.75 " fill="#000000" style="stroke:#000000;stroke-width:1.0;"/><rect fill="#EEEEEE" height="17.9688" rx="5" ry="5" style="stroke:#000000;stroke-width:2.5;" width="44" x="8.5" y="177.25"/><text fill="#000000" font-family="sans-serif" font-size="12" lengthAdjust="spacing" textLength="32.6895" x="14.1553" y="190.3887">Close</text><line style="stroke:#AAAAAA;stroke-width:1.0;" x1="6" x2="647.1719" y1="202.2188" y2="202.2188"/><line style="stroke:#AAAAAA;stroke-width:1.0;" x1="6" x2="647.1719" y1="204.2188" y2="204.2188"/><text fill="#000000" font-family="sans-serif" font-size="12" lengthAdjust="spacing" textLength="68.8535" x="6" y="218.8574">Notification</text><text fill="#000000" font-family="sans-serif" font-size="12" font-weight="bold" lengthAdjust="spacing" textLength="34.1953" x="7" y="235.8262">Error</text><text fill="#000000" font-family="sans-serif" font-size="12" lengthAdjust="spacing" textLength="178.2422" x="7" y="251.7949">Failed to retrieve product list.</text><rect fill="#EEEEEE" height="17.9688" rx="5" ry="5" style="stroke:#000000;stroke-width:2.5;" width="52" x="9.5" y="259.125"/><text fill="#000000" font-family="sans-serif" font-size="12" lengthAdjust="spacing" textLength="38.8711" x="16.0645" y="272.2637">cancel</text><line style="stroke:#000000;stroke-width:1.0;" x1="6" x2="186.2422" y1="223.6875" y2="223.6875"/><line style="stroke:#000000;stroke-width:1.0;" x1="6" x2="186.2422" y1="280.5938" y2="280.5938"/><line style="stroke:#000000;stroke-width:1.0;" x1="6" x2="6" y1="223.6875" y2="239.6563"/><line style="stroke:#000000;stroke-width:1.0;" x1="186.2422" x2="186.2422" y1="239.6563" y2="255.625"/><line style="stroke:#000000;stroke-width:1.0;" x1="186.2422" x2="186.2422" y1="223.6875" y2="239.6563"/><line style="stroke:#000000;stroke-width:1.0;" x1="6" x2="6" y1="255.625" y2="280.5938"/><line style="stroke:#000000;stroke-width:1.0;" x1="6" x2="6" y1="239.6563" y2="255.625"/><line style="stroke:#000000;stroke-width:1.0;" x1="186.2422" x2="186.2422" y1="255.625" y2="280.5938"/><line style="stroke:#AAAAAA;stroke-width:1.0;stroke-dasharray:1.0,2.0;" x1="6" x2="647.1719" y1="286.0938" y2="286.0938"/><text fill="#000000" font-family="sans-serif" font-size="12" font-weight="bold" lengthAdjust="spacing" textLength="57.041" x="7" y="302.7324">Warning</text><text fill="#000000" font-family="sans-serif" font-size="12" lengthAdjust="spacing" textLength="249.8848" x="7" y="318.7012">No products found matching your search.</text><rect fill="#EEEEEE" height="17.9688" rx="5" ry="5" style="stroke:#000000;stroke-width:2.5;" width="52" x="9.5" y="326.0313"/><text fill="#000000" font-family="sans-serif" font-size="12" lengthAdjust="spacing" textLength="38.8711" x="16.0645" y="339.1699">cancel</text><rect fill="#EEEEEE" height="17.9688" rx="5" ry="5" style="stroke:#000000;stroke-width:2.5;" width="21.3145" x="261.3848" y="326.0313"/><text fill="#000000" font-family="sans-serif" font-size="12" lengthAdjust="spacing" textLength="17.3145" x="263.3848" y="339.1699">OK</text><line style="stroke:#000000;stroke-width:1.0;" x1="6" x2="257.8848" y1="290.5938" y2="290.5938"/><line style="stroke:#000000;stroke-width:1.0;" x1="257.8848" x2="286.1992" y1="290.5938" y2="290.5938"/><line style="stroke:#000000;stroke-width:1.0;" x1="6" x2="257.8848" y1="347.5" y2="347.5"/><line style="stroke:#000000;stroke-width:1.0;" x1="257.8848" x2="286.1992" y1="347.5" y2="347.5"/><line style="stroke:#000000;stroke-width:1.0;" x1="6" x2="6" y1="290.5938" y2="306.5625"/><line style="stroke:#000000;stroke-width:1.0;" x1="286.1992" x2="286.1992" y1="322.5313" y2="347.5"/><line style="stroke:#000000;stroke-width:1.0;" x1="286.1992" x2="286.1992" y1="306.5625" y2="322.5313"/><line style="stroke:#000000;stroke-width:1.0;" x1="286.1992" x2="286.1992" y1="290.5938" y2="306.5625"/><line style="stroke:#000000;stroke-width:1.0;" x1="6" x2="6" y1="322.5313" y2="347.5"/><line style="stroke:#000000;stroke-width:1.0;" x1="6" x2="6" y1="306.5625" y2="322.5313"/><line style="stroke:#AAAAAA;stroke-width:1.0;stroke-dasharray:1.0,2.0;" x1="6" x2="647.1719" y1="353" y2="353"/><text fill="#000000" font-family="sans-serif" font-size="12" font-weight="bold" lengthAdjust="spacing" textLength="34.1953" x="7" y="369.6387">Error</text><text fill="#000000" font-family="sans-serif" font-size="12" lengthAdjust="spacing" textLength="272.4844" x="7" y="385.6074">Cannot view products in a closed warehouse.</text><rect fill="#EEEEEE" height="17.9688" rx="5" ry="5" style="stroke:#000000;stroke-width:2.5;" width="52" x="9.5" y="392.9375"/><text fill="#000000" font-family="sans-serif" font-size="12" lengthAdjust="spacing" textLength="38.8711" x="16.0645" y="406.0762">cancel</text><line style="stroke:#000000;stroke-width:1.0;" x1="6" x2="280.4844" y1="357.5" y2="357.5"/><line style="stroke:#000000;stroke-width:1.0;" x1="6" x2="280.4844" y1="414.4063" y2="414.4063"/><line style="stroke:#000000;stroke-width:1.0;" x1="6" x2="6" y1="357.5" y2="373.4688"/><line style="stroke:#000000;stroke-width:1.0;" x1="280.4844" x2="280.4844" y1="373.4688" y2="389.4375"/><line style="stroke:#000000;stroke-width:1.0;" x1="280.4844" x2="280.4844" y1="357.5" y2="373.4688"/><line style="stroke:#000000;stroke-width:1.0;" x1="6" x2="6" y1="389.4375" y2="414.4063"/><line style="stroke:#000000;stroke-width:1.0;" x1="6" x2="6" y1="373.4688" y2="389.4375"/><line style="stroke:#000000;stroke-width:1.0;" x1="280.4844" x2="280.4844" y1="389.4375" y2="414.4063"/><line style="stroke:#000000;stroke-width:1.0;" x1="5" x2="647.1719" y1="5" y2="5"/><line style="stroke:#000000;stroke-width:1.0;" x1="5" x2="647.1719" y1="431.375" y2="431.375"/><line style="stroke:#000000;stroke-width:1.0;" x1="5" x2="5" y1="5" y2="20.9688"/><line style="stroke:#000000;stroke-width:1.0;" x1="647.1719" x2="647.1719" y1="5" y2="20.9688"/><line style="stroke:#000000;stroke-width:1.0;" x1="5" x2="5" y1="289.5938" y2="348.5"/><line style="stroke:#000000;stroke-width:1.0;" x1="647.1719" x2="647.1719" y1="289.5938" y2="348.5"/><line style="stroke:#000000;stroke-width:1.0;" x1="5" x2="5" y1="198.7188" y2="206.7188"/><line style="stroke:#000000;stroke-width:1.0;" x1="647.1719" x2="647.1719" y1="198.7188" y2="206.7188"/><line style="stroke:#000000;stroke-width:1.0;" x1="5" x2="5" y1="52.9063" y2="81.875"/><line style="stroke:#000000;stroke-width:1.0;" x1="647.1719" x2="647.1719" y1="52.9063" y2="81.875"/><line style="stroke:#000000;stroke-width:1.0;" x1="5" x2="5" y1="415.4063" y2="431.375"/><line style="stroke:#000000;stroke-width:1.0;" x1="647.1719" x2="647.1719" y1="415.4063" y2="431.375"/><line style="stroke:#000000;stroke-width:1.0;" x1="5" x2="5" y1="281.5938" y2="289.5938"/><line style="stroke:#000000;stroke-width:1.0;" x1="647.1719" x2="647.1719" y1="281.5938" y2="289.5938"/><line style="stroke:#000000;stroke-width:1.0;" x1="5" x2="5" y1="173.75" y2="198.7188"/><line style="stroke:#000000;stroke-width:1.0;" x1="647.1719" x2="647.1719" y1="173.75" y2="198.7188"/><line style="stroke:#000000;stroke-width:1.0;" x1="5" x2="5" y1="36.9375" y2="52.9063"/><line style="stroke:#000000;stroke-width:1.0;" x1="647.1719" x2="647.1719" y1="36.9375" y2="52.9063"/><line style="stroke:#000000;stroke-width:1.0;" x1="5" x2="5" y1="356.5" y2="415.4063"/><line style="stroke:#000000;stroke-width:1.0;" x1="647.1719" x2="647.1719" y1="356.5" y2="415.4063"/><line style="stroke:#000000;stroke-width:1.0;" x1="5" x2="5" y1="222.6875" y2="281.5938"/><line style="stroke:#000000;stroke-width:1.0;" x1="647.1719" x2="647.1719" y1="222.6875" y2="281.5938"/><line style="stroke:#000000;stroke-width:1.0;" x1="5" x2="5" y1="97.8438" y2="173.75"/><line style="stroke:#000000;stroke-width:1.0;" x1="647.1719" x2="647.1719" y1="97.8438" y2="173.75"/><line style="stroke:#000000;stroke-width:1.0;" x1="5" x2="5" y1="20.9688" y2="36.9375"/><line style="stroke:#000000;stroke-width:1.0;" x1="647.1719" x2="647.1719" y1="20.9688" y2="36.9375"/><line style="stroke:#000000;stroke-width:1.0;" x1="5" x2="5" y1="348.5" y2="356.5"/><line style="stroke:#000000;stroke-width:1.0;" x1="647.1719" x2="647.1719" y1="348.5" y2="356.5"/><line style="stroke:#000000;stroke-width:1.0;" x1="5" x2="5" y1="206.7188" y2="222.6875"/><line style="stroke:#000000;stroke-width:1.0;" x1="647.1719" x2="647.1719" y1="206.7188" y2="222.6875"/><line style="stroke:#000000;stroke-width:1.0;" x1="5" x2="5" y1="81.875" y2="97.8438"/><line style="stroke:#000000;stroke-width:1.0;" x1="647.1719" x2="647.1719" y1="81.875" y2="97.8438"/><rect fill="none" height="43.9063" style="stroke:#000000;stroke-width:1.0;" width="15" x="605.4883" y="98.8438"/><line style="stroke:#000000;stroke-width:1.0;" x1="605.4883" x2="620.4883" y1="110.8438" y2="110.8438"/><line style="stroke:#000000;stroke-width:1.0;" x1="605.4883" x2="620.4883" y1="130.75" y2="130.75"/><path d="M612.4883,102.8438 L615.4883,107.8438 L609.4883,107.8438 L612.4883,102.8438 " fill="#000000" style="stroke:#000000;stroke-width:1.0;"/><path d="M612.4883,139.75 L615.4883,134.75 L609.4883,134.75 L612.4883,139.75 " fill="#000000" style="stroke:#000000;stroke-width:1.0;"/><rect fill="none" height="15" style="stroke:#000000;stroke-width:1.0;" width="595.4883" x="6" y="146.75"/><line style="stroke:#000000;stroke-width:1.0;" x1="18" x2="18" y1="146.75" y2="161.75"/><line style="stroke:#000000;stroke-width:1.0;" x1="589.4883" x2="589.4883" y1="146.75" y2="161.75"/><path d="M10,153.75 L15,156.75 L15,150.75 L10,153.75 " fill="#000000" style="stroke:#000000;stroke-width:1.0;"/><path d="M598.4883,153.75 L593.4883,156.75 L593.4883,150.75 L598.4883,153.75 " fill="#000000" style="stroke:#000000;stroke-width:1.0;"/><!--SRC=[PLFRKjim47tNLsnVEZ0bhcr2eHbWW8GmN1BI6kX39W-BhJWQ7CaZoO5Co3_qe_fXtKq82OCzbhmNdRExsZrn7grtM7Wn-oOE7uzxrcHLwg636dCvbjgBFsZbo5HEGXV7iW5hEH9BDzk0RbvDfOQxaO9J8SGC-eb4cuw283ZyEiPSg-5KwRoM5-ZSyG1UWLpQgl3Iij0_VocDzOFvd0z_XrkRIGkNBJAj8leWS2Ga_gfGU-Mdy7glbMUpIbb_EMOqQA6Nhv2CLCc9h4IFld8m5xD4pEw-W11H64QClTnKRsGqvLPdCgh32-dsGbhArD6w6-w4uUA3X-w_lwG9erhuinQ7SPs5lGs1cKkPCK6y9E0jmR6hT0uNME3B599uTm7xpX3lVMA8DnaEDeHB3SwRz8afTfSKl7KmFJFc2KwLXGvpnclu-gS4ed03CThawacTqQs9ERtzPc6S70W1z1mTYQxnQgXIzCfeyTOzvzOQAzge2fc1Ds2bjqfE99HlzrOevmFHJr6diXWGQX2y7QMkqapLDIjd1qDJwGp6wDCHcM1gAWjksLRl6DmyjzSVe9PHD55hus6YvFCQKMb0I3cH39vNVRm19WY7ynC1_PnGzelH4Bs2-ko-SmCJQHtb2r705GhsjnBqaCWImds8eaPqq8ZsuVwk2MpU5biNlHjm53PrPKQfM_LOSRssnHLE47vNrBqyKhUbr5UjwvK2plL4MQCNutVrq5ax_AZNpXGpMee47ZgY9OTO5PvEf8Qlga7ixTg1k46TLpIQ3P1QDAcEtax9blm7]--></g></svg>