<svg xmlns="http://www.w3.org/2000/svg" xmlns:xlink="http://www.w3.org/1999/xlink" contentStyleType="text/css" height="318px" preserveAspectRatio="none" style="width:171px;height:318px;background:#FFFFFF;" version="1.1" viewBox="0 0 171 318" width="171px" zoomAndPan="magnify"><defs/><g><text fill="#000000" font-family="sans-serif" font-size="12" lengthAdjust="spacing" textLength="28.9863" x="16" y="17.1387">Logo</text><text fill="#000000" font-family="sans-serif" font-size="12" lengthAdjust="spacing" textLength="127.5469" x="16" y="31.1074">Supply Chain System</text><text fill="#000000" font-family="sans-serif" font-size="12" lengthAdjust="spacing" textLength="67.7227" x="26" y="45.0762">Warehouse</text><text fill="#000000" font-family="sans-serif" font-size="12" lengthAdjust="spacing" textLength="88.9922" x="26" y="59.0449">My Warehouse</text><text fill="#000000" font-family="sans-serif" font-size="12" lengthAdjust="spacing" textLength="128.9004" x="36" y="73.0137">Product Management</text><text fill="#000000" font-family="sans-serif" font-size="12" lengthAdjust="spacing" textLength="88.9922" x="36" y="86.9824">My Warehouse</text><text fill="#000000" font-family="sans-serif" font-size="12" lengthAdjust="spacing" textLength="74.4961" x="36" y="100.9512">Daily Report</text><text fill="#000000" font-family="sans-serif" font-size="12" lengthAdjust="spacing" textLength="115.3359" x="26" y="114.9199">Import Mangement</text><text fill="#000000" font-family="sans-serif" font-size="12" lengthAdjust="spacing" textLength="122.1445" x="26" y="128.8887">Export Management</text><text fill="#000000" font-family="sans-serif" font-size="12" lengthAdjust="spacing" textLength="88.4121" x="26" y="142.8574">Transportation</text><text fill="#000000" font-family="sans-serif" font-size="12" lengthAdjust="spacing" textLength="43.8457" x="36" y="156.8262">Vehicle</text><text fill="#000000" font-family="sans-serif" font-size="12" lengthAdjust="spacing" textLength="36.9258" x="36" y="170.7949">Driver</text><text fill="#000000" font-family="sans-serif" font-size="12" lengthAdjust="spacing" textLength="45.8672" x="26" y="184.7637">Logistic</text><text fill="#000000" font-family="sans-serif" font-size="12" lengthAdjust="spacing" textLength="40.5645" x="36" y="198.7324">Orders</text><text fill="#000000" font-family="sans-serif" font-size="12" lengthAdjust="spacing" textLength="57.5566" x="36" y="212.7012">Shipment</text><text fill="#000000" font-family="sans-serif" font-size="12" lengthAdjust="spacing" textLength="40.3184" x="26" y="226.6699">Report</text><text fill="#000000" font-family="sans-serif" font-size="12" lengthAdjust="spacing" textLength="37.6934" x="26" y="240.6387">Salary</text><text fill="#000000" font-family="sans-serif" font-size="12" lengthAdjust="spacing" textLength="48.6621" x="26" y="254.6074">Account</text><text fill="#000000" font-family="sans-serif" font-size="12" lengthAdjust="spacing" textLength="79.6875" x="16" y="268.5762">Your Account</text><text fill="#000000" font-family="sans-serif" font-size="12" lengthAdjust="spacing" textLength="37.7871" x="26" y="282.5449">Profile</text><text fill="#000000" font-family="sans-serif" font-size="12" lengthAdjust="spacing" textLength="42.9668" x="26" y="296.5137">Setting</text><text fill="#000000" font-family="sans-serif" font-size="12" lengthAdjust="spacing" textLength="41.2969" x="26" y="310.4824">Logout</text><rect fill="none" height="2" style="stroke:#888888;stroke-width:1.0;" width="2" x="9" y="25.9531"/><line style="stroke:#888888;stroke-width:1.0;" x1="10" x2="10" y1="28.9531" y2="40.9219"/><line style="stroke:#888888;stroke-width:1.0;" x1="10" x2="18" y1="40.9219" y2="40.9219"/><rect fill="none" height="2" style="stroke:#888888;stroke-width:1.0;" width="2" x="19" y="53.8906"/><line style="stroke:#888888;stroke-width:1.0;" x1="10" x2="10" y1="28.9531" y2="54.8906"/><line style="stroke:#888888;stroke-width:1.0;" x1="10" x2="18" y1="54.8906" y2="54.8906"/><line style="stroke:#888888;stroke-width:1.0;" x1="20" x2="20" y1="56.8906" y2="68.8594"/><line style="stroke:#888888;stroke-width:1.0;" x1="20" x2="28" y1="68.8594" y2="68.8594"/><line style="stroke:#888888;stroke-width:1.0;" x1="20" x2="20" y1="56.8906" y2="82.8281"/><line style="stroke:#888888;stroke-width:1.0;" x1="20" x2="28" y1="82.8281" y2="82.8281"/><line style="stroke:#888888;stroke-width:1.0;" x1="20" x2="20" y1="56.8906" y2="96.7969"/><line style="stroke:#888888;stroke-width:1.0;" x1="20" x2="28" y1="96.7969" y2="96.7969"/><line style="stroke:#888888;stroke-width:1.0;" x1="10" x2="10" y1="28.9531" y2="110.7656"/><line style="stroke:#888888;stroke-width:1.0;" x1="10" x2="18" y1="110.7656" y2="110.7656"/><line style="stroke:#888888;stroke-width:1.0;" x1="10" x2="10" y1="28.9531" y2="124.7344"/><line style="stroke:#888888;stroke-width:1.0;" x1="10" x2="18" y1="124.7344" y2="124.7344"/><rect fill="none" height="2" style="stroke:#888888;stroke-width:1.0;" width="2" x="19" y="137.7031"/><line style="stroke:#888888;stroke-width:1.0;" x1="10" x2="10" y1="28.9531" y2="138.7031"/><line style="stroke:#888888;stroke-width:1.0;" x1="10" x2="18" y1="138.7031" y2="138.7031"/><line style="stroke:#888888;stroke-width:1.0;" x1="20" x2="20" y1="140.7031" y2="152.6719"/><line style="stroke:#888888;stroke-width:1.0;" x1="20" x2="28" y1="152.6719" y2="152.6719"/><line style="stroke:#888888;stroke-width:1.0;" x1="20" x2="20" y1="140.7031" y2="166.6406"/><line style="stroke:#888888;stroke-width:1.0;" x1="20" x2="28" y1="166.6406" y2="166.6406"/><rect fill="none" height="2" style="stroke:#888888;stroke-width:1.0;" width="2" x="19" y="179.6094"/><line style="stroke:#888888;stroke-width:1.0;" x1="10" x2="10" y1="28.9531" y2="180.6094"/><line style="stroke:#888888;stroke-width:1.0;" x1="10" x2="18" y1="180.6094" y2="180.6094"/><line style="stroke:#888888;stroke-width:1.0;" x1="20" x2="20" y1="182.6094" y2="194.5781"/><line style="stroke:#888888;stroke-width:1.0;" x1="20" x2="28" y1="194.5781" y2="194.5781"/><line style="stroke:#888888;stroke-width:1.0;" x1="20" x2="20" y1="182.6094" y2="208.5469"/><line style="stroke:#888888;stroke-width:1.0;" x1="20" x2="28" y1="208.5469" y2="208.5469"/><line style="stroke:#888888;stroke-width:1.0;" x1="10" x2="10" y1="28.9531" y2="222.5156"/><line style="stroke:#888888;stroke-width:1.0;" x1="10" x2="18" y1="222.5156" y2="222.5156"/><line style="stroke:#888888;stroke-width:1.0;" x1="10" x2="10" y1="28.9531" y2="236.4844"/><line style="stroke:#888888;stroke-width:1.0;" x1="10" x2="18" y1="236.4844" y2="236.4844"/><line style="stroke:#888888;stroke-width:1.0;" x1="10" x2="10" y1="28.9531" y2="250.4531"/><line style="stroke:#888888;stroke-width:1.0;" x1="10" x2="18" y1="250.4531" y2="250.4531"/><rect fill="none" height="2" style="stroke:#888888;stroke-width:1.0;" width="2" x="9" y="263.4219"/><line style="stroke:#888888;stroke-width:1.0;" x1="10" x2="10" y1="266.4219" y2="278.3906"/><line style="stroke:#888888;stroke-width:1.0;" x1="10" x2="18" y1="278.3906" y2="278.3906"/><line style="stroke:#888888;stroke-width:1.0;" x1="10" x2="10" y1="266.4219" y2="292.3594"/><line style="stroke:#888888;stroke-width:1.0;" x1="10" x2="18" y1="292.3594" y2="292.3594"/><line style="stroke:#888888;stroke-width:1.0;" x1="10" x2="10" y1="266.4219" y2="306.3281"/><line style="stroke:#888888;stroke-width:1.0;" x1="10" x2="18" y1="306.3281" y2="306.3281"/><!--SRC=[PL5BQy904BxlhvXZHHGZKYKdMxMbrg0OjVIuJKQp47V3FgH1-jyxcsrgeUmXaszcliVkr5YkhU6bPLTstJ7emagTbF-chghA6cO55nBIsbWy4zo5DwwnKCuWQtwJ-Wz2G1SsMkKkiv1moKzuHca3_dzopWKfRB5IsWQsbxEl_Ufj4nQVBTZoDV1ESsbyXrkXP60yO26oigNNue8w35CgOQp8GcUjSzGcr6aXgXlfZnbVfhpakcxAXonJBep0ktBw5u2GzoY29gHehP2dLb8voxxeJ57cpIMpJScbtISh86U6R4FK7mw6e_xuBkMMrYiOZ26AucWIHsFOxsRWsnrszxnPWI7f326d95fyE1-xmvRymc5BPiGPOrXNA9VprnQ0XRm8hMGJS7b8RWFtezwZy8gQdC0XONCySbTQsiXKJXbYKd_gJTYAtiBHnSU0airyQbrJB_q6]--></g></svg>