<svg xmlns="http://www.w3.org/2000/svg" xmlns:xlink="http://www.w3.org/1999/xlink" contentStyleType="text/css" height="413px" preserveAspectRatio="none" style="width:447px;height:413px;background:#FFFFFF;" version="1.1" viewBox="0 0 447 413" width="447px" zoomAndPan="magnify"><defs/><g><text fill="#000000" font-family="sans-serif" font-size="12" font-weight="bold" lengthAdjust="spacing" textLength="159.8086" x="6" y="17.1387">Warehouse Information</text><text fill="#000000" font-family="sans-serif" font-size="12" lengthAdjust="spacing" textLength="193.9688" x="6" y="33.1074">Warehouse Name: Warehouse 1</text><text fill="#000000" font-family="sans-serif" font-size="12" lengthAdjust="spacing" textLength="177.293" x="6" y="49.0762">Address: 123, Tran Hung Dao</text><text fill="#000000" font-family="sans-serif" font-size="12" lengthAdjust="spacing" textLength="61.2188" x="6" y="65.0449">Type: Seft</text><text fill="#000000" font-family="sans-serif" font-size="12" lengthAdjust="spacing" textLength="116.4199" x="6" y="81.0137">Price: 100 000 USD</text><text fill="#000000" font-family="sans-serif" font-size="12" lengthAdjust="spacing" textLength="128.4727" x="6" y="96.9824">Partner: CTY TNHH....</text><text fill="#000000" font-family="sans-serif" font-size="12" lengthAdjust="spacing" textLength="140.8535" x="6" y="112.9512">Manager: Nguyen Thi A</text><text fill="#000000" font-family="sans-serif" font-size="12" lengthAdjust="spacing" textLength="142.2832" x="6" y="128.9199">Current Stock Quantity:</text><text fill="#000000" font-family="sans-serif" font-size="12" lengthAdjust="spacing" textLength="118.8398" x="6" y="144.8887">Maximum Quantity:</text><text fill="#000000" font-family="sans-serif" font-size="12" lengthAdjust="spacing" textLength="115.3242" x="6" y="160.8574">Minimum Quantity:</text><rect fill="#EEEEEE" height="17.9688" rx="5" ry="5" style="stroke:#000000;stroke-width:2.5;" width="36" x="8.5" y="168.1875"/><text fill="#000000" font-family="sans-serif" font-size="12" lengthAdjust="spacing" textLength="23.2383" x="14.8809" y="181.3262">Edit</text><rect fill="#EEEEEE" height="17.9688" rx="5" ry="5" style="stroke:#000000;stroke-width:2.5;" width="52" x="334.3984" y="168.1875"/><text fill="#000000" font-family="sans-serif" font-size="12" lengthAdjust="spacing" textLength="39.4277" x="340.6846" y="181.3262">Delete</text><rect fill="#EEEEEE" height="17.9688" rx="5" ry="5" style="stroke:#000000;stroke-width:2.5;" width="44" x="393.3984" y="168.1875"/><text fill="#000000" font-family="sans-serif" font-size="12" lengthAdjust="spacing" textLength="32.6895" x="399.0537" y="181.3262">Close</text><line style="stroke:#AAAAAA;stroke-width:1.0;" x1="6" x2="330.8984" y1="193.1563" y2="193.1563"/><line style="stroke:#AAAAAA;stroke-width:1.0;" x1="6" x2="330.8984" y1="195.1563" y2="195.1563"/><text fill="#000000" font-family="sans-serif" font-size="12" lengthAdjust="spacing" textLength="68.8535" x="6" y="209.7949">Notification</text><text fill="#000000" font-family="sans-serif" font-size="12" font-weight="bold" lengthAdjust="spacing" textLength="53.8359" x="7" y="226.7637">Success</text><text fill="#000000" font-family="sans-serif" font-size="12" lengthAdjust="spacing" textLength="271.0723" x="7" y="242.7324">Warehouse information updated successfully</text><rect fill="#EEEEEE" height="17.9688" rx="5" ry="5" style="stroke:#000000;stroke-width:2.5;" width="52" x="9.5" y="250.0625"/><text fill="#000000" font-family="sans-serif" font-size="12" lengthAdjust="spacing" textLength="40.6523" x="15.1738" y="263.2012">Cancel</text><line style="stroke:#000000;stroke-width:1.0;" x1="6" x2="279.0723" y1="214.625" y2="214.625"/><line style="stroke:#000000;stroke-width:1.0;" x1="6" x2="279.0723" y1="271.5313" y2="271.5313"/><line style="stroke:#000000;stroke-width:1.0;" x1="6" x2="6" y1="214.625" y2="230.5938"/><line style="stroke:#000000;stroke-width:1.0;" x1="279.0723" x2="279.0723" y1="230.5938" y2="246.5625"/><line style="stroke:#000000;stroke-width:1.0;" x1="279.0723" x2="279.0723" y1="214.625" y2="230.5938"/><line style="stroke:#000000;stroke-width:1.0;" x1="6" x2="6" y1="246.5625" y2="271.5313"/><line style="stroke:#000000;stroke-width:1.0;" x1="6" x2="6" y1="230.5938" y2="246.5625"/><line style="stroke:#000000;stroke-width:1.0;" x1="279.0723" x2="279.0723" y1="246.5625" y2="271.5313"/><line style="stroke:#AAAAAA;stroke-width:1.0;stroke-dasharray:1.0,2.0;" x1="6" x2="330.8984" y1="277.0313" y2="277.0313"/><text fill="#000000" font-family="sans-serif" font-size="12" font-weight="bold" lengthAdjust="spacing" textLength="57.041" x="7" y="293.6699">Warning</text><text fill="#000000" font-family="sans-serif" font-size="12" lengthAdjust="spacing" textLength="294.5801" x="7" y="309.6387">Are you sure you want to delete this warehouse?</text><rect fill="#EEEEEE" height="17.9688" rx="5" ry="5" style="stroke:#000000;stroke-width:2.5;" width="28" x="9.5" y="316.9688"/><text fill="#000000" font-family="sans-serif" font-size="12" lengthAdjust="spacing" textLength="20.9648" x="13.0176" y="330.1074">Yes</text><rect fill="#EEEEEE" height="17.9688" rx="5" ry="5" style="stroke:#000000;stroke-width:2.5;" width="20.3184" x="306.0801" y="316.9688"/><text fill="#000000" font-family="sans-serif" font-size="12" lengthAdjust="spacing" textLength="16.3184" x="308.0801" y="330.1074">No</text><line style="stroke:#000000;stroke-width:1.0;" x1="6" x2="302.5801" y1="281.5313" y2="281.5313"/><line style="stroke:#000000;stroke-width:1.0;" x1="302.5801" x2="329.8984" y1="281.5313" y2="281.5313"/><line style="stroke:#000000;stroke-width:1.0;" x1="6" x2="302.5801" y1="338.4375" y2="338.4375"/><line style="stroke:#000000;stroke-width:1.0;" x1="302.5801" x2="329.8984" y1="338.4375" y2="338.4375"/><line style="stroke:#000000;stroke-width:1.0;" x1="6" x2="6" y1="281.5313" y2="297.5"/><line style="stroke:#000000;stroke-width:1.0;" x1="329.8984" x2="329.8984" y1="313.4688" y2="338.4375"/><line style="stroke:#000000;stroke-width:1.0;" x1="329.8984" x2="329.8984" y1="297.5" y2="313.4688"/><line style="stroke:#000000;stroke-width:1.0;" x1="329.8984" x2="329.8984" y1="281.5313" y2="297.5"/><line style="stroke:#000000;stroke-width:1.0;" x1="6" x2="6" y1="313.4688" y2="338.4375"/><line style="stroke:#000000;stroke-width:1.0;" x1="6" x2="6" y1="297.5" y2="313.4688"/><line style="stroke:#AAAAAA;stroke-width:1.0;stroke-dasharray:1.0,2.0;" x1="6" x2="330.8984" y1="343.9375" y2="343.9375"/><text fill="#000000" font-family="sans-serif" font-size="12" font-weight="bold" lengthAdjust="spacing" textLength="57.041" x="7" y="360.5762">Warning</text><text fill="#000000" font-family="sans-serif" font-size="12" lengthAdjust="spacing" textLength="255.7324" x="7" y="376.5449">Cannot delete warehouse currently in use.</text><rect fill="#EEEEEE" height="17.9688" rx="5" ry="5" style="stroke:#000000;stroke-width:2.5;" width="52" x="9.5" y="383.875"/><text fill="#000000" font-family="sans-serif" font-size="12" lengthAdjust="spacing" textLength="40.6523" x="15.1738" y="397.0137">Cancel</text><rect fill="#EEEEEE" height="17.9688" rx="5" ry="5" style="stroke:#000000;stroke-width:2.5;" width="21.3145" x="267.2324" y="383.875"/><text fill="#000000" font-family="sans-serif" font-size="12" lengthAdjust="spacing" textLength="17.3145" x="269.2324" y="397.0137">OK</text><line style="stroke:#000000;stroke-width:1.0;" x1="6" x2="263.7324" y1="348.4375" y2="348.4375"/><line style="stroke:#000000;stroke-width:1.0;" x1="263.7324" x2="292.0469" y1="348.4375" y2="348.4375"/><line style="stroke:#000000;stroke-width:1.0;" x1="6" x2="263.7324" y1="405.3438" y2="405.3438"/><line style="stroke:#000000;stroke-width:1.0;" x1="263.7324" x2="292.0469" y1="405.3438" y2="405.3438"/><line style="stroke:#000000;stroke-width:1.0;" x1="6" x2="6" y1="348.4375" y2="364.4063"/><line style="stroke:#000000;stroke-width:1.0;" x1="292.0469" x2="292.0469" y1="380.375" y2="405.3438"/><line style="stroke:#000000;stroke-width:1.0;" x1="292.0469" x2="292.0469" y1="364.4063" y2="380.375"/><line style="stroke:#000000;stroke-width:1.0;" x1="292.0469" x2="292.0469" y1="348.4375" y2="364.4063"/><line style="stroke:#000000;stroke-width:1.0;" x1="6" x2="6" y1="380.375" y2="405.3438"/><line style="stroke:#000000;stroke-width:1.0;" x1="6" x2="6" y1="364.4063" y2="380.375"/><line style="stroke:#000000;stroke-width:1.0;" x1="5" x2="330.8984" y1="5" y2="5"/><line style="stroke:#000000;stroke-width:1.0;" x1="389.8984" x2="440.8984" y1="406.3438" y2="406.3438"/><line style="stroke:#000000;stroke-width:1.0;" x1="330.8984" x2="389.8984" y1="5" y2="5"/><line style="stroke:#000000;stroke-width:1.0;" x1="389.8984" x2="440.8984" y1="5" y2="5"/><line style="stroke:#000000;stroke-width:1.0;" x1="5" x2="330.8984" y1="406.3438" y2="406.3438"/><line style="stroke:#000000;stroke-width:1.0;" x1="330.8984" x2="389.8984" y1="406.3438" y2="406.3438"/><line style="stroke:#000000;stroke-width:1.0;" x1="5" x2="5" y1="5" y2="20.9688"/><line style="stroke:#000000;stroke-width:1.0;" x1="5" x2="5" y1="280.5313" y2="339.4375"/><line style="stroke:#000000;stroke-width:1.0;" x1="440.8984" x2="440.8984" y1="5" y2="20.9688"/><line style="stroke:#000000;stroke-width:1.0;" x1="440.8984" x2="440.8984" y1="280.5313" y2="339.4375"/><line style="stroke:#000000;stroke-width:1.0;" x1="5" x2="5" y1="189.6563" y2="197.6563"/><line style="stroke:#000000;stroke-width:1.0;" x1="440.8984" x2="440.8984" y1="189.6563" y2="197.6563"/><line style="stroke:#000000;stroke-width:1.0;" x1="5" x2="5" y1="116.7813" y2="132.75"/><line style="stroke:#000000;stroke-width:1.0;" x1="440.8984" x2="440.8984" y1="116.7813" y2="132.75"/><line style="stroke:#000000;stroke-width:1.0;" x1="5" x2="5" y1="52.9063" y2="68.875"/><line style="stroke:#000000;stroke-width:1.0;" x1="440.8984" x2="440.8984" y1="52.9063" y2="68.875"/><line style="stroke:#000000;stroke-width:1.0;" x1="5" x2="5" y1="272.5313" y2="280.5313"/><line style="stroke:#000000;stroke-width:1.0;" x1="440.8984" x2="440.8984" y1="272.5313" y2="280.5313"/><line style="stroke:#000000;stroke-width:1.0;" x1="5" x2="5" y1="164.6875" y2="189.6563"/><line style="stroke:#000000;stroke-width:1.0;" x1="440.8984" x2="440.8984" y1="164.6875" y2="189.6563"/><line style="stroke:#000000;stroke-width:1.0;" x1="5" x2="5" y1="100.8125" y2="116.7813"/><line style="stroke:#000000;stroke-width:1.0;" x1="440.8984" x2="440.8984" y1="100.8125" y2="116.7813"/><line style="stroke:#000000;stroke-width:1.0;" x1="5" x2="5" y1="36.9375" y2="52.9063"/><line style="stroke:#000000;stroke-width:1.0;" x1="5" x2="5" y1="347.4375" y2="406.3438"/><line style="stroke:#000000;stroke-width:1.0;" x1="440.8984" x2="440.8984" y1="36.9375" y2="52.9063"/><line style="stroke:#000000;stroke-width:1.0;" x1="440.8984" x2="440.8984" y1="347.4375" y2="406.3438"/><line style="stroke:#000000;stroke-width:1.0;" x1="5" x2="5" y1="213.625" y2="272.5313"/><line style="stroke:#000000;stroke-width:1.0;" x1="440.8984" x2="440.8984" y1="213.625" y2="272.5313"/><line style="stroke:#000000;stroke-width:1.0;" x1="5" x2="5" y1="148.7188" y2="164.6875"/><line style="stroke:#000000;stroke-width:1.0;" x1="440.8984" x2="440.8984" y1="148.7188" y2="164.6875"/><line style="stroke:#000000;stroke-width:1.0;" x1="5" x2="5" y1="84.8438" y2="100.8125"/><line style="stroke:#000000;stroke-width:1.0;" x1="440.8984" x2="440.8984" y1="84.8438" y2="100.8125"/><line style="stroke:#000000;stroke-width:1.0;" x1="5" x2="5" y1="20.9688" y2="36.9375"/><line style="stroke:#000000;stroke-width:1.0;" x1="5" x2="5" y1="339.4375" y2="347.4375"/><line style="stroke:#000000;stroke-width:1.0;" x1="440.8984" x2="440.8984" y1="20.9688" y2="36.9375"/><line style="stroke:#000000;stroke-width:1.0;" x1="440.8984" x2="440.8984" y1="339.4375" y2="347.4375"/><line style="stroke:#000000;stroke-width:1.0;" x1="5" x2="5" y1="197.6563" y2="213.625"/><line style="stroke:#000000;stroke-width:1.0;" x1="440.8984" x2="440.8984" y1="197.6563" y2="213.625"/><line style="stroke:#000000;stroke-width:1.0;" x1="5" x2="5" y1="132.75" y2="148.7188"/><line style="stroke:#000000;stroke-width:1.0;" x1="440.8984" x2="440.8984" y1="132.75" y2="148.7188"/><line style="stroke:#000000;stroke-width:1.0;" x1="5" x2="5" y1="68.875" y2="84.8438"/><line style="stroke:#000000;stroke-width:1.0;" x1="440.8984" x2="440.8984" y1="68.875" y2="84.8438"/><!--SRC=[RL9jRzCm4Fv-l-8-Re95JPde535OIGUbQxf2qg6fwWSlkRGMgLtvfH31_likQRU0X6LBzdDlpps-A-k4SLPK3dw_WdSFxxyBGnljBU4NLMgp5Kvg1Hqw4rkAi7k7C2mAGzP66FRVlCRC28LZhzOu4XgoUiVUAPKE0NdDZSmP27izxF5PfAC3p1mKcGZZx1wpsNWSy6AyDIP2YNLZdArzJGgpZSGXGkoD8UKmTJh_WL-zK4wwEa98n2-vzTiEWaIgVn44M5uNqgtm3ov7L96ZzXfNsj8AshANbp3JJfOoFqXmr2VrUSxT_gM8x7H2lok4emBjmQlqLLN3CXOgfse5Zn04dSnAgZKC3M6jFGSSBp-P8ZgDHSiAtKPQnewrFi3odcnBTQR_cuzBAUsUery2CJ-eLTLC5na8NbWroMvlccIyhqWLxJ30l68YYsIAUpAsQIqC-ht-UJ0uIGMBJZli3J0Ce_0Y2WUuo69ipATmyda-HQkzoGaBQPsH3xwHvXGcOY_mc-SVQ2ReTaTgChfv1l1QxQNHQiiaONANT0vlpyy-ogQYOIPuby28Ik4hnn6vBhZdYAj_Ehk0gL1hpvCI8Ic8DUSr_DEBz0a0]--></g></svg>