<svg xmlns="http://www.w3.org/2000/svg" xmlns:xlink="http://www.w3.org/1999/xlink" contentStyleType="text/css" height="652px" preserveAspectRatio="none" style="width:978px;height:652px;background:#FFFFFF;" version="1.1" viewBox="0 0 978 652" width="978px" zoomAndPan="magnify"><defs/><g><rect fill="none" height="20.9531" style="stroke:none;stroke-width:1.0;" width="945.8101" x="15" y="12.7451"/><ellipse cx="148.3516" cy="48.6982" fill="#222222" rx="10" ry="10" style="stroke:#222222;stroke-width:1.0;"/><rect fill="#F1F1F1" height="33.9688" rx="12.5" ry="12.5" style="stroke:#181818;stroke-width:0.5;" width="154.5605" x="71.0713" y="78.6982"/><text fill="#000000" font-family="sans-serif" font-size="12" lengthAdjust="spacing" textLength="134.5605" x="81.0713" y="99.8369">Press "Add" button (1)</text><rect fill="#F1F1F1" height="33.9688" rx="12.5" ry="12.5" style="stroke:#181818;stroke-width:0.5;" width="254.7031" x="21" y="186.6357"/><text fill="#000000" font-family="sans-serif" font-size="12" lengthAdjust="spacing" textLength="234.7031" x="31" y="207.7744">Enter Name, Owner, Location, Type (3)</text><rect fill="#F1F1F1" height="33.9688" rx="12.5" ry="12.5" style="stroke:#181818;stroke-width:0.5;" width="171.2539" x="62.7246" y="240.6045"/><text fill="#000000" font-family="sans-serif" font-size="12" lengthAdjust="spacing" textLength="151.2539" x="72.7246" y="261.7432">Press "Create" button (4)</text><line style="stroke:#000000;stroke-width:1.5;" x1="15" x2="15" y1="12.7451" y2="640.4482"/><rect fill="#F1F1F1" height="33.9688" rx="12.5" ry="12.5" style="stroke:#181818;stroke-width:0.5;" width="224.252" x="397.7495" y="132.667"/><text fill="#000000" font-family="sans-serif" font-size="12" lengthAdjust="spacing" textLength="204.252" x="407.7495" y="153.8057">Loading screen Create Partner (2)</text><rect fill="#F1F1F1" height="33.9688" rx="12.5" ry="12.5" style="stroke:#181818;stroke-width:0.5;" width="192.5879" x="413.5815" y="294.5732"/><text fill="#000000" font-family="sans-serif" font-size="12" lengthAdjust="spacing" textLength="172.5879" x="423.5815" y="315.7119">Submit a partner request (5)</text><polygon fill="#F1F1F1" points="403.4204,348.542,616.3306,348.542,628.3306,360.542,616.3306,372.542,403.4204,372.542,391.4204,360.542,403.4204,348.542" style="stroke:#181818;stroke-width:0.5;"/><text fill="#000000" font-family="sans-serif" font-size="11" lengthAdjust="spacing" textLength="212.9102" x="403.4204" y="364.3501">Check if the partner information exists</text><text fill="#000000" font-family="sans-serif" font-size="11" lengthAdjust="spacing" textLength="22.2847" x="369.1357" y="357.9478">[no]</text><text fill="#000000" font-family="sans-serif" font-size="11" lengthAdjust="spacing" textLength="22.2847" x="628.3306" y="357.9478">[no]</text><rect fill="#F1F1F1" height="33.9688" rx="12.5" ry="12.5" style="stroke:#181818;stroke-width:0.5;" width="189.2656" x="286.7876" y="392.542"/><text fill="#000000" font-family="sans-serif" font-size="12" lengthAdjust="spacing" textLength="169.2656" x="296.7876" y="413.6807">Display exists message(5.1)</text><ellipse cx="381.4204" cy="457.5107" fill="none" rx="11" ry="11" style="stroke:#222222;stroke-width:1.0;"/><ellipse cx="381.4204" cy="457.5107" fill="#222222" rx="6" ry="6" style="stroke:#222222;stroke-width:1.0;"/><polygon fill="#F1F1F1" points="444.0957,500.4795,575.6553,500.4795,587.6553,512.4795,575.6553,524.4795,444.0957,524.4795,432.0957,512.4795,444.0957,500.4795" style="stroke:#181818;stroke-width:0.5;"/><text fill="#000000" font-family="sans-serif" font-size="11" lengthAdjust="spacing" textLength="131.5596" x="444.0957" y="516.2876">Check successful status</text><text fill="#000000" font-family="sans-serif" font-size="11" lengthAdjust="spacing" textLength="27.5913" x="404.5044" y="509.8853">[yes]</text><text fill="#000000" font-family="sans-serif" font-size="11" lengthAdjust="spacing" textLength="22.2847" x="587.6553" y="509.8853">[no]</text><rect fill="#F1F1F1" height="33.9688" rx="12.5" ry="12.5" style="stroke:#181818;stroke-width:0.5;" width="220.1563" x="285.7031" y="534.4795"/><text fill="#000000" font-family="sans-serif" font-size="12" lengthAdjust="spacing" textLength="200.1563" x="295.7031" y="555.6182">Display successful message (6.1)</text><rect fill="#F1F1F1" height="33.9688" rx="12.5" ry="12.5" style="stroke:#181818;stroke-width:0.5;" width="196.2207" x="525.8594" y="534.4795"/><text fill="#000000" font-family="sans-serif" font-size="12" lengthAdjust="spacing" textLength="176.2207" x="535.8594" y="555.6182">Display failure message (6.2)</text><polygon fill="#F1F1F1" points="509.8755,574.4482,521.8755,586.4482,509.8755,598.4482,497.8755,586.4482,509.8755,574.4482" style="stroke:#181818;stroke-width:0.5;"/><ellipse cx="509.8755" cy="629.4482" fill="none" rx="11" ry="11" style="stroke:#222222;stroke-width:1.0;"/><ellipse cx="509.8755" cy="629.4482" fill="#222222" rx="6" ry="6" style="stroke:#222222;stroke-width:1.0;"/><line style="stroke:#000000;stroke-width:1.5;" x1="279.7031" x2="279.7031" y1="12.7451" y2="640.4482"/><rect fill="#F1F1F1" height="33.9688" rx="12.5" ry="12.5" style="stroke:#181818;stroke-width:0.5;" width="222.8691" x="732.0801" y="392.542"/><text fill="#000000" font-family="sans-serif" font-size="12" lengthAdjust="spacing" textLength="202.8691" x="742.0801" y="413.6807">Add partner to the database (5.2)</text><rect fill="#F1F1F1" height="33.9688" rx="12.5" ry="12.5" style="stroke:#181818;stroke-width:0.5;" width="119.4102" x="783.8096" y="446.5107"/><text fill="#000000" font-family="sans-serif" font-size="12" lengthAdjust="spacing" textLength="99.4102" x="793.8096" y="467.6494">Return result (6)</text><line style="stroke:#000000;stroke-width:1.5;" x1="726.0801" x2="726.0801" y1="12.7451" y2="640.4482"/><line style="stroke:#000000;stroke-width:1.5;" x1="958.9492" x2="958.9492" y1="12.7451" y2="640.4482"/><line style="stroke:#181818;stroke-width:1.0;" x1="148.3516" x2="148.3516" y1="58.6982" y2="78.6982"/><polygon fill="#181818" points="144.3516,68.6982,148.3516,78.6982,152.3516,68.6982,148.3516,72.6982" style="stroke:#181818;stroke-width:1.0;"/><line style="stroke:#181818;stroke-width:1.0;" x1="148.3516" x2="148.3516" y1="220.6045" y2="240.6045"/><polygon fill="#181818" points="144.3516,230.6045,148.3516,240.6045,152.3516,230.6045,148.3516,234.6045" style="stroke:#181818;stroke-width:1.0;"/><line style="stroke:#181818;stroke-width:1.0;" x1="381.4204" x2="381.4204" y1="426.5107" y2="446.5107"/><polygon fill="#181818" points="377.4204,436.5107,381.4204,446.5107,385.4204,436.5107,381.4204,440.5107" style="stroke:#181818;stroke-width:1.0;"/><line style="stroke:#181818;stroke-width:1.0;" x1="391.4204" x2="381.4204" y1="360.542" y2="360.542"/><line style="stroke:#181818;stroke-width:1.0;" x1="381.4204" x2="381.4204" y1="360.542" y2="392.542"/><polygon fill="#181818" points="377.4204,382.542,381.4204,392.542,385.4204,382.542,381.4204,386.542" style="stroke:#181818;stroke-width:1.0;"/><line style="stroke:#181818;stroke-width:1.0;" x1="509.8755" x2="509.8755" y1="328.542" y2="348.542"/><polygon fill="#181818" points="505.8755,338.542,509.8755,348.542,513.8755,338.542,509.8755,342.542" style="stroke:#181818;stroke-width:1.0;"/><line style="stroke:#181818;stroke-width:1.0;" x1="432.0957" x2="395.7813" y1="512.4795" y2="512.4795"/><line style="stroke:#181818;stroke-width:1.0;" x1="395.7813" x2="395.7813" y1="512.4795" y2="534.4795"/><polygon fill="#181818" points="391.7813,524.4795,395.7813,534.4795,399.7813,524.4795,395.7813,528.4795" style="stroke:#181818;stroke-width:1.0;"/><line style="stroke:#181818;stroke-width:1.0;" x1="587.6553" x2="623.9697" y1="512.4795" y2="512.4795"/><line style="stroke:#181818;stroke-width:1.0;" x1="623.9697" x2="623.9697" y1="512.4795" y2="534.4795"/><polygon fill="#181818" points="619.9697,524.4795,623.9697,534.4795,627.9697,524.4795,623.9697,528.4795" style="stroke:#181818;stroke-width:1.0;"/><line style="stroke:#181818;stroke-width:1.0;" x1="395.7813" x2="395.7813" y1="568.4482" y2="586.4482"/><line style="stroke:#181818;stroke-width:1.0;" x1="395.7813" x2="497.8755" y1="586.4482" y2="586.4482"/><polygon fill="#181818" points="487.8755,582.4482,497.8755,586.4482,487.8755,590.4482,491.8755,586.4482" style="stroke:#181818;stroke-width:1.0;"/><line style="stroke:#181818;stroke-width:1.0;" x1="623.9697" x2="623.9697" y1="568.4482" y2="586.4482"/><line style="stroke:#181818;stroke-width:1.0;" x1="623.9697" x2="521.8755" y1="586.4482" y2="586.4482"/><polygon fill="#181818" points="531.8755,582.4482,521.8755,586.4482,531.8755,590.4482,527.8755,586.4482" style="stroke:#181818;stroke-width:1.0;"/><line style="stroke:#181818;stroke-width:1.0;" x1="843.5146" x2="843.5146" y1="480.4795" y2="484.4795"/><line style="stroke:#181818;stroke-width:1.0;" x1="843.5146" x2="509.8755" y1="484.4795" y2="484.4795"/><line style="stroke:#181818;stroke-width:1.0;" x1="509.8755" x2="509.8755" y1="484.4795" y2="500.4795"/><polygon fill="#181818" points="505.8755,490.4795,509.8755,500.4795,513.8755,490.4795,509.8755,494.4795" style="stroke:#181818;stroke-width:1.0;"/><line style="stroke:#181818;stroke-width:1.0;" x1="509.8755" x2="509.8755" y1="598.4482" y2="618.4482"/><polygon fill="#181818" points="505.8755,608.4482,509.8755,618.4482,513.8755,608.4482,509.8755,612.4482" style="stroke:#181818;stroke-width:1.0;"/><line style="stroke:#181818;stroke-width:1.0;" x1="843.5146" x2="843.5146" y1="426.5107" y2="446.5107"/><polygon fill="#181818" points="839.5146,436.5107,843.5146,446.5107,847.5146,436.5107,843.5146,440.5107" style="stroke:#181818;stroke-width:1.0;"/><line style="stroke:#181818;stroke-width:1.0;" x1="148.3516" x2="148.3516" y1="112.667" y2="117.667"/><line style="stroke:#181818;stroke-width:1.0;" x1="148.3516" x2="509.8755" y1="117.667" y2="117.667"/><line style="stroke:#181818;stroke-width:1.0;" x1="509.8755" x2="509.8755" y1="117.667" y2="132.667"/><polygon fill="#181818" points="505.8755,122.667,509.8755,132.667,513.8755,122.667,509.8755,126.667" style="stroke:#181818;stroke-width:1.0;"/><line style="stroke:#181818;stroke-width:1.0;" x1="509.8755" x2="509.8755" y1="166.6357" y2="171.6357"/><line style="stroke:#181818;stroke-width:1.0;" x1="509.8755" x2="148.3516" y1="171.6357" y2="171.6357"/><line style="stroke:#181818;stroke-width:1.0;" x1="148.3516" x2="148.3516" y1="171.6357" y2="186.6357"/><polygon fill="#181818" points="144.3516,176.6357,148.3516,186.6357,152.3516,176.6357,148.3516,180.6357" style="stroke:#181818;stroke-width:1.0;"/><line style="stroke:#181818;stroke-width:1.0;" x1="148.3516" x2="148.3516" y1="274.5732" y2="279.5732"/><line style="stroke:#181818;stroke-width:1.0;" x1="148.3516" x2="509.8755" y1="279.5732" y2="279.5732"/><line style="stroke:#181818;stroke-width:1.0;" x1="509.8755" x2="509.8755" y1="279.5732" y2="294.5732"/><polygon fill="#181818" points="505.8755,284.5732,509.8755,294.5732,513.8755,284.5732,509.8755,288.5732" style="stroke:#181818;stroke-width:1.0;"/><line style="stroke:#181818;stroke-width:1.0;" x1="628.3306" x2="843.5146" y1="360.542" y2="360.542"/><line style="stroke:#181818;stroke-width:1.0;" x1="843.5146" x2="843.5146" y1="360.542" y2="392.542"/><polygon fill="#181818" points="839.5146,382.542,843.5146,392.542,847.5146,382.542,843.5146,386.542" style="stroke:#181818;stroke-width:1.0;"/><text fill="#000000" font-family="sans-serif" font-size="18" lengthAdjust="spacing" textLength="41.0273" x="126.8379" y="29.4531">User</text><text fill="#000000" font-family="sans-serif" font-size="18" lengthAdjust="spacing" textLength="67.1221" x="469.3306" y="29.4531">System</text><text fill="#000000" font-family="sans-serif" font-size="18" lengthAdjust="spacing" textLength="85.8867" x="799.5713" y="29.4531">Database</text><!--SRC=[JP51JyCm38Nl-HNMJgrKJM8m3jrfshXDC34u8GvfwsuHRL9YHr2fFnwlAsrlaT-ptsUdUoVqdIBMdbLwz4W4YsrHB20BpCv2T1TlG7MdbXZhJgK7fmjZpq2vHxImywWPuIZj5Zr4gzvz6ve-MPRQiwunWPSVqHCuk5opSJQ1jxP1YExZpHXxcpKbFuWsIpw5h3OC6feXpEDtG6A8rc8q9KIx2-PV82- -uEWojdI-xaC1VmqnnLTTvdzOznah09Nk3JMLRWSTQi7HPupMIrbURkCQXHNXVuVgzffrfWc5IcurHh7hauj15R3bwhhVAtBmLdWfL8BxA3MqXIdLRBs9dqAU2q0PAf1luJ3njaWzyCWximxCChs7dlFE6afjgk1nxbvDDDTD_m00]--></g></svg>