<svg xmlns="http://www.w3.org/2000/svg" xmlns:xlink="http://www.w3.org/1999/xlink" contentStyleType="text/css" height="632px" preserveAspectRatio="none" style="width:1579px;height:632px;background:#FFFFFF;" version="1.1" viewBox="0 0 1579 632" width="1579px" zoomAndPan="magnify"><defs/><g><rect fill="none" height="20.9531" style="stroke:none;stroke-width:1.0;" width="1546.0112" x="15" y="12.7451"/><ellipse cx="152.5762" cy="48.6982" fill="#222222" rx="10" ry="10" style="stroke:#222222;stroke-width:1.0;"/><rect fill="#F1F1F1" height="33.9688" rx="12.5" ry="12.5" style="stroke:#181818;stroke-width:0.5;" width="263.1523" x="21" y="78.6982"/><text fill="#000000" font-family="sans-serif" font-size="12" lengthAdjust="spacing" textLength="243.1523" x="31" y="99.8369">Go to the partner management page (1)</text><rect fill="#F1F1F1" height="33.9688" rx="12.5" ry="12.5" style="stroke:#181818;stroke-width:0.5;" width="167.082" x="69.0352" y="132.667"/><text fill="#000000" font-family="sans-serif" font-size="12" lengthAdjust="spacing" textLength="147.082" x="79.0352" y="153.8057">Click "Delete" button (2)</text><rect fill="#F1F1F1" height="33.9688" rx="12.5" ry="12.5" style="stroke:#181818;stroke-width:0.5;" width="164.3457" x="70.4033" y="186.6357"/><text fill="#000000" font-family="sans-serif" font-size="12" lengthAdjust="spacing" textLength="144.3457" x="80.4033" y="207.7744">Confirm the deletion (3)</text><line style="stroke:#000000;stroke-width:1.5;" x1="15" x2="15" y1="12.7451" y2="620.4795"/><rect fill="#F1F1F1" height="33.9688" rx="12.5" ry="12.5" style="stroke:#181818;stroke-width:0.5;" width="487.4668" x="526.2236" y="240.6045"/><text fill="#000000" font-family="sans-serif" font-size="12" lengthAdjust="spacing" textLength="467.4668" x="536.2236" y="261.7432">Check if all related connections (orders, products, shipments) are handled (4)</text><polygon fill="#F1F1F1" points="701.3171,294.5732,838.5969,294.5732,850.5969,306.5732,838.5969,318.5732,701.3171,318.5732,689.3171,306.5732,701.3171,294.5732" style="stroke:#181818;stroke-width:0.5;"/><text fill="#000000" font-family="sans-serif" font-size="11" lengthAdjust="spacing" textLength="137.2798" x="701.3171" y="310.3813">All connections handled?</text><text fill="#000000" font-family="sans-serif" font-size="11" lengthAdjust="spacing" textLength="13.7017" x="675.6155" y="303.979">no</text><text fill="#000000" font-family="sans-serif" font-size="11" lengthAdjust="spacing" textLength="19.0083" x="850.5969" y="303.979">yes</text><rect fill="#F1F1F1" height="33.9688" rx="12.5" ry="12.5" style="stroke:#181818;stroke-width:0.5;" width="398.8438" x="294.1523" y="338.5732"/><text fill="#000000" font-family="sans-serif" font-size="12" lengthAdjust="spacing" textLength="378.8438" x="304.1523" y="359.7119">Display error notification "Handle all related connections" (4.1)</text><polygon fill="#F1F1F1" points="980.5601,446.5107,1112.1196,446.5107,1124.1196,458.5107,1112.1196,470.5107,980.5601,470.5107,968.5601,458.5107,980.5601,446.5107" style="stroke:#181818;stroke-width:0.5;"/><text fill="#000000" font-family="sans-serif" font-size="11" lengthAdjust="spacing" textLength="131.5596" x="980.5601" y="462.3188">Check successful status</text><text fill="#000000" font-family="sans-serif" font-size="11" lengthAdjust="spacing" textLength="19.0083" x="949.5518" y="455.9165">yes</text><text fill="#000000" font-family="sans-serif" font-size="11" lengthAdjust="spacing" textLength="13.7017" x="1124.1196" y="455.9165">no</text><rect fill="#F1F1F1" height="33.9688" rx="12.5" ry="12.5" style="stroke:#181818;stroke-width:0.5;" width="352.3848" x="722.9961" y="480.5107"/><text fill="#000000" font-family="sans-serif" font-size="12" lengthAdjust="spacing" textLength="332.3848" x="732.9961" y="501.6494">Display notification "Partner deleted successfully" (7.1)</text><rect fill="#F1F1F1" height="33.9688" rx="12.5" ry="12.5" style="stroke:#181818;stroke-width:0.5;" width="196.2207" x="1095.3809" y="480.5107"/><text fill="#000000" font-family="sans-serif" font-size="12" lengthAdjust="spacing" textLength="176.2207" x="1105.3809" y="501.6494">Display failure message (7.2)</text><polygon fill="#F1F1F1" points="1046.3398,520.4795,1058.3398,532.4795,1046.3398,544.4795,1034.3398,532.4795,1046.3398,520.4795" style="stroke:#181818;stroke-width:0.5;"/><polygon fill="#F1F1F1" points="769.957,554.4795,781.957,566.4795,769.957,578.4795,757.957,566.4795,769.957,554.4795" style="stroke:#181818;stroke-width:0.5;"/><ellipse cx="769.957" cy="609.4795" fill="none" rx="11" ry="11" style="stroke:#222222;stroke-width:1.0;"/><ellipse cx="769.957" cy="609.4795" fill="#222222" rx="6" ry="6" style="stroke:#222222;stroke-width:1.0;"/><line style="stroke:#000000;stroke-width:1.5;" x1="288.1523" x2="288.1523" y1="12.7451" y2="620.4795"/><rect fill="#F1F1F1" height="33.9688" rx="12.5" ry="12.5" style="stroke:#181818;stroke-width:0.5;" width="253.5488" x="1301.6016" y="338.5732"/><text fill="#000000" font-family="sans-serif" font-size="12" lengthAdjust="spacing" textLength="233.5488" x="1311.6016" y="359.7119">Change partner status to "Deleted" (5)</text><rect fill="#F1F1F1" height="33.9688" rx="12.5" ry="12.5" style="stroke:#181818;stroke-width:0.5;" width="119.4102" x="1368.6709" y="392.542"/><text fill="#000000" font-family="sans-serif" font-size="12" lengthAdjust="spacing" textLength="99.4102" x="1378.6709" y="413.6807">Return result (6)</text><line style="stroke:#000000;stroke-width:1.5;" x1="1295.6016" x2="1295.6016" y1="12.7451" y2="620.4795"/><line style="stroke:#000000;stroke-width:1.5;" x1="1559.1504" x2="1559.1504" y1="12.7451" y2="620.4795"/><line style="stroke:#181818;stroke-width:1.0;" x1="152.5762" x2="152.5762" y1="58.6982" y2="78.6982"/><polygon fill="#181818" points="148.5762,68.6982,152.5762,78.6982,156.5762,68.6982,152.5762,72.6982" style="stroke:#181818;stroke-width:1.0;"/><line style="stroke:#181818;stroke-width:1.0;" x1="152.5762" x2="152.5762" y1="112.667" y2="132.667"/><polygon fill="#181818" points="148.5762,122.667,152.5762,132.667,156.5762,122.667,152.5762,126.667" style="stroke:#181818;stroke-width:1.0;"/><line style="stroke:#181818;stroke-width:1.0;" x1="152.5762" x2="152.5762" y1="166.6357" y2="186.6357"/><polygon fill="#181818" points="148.5762,176.6357,152.5762,186.6357,156.5762,176.6357,152.5762,180.6357" style="stroke:#181818;stroke-width:1.0;"/><line style="stroke:#181818;stroke-width:1.0;" x1="968.5601" x2="899.1885" y1="458.5107" y2="458.5107"/><line style="stroke:#181818;stroke-width:1.0;" x1="899.1885" x2="899.1885" y1="458.5107" y2="480.5107"/><polygon fill="#181818" points="895.1885,470.5107,899.1885,480.5107,903.1885,470.5107,899.1885,474.5107" style="stroke:#181818;stroke-width:1.0;"/><line style="stroke:#181818;stroke-width:1.0;" x1="1124.1196" x2="1193.4912" y1="458.5107" y2="458.5107"/><line style="stroke:#181818;stroke-width:1.0;" x1="1193.4912" x2="1193.4912" y1="458.5107" y2="480.5107"/><polygon fill="#181818" points="1189.4912,470.5107,1193.4912,480.5107,1197.4912,470.5107,1193.4912,474.5107" style="stroke:#181818;stroke-width:1.0;"/><line style="stroke:#181818;stroke-width:1.0;" x1="899.1885" x2="899.1885" y1="514.4795" y2="532.4795"/><line style="stroke:#181818;stroke-width:1.0;" x1="899.1885" x2="1034.3398" y1="532.4795" y2="532.4795"/><polygon fill="#181818" points="1024.3398,528.4795,1034.3398,532.4795,1024.3398,536.4795,1028.3398,532.4795" style="stroke:#181818;stroke-width:1.0;"/><line style="stroke:#181818;stroke-width:1.0;" x1="1193.4912" x2="1193.4912" y1="514.4795" y2="532.4795"/><line style="stroke:#181818;stroke-width:1.0;" x1="1193.4912" x2="1058.3398" y1="532.4795" y2="532.4795"/><polygon fill="#181818" points="1068.3398,528.4795,1058.3398,532.4795,1068.3398,536.4795,1064.3398,532.4795" style="stroke:#181818;stroke-width:1.0;"/><line style="stroke:#181818;stroke-width:1.0;" x1="689.3171" x2="493.5742" y1="306.5732" y2="306.5732"/><line style="stroke:#181818;stroke-width:1.0;" x1="493.5742" x2="493.5742" y1="306.5732" y2="338.5732"/><polygon fill="#181818" points="489.5742,328.5732,493.5742,338.5732,497.5742,328.5732,493.5742,332.5732" style="stroke:#181818;stroke-width:1.0;"/><line style="stroke:#181818;stroke-width:1.0;" x1="493.5742" x2="493.5742" y1="372.542" y2="566.4795"/><line style="stroke:#181818;stroke-width:1.0;" x1="493.5742" x2="757.957" y1="566.4795" y2="566.4795"/><polygon fill="#181818" points="747.957,562.4795,757.957,566.4795,747.957,570.4795,751.957,566.4795" style="stroke:#181818;stroke-width:1.0;"/><line style="stroke:#181818;stroke-width:1.0;" x1="1046.3398" x2="1046.3398" y1="544.4795" y2="566.4795"/><line style="stroke:#181818;stroke-width:1.0;" x1="1046.3398" x2="781.957" y1="566.4795" y2="566.4795"/><polygon fill="#181818" points="791.957,562.4795,781.957,566.4795,791.957,570.4795,787.957,566.4795" style="stroke:#181818;stroke-width:1.0;"/><line style="stroke:#181818;stroke-width:1.0;" x1="769.957" x2="769.957" y1="274.5732" y2="294.5732"/><polygon fill="#181818" points="765.957,284.5732,769.957,294.5732,773.957,284.5732,769.957,288.5732" style="stroke:#181818;stroke-width:1.0;"/><line style="stroke:#181818;stroke-width:1.0;" x1="769.957" x2="769.957" y1="578.4795" y2="598.4795"/><polygon fill="#181818" points="765.957,588.4795,769.957,598.4795,773.957,588.4795,769.957,592.4795" style="stroke:#181818;stroke-width:1.0;"/><line style="stroke:#181818;stroke-width:1.0;" x1="1428.376" x2="1428.376" y1="372.542" y2="392.542"/><polygon fill="#181818" points="1424.376,382.542,1428.376,392.542,1432.376,382.542,1428.376,386.542" style="stroke:#181818;stroke-width:1.0;"/><line style="stroke:#181818;stroke-width:1.0;" x1="152.5762" x2="152.5762" y1="220.6045" y2="225.6045"/><line style="stroke:#181818;stroke-width:1.0;" x1="152.5762" x2="769.957" y1="225.6045" y2="225.6045"/><line style="stroke:#181818;stroke-width:1.0;" x1="769.957" x2="769.957" y1="225.6045" y2="240.6045"/><polygon fill="#181818" points="765.957,230.6045,769.957,240.6045,773.957,230.6045,769.957,234.6045" style="stroke:#181818;stroke-width:1.0;"/><line style="stroke:#181818;stroke-width:1.0;" x1="1428.376" x2="1428.376" y1="426.5107" y2="431.5107"/><line style="stroke:#181818;stroke-width:1.0;" x1="1428.376" x2="1046.3398" y1="431.5107" y2="431.5107"/><line style="stroke:#181818;stroke-width:1.0;" x1="1046.3398" x2="1046.3398" y1="431.5107" y2="446.5107"/><polygon fill="#181818" points="1042.3398,436.5107,1046.3398,446.5107,1050.3398,436.5107,1046.3398,440.5107" style="stroke:#181818;stroke-width:1.0;"/><line style="stroke:#181818;stroke-width:1.0;" x1="850.5969" x2="1428.376" y1="306.5732" y2="306.5732"/><line style="stroke:#181818;stroke-width:1.0;" x1="1428.376" x2="1428.376" y1="306.5732" y2="338.5732"/><polygon fill="#181818" points="1424.376,328.5732,1428.376,338.5732,1432.376,328.5732,1428.376,332.5732" style="stroke:#181818;stroke-width:1.0;"/><text fill="#000000" font-family="sans-serif" font-size="18" lengthAdjust="spacing" textLength="41.0273" x="131.0625" y="29.4531">User</text><text fill="#000000" font-family="sans-serif" font-size="18" lengthAdjust="spacing" textLength="67.1221" x="758.3159" y="29.4531">System</text><text fill="#000000" font-family="sans-serif" font-size="18" lengthAdjust="spacing" textLength="85.8867" x="1384.4326" y="29.4531">Database</text><!--SRC=[TPBFIiGm4CRlVOgXfnPamVNFmdeGSK6FelW0sMIw3QP9oKmEXJwyaxIwwq4efStC_ERxldR-98npHQmYL_kN02nNZp3AkyS8W_BgX0DwbgCJGdFTFbJxPsVr5zG7TCXOmp4n1m_DjjI2xsmS2iNa1fjBDrAgve-968TPcdeKWEr0EGSHdM8qe8Ftg7C_GHEYmKXNCCPWacPvejwEMGYre292hxnnCjNS2bf8pPEWBX5hmsERfOW47zeA0FO7IwDJ4s2C8O8FR3khLP5PlvQP_rJLicoJ0q174iM49CHgFYXMHqKu2rwSANywvoV1SgASwfgM4SYT8AJr7Jb5BuieEORclfp-PWGvdcO9YfBMIDGbjm9_F2qIBbtzzVEsoZ3BxWkGcqJ8hhW1MFoi0PrPdR8kITI3Z9IFlzjibtvlR5SjT_btmlWD]--></g></svg>