<svg xmlns="http://www.w3.org/2000/svg" xmlns:xlink="http://www.w3.org/1999/xlink" contentStyleType="text/css" height="598px" preserveAspectRatio="none" style="width:1709px;height:598px;background:#FFFFFF;" version="1.1" viewBox="0 0 1709 598" width="1709px" zoomAndPan="magnify"><defs/><g><rect fill="none" height="20.9531" style="stroke:none;stroke-width:1.0;" width="1676.9683" x="15" y="12.7451"/><ellipse cx="201.6807" cy="48.6982" fill="#222222" rx="10" ry="10" style="stroke:#222222;stroke-width:1.0;"/><rect fill="#F1F1F1" height="33.9688" rx="12.5" ry="12.5" style="stroke:#181818;stroke-width:0.5;" width="263.1523" x="70.1045" y="78.6982"/><text fill="#000000" font-family="sans-serif" font-size="12" lengthAdjust="spacing" textLength="243.1523" x="80.1045" y="99.8369">Go to the partner management page (1)</text><rect fill="#F1F1F1" height="33.9688" rx="12.5" ry="12.5" style="stroke:#181818;stroke-width:0.5;" width="150.8926" x="126.2344" y="132.667"/><text fill="#000000" font-family="sans-serif" font-size="12" lengthAdjust="spacing" textLength="130.8926" x="136.2344" y="153.8057">Click "Edit" button (2)</text><rect fill="#F1F1F1" height="33.9688" rx="12.5" ry="12.5" style="stroke:#181818;stroke-width:0.5;" width="361.3613" x="21" y="186.6357"/><text fill="#000000" font-family="sans-serif" font-size="12" lengthAdjust="spacing" textLength="341.3613" x="31" y="207.7744">Change partner information (name, location, or type) (3)</text><line style="stroke:#000000;stroke-width:1.5;" x1="15" x2="15" y1="12.7451" y2="586.4795"/><rect fill="#F1F1F1" height="33.9688" rx="12.5" ry="12.5" style="stroke:#181818;stroke-width:0.5;" width="159.9277" x="758.2996" y="240.6045"/><text fill="#000000" font-family="sans-serif" font-size="12" lengthAdjust="spacing" textLength="139.9277" x="768.2996" y="261.7432">Submit edit request (4)</text><polygon fill="#F1F1F1" points="745.7087,294.5732,930.8181,294.5732,942.8181,306.5732,930.8181,318.5732,745.7087,318.5732,733.7087,306.5732,745.7087,294.5732" style="stroke:#181818;stroke-width:0.5;"/><text fill="#000000" font-family="sans-serif" font-size="11" lengthAdjust="spacing" textLength="185.1094" x="745.7087" y="310.3813">Check if new partner name exists</text><text fill="#000000" font-family="sans-serif" font-size="11" lengthAdjust="spacing" textLength="19.0083" x="714.7004" y="303.979">yes</text><text fill="#000000" font-family="sans-serif" font-size="11" lengthAdjust="spacing" textLength="13.7017" x="942.8181" y="303.979">no</text><rect fill="#F1F1F1" height="33.9688" rx="12.5" ry="12.5" style="stroke:#181818;stroke-width:0.5;" width="347.8672" x="392.3613" y="338.5732"/><text fill="#000000" font-family="sans-serif" font-size="12" lengthAdjust="spacing" textLength="327.8672" x="402.3613" y="359.7119">Display error notification "Partner already exists" (4.1)</text><ellipse cx="566.2949" cy="403.542" fill="none" rx="11" ry="11" style="stroke:#222222;stroke-width:1.0;"/><ellipse cx="566.2949" cy="403.542" fill="#222222" rx="6" ry="6" style="stroke:#222222;stroke-width:1.0;"/><polygon fill="#F1F1F1" points="1044.4521,446.5107,1176.0117,446.5107,1188.0117,458.5107,1176.0117,470.5107,1044.4521,470.5107,1032.4521,458.5107,1044.4521,446.5107" style="stroke:#181818;stroke-width:0.5;"/><text fill="#000000" font-family="sans-serif" font-size="11" lengthAdjust="spacing" textLength="131.5596" x="1044.4521" y="462.3188">Check successful status</text><text fill="#000000" font-family="sans-serif" font-size="11" lengthAdjust="spacing" textLength="19.0083" x="1013.4438" y="455.9165">yes</text><text fill="#000000" font-family="sans-serif" font-size="11" lengthAdjust="spacing" textLength="13.7017" x="1188.0117" y="455.9165">no</text><rect fill="#F1F1F1" height="33.9688" rx="12.5" ry="12.5" style="stroke:#181818;stroke-width:0.5;" width="374.5977" x="770.2285" y="480.5107"/><text fill="#000000" font-family="sans-serif" font-size="12" lengthAdjust="spacing" textLength="354.5977" x="780.2285" y="501.6494">Display newly updated partner information on the list (6.1)</text><rect fill="#F1F1F1" height="33.9688" rx="12.5" ry="12.5" style="stroke:#181818;stroke-width:0.5;" width="196.2207" x="1164.8262" y="480.5107"/><text fill="#000000" font-family="sans-serif" font-size="12" lengthAdjust="spacing" textLength="176.2207" x="1174.8262" y="501.6494">Display failure message (6.2)</text><polygon fill="#F1F1F1" points="1110.2319,520.4795,1122.2319,532.4795,1110.2319,544.4795,1098.2319,532.4795,1110.2319,520.4795" style="stroke:#181818;stroke-width:0.5;"/><ellipse cx="838.2634" cy="575.4795" fill="none" rx="11" ry="11" style="stroke:#222222;stroke-width:1.0;"/><ellipse cx="838.2634" cy="575.4795" fill="#222222" rx="6" ry="6" style="stroke:#222222;stroke-width:1.0;"/><line style="stroke:#000000;stroke-width:1.5;" x1="386.3613" x2="386.3613" y1="12.7451" y2="586.4795"/><rect fill="#F1F1F1" height="33.9688" rx="12.5" ry="12.5" style="stroke:#181818;stroke-width:0.5;" width="315.0605" x="1371.0469" y="338.5732"/><text fill="#000000" font-family="sans-serif" font-size="12" lengthAdjust="spacing" textLength="295.0605" x="1381.0469" y="359.7119">Update partner information in the database (4.2)</text><rect fill="#F1F1F1" height="33.9688" rx="12.5" ry="12.5" style="stroke:#181818;stroke-width:0.5;" width="119.4102" x="1468.8721" y="392.542"/><text fill="#000000" font-family="sans-serif" font-size="12" lengthAdjust="spacing" textLength="99.4102" x="1478.8721" y="413.6807">Return result (5)</text><line style="stroke:#000000;stroke-width:1.5;" x1="1365.0469" x2="1365.0469" y1="12.7451" y2="586.4795"/><line style="stroke:#000000;stroke-width:1.5;" x1="1690.1074" x2="1690.1074" y1="12.7451" y2="586.4795"/><line style="stroke:#181818;stroke-width:1.0;" x1="201.6807" x2="201.6807" y1="58.6982" y2="78.6982"/><polygon fill="#181818" points="197.6807,68.6982,201.6807,78.6982,205.6807,68.6982,201.6807,72.6982" style="stroke:#181818;stroke-width:1.0;"/><line style="stroke:#181818;stroke-width:1.0;" x1="201.6807" x2="201.6807" y1="112.667" y2="132.667"/><polygon fill="#181818" points="197.6807,122.667,201.6807,132.667,205.6807,122.667,201.6807,126.667" style="stroke:#181818;stroke-width:1.0;"/><line style="stroke:#181818;stroke-width:1.0;" x1="201.6807" x2="201.6807" y1="166.6357" y2="186.6357"/><polygon fill="#181818" points="197.6807,176.6357,201.6807,186.6357,205.6807,176.6357,201.6807,180.6357" style="stroke:#181818;stroke-width:1.0;"/><line style="stroke:#181818;stroke-width:1.0;" x1="566.2949" x2="566.2949" y1="372.542" y2="392.542"/><polygon fill="#181818" points="562.2949,382.542,566.2949,392.542,570.2949,382.542,566.2949,386.542" style="stroke:#181818;stroke-width:1.0;"/><line style="stroke:#181818;stroke-width:1.0;" x1="1032.4521" x2="957.5273" y1="458.5107" y2="458.5107"/><line style="stroke:#181818;stroke-width:1.0;" x1="957.5273" x2="957.5273" y1="458.5107" y2="480.5107"/><polygon fill="#181818" points="953.5273,470.5107,957.5273,480.5107,961.5273,470.5107,957.5273,474.5107" style="stroke:#181818;stroke-width:1.0;"/><line style="stroke:#181818;stroke-width:1.0;" x1="1188.0117" x2="1262.9365" y1="458.5107" y2="458.5107"/><line style="stroke:#181818;stroke-width:1.0;" x1="1262.9365" x2="1262.9365" y1="458.5107" y2="480.5107"/><polygon fill="#181818" points="1258.9365,470.5107,1262.9365,480.5107,1266.9365,470.5107,1262.9365,474.5107" style="stroke:#181818;stroke-width:1.0;"/><line style="stroke:#181818;stroke-width:1.0;" x1="957.5273" x2="957.5273" y1="514.4795" y2="532.4795"/><line style="stroke:#181818;stroke-width:1.0;" x1="957.5273" x2="1098.2319" y1="532.4795" y2="532.4795"/><polygon fill="#181818" points="1088.2319,528.4795,1098.2319,532.4795,1088.2319,536.4795,1092.2319,532.4795" style="stroke:#181818;stroke-width:1.0;"/><line style="stroke:#181818;stroke-width:1.0;" x1="1262.9365" x2="1262.9365" y1="514.4795" y2="532.4795"/><line style="stroke:#181818;stroke-width:1.0;" x1="1262.9365" x2="1122.2319" y1="532.4795" y2="532.4795"/><polygon fill="#181818" points="1132.2319,528.4795,1122.2319,532.4795,1132.2319,536.4795,1128.2319,532.4795" style="stroke:#181818;stroke-width:1.0;"/><line style="stroke:#181818;stroke-width:1.0;" x1="733.7087" x2="566.2949" y1="306.5732" y2="306.5732"/><line style="stroke:#181818;stroke-width:1.0;" x1="566.2949" x2="566.2949" y1="306.5732" y2="338.5732"/><polygon fill="#181818" points="562.2949,328.5732,566.2949,338.5732,570.2949,328.5732,566.2949,332.5732" style="stroke:#181818;stroke-width:1.0;"/><line style="stroke:#181818;stroke-width:1.0;" x1="1110.2319" x2="1110.2319" y1="544.4795" y2="549.4795"/><line style="stroke:#181818;stroke-width:1.0;" x1="1110.2319" x2="838.2634" y1="549.4795" y2="549.4795"/><line style="stroke:#181818;stroke-width:1.0;" x1="838.2634" x2="838.2634" y1="549.4795" y2="564.4795"/><polygon fill="#181818" points="834.2634,554.4795,838.2634,564.4795,842.2634,554.4795,838.2634,558.4795" style="stroke:#181818;stroke-width:1.0;"/><line style="stroke:#181818;stroke-width:1.0;" x1="838.2634" x2="838.2634" y1="274.5732" y2="294.5732"/><polygon fill="#181818" points="834.2634,284.5732,838.2634,294.5732,842.2634,284.5732,838.2634,288.5732" style="stroke:#181818;stroke-width:1.0;"/><line style="stroke:#181818;stroke-width:1.0;" x1="1528.5771" x2="1528.5771" y1="372.542" y2="392.542"/><polygon fill="#181818" points="1524.5771,382.542,1528.5771,392.542,1532.5771,382.542,1528.5771,386.542" style="stroke:#181818;stroke-width:1.0;"/><line style="stroke:#181818;stroke-width:1.0;" x1="201.6807" x2="201.6807" y1="220.6045" y2="225.6045"/><line style="stroke:#181818;stroke-width:1.0;" x1="201.6807" x2="838.2634" y1="225.6045" y2="225.6045"/><line style="stroke:#181818;stroke-width:1.0;" x1="838.2634" x2="838.2634" y1="225.6045" y2="240.6045"/><polygon fill="#181818" points="834.2634,230.6045,838.2634,240.6045,842.2634,230.6045,838.2634,234.6045" style="stroke:#181818;stroke-width:1.0;"/><line style="stroke:#181818;stroke-width:1.0;" x1="1528.5771" x2="1528.5771" y1="426.5107" y2="431.5107"/><line style="stroke:#181818;stroke-width:1.0;" x1="1528.5771" x2="1110.2319" y1="431.5107" y2="431.5107"/><line style="stroke:#181818;stroke-width:1.0;" x1="1110.2319" x2="1110.2319" y1="431.5107" y2="446.5107"/><polygon fill="#181818" points="1106.2319,436.5107,1110.2319,446.5107,1114.2319,436.5107,1110.2319,440.5107" style="stroke:#181818;stroke-width:1.0;"/><line style="stroke:#181818;stroke-width:1.0;" x1="942.8181" x2="1528.5771" y1="306.5732" y2="306.5732"/><line style="stroke:#181818;stroke-width:1.0;" x1="1528.5771" x2="1528.5771" y1="306.5732" y2="338.5732"/><polygon fill="#181818" points="1524.5771,328.5732,1528.5771,338.5732,1532.5771,328.5732,1528.5771,332.5732" style="stroke:#181818;stroke-width:1.0;"/><text fill="#000000" font-family="sans-serif" font-size="18" lengthAdjust="spacing" textLength="41.0273" x="180.167" y="29.4531">User</text><text fill="#000000" font-family="sans-serif" font-size="18" lengthAdjust="spacing" textLength="67.1221" x="842.1431" y="29.4531">System</text><text fill="#000000" font-family="sans-serif" font-size="18" lengthAdjust="spacing" textLength="85.8867" x="1484.6338" y="29.4531">Database</text><!--SRC=[RP71QiCm38RlVWhHKm9bi6xh8JksOzUnqWTG4wKrS-pCaja2UVZ9QMZBA0GJszB__vyyxfdYQ5WmYgdU0uX-9u9UzvuYTEZnI1rvqQCZGV5Olffguspz1Oktnie23aaaU2XMqyq9_V7QRdqROeTYSu77ZfRWGZtjbn0YoD1J2SMJjffnDx1GDvfgbmwT5I2LXqZVYLYWUDOQsqAnEP5wwv-ddujFbWRwjInSvlpgDX2N1g3QMkuT3a0ngg4FObjxJW2BZxaTNIHiXbbXeMOFcHE09VI672ku3rbktABW0Pd6hBtl6vJxjDPFSspcyYovcYIhJv8KlO9nSihrCfrUu06ka9pgcfZRv3G8IlhFTaEdmt03f2bFSpTGE0ToDWzpFVFTejsejMXTYWITka-llfx3asziQywhoSFv0m00]--></g></svg>