<svg xmlns="http://www.w3.org/2000/svg" xmlns:xlink="http://www.w3.org/1999/xlink" contentStyleType="text/css" height="1445px" preserveAspectRatio="none" style="width:905px;height:1445px;background:#FFFFFF;" version="1.1" viewBox="0 0 905 1445" width="905px" zoomAndPan="magnify"><defs/><g><rect fill="none" height="20.9531" style="stroke:none;stroke-width:1.0;" width="872.0386" x="15" y="12.7451"/><ellipse cx="182.0889" cy="48.6982" fill="#222222" rx="10" ry="10" style="stroke:#222222;stroke-width:1.0;"/><rect fill="#F1F1F1" height="33.9688" rx="12.5" ry="12.5" style="stroke:#181818;stroke-width:0.5;" width="159.9629" x="102.1074" y="78.6982"/><text fill="#000000" font-family="sans-serif" font-size="12" lengthAdjust="spacing" textLength="139.9629" x="112.1074" y="99.8369">Login to the system (1)</text><rect fill="#F1F1F1" height="33.9688" rx="12.5" ry="12.5" style="stroke:#181818;stroke-width:0.5;" width="185.375" x="89.4014" y="186.6357"/><text fill="#000000" font-family="sans-serif" font-size="12" lengthAdjust="spacing" textLength="165.375" x="99.4014" y="207.7744">View default partner list (3)</text><rect fill="#F1F1F1" height="33.9688" rx="12.5" ry="12.5" style="stroke:#181818;stroke-width:0.5;" width="274.6836" x="44.7471" y="450.9131"/><text fill="#000000" font-family="sans-serif" font-size="12" lengthAdjust="spacing" textLength="254.6836" x="54.7471" y="472.0518">Enter partner's name in the search bar (7)</text><rect fill="#F1F1F1" height="33.9688" rx="12.5" ry="12.5" style="stroke:#181818;stroke-width:0.5;" width="172.6074" x="95.7852" y="504.8818"/><text fill="#000000" font-family="sans-serif" font-size="12" lengthAdjust="spacing" textLength="152.6074" x="105.7852" y="526.0205">Press "Search" button (8)</text><polygon fill="#F1F1F1" points="100.7222,402.5107,263.4556,402.5107,275.4556,414.5107,263.4556,426.5107,100.7222,426.5107,88.7222,414.5107,100.7222,402.5107" style="stroke:#181818;stroke-width:0.5;"/><text fill="#000000" font-family="sans-serif" font-size="11" lengthAdjust="spacing" textLength="19.0083" x="186.0889" y="436.7212">yes</text><text fill="#000000" font-family="sans-serif" font-size="11" lengthAdjust="spacing" textLength="162.7334" x="100.7222" y="418.3188">Want to search for a partner?</text><text fill="#000000" font-family="sans-serif" font-size="11" lengthAdjust="spacing" textLength="13.7017" x="75.0205" y="411.9165">no</text><polygon fill="#F1F1F1" points="182.0889,720.7568,194.0889,732.7568,182.0889,744.7568,170.0889,732.7568,182.0889,720.7568" style="stroke:#181818;stroke-width:0.5;"/><rect fill="#F1F1F1" height="33.9688" rx="12.5" ry="12.5" style="stroke:#181818;stroke-width:0.5;" width="276.1777" x="44" y="813.1592"/><text fill="#000000" font-family="sans-serif" font-size="12" lengthAdjust="spacing" textLength="256.1777" x="54" y="834.2979">Select partner type from filter options (12)</text><polygon fill="#F1F1F1" points="98.2192,764.7568,265.9585,764.7568,277.9585,776.7568,265.9585,788.7568,98.2192,788.7568,86.2192,776.7568,98.2192,764.7568" style="stroke:#181818;stroke-width:0.5;"/><text fill="#000000" font-family="sans-serif" font-size="11" lengthAdjust="spacing" textLength="19.0083" x="186.0889" y="798.9673">yes</text><text fill="#000000" font-family="sans-serif" font-size="11" lengthAdjust="spacing" textLength="167.7393" x="98.2192" y="780.5649">Want to filter by partner type?</text><text fill="#000000" font-family="sans-serif" font-size="11" lengthAdjust="spacing" textLength="13.7017" x="72.5176" y="774.1626">no</text><polygon fill="#F1F1F1" points="182.0889,1044.0342,194.0889,1056.0342,182.0889,1068.0342,170.0889,1056.0342,182.0889,1044.0342" style="stroke:#181818;stroke-width:0.5;"/><rect fill="#F1F1F1" height="33.9688" rx="12.5" ry="12.5" style="stroke:#181818;stroke-width:0.5;" width="202.7129" x="80.7324" y="1136.4365"/><text fill="#000000" font-family="sans-serif" font-size="12" lengthAdjust="spacing" textLength="182.7129" x="90.7324" y="1157.5752">Click on a partner's name (16)</text><polygon fill="#F1F1F1" points="100.8054,1088.0342,263.3723,1088.0342,275.3723,1100.0342,263.3723,1112.0342,100.8054,1112.0342,88.8054,1100.0342,100.8054,1088.0342" style="stroke:#181818;stroke-width:0.5;"/><text fill="#000000" font-family="sans-serif" font-size="11" lengthAdjust="spacing" textLength="19.0083" x="186.0889" y="1122.2446">yes</text><text fill="#000000" font-family="sans-serif" font-size="11" lengthAdjust="spacing" textLength="162.5669" x="100.8054" y="1103.8423">Want to view partner details?</text><text fill="#000000" font-family="sans-serif" font-size="11" lengthAdjust="spacing" textLength="13.7017" x="75.1038" y="1097.4399">no</text><polygon fill="#F1F1F1" points="182.0889,1367.3115,194.0889,1379.3115,182.0889,1391.3115,170.0889,1379.3115,182.0889,1367.3115" style="stroke:#181818;stroke-width:0.5;"/><line style="stroke:#000000;stroke-width:1.5;" x1="15" x2="15" y1="12.7451" y2="1433.3115"/><rect fill="#F1F1F1" height="33.9688" rx="12.5" ry="12.5" style="stroke:#181818;stroke-width:0.5;" width="249.2773" x="336.2393" y="132.667"/><text fill="#000000" font-family="sans-serif" font-size="12" lengthAdjust="spacing" textLength="229.2773" x="346.2393" y="153.8057">Display Partner Management Page (2)</text><rect fill="#F1F1F1" height="33.9688" rx="12.5" ry="12.5" style="stroke:#181818;stroke-width:0.5;" width="205.9531" x="357.9014" y="348.542"/><text fill="#000000" font-family="sans-serif" font-size="12" lengthAdjust="spacing" textLength="185.9531" x="367.9014" y="369.6807">Show the list of all partners (6)</text><rect fill="#F1F1F1" height="33.9688" rx="12.5" ry="12.5" style="stroke:#181818;stroke-width:0.5;" width="250.3848" x="335.6855" y="666.7881"/><text fill="#000000" font-family="sans-serif" font-size="12" lengthAdjust="spacing" textLength="230.3848" x="345.6855" y="687.9268">Display filtered partners by name (11)</text><rect fill="#F1F1F1" height="33.9688" rx="12.5" ry="12.5" style="stroke:#181818;stroke-width:0.5;" width="243.1602" x="339.2979" y="990.0654"/><text fill="#000000" font-family="sans-serif" font-size="12" lengthAdjust="spacing" textLength="223.1602" x="349.2979" y="1011.2041">Display filtered partners by type (15)</text><rect fill="#F1F1F1" height="33.9688" rx="12.5" ry="12.5" style="stroke:#181818;stroke-width:0.5;" width="261.4004" x="330.1777" y="1313.3428"/><text fill="#000000" font-family="sans-serif" font-size="12" lengthAdjust="spacing" textLength="241.4004" x="340.1777" y="1334.4814">Display partner's detail information (19)</text><ellipse cx="460.8779" cy="1422.3115" fill="none" rx="11" ry="11" style="stroke:#222222;stroke-width:1.0;"/><ellipse cx="460.8779" cy="1422.3115" fill="#222222" rx="6" ry="6" style="stroke:#222222;stroke-width:1.0;"/><line style="stroke:#000000;stroke-width:1.5;" x1="324.1777" x2="324.1777" y1="12.7451" y2="1433.3115"/><rect fill="#F1F1F1" height="33.9688" rx="12.5" ry="12.5" style="stroke:#181818;stroke-width:0.5;" width="279.5996" x="601.5781" y="240.6045"/><text fill="#000000" font-family="sans-serif" font-size="12" lengthAdjust="spacing" textLength="259.5996" x="611.5781" y="261.7432">Query all partners sorted alphabetically (4)</text><rect fill="#F1F1F1" height="33.9688" rx="12.5" ry="12.5" style="stroke:#181818;stroke-width:0.5;" width="151.168" x="665.7939" y="294.5732"/><text fill="#000000" font-family="sans-serif" font-size="12" lengthAdjust="spacing" textLength="131.168" x="675.7939" y="315.7119">Return partner list (5)</text><rect fill="#F1F1F1" height="33.9688" rx="12.5" ry="12.5" style="stroke:#181818;stroke-width:0.5;" width="220.8359" x="630.96" y="558.8506"/><text fill="#000000" font-family="sans-serif" font-size="12" lengthAdjust="spacing" textLength="200.8359" x="640.96" y="579.9893">Filter partners by name query (9)</text><rect fill="#F1F1F1" height="33.9688" rx="12.5" ry="12.5" style="stroke:#181818;stroke-width:0.5;" width="205.5313" x="638.6123" y="612.8193"/><text fill="#000000" font-family="sans-serif" font-size="12" lengthAdjust="spacing" textLength="185.5313" x="648.6123" y="633.958">Return filtered partner list (10)</text><rect fill="#F1F1F1" height="33.9688" rx="12.5" ry="12.5" style="stroke:#181818;stroke-width:0.5;" width="237.2598" x="622.748" y="867.1279"/><text fill="#000000" font-family="sans-serif" font-size="12" lengthAdjust="spacing" textLength="217.2598" x="632.748" y="888.2666">Filter partners by selected type (13)</text><rect fill="#F1F1F1" height="33.9688" rx="12.5" ry="12.5" style="stroke:#181818;stroke-width:0.5;" width="254.6855" x="614.0352" y="936.0967"/><text fill="#000000" font-family="sans-serif" font-size="12" lengthAdjust="spacing" textLength="234.6855" x="624.0352" y="957.2354">Return filtered partner list by type (14)</text><rect fill="#F1F1F1" height="33.9688" rx="12.5" ry="12.5" style="stroke:#181818;stroke-width:0.5;" width="253.6367" x="614.5596" y="1190.4053"/><text fill="#000000" font-family="sans-serif" font-size="12" lengthAdjust="spacing" textLength="233.6367" x="624.5596" y="1211.5439">Query partner's detail information (17)</text><rect fill="#F1F1F1" height="33.9688" rx="12.5" ry="12.5" style="stroke:#181818;stroke-width:0.5;" width="181.1563" x="650.7998" y="1259.374"/><text fill="#000000" font-family="sans-serif" font-size="12" lengthAdjust="spacing" textLength="161.1563" x="660.7998" y="1280.5127">Return partner details (18)</text><line style="stroke:#000000;stroke-width:1.5;" x1="595.5781" x2="595.5781" y1="12.7451" y2="1433.3115"/><line style="stroke:#000000;stroke-width:1.5;" x1="885.1777" x2="885.1777" y1="12.7451" y2="1433.3115"/><line style="stroke:#181818;stroke-width:1.0;" x1="182.0889" x2="182.0889" y1="58.6982" y2="78.6982"/><polygon fill="#181818" points="178.0889,68.6982,182.0889,78.6982,186.0889,68.6982,182.0889,72.6982" style="stroke:#181818;stroke-width:1.0;"/><line style="stroke:#181818;stroke-width:1.0;" x1="182.0889" x2="182.0889" y1="484.8818" y2="504.8818"/><polygon fill="#181818" points="178.0889,494.8818,182.0889,504.8818,186.0889,494.8818,182.0889,498.8818" style="stroke:#181818;stroke-width:1.0;"/><line style="stroke:#181818;stroke-width:1.0;" x1="182.0889" x2="182.0889" y1="426.5107" y2="450.9131"/><polygon fill="#181818" points="178.0889,440.9131,182.0889,450.9131,186.0889,440.9131,182.0889,444.9131" style="stroke:#181818;stroke-width:1.0;"/><line style="stroke:#181818;stroke-width:1.0;" x1="88.7222" x2="34.7471" y1="414.5107" y2="414.5107"/><polygon fill="#181818" points="30.7471,565.835,34.7471,575.835,38.7471,565.835,34.7471,569.835" style="stroke:#181818;stroke-width:1.0;"/><line style="stroke:#181818;stroke-width:1.0;" x1="34.7471" x2="34.7471" y1="414.5107" y2="732.7568"/><line style="stroke:#181818;stroke-width:1.0;" x1="34.7471" x2="170.0889" y1="732.7568" y2="732.7568"/><polygon fill="#181818" points="160.0889,728.7568,170.0889,732.7568,160.0889,736.7568,164.0889,732.7568" style="stroke:#181818;stroke-width:1.0;"/><line style="stroke:#181818;stroke-width:1.0;" x1="182.0889" x2="182.0889" y1="788.7568" y2="813.1592"/><polygon fill="#181818" points="178.0889,803.1592,182.0889,813.1592,186.0889,803.1592,182.0889,807.1592" style="stroke:#181818;stroke-width:1.0;"/><line style="stroke:#181818;stroke-width:1.0;" x1="86.2192" x2="34" y1="776.7568" y2="776.7568"/><polygon fill="#181818" points="30,908.5967,34,918.5967,38,908.5967,34,912.5967" style="stroke:#181818;stroke-width:1.0;"/><line style="stroke:#181818;stroke-width:1.0;" x1="34" x2="34" y1="776.7568" y2="1056.0342"/><line style="stroke:#181818;stroke-width:1.0;" x1="34" x2="170.0889" y1="1056.0342" y2="1056.0342"/><polygon fill="#181818" points="160.0889,1052.0342,170.0889,1056.0342,160.0889,1060.0342,164.0889,1056.0342" style="stroke:#181818;stroke-width:1.0;"/><line style="stroke:#181818;stroke-width:1.0;" x1="182.0889" x2="182.0889" y1="744.7568" y2="764.7568"/><polygon fill="#181818" points="178.0889,754.7568,182.0889,764.7568,186.0889,754.7568,182.0889,758.7568" style="stroke:#181818;stroke-width:1.0;"/><line style="stroke:#181818;stroke-width:1.0;" x1="182.0889" x2="182.0889" y1="1112.0342" y2="1136.4365"/><polygon fill="#181818" points="178.0889,1126.4365,182.0889,1136.4365,186.0889,1126.4365,182.0889,1130.4365" style="stroke:#181818;stroke-width:1.0;"/><line style="stroke:#181818;stroke-width:1.0;" x1="88.8054" x2="41.3887" y1="1100.0342" y2="1100.0342"/><polygon fill="#181818" points="37.3887,1231.874,41.3887,1241.874,45.3887,1231.874,41.3887,1235.874" style="stroke:#181818;stroke-width:1.0;"/><line style="stroke:#181818;stroke-width:1.0;" x1="41.3887" x2="41.3887" y1="1100.0342" y2="1379.3115"/><line style="stroke:#181818;stroke-width:1.0;" x1="41.3887" x2="170.0889" y1="1379.3115" y2="1379.3115"/><polygon fill="#181818" points="160.0889,1375.3115,170.0889,1379.3115,160.0889,1383.3115,164.0889,1379.3115" style="stroke:#181818;stroke-width:1.0;"/><line style="stroke:#181818;stroke-width:1.0;" x1="182.0889" x2="182.0889" y1="1068.0342" y2="1088.0342"/><polygon fill="#181818" points="178.0889,1078.0342,182.0889,1088.0342,186.0889,1078.0342,182.0889,1082.0342" style="stroke:#181818;stroke-width:1.0;"/><line style="stroke:#181818;stroke-width:1.0;" x1="741.3779" x2="741.3779" y1="274.5732" y2="294.5732"/><polygon fill="#181818" points="737.3779,284.5732,741.3779,294.5732,745.3779,284.5732,741.3779,288.5732" style="stroke:#181818;stroke-width:1.0;"/><line style="stroke:#181818;stroke-width:1.0;" x1="741.3779" x2="741.3779" y1="592.8193" y2="612.8193"/><polygon fill="#181818" points="737.3779,602.8193,741.3779,612.8193,745.3779,602.8193,741.3779,606.8193" style="stroke:#181818;stroke-width:1.0;"/><line style="stroke:#181818;stroke-width:1.0;" x1="741.3779" x2="741.3779" y1="901.0967" y2="936.0967"/><polygon fill="#181818" points="737.3779,926.0967,741.3779,936.0967,745.3779,926.0967,741.3779,930.0967" style="stroke:#181818;stroke-width:1.0;"/><line style="stroke:#181818;stroke-width:1.0;" x1="741.3779" x2="741.3779" y1="1224.374" y2="1259.374"/><polygon fill="#181818" points="737.3779,1249.374,741.3779,1259.374,745.3779,1249.374,741.3779,1253.374" style="stroke:#181818;stroke-width:1.0;"/><line style="stroke:#181818;stroke-width:1.0;" x1="182.0889" x2="182.0889" y1="112.667" y2="117.667"/><line style="stroke:#181818;stroke-width:1.0;" x1="182.0889" x2="460.8779" y1="117.667" y2="117.667"/><line style="stroke:#181818;stroke-width:1.0;" x1="460.8779" x2="460.8779" y1="117.667" y2="132.667"/><polygon fill="#181818" points="456.8779,122.667,460.8779,132.667,464.8779,122.667,460.8779,126.667" style="stroke:#181818;stroke-width:1.0;"/><line style="stroke:#181818;stroke-width:1.0;" x1="460.8779" x2="460.8779" y1="166.6357" y2="171.6357"/><line style="stroke:#181818;stroke-width:1.0;" x1="460.8779" x2="182.0889" y1="171.6357" y2="171.6357"/><line style="stroke:#181818;stroke-width:1.0;" x1="182.0889" x2="182.0889" y1="171.6357" y2="186.6357"/><polygon fill="#181818" points="178.0889,176.6357,182.0889,186.6357,186.0889,176.6357,182.0889,180.6357" style="stroke:#181818;stroke-width:1.0;"/><line style="stroke:#181818;stroke-width:1.0;" x1="182.0889" x2="182.0889" y1="220.6045" y2="225.6045"/><line style="stroke:#181818;stroke-width:1.0;" x1="182.0889" x2="741.3779" y1="225.6045" y2="225.6045"/><line style="stroke:#181818;stroke-width:1.0;" x1="741.3779" x2="741.3779" y1="225.6045" y2="240.6045"/><polygon fill="#181818" points="737.3779,230.6045,741.3779,240.6045,745.3779,230.6045,741.3779,234.6045" style="stroke:#181818;stroke-width:1.0;"/><line style="stroke:#181818;stroke-width:1.0;" x1="741.3779" x2="741.3779" y1="328.542" y2="333.542"/><line style="stroke:#181818;stroke-width:1.0;" x1="741.3779" x2="460.8779" y1="333.542" y2="333.542"/><line style="stroke:#181818;stroke-width:1.0;" x1="460.8779" x2="460.8779" y1="333.542" y2="348.542"/><polygon fill="#181818" points="456.8779,338.542,460.8779,348.542,464.8779,338.542,460.8779,342.542" style="stroke:#181818;stroke-width:1.0;"/><line style="stroke:#181818;stroke-width:1.0;" x1="182.0889" x2="182.0889" y1="538.8506" y2="543.8506"/><line style="stroke:#181818;stroke-width:1.0;" x1="182.0889" x2="741.3779" y1="543.8506" y2="543.8506"/><line style="stroke:#181818;stroke-width:1.0;" x1="741.3779" x2="741.3779" y1="543.8506" y2="558.8506"/><polygon fill="#181818" points="737.3779,548.8506,741.3779,558.8506,745.3779,548.8506,741.3779,552.8506" style="stroke:#181818;stroke-width:1.0;"/><line style="stroke:#181818;stroke-width:1.0;" x1="741.3779" x2="741.3779" y1="646.7881" y2="651.7881"/><line style="stroke:#181818;stroke-width:1.0;" x1="741.3779" x2="460.8779" y1="651.7881" y2="651.7881"/><line style="stroke:#181818;stroke-width:1.0;" x1="460.8779" x2="460.8779" y1="651.7881" y2="666.7881"/><polygon fill="#181818" points="456.8779,656.7881,460.8779,666.7881,464.8779,656.7881,460.8779,660.7881" style="stroke:#181818;stroke-width:1.0;"/><line style="stroke:#181818;stroke-width:1.0;" x1="460.8779" x2="460.8779" y1="700.7568" y2="708.5557"/><line style="stroke:#181818;stroke-width:1.0;" x1="460.8779" x2="182.0889" y1="708.5557" y2="708.5557"/><line style="stroke:#181818;stroke-width:1.0;" x1="182.0889" x2="182.0889" y1="708.5557" y2="720.7568"/><polygon fill="#181818" points="178.0889,710.7568,182.0889,720.7568,186.0889,710.7568,182.0889,714.7568" style="stroke:#181818;stroke-width:1.0;"/><line style="stroke:#181818;stroke-width:1.0;" x1="460.8779" x2="460.8779" y1="382.5107" y2="387.5107"/><line style="stroke:#181818;stroke-width:1.0;" x1="460.8779" x2="182.0889" y1="387.5107" y2="387.5107"/><line style="stroke:#181818;stroke-width:1.0;" x1="182.0889" x2="182.0889" y1="387.5107" y2="402.5107"/><polygon fill="#181818" points="178.0889,392.5107,182.0889,402.5107,186.0889,392.5107,182.0889,396.5107" style="stroke:#181818;stroke-width:1.0;"/><line style="stroke:#181818;stroke-width:1.0;" x1="182.0889" x2="182.0889" y1="847.1279" y2="852.1279"/><line style="stroke:#181818;stroke-width:1.0;" x1="182.0889" x2="741.3779" y1="852.1279" y2="852.1279"/><line style="stroke:#181818;stroke-width:1.0;" x1="741.3779" x2="741.3779" y1="852.1279" y2="867.1279"/><polygon fill="#181818" points="737.3779,857.1279,741.3779,867.1279,745.3779,857.1279,741.3779,861.1279" style="stroke:#181818;stroke-width:1.0;"/><line style="stroke:#181818;stroke-width:1.0;" x1="741.3779" x2="741.3779" y1="970.0654" y2="975.0654"/><line style="stroke:#181818;stroke-width:1.0;" x1="741.3779" x2="460.8779" y1="975.0654" y2="975.0654"/><line style="stroke:#181818;stroke-width:1.0;" x1="460.8779" x2="460.8779" y1="975.0654" y2="990.0654"/><polygon fill="#181818" points="456.8779,980.0654,460.8779,990.0654,464.8779,980.0654,460.8779,984.0654" style="stroke:#181818;stroke-width:1.0;"/><line style="stroke:#181818;stroke-width:1.0;" x1="460.8779" x2="460.8779" y1="1024.0342" y2="1031.833"/><line style="stroke:#181818;stroke-width:1.0;" x1="460.8779" x2="182.0889" y1="1031.833" y2="1031.833"/><line style="stroke:#181818;stroke-width:1.0;" x1="182.0889" x2="182.0889" y1="1031.833" y2="1044.0342"/><polygon fill="#181818" points="178.0889,1034.0342,182.0889,1044.0342,186.0889,1034.0342,182.0889,1038.0342" style="stroke:#181818;stroke-width:1.0;"/><line style="stroke:#181818;stroke-width:1.0;" x1="182.0889" x2="182.0889" y1="1170.4053" y2="1175.4053"/><line style="stroke:#181818;stroke-width:1.0;" x1="182.0889" x2="741.3779" y1="1175.4053" y2="1175.4053"/><line style="stroke:#181818;stroke-width:1.0;" x1="741.3779" x2="741.3779" y1="1175.4053" y2="1190.4053"/><polygon fill="#181818" points="737.3779,1180.4053,741.3779,1190.4053,745.3779,1180.4053,741.3779,1184.4053" style="stroke:#181818;stroke-width:1.0;"/><line style="stroke:#181818;stroke-width:1.0;" x1="741.3779" x2="741.3779" y1="1293.3428" y2="1298.3428"/><line style="stroke:#181818;stroke-width:1.0;" x1="741.3779" x2="460.8779" y1="1298.3428" y2="1298.3428"/><line style="stroke:#181818;stroke-width:1.0;" x1="460.8779" x2="460.8779" y1="1298.3428" y2="1313.3428"/><polygon fill="#181818" points="456.8779,1303.3428,460.8779,1313.3428,464.8779,1303.3428,460.8779,1307.3428" style="stroke:#181818;stroke-width:1.0;"/><line style="stroke:#181818;stroke-width:1.0;" x1="460.8779" x2="460.8779" y1="1347.3115" y2="1355.1104"/><line style="stroke:#181818;stroke-width:1.0;" x1="460.8779" x2="182.0889" y1="1355.1104" y2="1355.1104"/><line style="stroke:#181818;stroke-width:1.0;" x1="182.0889" x2="182.0889" y1="1355.1104" y2="1367.3115"/><polygon fill="#181818" points="178.0889,1357.3115,182.0889,1367.3115,186.0889,1357.3115,182.0889,1361.3115" style="stroke:#181818;stroke-width:1.0;"/><line style="stroke:#181818;stroke-width:1.0;" x1="182.0889" x2="182.0889" y1="1391.3115" y2="1396.3115"/><line style="stroke:#181818;stroke-width:1.0;" x1="182.0889" x2="460.8779" y1="1396.3115" y2="1396.3115"/><line style="stroke:#181818;stroke-width:1.0;" x1="460.8779" x2="460.8779" y1="1396.3115" y2="1411.3115"/><polygon fill="#181818" points="456.8779,1401.3115,460.8779,1411.3115,464.8779,1401.3115,460.8779,1405.3115" style="stroke:#181818;stroke-width:1.0;"/><text fill="#000000" font-family="sans-serif" font-size="18" lengthAdjust="spacing" textLength="57.6826" x="140.7476" y="29.4531">Admin</text><text fill="#000000" font-family="sans-serif" font-size="18" lengthAdjust="spacing" textLength="67.1221" x="426.3169" y="29.4531">System</text><text fill="#000000" font-family="sans-serif" font-size="18" lengthAdjust="spacing" textLength="85.8867" x="697.4346" y="29.4531">Database</text><!--SRC=[dPDFRzGm4CNl-HIZNl3UIF_GTZcWYi89fC9AS9vi9hjM7JjuPgaYvSCpSP9kirsLWfH3afdtdltpkBifQ-kxZ0MZPCilOMCzI03P4d3BGZMOVF4-oxfL-kgovQtbnc4BTwhm5E4hUjnGJLxqruR0dAR-qNZvmz83b5JXpWaqeyPP5Z1dC-Fk5WKBP5BHjnt55j2vIS708GgL-g_POa5YrrfjmPohn_8xoIxw0_UB-R9Ns_2GjfMgePgxctTF5sqhC3zHDwGac32kjr2523ZrVrZqJXvCIxp809QVl6ZkM7t3uB4cw4ds60U30YEOIqtHzhj8p72oIfKJA7OYGTskKbMVnrNhwvwA2ZzRzoI8eMY7g5-9bxaUx4SSLMfMPdCk-TiZCO-dUYZQPvYy7mHohAy-B3BofQsECnjCUkKKBMr3pwYjoD5QPZrGnL1F-j283LuF9p_z7pASx7KhoTZaPw-WexAn-_oVAOt2YzTI-jtVZ2cz947h-1cZZywkxq6d0m_7o-HfPbzWCjoYlMp8qBdKOQwnPwicbpCg1ylH-jLB7FxYVNqC1Kje_W00]--></g></svg>