<svg xmlns="http://www.w3.org/2000/svg" xmlns:xlink="http://www.w3.org/1999/xlink" contentStyleType="text/css" height="490px" preserveAspectRatio="none" style="width:884px;height:490px;background:#FFFFFF;" version="1.1" viewBox="0 0 884 490" width="884px" zoomAndPan="magnify"><defs/><g><rect fill="#FFFFFF" height="29.1328" style="stroke:#181818;stroke-width:1.0;" width="10" x="352.2607" y="112.4297"/><rect fill="#FFFFFF" height="29.1328" style="stroke:#181818;stroke-width:1.0;" width="10" x="352.2607" y="253.0938"/><rect fill="#FFFFFF" height="29.1328" style="stroke:#181818;stroke-width:1.0;" width="10" x="352.2607" y="355.2969"/><rect fill="#FFFFFF" height="29.1328" style="stroke:#181818;stroke-width:1.0;" width="10" x="576.978" y="141.5625"/><rect fill="#FFFFFF" height="29.1328" style="stroke:#181818;stroke-width:1.0;" width="10" x="576.978" y="223.9609"/><rect fill="#FFFFFF" height="29.1328" style="stroke:#181818;stroke-width:1.0;" width="10" x="576.978" y="326.1641"/><rect fill="#FFFFFF" height="155.4688" style="stroke:#181818;stroke-width:1.0;" width="10" x="790.2822" y="170.6953"/><rect fill="none" height="206.7344" style="stroke:#000000;stroke-width:1.5;" width="867.3423" x="10" y="185.6953"/><line style="stroke:#181818;stroke-width:0.5;stroke-dasharray:5.0,5.0;" x1="93" x2="93" y1="81.2969" y2="409.4297"/><line style="stroke:#181818;stroke-width:0.5;stroke-dasharray:5.0,5.0;" x1="357.0542" x2="357.0542" y1="81.2969" y2="409.4297"/><line style="stroke:#181818;stroke-width:0.5;stroke-dasharray:5.0,5.0;" x1="581.6729" x2="581.6729" y1="81.2969" y2="409.4297"/><line style="stroke:#181818;stroke-width:0.5;stroke-dasharray:5.0,5.0;" x1="795.2222" x2="795.2222" y1="81.2969" y2="409.4297"/><text fill="#000000" font-family="sans-serif" font-size="14" lengthAdjust="spacing" textLength="140.376" x="20" y="77.9951">WarehouseManager</text><ellipse cx="93.188" cy="13.5" fill="#E2E2F0" rx="8" ry="8" style="stroke:#181818;stroke-width:0.5;"/><path d="M93.188,21.5 L93.188,48.5 M80.188,29.5 L106.188,29.5 M93.188,48.5 L80.188,63.5 M93.188,48.5 L106.188,63.5 " fill="none" style="stroke:#181818;stroke-width:0.5;"/><text fill="#000000" font-family="sans-serif" font-size="14" lengthAdjust="spacing" textLength="140.376" x="20" y="421.4248">WarehouseManager</text><ellipse cx="93.188" cy="433.2266" fill="#E2E2F0" rx="8" ry="8" style="stroke:#181818;stroke-width:0.5;"/><path d="M93.188,441.2266 L93.188,468.2266 M80.188,449.2266 L106.188,449.2266 M93.188,468.2266 L80.188,483.2266 M93.188,468.2266 L106.188,483.2266 " fill="none" style="stroke:#181818;stroke-width:0.5;"/><rect fill="#E2E2F0" height="30.2969" rx="2.5" ry="2.5" style="stroke:#181818;stroke-width:0.5;" width="142.4131" x="286.0542" y="50"/><text fill="#000000" font-family="sans-serif" font-size="14" lengthAdjust="spacing" textLength="128.4131" x="293.0542" y="69.9951">Asset Inventory UI</text><rect fill="#E2E2F0" height="30.2969" rx="2.5" ry="2.5" style="stroke:#181818;stroke-width:0.5;" width="142.4131" x="286.0542" y="408.4297"/><text fill="#000000" font-family="sans-serif" font-size="14" lengthAdjust="spacing" textLength="128.4131" x="293.0542" y="428.4248">Asset Inventory UI</text><rect fill="#E2E2F0" height="30.2969" rx="2.5" ry="2.5" style="stroke:#181818;stroke-width:0.5;" width="132.6104" x="515.6729" y="50"/><text fill="#000000" font-family="sans-serif" font-size="14" lengthAdjust="spacing" textLength="118.6104" x="522.6729" y="69.9951">InventoryService</text><rect fill="#E2E2F0" height="30.2969" rx="2.5" ry="2.5" style="stroke:#181818;stroke-width:0.5;" width="132.6104" x="515.6729" y="408.4297"/><text fill="#000000" font-family="sans-serif" font-size="14" lengthAdjust="spacing" textLength="118.6104" x="522.6729" y="428.4248">InventoryService</text><text fill="#000000" font-family="sans-serif" font-size="14" lengthAdjust="spacing" textLength="138.1201" x="723.2222" y="77.9951">Inventory Database</text><path d="M777.2822,29 C777.2822,19 795.2822,19 795.2822,19 C795.2822,19 813.2822,19 813.2822,29 L813.2822,55 C813.2822,65 795.2822,65 795.2822,65 C795.2822,65 777.2822,65 777.2822,55 L777.2822,29 " fill="#E2E2F0" style="stroke:#181818;stroke-width:1.5;"/><path d="M777.2822,29 C777.2822,39 795.2822,39 795.2822,39 C795.2822,39 813.2822,39 813.2822,29 " fill="none" style="stroke:#181818;stroke-width:1.5;"/><text fill="#000000" font-family="sans-serif" font-size="14" lengthAdjust="spacing" textLength="138.1201" x="723.2222" y="421.4248">Inventory Database</text><path d="M777.2822,434.7266 C777.2822,424.7266 795.2822,424.7266 795.2822,424.7266 C795.2822,424.7266 813.2822,424.7266 813.2822,434.7266 L813.2822,460.7266 C813.2822,470.7266 795.2822,470.7266 795.2822,470.7266 C795.2822,470.7266 777.2822,470.7266 777.2822,460.7266 L777.2822,434.7266 " fill="#E2E2F0" style="stroke:#181818;stroke-width:1.5;"/><path d="M777.2822,434.7266 C777.2822,444.7266 795.2822,444.7266 795.2822,444.7266 C795.2822,444.7266 813.2822,444.7266 813.2822,434.7266 " fill="none" style="stroke:#181818;stroke-width:1.5;"/><rect fill="#FFFFFF" height="29.1328" style="stroke:#181818;stroke-width:1.0;" width="10" x="352.2607" y="112.4297"/><rect fill="#FFFFFF" height="29.1328" style="stroke:#181818;stroke-width:1.0;" width="10" x="352.2607" y="253.0938"/><rect fill="#FFFFFF" height="29.1328" style="stroke:#181818;stroke-width:1.0;" width="10" x="352.2607" y="355.2969"/><rect fill="#FFFFFF" height="29.1328" style="stroke:#181818;stroke-width:1.0;" width="10" x="576.978" y="141.5625"/><rect fill="#FFFFFF" height="29.1328" style="stroke:#181818;stroke-width:1.0;" width="10" x="576.978" y="223.9609"/><rect fill="#FFFFFF" height="29.1328" style="stroke:#181818;stroke-width:1.0;" width="10" x="576.978" y="326.1641"/><rect fill="#FFFFFF" height="155.4688" style="stroke:#181818;stroke-width:1.0;" width="10" x="790.2822" y="170.6953"/><polygon fill="#181818" points="340.2607,108.4297,350.2607,112.4297,340.2607,116.4297,344.2607,112.4297" style="stroke:#181818;stroke-width:1.0;"/><line style="stroke:#181818;stroke-width:1.0;" x1="93.188" x2="346.2607" y1="112.4297" y2="112.4297"/><text fill="#000000" font-family="sans-serif" font-size="13" lengthAdjust="spacing" textLength="197.1646" x="100.188" y="107.3638">View asset inventory checklist</text><polygon fill="#181818" points="564.978,137.5625,574.978,141.5625,564.978,145.5625,568.978,141.5625" style="stroke:#181818;stroke-width:1.0;"/><line style="stroke:#181818;stroke-width:1.0;" x1="357.2607" x2="570.978" y1="141.5625" y2="141.5625"/><text fill="#000000" font-family="sans-serif" font-size="13" lengthAdjust="spacing" textLength="159.7642" x="364.2607" y="136.4966">checkForMissingAssets()</text><polygon fill="#181818" points="778.2822,166.6953,788.2822,170.6953,778.2822,174.6953,782.2822,170.6953" style="stroke:#181818;stroke-width:1.0;"/><line style="stroke:#181818;stroke-width:1.0;" x1="581.978" x2="784.2822" y1="170.6953" y2="170.6953"/><text fill="#000000" font-family="sans-serif" font-size="13" lengthAdjust="spacing" textLength="184.3042" x="588.978" y="165.6294">query last month&#8217;s asset list</text><path d="M10,185.6953 L74.4429,185.6953 L74.4429,192.8281 L64.4429,202.8281 L10,202.8281 L10,185.6953 " fill="#EEEEEE" style="stroke:#000000;stroke-width:1.5;"/><rect fill="none" height="206.7344" style="stroke:#000000;stroke-width:1.5;" width="867.3423" x="10" y="185.6953"/><text fill="#000000" font-family="sans-serif" font-size="13" font-weight="bold" lengthAdjust="spacing" textLength="19.4429" x="25" y="198.7622">alt</text><text fill="#000000" font-family="sans-serif" font-size="11" font-weight="bold" lengthAdjust="spacing" textLength="126.6987" x="89.4429" y="197.9058">[Assets are missing]</text><polygon fill="#181818" points="597.978,219.9609,587.978,223.9609,597.978,227.9609,593.978,223.9609" style="stroke:#181818;stroke-width:1.0;"/><line style="stroke:#181818;stroke-width:1.0;stroke-dasharray:2.0,2.0;" x1="591.978" x2="789.2822" y1="223.9609" y2="223.9609"/><text fill="#000000" font-family="sans-serif" font-size="13" lengthAdjust="spacing" textLength="155.9619" x="603.978" y="218.895">Missing assets detected</text><polygon fill="#181818" points="373.2607,249.0938,363.2607,253.0938,373.2607,257.0938,369.2607,253.0938" style="stroke:#181818;stroke-width:1.0;"/><line style="stroke:#181818;stroke-width:1.0;stroke-dasharray:2.0,2.0;" x1="367.2607" x2="580.978" y1="253.0938" y2="253.0938"/><text fill="#000000" font-family="sans-serif" font-size="13" lengthAdjust="spacing" textLength="195.7173" x="379.2607" y="248.0278">Warning about missing assets</text><polygon fill="#181818" points="104.188,278.2266,94.188,282.2266,104.188,286.2266,100.188,282.2266" style="stroke:#181818;stroke-width:1.0;"/><line style="stroke:#181818;stroke-width:1.0;" x1="98.188" x2="356.2607" y1="282.2266" y2="282.2266"/><text fill="#000000" font-family="sans-serif" font-size="13" lengthAdjust="spacing" textLength="235.0728" x="110.188" y="277.1606">"Warning: Missing assets detected."</text><line style="stroke:#000000;stroke-width:1.0;stroke-dasharray:2.0,2.0;" x1="10" x2="877.3423" y1="291.2266" y2="291.2266"/><text fill="#000000" font-family="sans-serif" font-size="11" font-weight="bold" lengthAdjust="spacing" textLength="122.0635" x="15" y="301.437">[No missing assets]</text><polygon fill="#181818" points="597.978,322.1641,587.978,326.1641,597.978,330.1641,593.978,326.1641" style="stroke:#181818;stroke-width:1.0;"/><line style="stroke:#181818;stroke-width:1.0;stroke-dasharray:2.0,2.0;" x1="591.978" x2="794.2822" y1="326.1641" y2="326.1641"/><text fill="#000000" font-family="sans-serif" font-size="13" lengthAdjust="spacing" textLength="117.2476" x="603.978" y="321.0981">No missing assets</text><polygon fill="#181818" points="373.2607,351.2969,363.2607,355.2969,373.2607,359.2969,369.2607,355.2969" style="stroke:#181818;stroke-width:1.0;"/><line style="stroke:#181818;stroke-width:1.0;stroke-dasharray:2.0,2.0;" x1="367.2607" x2="580.978" y1="355.2969" y2="355.2969"/><text fill="#000000" font-family="sans-serif" font-size="13" lengthAdjust="spacing" textLength="140.9053" x="379.2607" y="350.231">All assets are present</text><polygon fill="#181818" points="104.188,380.4297,94.188,384.4297,104.188,388.4297,100.188,384.4297" style="stroke:#181818;stroke-width:1.0;"/><line style="stroke:#181818;stroke-width:1.0;" x1="98.188" x2="356.2607" y1="384.4297" y2="384.4297"/><text fill="#000000" font-family="sans-serif" font-size="13" lengthAdjust="spacing" textLength="101.6895" x="110.188" y="379.3638">No notifications</text><!--SRC=[hP8zJiD048NxFSN85HJX02wG4aL8BfB62jIJzP2iS7R3pYI8ZcjmFKx2UDS9TXH4WmlBF- -z-URPQ2L4UC98st1WMg373KMpnoZEkZrwWMBAJ0ALFv9NyJkigWAGOLgjgh7mBAaf7fsb9Ajgqw3W6fa62fZtpx9cFZFc4W8czsb62O-EtbJMKRXpWDsIVMaTYq4hxeX2cQWxTTQgBhFc8SI5OtP-anRXcrlJqDXplbFOgaxk-Qo4rmFfe1PPO1UyRBy-FhddI8C7CMhykTPji1N8uq3NWbq6CA27leP93zY3vL26XeIiK9Dqm-pagvCjLw9b-MHSXuESulkOf1wpZVBIojsJKrMNpPTGzFc_4juLbrDIAhNwbPVX6j1mxUkA8R9M-6S7qxOzONKTxoEn_Xl_iBtY-I3ksLaK5pnVNzKttm00]--></g></svg>