<svg xmlns="http://www.w3.org/2000/svg" xmlns:xlink="http://www.w3.org/1999/xlink" contentStyleType="text/css" height="490px" preserveAspectRatio="none" style="width:1049px;height:490px;background:#FFFFFF;" version="1.1" viewBox="0 0 1049 490" width="1049px" zoomAndPan="magnify"><defs/><g><rect fill="#FFFFFF" height="29.1328" style="stroke:#181818;stroke-width:1.0;" width="10" x="424.3384" y="112.4297"/><rect fill="#FFFFFF" height="29.1328" style="stroke:#181818;stroke-width:1.0;" width="10" x="424.3384" y="253.0938"/><rect fill="#FFFFFF" height="29.1328" style="stroke:#181818;stroke-width:1.0;" width="10" x="424.3384" y="355.2969"/><rect fill="#FFFFFF" height="29.1328" style="stroke:#181818;stroke-width:1.0;" width="10" x="796.8228" y="141.5625"/><rect fill="#FFFFFF" height="29.1328" style="stroke:#181818;stroke-width:1.0;" width="10" x="796.8228" y="223.9609"/><rect fill="#FFFFFF" height="29.1328" style="stroke:#181818;stroke-width:1.0;" width="10" x="796.8228" y="326.1641"/><rect fill="#FFFFFF" height="155.4688" style="stroke:#181818;stroke-width:1.0;" width="10" x="961.9609" y="170.6953"/><rect fill="none" height="206.7344" style="stroke:#000000;stroke-width:1.5;" width="1032.4414" x="10" y="185.6953"/><line style="stroke:#181818;stroke-width:0.5;stroke-dasharray:5.0,5.0;" x1="93" x2="93" y1="81.2969" y2="409.4297"/><line style="stroke:#181818;stroke-width:0.5;stroke-dasharray:5.0,5.0;" x1="429.2017" x2="429.2017" y1="81.2969" y2="409.4297"/><line style="stroke:#181818;stroke-width:0.5;stroke-dasharray:5.0,5.0;" x1="801.0972" x2="801.0972" y1="81.2969" y2="409.4297"/><line style="stroke:#181818;stroke-width:0.5;stroke-dasharray:5.0,5.0;" x1="966.4805" x2="966.4805" y1="81.2969" y2="409.4297"/><text fill="#000000" font-family="sans-serif" font-size="14" lengthAdjust="spacing" textLength="140.376" x="20" y="77.9951">WarehouseManager</text><ellipse cx="93.188" cy="13.5" fill="#E2E2F0" rx="8" ry="8" style="stroke:#181818;stroke-width:0.5;"/><path d="M93.188,21.5 L93.188,48.5 M80.188,29.5 L106.188,29.5 M93.188,48.5 L80.188,63.5 M93.188,48.5 L106.188,63.5 " fill="none" style="stroke:#181818;stroke-width:0.5;"/><text fill="#000000" font-family="sans-serif" font-size="14" lengthAdjust="spacing" textLength="140.376" x="20" y="421.4248">WarehouseManager</text><ellipse cx="93.188" cy="433.2266" fill="#E2E2F0" rx="8" ry="8" style="stroke:#181818;stroke-width:0.5;"/><path d="M93.188,441.2266 L93.188,468.2266 M80.188,449.2266 L106.188,449.2266 M93.188,468.2266 L80.188,483.2266 M93.188,468.2266 L106.188,483.2266 " fill="none" style="stroke:#181818;stroke-width:0.5;"/><rect fill="#E2E2F0" height="30.2969" rx="2.5" ry="2.5" style="stroke:#181818;stroke-width:0.5;" width="140.2734" x="359.2017" y="50"/><text fill="#000000" font-family="sans-serif" font-size="14" lengthAdjust="spacing" textLength="126.2734" x="366.2017" y="69.9951">My Product List UI</text><rect fill="#E2E2F0" height="30.2969" rx="2.5" ry="2.5" style="stroke:#181818;stroke-width:0.5;" width="140.2734" x="359.2017" y="408.4297"/><text fill="#000000" font-family="sans-serif" font-size="14" lengthAdjust="spacing" textLength="126.2734" x="366.2017" y="428.4248">My Product List UI</text><rect fill="#E2E2F0" height="30.2969" rx="2.5" ry="2.5" style="stroke:#181818;stroke-width:0.5;" width="119.4512" x="742.0972" y="50"/><text fill="#000000" font-family="sans-serif" font-size="14" lengthAdjust="spacing" textLength="105.4512" x="749.0972" y="69.9951">ProductService</text><rect fill="#E2E2F0" height="30.2969" rx="2.5" ry="2.5" style="stroke:#181818;stroke-width:0.5;" width="119.4512" x="742.0972" y="408.4297"/><text fill="#000000" font-family="sans-serif" font-size="14" lengthAdjust="spacing" textLength="105.4512" x="749.0972" y="428.4248">ProductService</text><text fill="#000000" font-family="sans-serif" font-size="14" lengthAdjust="spacing" textLength="124.9609" x="901.4805" y="77.9951">Product Database</text><path d="M948.9609,29 C948.9609,19 966.9609,19 966.9609,19 C966.9609,19 984.9609,19 984.9609,29 L984.9609,55 C984.9609,65 966.9609,65 966.9609,65 C966.9609,65 948.9609,65 948.9609,55 L948.9609,29 " fill="#E2E2F0" style="stroke:#181818;stroke-width:1.5;"/><path d="M948.9609,29 C948.9609,39 966.9609,39 966.9609,39 C966.9609,39 984.9609,39 984.9609,29 " fill="none" style="stroke:#181818;stroke-width:1.5;"/><text fill="#000000" font-family="sans-serif" font-size="14" lengthAdjust="spacing" textLength="124.9609" x="901.4805" y="421.4248">Product Database</text><path d="M948.9609,434.7266 C948.9609,424.7266 966.9609,424.7266 966.9609,424.7266 C966.9609,424.7266 984.9609,424.7266 984.9609,434.7266 L984.9609,460.7266 C984.9609,470.7266 966.9609,470.7266 966.9609,470.7266 C966.9609,470.7266 948.9609,470.7266 948.9609,460.7266 L948.9609,434.7266 " fill="#E2E2F0" style="stroke:#181818;stroke-width:1.5;"/><path d="M948.9609,434.7266 C948.9609,444.7266 966.9609,444.7266 966.9609,444.7266 C966.9609,444.7266 984.9609,444.7266 984.9609,434.7266 " fill="none" style="stroke:#181818;stroke-width:1.5;"/><rect fill="#FFFFFF" height="29.1328" style="stroke:#181818;stroke-width:1.0;" width="10" x="424.3384" y="112.4297"/><rect fill="#FFFFFF" height="29.1328" style="stroke:#181818;stroke-width:1.0;" width="10" x="424.3384" y="253.0938"/><rect fill="#FFFFFF" height="29.1328" style="stroke:#181818;stroke-width:1.0;" width="10" x="424.3384" y="355.2969"/><rect fill="#FFFFFF" height="29.1328" style="stroke:#181818;stroke-width:1.0;" width="10" x="796.8228" y="141.5625"/><rect fill="#FFFFFF" height="29.1328" style="stroke:#181818;stroke-width:1.0;" width="10" x="796.8228" y="223.9609"/><rect fill="#FFFFFF" height="29.1328" style="stroke:#181818;stroke-width:1.0;" width="10" x="796.8228" y="326.1641"/><rect fill="#FFFFFF" height="155.4688" style="stroke:#181818;stroke-width:1.0;" width="10" x="961.9609" y="170.6953"/><polygon fill="#181818" points="412.3384,108.4297,422.3384,112.4297,412.3384,116.4297,416.3384,112.4297" style="stroke:#181818;stroke-width:1.0;"/><line style="stroke:#181818;stroke-width:1.0;" x1="93.188" x2="418.3384" y1="112.4297" y2="112.4297"/><text fill="#000000" font-family="sans-serif" font-size="13" lengthAdjust="spacing" textLength="282.6484" x="100.188" y="107.3638">Try to view products in a closed warehouse</text><polygon fill="#181818" points="784.8228,137.5625,794.8228,141.5625,784.8228,145.5625,788.8228,141.5625" style="stroke:#181818;stroke-width:1.0;"/><line style="stroke:#181818;stroke-width:1.0;" x1="429.3384" x2="790.8228" y1="141.5625" y2="141.5625"/><text fill="#000000" font-family="sans-serif" font-size="13" lengthAdjust="spacing" textLength="162.9951" x="436.3384" y="136.4966">checkWarehouseStatus()</text><polygon fill="#181818" points="949.9609,166.6953,959.9609,170.6953,949.9609,174.6953,953.9609,170.6953" style="stroke:#181818;stroke-width:1.0;"/><line style="stroke:#181818;stroke-width:1.0;" x1="801.8228" x2="955.9609" y1="170.6953" y2="170.6953"/><text fill="#000000" font-family="sans-serif" font-size="13" lengthAdjust="spacing" textLength="136.1382" x="808.8228" y="165.6294">getWarehouseStatus</text><path d="M10,185.6953 L74.4429,185.6953 L74.4429,192.8281 L64.4429,202.8281 L10,202.8281 L10,185.6953 " fill="#EEEEEE" style="stroke:#000000;stroke-width:1.5;"/><rect fill="none" height="206.7344" style="stroke:#000000;stroke-width:1.5;" width="1032.4414" x="10" y="185.6953"/><text fill="#000000" font-family="sans-serif" font-size="13" font-weight="bold" lengthAdjust="spacing" textLength="19.4429" x="25" y="198.7622">alt</text><text fill="#000000" font-family="sans-serif" font-size="11" font-weight="bold" lengthAdjust="spacing" textLength="137.4302" x="89.4429" y="197.9058">[Warehouse is closed]</text><polygon fill="#181818" points="817.8228,219.9609,807.8228,223.9609,817.8228,227.9609,813.8228,223.9609" style="stroke:#181818;stroke-width:1.0;"/><line style="stroke:#181818;stroke-width:1.0;stroke-dasharray:2.0,2.0;" x1="811.8228" x2="960.9609" y1="223.9609" y2="223.9609"/><text fill="#000000" font-family="sans-serif" font-size="13" lengthAdjust="spacing" textLength="43.6655" x="823.8228" y="218.895">Closed</text><polygon fill="#181818" points="445.3384,249.0938,435.3384,253.0938,445.3384,257.0938,441.3384,253.0938" style="stroke:#181818;stroke-width:1.0;"/><line style="stroke:#181818;stroke-width:1.0;stroke-dasharray:2.0,2.0;" x1="439.3384" x2="800.8228" y1="253.0938" y2="253.0938"/><text fill="#000000" font-family="sans-serif" font-size="13" lengthAdjust="spacing" textLength="343.4844" x="451.3384" y="248.0278">Error "Cannot view products in a closed warehouse."</text><polygon fill="#181818" points="104.188,278.2266,94.188,282.2266,104.188,286.2266,100.188,282.2266" style="stroke:#181818;stroke-width:1.0;"/><line style="stroke:#181818;stroke-width:1.0;" x1="98.188" x2="428.3384" y1="282.2266" y2="282.2266"/><text fill="#000000" font-family="sans-serif" font-size="13" lengthAdjust="spacing" textLength="307.1504" x="110.188" y="277.1606">"Cannot view products in a closed warehouse."</text><line style="stroke:#000000;stroke-width:1.0;stroke-dasharray:2.0,2.0;" x1="10" x2="1042.4414" y1="291.2266" y2="291.2266"/><text fill="#000000" font-family="sans-serif" font-size="11" font-weight="bold" lengthAdjust="spacing" textLength="128.4229" x="15" y="301.437">[Warehouse is open]</text><polygon fill="#181818" points="817.8228,322.1641,807.8228,326.1641,817.8228,330.1641,813.8228,326.1641" style="stroke:#181818;stroke-width:1.0;"/><line style="stroke:#181818;stroke-width:1.0;stroke-dasharray:2.0,2.0;" x1="811.8228" x2="965.9609" y1="326.1641" y2="326.1641"/><text fill="#000000" font-family="sans-serif" font-size="13" lengthAdjust="spacing" textLength="34.7217" x="823.8228" y="321.0981">Open</text><polygon fill="#181818" points="445.3384,351.2969,435.3384,355.2969,445.3384,359.2969,441.3384,355.2969" style="stroke:#181818;stroke-width:1.0;"/><line style="stroke:#181818;stroke-width:1.0;stroke-dasharray:2.0,2.0;" x1="439.3384" x2="800.8228" y1="355.2969" y2="355.2969"/><text fill="#000000" font-family="sans-serif" font-size="13" lengthAdjust="spacing" textLength="73.0996" x="451.3384" y="350.231">Product list</text><polygon fill="#181818" points="104.188,380.4297,94.188,384.4297,104.188,388.4297,100.188,384.4297" style="stroke:#181818;stroke-width:1.0;"/><line style="stroke:#181818;stroke-width:1.0;" x1="98.188" x2="428.3384" y1="384.4297" y2="384.4297"/><text fill="#000000" font-family="sans-serif" font-size="13" lengthAdjust="spacing" textLength="125.563" x="110.188" y="379.3638">Display product list</text><!--SRC=[hL9DQuGm4BtdLmoUsiFs1tZemRM7XPKATkbv6eVTK4aa6LtyzuqQFocqqEOWoVZUp7ilGSd6mZjQkfd6KOOQhsH5ZPQLL3LgXYZh8BUcR2J3MJc6ooa2T93bvyjfYmomWcoh90sel10bCdwWe_a_fA4o8D94YBq0E3oF_MDuinsmWLRH7UgHxq1fG92LSLJ2VU8AbAnQP0hIXc_VAIzYa3UId_EOWf4Rz_0eIjgHvgCNdXSzEqrYk1Blk6kcXyvxxmOhNX85vO9G0Nwb2Ho2ekDINNVgp_tW9O4NQ_qTHKVKsl1lWdYAXYvRXPivezU-D8UqluBuRnF72LJv13PPc9hqFedNgRRY-nn_JcPwJvL_blzYELMkhh2Rt7xRE3ZJvHS0]--></g></svg>