<svg xmlns="http://www.w3.org/2000/svg" xmlns:xlink="http://www.w3.org/1999/xlink" contentStyleType="text/css" height="490px" preserveAspectRatio="none" style="width:726px;height:490px;background:#FFFFFF;" version="1.1" viewBox="0 0 726 490" width="726px" zoomAndPan="magnify"><defs/><g><rect fill="#FFFFFF" height="29.1328" style="stroke:#181818;stroke-width:1.0;" width="10" x="322.2427" y="112.4297"/><rect fill="#FFFFFF" height="29.1328" style="stroke:#181818;stroke-width:1.0;" width="10" x="322.2427" y="253.0938"/><rect fill="#FFFFFF" height="29.1328" style="stroke:#181818;stroke-width:1.0;" width="10" x="322.2427" y="355.2969"/><rect fill="#FFFFFF" height="29.1328" style="stroke:#181818;stroke-width:1.0;" width="10" x="485.0703" y="141.5625"/><rect fill="#FFFFFF" height="29.1328" style="stroke:#181818;stroke-width:1.0;" width="10" x="485.0703" y="223.9609"/><rect fill="#FFFFFF" height="29.1328" style="stroke:#181818;stroke-width:1.0;" width="10" x="485.0703" y="326.1641"/><rect fill="#FFFFFF" height="155.4688" style="stroke:#181818;stroke-width:1.0;" width="10" x="639.4302" y="170.6953"/><rect fill="none" height="206.7344" style="stroke:#000000;stroke-width:1.5;" width="709.9106" x="10" y="185.6953"/><line style="stroke:#181818;stroke-width:0.5;stroke-dasharray:5.0,5.0;" x1="93" x2="93" y1="81.2969" y2="409.4297"/><line style="stroke:#181818;stroke-width:0.5;stroke-dasharray:5.0,5.0;" x1="327.106" x2="327.106" y1="81.2969" y2="409.4297"/><line style="stroke:#181818;stroke-width:0.5;stroke-dasharray:5.0,5.0;" x1="489.3447" x2="489.3447" y1="81.2969" y2="409.4297"/><line style="stroke:#181818;stroke-width:0.5;stroke-dasharray:5.0,5.0;" x1="643.9497" x2="643.9497" y1="81.2969" y2="409.4297"/><text fill="#000000" font-family="sans-serif" font-size="14" lengthAdjust="spacing" textLength="140.376" x="20" y="77.9951">WarehouseManager</text><ellipse cx="93.188" cy="13.5" fill="#E2E2F0" rx="8" ry="8" style="stroke:#181818;stroke-width:0.5;"/><path d="M93.188,21.5 L93.188,48.5 M80.188,29.5 L106.188,29.5 M93.188,48.5 L80.188,63.5 M93.188,48.5 L106.188,63.5 " fill="none" style="stroke:#181818;stroke-width:0.5;"/><text fill="#000000" font-family="sans-serif" font-size="14" lengthAdjust="spacing" textLength="140.376" x="20" y="421.4248">WarehouseManager</text><ellipse cx="93.188" cy="433.2266" fill="#E2E2F0" rx="8" ry="8" style="stroke:#181818;stroke-width:0.5;"/><path d="M93.188,441.2266 L93.188,468.2266 M80.188,449.2266 L106.188,449.2266 M93.188,468.2266 L80.188,483.2266 M93.188,468.2266 L106.188,483.2266 " fill="none" style="stroke:#181818;stroke-width:0.5;"/><rect fill="#E2E2F0" height="30.2969" rx="2.5" ry="2.5" style="stroke:#181818;stroke-width:0.5;" width="140.2734" x="257.106" y="50"/><text fill="#000000" font-family="sans-serif" font-size="14" lengthAdjust="spacing" textLength="126.2734" x="264.106" y="69.9951">My Product List UI</text><rect fill="#E2E2F0" height="30.2969" rx="2.5" ry="2.5" style="stroke:#181818;stroke-width:0.5;" width="140.2734" x="257.106" y="408.4297"/><text fill="#000000" font-family="sans-serif" font-size="14" lengthAdjust="spacing" textLength="126.2734" x="264.106" y="428.4248">My Product List UI</text><rect fill="#E2E2F0" height="30.2969" rx="2.5" ry="2.5" style="stroke:#181818;stroke-width:0.5;" width="119.4512" x="430.3447" y="50"/><text fill="#000000" font-family="sans-serif" font-size="14" lengthAdjust="spacing" textLength="105.4512" x="437.3447" y="69.9951">ProductService</text><rect fill="#E2E2F0" height="30.2969" rx="2.5" ry="2.5" style="stroke:#181818;stroke-width:0.5;" width="119.4512" x="430.3447" y="408.4297"/><text fill="#000000" font-family="sans-serif" font-size="14" lengthAdjust="spacing" textLength="105.4512" x="437.3447" y="428.4248">ProductService</text><text fill="#000000" font-family="sans-serif" font-size="14" lengthAdjust="spacing" textLength="124.9609" x="578.9497" y="77.9951">Product Database</text><path d="M626.4302,29 C626.4302,19 644.4302,19 644.4302,19 C644.4302,19 662.4302,19 662.4302,29 L662.4302,55 C662.4302,65 644.4302,65 644.4302,65 C644.4302,65 626.4302,65 626.4302,55 L626.4302,29 " fill="#E2E2F0" style="stroke:#181818;stroke-width:1.5;"/><path d="M626.4302,29 C626.4302,39 644.4302,39 644.4302,39 C644.4302,39 662.4302,39 662.4302,29 " fill="none" style="stroke:#181818;stroke-width:1.5;"/><text fill="#000000" font-family="sans-serif" font-size="14" lengthAdjust="spacing" textLength="124.9609" x="578.9497" y="421.4248">Product Database</text><path d="M626.4302,434.7266 C626.4302,424.7266 644.4302,424.7266 644.4302,424.7266 C644.4302,424.7266 662.4302,424.7266 662.4302,434.7266 L662.4302,460.7266 C662.4302,470.7266 644.4302,470.7266 644.4302,470.7266 C644.4302,470.7266 626.4302,470.7266 626.4302,460.7266 L626.4302,434.7266 " fill="#E2E2F0" style="stroke:#181818;stroke-width:1.5;"/><path d="M626.4302,434.7266 C626.4302,444.7266 644.4302,444.7266 644.4302,444.7266 C644.4302,444.7266 662.4302,444.7266 662.4302,434.7266 " fill="none" style="stroke:#181818;stroke-width:1.5;"/><rect fill="#FFFFFF" height="29.1328" style="stroke:#181818;stroke-width:1.0;" width="10" x="322.2427" y="112.4297"/><rect fill="#FFFFFF" height="29.1328" style="stroke:#181818;stroke-width:1.0;" width="10" x="322.2427" y="253.0938"/><rect fill="#FFFFFF" height="29.1328" style="stroke:#181818;stroke-width:1.0;" width="10" x="322.2427" y="355.2969"/><rect fill="#FFFFFF" height="29.1328" style="stroke:#181818;stroke-width:1.0;" width="10" x="485.0703" y="141.5625"/><rect fill="#FFFFFF" height="29.1328" style="stroke:#181818;stroke-width:1.0;" width="10" x="485.0703" y="223.9609"/><rect fill="#FFFFFF" height="29.1328" style="stroke:#181818;stroke-width:1.0;" width="10" x="485.0703" y="326.1641"/><rect fill="#FFFFFF" height="155.4688" style="stroke:#181818;stroke-width:1.0;" width="10" x="639.4302" y="170.6953"/><polygon fill="#181818" points="310.2427,108.4297,320.2427,112.4297,310.2427,116.4297,314.2427,112.4297" style="stroke:#181818;stroke-width:1.0;"/><line style="stroke:#181818;stroke-width:1.0;" x1="93.188" x2="316.2427" y1="112.4297" y2="112.4297"/><text fill="#000000" font-family="sans-serif" font-size="13" lengthAdjust="spacing" textLength="191.3564" x="100.188" y="107.3638">Navigate to "My Product List"</text><polygon fill="#181818" points="473.0703,137.5625,483.0703,141.5625,473.0703,145.5625,477.0703,141.5625" style="stroke:#181818;stroke-width:1.0;"/><line style="stroke:#181818;stroke-width:1.0;" x1="327.2427" x2="479.0703" y1="141.5625" y2="141.5625"/><text fill="#000000" font-family="sans-serif" font-size="13" lengthAdjust="spacing" textLength="133.8276" x="334.2427" y="136.4966">retrieveProductList()</text><polygon fill="#181818" points="627.4302,166.6953,637.4302,170.6953,627.4302,174.6953,631.4302,170.6953" style="stroke:#181818;stroke-width:1.0;"/><line style="stroke:#181818;stroke-width:1.0;" x1="490.0703" x2="633.4302" y1="170.6953" y2="170.6953"/><text fill="#000000" font-family="sans-serif" font-size="13" lengthAdjust="spacing" textLength="125.3599" x="497.0703" y="165.6294">query product data</text><path d="M10,185.6953 L74.4429,185.6953 L74.4429,192.8281 L64.4429,202.8281 L10,202.8281 L10,185.6953 " fill="#EEEEEE" style="stroke:#000000;stroke-width:1.5;"/><rect fill="none" height="206.7344" style="stroke:#000000;stroke-width:1.5;" width="709.9106" x="10" y="185.6953"/><text fill="#000000" font-family="sans-serif" font-size="13" font-weight="bold" lengthAdjust="spacing" textLength="19.4429" x="25" y="198.7622">alt</text><text fill="#000000" font-family="sans-serif" font-size="11" font-weight="bold" lengthAdjust="spacing" textLength="177.5093" x="89.4429" y="197.9058">[Product data retrieval fails]</text><polygon fill="#181818" points="506.0703,219.9609,496.0703,223.9609,506.0703,227.9609,502.0703,223.9609" style="stroke:#181818;stroke-width:1.0;"/><line style="stroke:#181818;stroke-width:1.0;stroke-dasharray:2.0,2.0;" x1="500.0703" x2="638.4302" y1="223.9609" y2="223.9609"/><text fill="#000000" font-family="sans-serif" font-size="13" lengthAdjust="spacing" textLength="32.2017" x="512.0703" y="218.895">Error</text><polygon fill="#181818" points="343.2427,249.0938,333.2427,253.0938,343.2427,257.0938,339.2427,253.0938" style="stroke:#181818;stroke-width:1.0;"/><line style="stroke:#181818;stroke-width:1.0;stroke-dasharray:2.0,2.0;" x1="337.2427" x2="489.0703" y1="253.0938" y2="253.0938"/><text fill="#000000" font-family="sans-serif" font-size="13" lengthAdjust="spacing" textLength="94.7578" x="349.2427" y="248.0278">Error message</text><polygon fill="#181818" points="104.188,278.2266,94.188,282.2266,104.188,286.2266,100.188,282.2266" style="stroke:#181818;stroke-width:1.0;"/><line style="stroke:#181818;stroke-width:1.0;" x1="98.188" x2="326.2427" y1="282.2266" y2="282.2266"/><text fill="#000000" font-family="sans-serif" font-size="13" lengthAdjust="spacing" textLength="205.0547" x="110.188" y="277.1606">"Failed to retrieve product list."</text><line style="stroke:#000000;stroke-width:1.0;stroke-dasharray:2.0,2.0;" x1="10" x2="719.9106" y1="291.2266" y2="291.2266"/><text fill="#000000" font-family="sans-serif" font-size="11" font-weight="bold" lengthAdjust="spacing" textLength="164.5918" x="15" y="301.437">[Successful data retrieval]</text><polygon fill="#181818" points="506.0703,322.1641,496.0703,326.1641,506.0703,330.1641,502.0703,326.1641" style="stroke:#181818;stroke-width:1.0;"/><line style="stroke:#181818;stroke-width:1.0;stroke-dasharray:2.0,2.0;" x1="500.0703" x2="643.4302" y1="326.1641" y2="326.1641"/><text fill="#000000" font-family="sans-serif" font-size="13" lengthAdjust="spacing" textLength="83.2876" x="512.0703" y="321.0981">Product data</text><polygon fill="#181818" points="343.2427,351.2969,333.2427,355.2969,343.2427,359.2969,339.2427,355.2969" style="stroke:#181818;stroke-width:1.0;"/><line style="stroke:#181818;stroke-width:1.0;stroke-dasharray:2.0,2.0;" x1="337.2427" x2="489.0703" y1="355.2969" y2="355.2969"/><text fill="#000000" font-family="sans-serif" font-size="13" lengthAdjust="spacing" textLength="73.0996" x="349.2427" y="350.231">Product list</text><polygon fill="#181818" points="104.188,380.4297,94.188,384.4297,104.188,388.4297,100.188,384.4297" style="stroke:#181818;stroke-width:1.0;"/><line style="stroke:#181818;stroke-width:1.0;" x1="98.188" x2="326.2427" y1="384.4297" y2="384.4297"/><text fill="#000000" font-family="sans-serif" font-size="13" lengthAdjust="spacing" textLength="148.9985" x="110.188" y="379.3638">Display list of products</text><!--SRC=[XP7FQeGm4CRlUOh1KtlOFe277iGM5jOIaANdQPpT1h9gaoZuzasYfZRsZuUWCzzCVjyd2jjfU4LDxzrWgC8MhwHPZzfA8NjiBMJL15ntpI0idAInS3vcW0OgVZeVloiNMKrwb8A2YjUiGOjlQ2ZseLmgGL4MZAK0S7YSz-VmWgEyeYMmtGubOoYi77rtfWcd7-Pr3fgibZJICk47xkvPGybC_7IelFR3PP73nq1wWdwvp5lOJZffV7Vyg6payjBrQbHmGQaC0_UK1HmMiYUjEnsAuTYk3GMFyPL0KCEDZ77H_4OnUuahOn1fiZbapmw96f_dcb3qgLn63za-8rBkzzM340xYCgZ4P6fl6qNeRVQvj5BBUyTyW_E_uJ-ybjBq2gUm2BhBwjFyuB1jTiLF]--></g></svg>