<svg xmlns="http://www.w3.org/2000/svg" xmlns:xlink="http://www.w3.org/1999/xlink" contentStyleType="text/css" height="490px" preserveAspectRatio="none" style="width:856px;height:490px;background:#FFFFFF;" version="1.1" viewBox="0 0 856 490" width="856px" zoomAndPan="magnify"><defs/><g><rect fill="#FFFFFF" height="29.1328" style="stroke:#181818;stroke-width:1.0;" width="10" x="399.8555" y="112.4297"/><rect fill="#FFFFFF" height="29.1328" style="stroke:#181818;stroke-width:1.0;" width="10" x="399.8555" y="253.0938"/><rect fill="#FFFFFF" height="29.1328" style="stroke:#181818;stroke-width:1.0;" width="10" x="399.8555" y="355.2969"/><rect fill="#FFFFFF" height="29.1328" style="stroke:#181818;stroke-width:1.0;" width="10" x="587.3057" y="141.5625"/><rect fill="#FFFFFF" height="29.1328" style="stroke:#181818;stroke-width:1.0;" width="10" x="587.3057" y="223.9609"/><rect fill="#FFFFFF" height="29.1328" style="stroke:#181818;stroke-width:1.0;" width="10" x="587.3057" y="326.1641"/><rect fill="#FFFFFF" height="155.4688" style="stroke:#181818;stroke-width:1.0;" width="10" x="769.3286" y="170.6953"/><rect fill="none" height="206.7344" style="stroke:#000000;stroke-width:1.5;" width="839.8091" x="10" y="185.6953"/><line style="stroke:#181818;stroke-width:0.5;stroke-dasharray:5.0,5.0;" x1="93" x2="93" y1="81.2969" y2="409.4297"/><line style="stroke:#181818;stroke-width:0.5;stroke-dasharray:5.0,5.0;" x1="404.7188" x2="404.7188" y1="81.2969" y2="409.4297"/><line style="stroke:#181818;stroke-width:0.5;stroke-dasharray:5.0,5.0;" x1="591.5801" x2="591.5801" y1="81.2969" y2="409.4297"/><line style="stroke:#181818;stroke-width:0.5;stroke-dasharray:5.0,5.0;" x1="773.8481" x2="773.8481" y1="81.2969" y2="409.4297"/><text fill="#000000" font-family="sans-serif" font-size="14" lengthAdjust="spacing" textLength="140.376" x="20" y="77.9951">WarehouseManager</text><ellipse cx="93.188" cy="13.5" fill="#E2E2F0" rx="8" ry="8" style="stroke:#181818;stroke-width:0.5;"/><path d="M93.188,21.5 L93.188,48.5 M80.188,29.5 L106.188,29.5 M93.188,48.5 L80.188,63.5 M93.188,48.5 L106.188,63.5 " fill="none" style="stroke:#181818;stroke-width:0.5;"/><text fill="#000000" font-family="sans-serif" font-size="14" lengthAdjust="spacing" textLength="140.376" x="20" y="421.4248">WarehouseManager</text><ellipse cx="93.188" cy="433.2266" fill="#E2E2F0" rx="8" ry="8" style="stroke:#181818;stroke-width:0.5;"/><path d="M93.188,441.2266 L93.188,468.2266 M80.188,449.2266 L106.188,449.2266 M93.188,468.2266 L80.188,483.2266 M93.188,468.2266 L106.188,483.2266 " fill="none" style="stroke:#181818;stroke-width:0.5;"/><rect fill="#E2E2F0" height="30.2969" rx="2.5" ry="2.5" style="stroke:#181818;stroke-width:0.5;" width="140.2734" x="334.7188" y="50"/><text fill="#000000" font-family="sans-serif" font-size="14" lengthAdjust="spacing" textLength="126.2734" x="341.7188" y="69.9951">My Product List UI</text><rect fill="#E2E2F0" height="30.2969" rx="2.5" ry="2.5" style="stroke:#181818;stroke-width:0.5;" width="140.2734" x="334.7188" y="408.4297"/><text fill="#000000" font-family="sans-serif" font-size="14" lengthAdjust="spacing" textLength="126.2734" x="341.7188" y="428.4248">My Product List UI</text><rect fill="#E2E2F0" height="30.2969" rx="2.5" ry="2.5" style="stroke:#181818;stroke-width:0.5;" width="119.4512" x="532.5801" y="50"/><text fill="#000000" font-family="sans-serif" font-size="14" lengthAdjust="spacing" textLength="105.4512" x="539.5801" y="69.9951">ProductService</text><rect fill="#E2E2F0" height="30.2969" rx="2.5" ry="2.5" style="stroke:#181818;stroke-width:0.5;" width="119.4512" x="532.5801" y="408.4297"/><text fill="#000000" font-family="sans-serif" font-size="14" lengthAdjust="spacing" textLength="105.4512" x="539.5801" y="428.4248">ProductService</text><text fill="#000000" font-family="sans-serif" font-size="14" lengthAdjust="spacing" textLength="124.9609" x="708.8481" y="77.9951">Product Database</text><path d="M756.3286,29 C756.3286,19 774.3286,19 774.3286,19 C774.3286,19 792.3286,19 792.3286,29 L792.3286,55 C792.3286,65 774.3286,65 774.3286,65 C774.3286,65 756.3286,65 756.3286,55 L756.3286,29 " fill="#E2E2F0" style="stroke:#181818;stroke-width:1.5;"/><path d="M756.3286,29 C756.3286,39 774.3286,39 774.3286,39 C774.3286,39 792.3286,39 792.3286,29 " fill="none" style="stroke:#181818;stroke-width:1.5;"/><text fill="#000000" font-family="sans-serif" font-size="14" lengthAdjust="spacing" textLength="124.9609" x="708.8481" y="421.4248">Product Database</text><path d="M756.3286,434.7266 C756.3286,424.7266 774.3286,424.7266 774.3286,424.7266 C774.3286,424.7266 792.3286,424.7266 792.3286,434.7266 L792.3286,460.7266 C792.3286,470.7266 774.3286,470.7266 774.3286,470.7266 C774.3286,470.7266 756.3286,470.7266 756.3286,460.7266 L756.3286,434.7266 " fill="#E2E2F0" style="stroke:#181818;stroke-width:1.5;"/><path d="M756.3286,434.7266 C756.3286,444.7266 774.3286,444.7266 774.3286,444.7266 C774.3286,444.7266 792.3286,444.7266 792.3286,434.7266 " fill="none" style="stroke:#181818;stroke-width:1.5;"/><rect fill="#FFFFFF" height="29.1328" style="stroke:#181818;stroke-width:1.0;" width="10" x="399.8555" y="112.4297"/><rect fill="#FFFFFF" height="29.1328" style="stroke:#181818;stroke-width:1.0;" width="10" x="399.8555" y="253.0938"/><rect fill="#FFFFFF" height="29.1328" style="stroke:#181818;stroke-width:1.0;" width="10" x="399.8555" y="355.2969"/><rect fill="#FFFFFF" height="29.1328" style="stroke:#181818;stroke-width:1.0;" width="10" x="587.3057" y="141.5625"/><rect fill="#FFFFFF" height="29.1328" style="stroke:#181818;stroke-width:1.0;" width="10" x="587.3057" y="223.9609"/><rect fill="#FFFFFF" height="29.1328" style="stroke:#181818;stroke-width:1.0;" width="10" x="587.3057" y="326.1641"/><rect fill="#FFFFFF" height="155.4688" style="stroke:#181818;stroke-width:1.0;" width="10" x="769.3286" y="170.6953"/><polygon fill="#181818" points="387.8555,108.4297,397.8555,112.4297,387.8555,116.4297,391.8555,112.4297" style="stroke:#181818;stroke-width:1.0;"/><line style="stroke:#181818;stroke-width:1.0;" x1="93.188" x2="393.8555" y1="112.4297" y2="112.4297"/><text fill="#000000" font-family="sans-serif" font-size="13" lengthAdjust="spacing" textLength="219.5908" x="100.188" y="107.3638">Enter product name in search bar</text><polygon fill="#181818" points="575.3057,137.5625,585.3057,141.5625,575.3057,145.5625,579.3057,141.5625" style="stroke:#181818;stroke-width:1.0;"/><line style="stroke:#181818;stroke-width:1.0;" x1="404.8555" x2="581.3057" y1="141.5625" y2="141.5625"/><text fill="#000000" font-family="sans-serif" font-size="13" lengthAdjust="spacing" textLength="158.4502" x="411.8555" y="136.4966">searchProductByName()</text><polygon fill="#181818" points="757.3286,166.6953,767.3286,170.6953,757.3286,174.6953,761.3286,170.6953" style="stroke:#181818;stroke-width:1.0;"/><line style="stroke:#181818;stroke-width:1.0;" x1="592.3057" x2="763.3286" y1="170.6953" y2="170.6953"/><text fill="#000000" font-family="sans-serif" font-size="13" lengthAdjust="spacing" textLength="153.0229" x="599.3057" y="165.6294">query product by name</text><path d="M10,185.6953 L74.4429,185.6953 L74.4429,192.8281 L64.4429,202.8281 L10,202.8281 L10,185.6953 " fill="#EEEEEE" style="stroke:#000000;stroke-width:1.5;"/><rect fill="none" height="206.7344" style="stroke:#000000;stroke-width:1.5;" width="839.8091" x="10" y="185.6953"/><text fill="#000000" font-family="sans-serif" font-size="13" font-weight="bold" lengthAdjust="spacing" textLength="19.4429" x="25" y="198.7622">alt</text><text fill="#000000" font-family="sans-serif" font-size="11" font-weight="bold" lengthAdjust="spacing" textLength="165.9346" x="89.4429" y="197.9058">[Matching products found]</text><polygon fill="#181818" points="608.3057,219.9609,598.3057,223.9609,608.3057,227.9609,604.3057,223.9609" style="stroke:#181818;stroke-width:1.0;"/><line style="stroke:#181818;stroke-width:1.0;stroke-dasharray:2.0,2.0;" x1="602.3057" x2="768.3286" y1="223.9609" y2="223.9609"/><text fill="#000000" font-family="sans-serif" font-size="13" lengthAdjust="spacing" textLength="120.9609" x="614.3057" y="218.895">Matching products</text><polygon fill="#181818" points="420.8555,249.0938,410.8555,253.0938,420.8555,257.0938,416.8555,253.0938" style="stroke:#181818;stroke-width:1.0;"/><line style="stroke:#181818;stroke-width:1.0;stroke-dasharray:2.0,2.0;" x1="414.8555" x2="591.3057" y1="253.0938" y2="253.0938"/><text fill="#000000" font-family="sans-serif" font-size="13" lengthAdjust="spacing" textLength="127.0356" x="426.8555" y="248.0278">Filtered product list</text><polygon fill="#181818" points="104.188,278.2266,94.188,282.2266,104.188,286.2266,100.188,282.2266" style="stroke:#181818;stroke-width:1.0;"/><line style="stroke:#181818;stroke-width:1.0;" x1="98.188" x2="403.8555" y1="282.2266" y2="282.2266"/><text fill="#000000" font-family="sans-serif" font-size="13" lengthAdjust="spacing" textLength="174.459" x="110.188" y="277.1606">Display matching products</text><line style="stroke:#000000;stroke-width:1.0;stroke-dasharray:2.0,2.0;" x1="10" x2="849.8091" y1="291.2266" y2="291.2266"/><text fill="#000000" font-family="sans-serif" font-size="11" font-weight="bold" lengthAdjust="spacing" textLength="147.3345" x="15" y="301.437">[No matching products]</text><polygon fill="#181818" points="608.3057,322.1641,598.3057,326.1641,608.3057,330.1641,604.3057,326.1641" style="stroke:#181818;stroke-width:1.0;"/><line style="stroke:#181818;stroke-width:1.0;stroke-dasharray:2.0,2.0;" x1="602.3057" x2="773.3286" y1="326.1641" y2="326.1641"/><text fill="#000000" font-family="sans-serif" font-size="13" lengthAdjust="spacing" textLength="62.9243" x="614.3057" y="321.0981">No match</text><polygon fill="#181818" points="420.8555,351.2969,410.8555,355.2969,420.8555,359.2969,416.8555,355.2969" style="stroke:#181818;stroke-width:1.0;"/><line style="stroke:#181818;stroke-width:1.0;stroke-dasharray:2.0,2.0;" x1="414.8555" x2="591.3057" y1="355.2969" y2="355.2969"/><text fill="#000000" font-family="sans-serif" font-size="13" lengthAdjust="spacing" textLength="120.2627" x="426.8555" y="350.231">No products found</text><polygon fill="#181818" points="104.188,380.4297,94.188,384.4297,104.188,388.4297,100.188,384.4297" style="stroke:#181818;stroke-width:1.0;"/><line style="stroke:#181818;stroke-width:1.0;" x1="98.188" x2="403.8555" y1="384.4297" y2="384.4297"/><text fill="#000000" font-family="sans-serif" font-size="13" lengthAdjust="spacing" textLength="282.6675" x="110.188" y="379.3638">"No products found matching your search."</text><!--SRC=[fLBBReCm4BpxArQSsaFw0HnwGBHIf10XeQZdnMmJIyIcjedalwyXZiCZKG_bOB7spExCsCYjql25cawgDrIWn2Dfrg6sWeiEfOMaS51grVJSmauO2uTj0cYWA7U7xHmPO1NfY-0qeigADMYnHaFn7FAmCoBoZB6b0DYyN_kdy26jhxl0b7Wc418CeUOdg54pv5PSq58GDAu3lwpI00jZCxVtx9TNrj224qkljgm6SfwbyDEJTd5oxSRXKx97nt_l0biB1Lf-4l9uenduLhri6FWlps0JTArW8s3QUAW7AVSWFaNhaw0cAchzPOoukQHPfwk_OIlciimwXLoOhaK7vuUgLcbHw-zohvx09ovlc6KRdzNVTZtvGOR_jPgisjvjEDNhy6BUaYVMPVCB]--></g></svg>