<svg xmlns="http://www.w3.org/2000/svg" xmlns:xlink="http://www.w3.org/1999/xlink" contentStyleType="text/css" height="519px" preserveAspectRatio="none" style="width:876px;height:519px;background:#FFFFFF;" version="1.1" viewBox="0 0 876 519" width="876px" zoomAndPan="magnify"><defs/><g><rect fill="#FFFFFF" height="29.1328" style="stroke:#181818;stroke-width:1.0;" width="10" x="372.793" y="112.4297"/><rect fill="#FFFFFF" height="58.2656" style="stroke:#181818;stroke-width:1.0;" width="10" x="372.793" y="253.0938"/><rect fill="#FFFFFF" height="29.1328" style="stroke:#181818;stroke-width:1.0;" width="10" x="372.793" y="384.4297"/><rect fill="#FFFFFF" height="29.1328" style="stroke:#181818;stroke-width:1.0;" width="10" x="567.0161" y="141.5625"/><rect fill="#FFFFFF" height="29.1328" style="stroke:#181818;stroke-width:1.0;" width="10" x="567.0161" y="223.9609"/><rect fill="#FFFFFF" height="29.1328" style="stroke:#181818;stroke-width:1.0;" width="10" x="567.0161" y="355.2969"/><rect fill="#FFFFFF" height="184.6016" style="stroke:#181818;stroke-width:1.0;" width="10" x="792.127" y="170.6953"/><rect fill="none" height="235.8672" style="stroke:#000000;stroke-width:1.5;" width="859.2715" x="10" y="185.6953"/><line style="stroke:#181818;stroke-width:0.5;stroke-dasharray:5.0,5.0;" x1="45" x2="45" y1="81.2969" y2="438.5625"/><line style="stroke:#181818;stroke-width:0.5;stroke-dasharray:5.0,5.0;" x1="377.3301" x2="377.3301" y1="81.2969" y2="438.5625"/><line style="stroke:#181818;stroke-width:0.5;stroke-dasharray:5.0,5.0;" x1="571.6265" x2="571.6265" y1="81.2969" y2="438.5625"/><line style="stroke:#181818;stroke-width:0.5;stroke-dasharray:5.0,5.0;" x1="796.9824" x2="796.9824" y1="81.2969" y2="438.5625"/><text fill="#000000" font-family="sans-serif" font-size="14" lengthAdjust="spacing" textLength="44.8643" x="20" y="77.9951">Admin</text><ellipse cx="45.4321" cy="13.5" fill="#E2E2F0" rx="8" ry="8" style="stroke:#181818;stroke-width:0.5;"/><path d="M45.4321,21.5 L45.4321,48.5 M32.4321,29.5 L58.4321,29.5 M45.4321,48.5 L32.4321,63.5 M45.4321,48.5 L58.4321,63.5 " fill="none" style="stroke:#181818;stroke-width:0.5;"/><text fill="#000000" font-family="sans-serif" font-size="14" lengthAdjust="spacing" textLength="44.8643" x="20" y="450.5576">Admin</text><ellipse cx="45.4321" cy="462.3594" fill="#E2E2F0" rx="8" ry="8" style="stroke:#181818;stroke-width:0.5;"/><path d="M45.4321,470.3594 L45.4321,497.3594 M32.4321,478.3594 L58.4321,478.3594 M45.4321,497.3594 L32.4321,512.3594 M45.4321,497.3594 L58.4321,512.3594 " fill="none" style="stroke:#181818;stroke-width:0.5;"/><rect fill="#E2E2F0" height="30.2969" rx="2.5" ry="2.5" style="stroke:#181818;stroke-width:0.5;" width="128.9258" x="313.3301" y="50"/><text fill="#000000" font-family="sans-serif" font-size="14" lengthAdjust="spacing" textLength="114.9258" x="320.3301" y="69.9951">Status Report UI</text><rect fill="#E2E2F0" height="30.2969" rx="2.5" ry="2.5" style="stroke:#181818;stroke-width:0.5;" width="128.9258" x="313.3301" y="437.5625"/><text fill="#000000" font-family="sans-serif" font-size="14" lengthAdjust="spacing" textLength="114.9258" x="320.3301" y="457.5576">Status Report UI</text><rect fill="#E2E2F0" height="30.2969" rx="2.5" ry="2.5" style="stroke:#181818;stroke-width:0.5;" width="112.7793" x="515.6265" y="50"/><text fill="#000000" font-family="sans-serif" font-size="14" lengthAdjust="spacing" textLength="98.7793" x="522.6265" y="69.9951">ReportService</text><rect fill="#E2E2F0" height="30.2969" rx="2.5" ry="2.5" style="stroke:#181818;stroke-width:0.5;" width="112.7793" x="515.6265" y="437.5625"/><text fill="#000000" font-family="sans-serif" font-size="14" lengthAdjust="spacing" textLength="98.7793" x="522.6265" y="457.5576">ReportService</text><text fill="#000000" font-family="sans-serif" font-size="14" lengthAdjust="spacing" textLength="118.2891" x="734.9824" y="77.9951">Report Database</text><path d="M779.127,29 C779.127,19 797.127,19 797.127,19 C797.127,19 815.127,19 815.127,29 L815.127,55 C815.127,65 797.127,65 797.127,65 C797.127,65 779.127,65 779.127,55 L779.127,29 " fill="#E2E2F0" style="stroke:#181818;stroke-width:1.5;"/><path d="M779.127,29 C779.127,39 797.127,39 797.127,39 C797.127,39 815.127,39 815.127,29 " fill="none" style="stroke:#181818;stroke-width:1.5;"/><text fill="#000000" font-family="sans-serif" font-size="14" lengthAdjust="spacing" textLength="118.2891" x="734.9824" y="450.5576">Report Database</text><path d="M779.127,463.8594 C779.127,453.8594 797.127,453.8594 797.127,453.8594 C797.127,453.8594 815.127,453.8594 815.127,463.8594 L815.127,489.8594 C815.127,499.8594 797.127,499.8594 797.127,499.8594 C797.127,499.8594 779.127,499.8594 779.127,489.8594 L779.127,463.8594 " fill="#E2E2F0" style="stroke:#181818;stroke-width:1.5;"/><path d="M779.127,463.8594 C779.127,473.8594 797.127,473.8594 797.127,473.8594 C797.127,473.8594 815.127,473.8594 815.127,463.8594 " fill="none" style="stroke:#181818;stroke-width:1.5;"/><rect fill="#FFFFFF" height="29.1328" style="stroke:#181818;stroke-width:1.0;" width="10" x="372.793" y="112.4297"/><rect fill="#FFFFFF" height="58.2656" style="stroke:#181818;stroke-width:1.0;" width="10" x="372.793" y="253.0938"/><rect fill="#FFFFFF" height="29.1328" style="stroke:#181818;stroke-width:1.0;" width="10" x="372.793" y="384.4297"/><rect fill="#FFFFFF" height="29.1328" style="stroke:#181818;stroke-width:1.0;" width="10" x="567.0161" y="141.5625"/><rect fill="#FFFFFF" height="29.1328" style="stroke:#181818;stroke-width:1.0;" width="10" x="567.0161" y="223.9609"/><rect fill="#FFFFFF" height="29.1328" style="stroke:#181818;stroke-width:1.0;" width="10" x="567.0161" y="355.2969"/><rect fill="#FFFFFF" height="184.6016" style="stroke:#181818;stroke-width:1.0;" width="10" x="792.127" y="170.6953"/><polygon fill="#181818" points="360.793,108.4297,370.793,112.4297,360.793,116.4297,364.793,112.4297" style="stroke:#181818;stroke-width:1.0;"/><line style="stroke:#181818;stroke-width:1.0;" x1="45.4321" x2="366.793" y1="112.4297" y2="112.4297"/><text fill="#000000" font-family="sans-serif" font-size="13" lengthAdjust="spacing" textLength="168.9238" x="52.4321" y="107.3638">Select date to view report</text><polygon fill="#181818" points="555.0161,137.5625,565.0161,141.5625,555.0161,145.5625,559.0161,141.5625" style="stroke:#181818;stroke-width:1.0;"/><line style="stroke:#181818;stroke-width:1.0;" x1="377.793" x2="561.0161" y1="141.5625" y2="141.5625"/><text fill="#000000" font-family="sans-serif" font-size="13" lengthAdjust="spacing" textLength="145.9072" x="384.793" y="136.4966">getStatusReport(date)</text><polygon fill="#181818" points="780.127,166.6953,790.127,170.6953,780.127,174.6953,784.127,170.6953" style="stroke:#181818;stroke-width:1.0;"/><line style="stroke:#181818;stroke-width:1.0;" x1="572.0161" x2="786.127" y1="170.6953" y2="170.6953"/><text fill="#000000" font-family="sans-serif" font-size="13" lengthAdjust="spacing" textLength="196.1108" x="579.0161" y="165.6294">query report for selected date</text><path d="M10,185.6953 L74.4429,185.6953 L74.4429,192.8281 L64.4429,202.8281 L10,202.8281 L10,185.6953 " fill="#EEEEEE" style="stroke:#000000;stroke-width:1.5;"/><rect fill="none" height="235.8672" style="stroke:#000000;stroke-width:1.5;" width="859.2715" x="10" y="185.6953"/><text fill="#000000" font-family="sans-serif" font-size="13" font-weight="bold" lengthAdjust="spacing" textLength="19.4429" x="25" y="198.7622">alt</text><text fill="#000000" font-family="sans-serif" font-size="11" font-weight="bold" lengthAdjust="spacing" textLength="142.9087" x="89.4429" y="197.9058">[Partial data available]</text><polygon fill="#181818" points="588.0161,219.9609,578.0161,223.9609,588.0161,227.9609,584.0161,223.9609" style="stroke:#181818;stroke-width:1.0;"/><line style="stroke:#181818;stroke-width:1.0;stroke-dasharray:2.0,2.0;" x1="582.0161" x2="791.127" y1="223.9609" y2="223.9609"/><text fill="#000000" font-family="sans-serif" font-size="13" lengthAdjust="spacing" textLength="118.9741" x="594.0161" y="218.895">Partial report data</text><polygon fill="#181818" points="393.793,249.0938,383.793,253.0938,393.793,257.0938,389.793,253.0938" style="stroke:#181818;stroke-width:1.0;"/><line style="stroke:#181818;stroke-width:1.0;stroke-dasharray:2.0,2.0;" x1="387.793" x2="571.0161" y1="253.0938" y2="253.0938"/><text fill="#000000" font-family="sans-serif" font-size="13" lengthAdjust="spacing" textLength="165.2231" x="399.793" y="248.0278">Report data with warning</text><polygon fill="#181818" points="56.4321,278.2266,46.4321,282.2266,56.4321,286.2266,52.4321,282.2266" style="stroke:#181818;stroke-width:1.0;"/><line style="stroke:#181818;stroke-width:1.0;" x1="50.4321" x2="371.793" y1="282.2266" y2="282.2266"/><text fill="#000000" font-family="sans-serif" font-size="13" lengthAdjust="spacing" textLength="303.3608" x="62.4321" y="277.1606">"Some data might be incomplete for this day."</text><polygon fill="#181818" points="56.4321,307.3594,46.4321,311.3594,56.4321,315.3594,52.4321,311.3594" style="stroke:#181818;stroke-width:1.0;"/><line style="stroke:#181818;stroke-width:1.0;" x1="50.4321" x2="376.793" y1="311.3594" y2="311.3594"/><text fill="#000000" font-family="sans-serif" font-size="13" lengthAdjust="spacing" textLength="182.1016" x="62.4321" y="306.2935">Display partial status report</text><line style="stroke:#000000;stroke-width:1.0;stroke-dasharray:2.0,2.0;" x1="10" x2="869.2715" y1="320.3594" y2="320.3594"/><text fill="#000000" font-family="sans-serif" font-size="11" font-weight="bold" lengthAdjust="spacing" textLength="160.6924" x="15" y="330.5698">[Complete data available]</text><polygon fill="#181818" points="588.0161,351.2969,578.0161,355.2969,588.0161,359.2969,584.0161,355.2969" style="stroke:#181818;stroke-width:1.0;"/><line style="stroke:#181818;stroke-width:1.0;stroke-dasharray:2.0,2.0;" x1="582.0161" x2="796.127" y1="355.2969" y2="355.2969"/><text fill="#000000" font-family="sans-serif" font-size="13" lengthAdjust="spacing" textLength="100.4771" x="594.0161" y="350.231">Full report data</text><polygon fill="#181818" points="393.793,380.4297,383.793,384.4297,393.793,388.4297,389.793,384.4297" style="stroke:#181818;stroke-width:1.0;"/><line style="stroke:#181818;stroke-width:1.0;stroke-dasharray:2.0,2.0;" x1="387.793" x2="571.0161" y1="384.4297" y2="384.4297"/><text fill="#000000" font-family="sans-serif" font-size="13" lengthAdjust="spacing" textLength="111.1411" x="399.793" y="379.3638">Full status report</text><polygon fill="#181818" points="56.4321,409.5625,46.4321,413.5625,56.4321,417.5625,52.4321,413.5625" style="stroke:#181818;stroke-width:1.0;"/><line style="stroke:#181818;stroke-width:1.0;" x1="50.4321" x2="376.793" y1="413.5625" y2="413.5625"/><text fill="#000000" font-family="sans-serif" font-size="13" lengthAdjust="spacing" textLength="160.291" x="62.4321" y="408.4966">Display full status report</text><!--SRC=[ZLBBReCm4BpxArOvjOVq0pXKQeegvLPXvGCsi05Bvb5x8ShVrrv34zggAGU4rpEpixDWoRs3bwerdHhGiIdDW1t3HZFowA6WeNSCX_q6q8Ck3lirBDrhSfCfIJ25LXKo7j7JSWtvN4Y0VAUKT8JjiqXceCbIoH281Dp3PEWCJhWAIpPJh4lp-8gqGcTG4oUNgSj3P3-gYjQChrCmLcZXvhiCFaPobxa7d486NYnG9IPkLGBl-XsyesLuZncWZLW4dD1OF5fI49u0WUtiS87DRI9QCBVQmj52ILaKLp2S3JTmHjUPhXRasjTAIwQDbIKZoJWBg-nRIdAjgHk68u7fohuTB0LQd9qRumFYyhJvJI0tVh1uWM6UngTVOzxFDrVYWcnO_klIuKv8RwFzcT3jd27pkw69o9_6_XlNCktfhc8QjQi-0G00]--></g></svg>