<svg xmlns="http://www.w3.org/2000/svg" xmlns:xlink="http://www.w3.org/1999/xlink" contentStyleType="text/css" height="356px" preserveAspectRatio="none" style="width:908px;height:356px;background:#FFFFFF;" version="1.1" viewBox="0 0 908 356" width="908px" zoomAndPan="magnify"><defs/><g><rect fill="#FFFFFF" height="29.1328" style="stroke:#181818;stroke-width:1.0;" width="10" x="346.5938" y="112.4297"/><rect fill="#FFFFFF" height="29.1328" style="stroke:#181818;stroke-width:1.0;" width="10" x="346.5938" y="228.9609"/><rect fill="#FFFFFF" height="29.1328" style="stroke:#181818;stroke-width:1.0;" width="10" x="623.8569" y="141.5625"/><rect fill="#FFFFFF" height="29.1328" style="stroke:#181818;stroke-width:1.0;" width="10" x="623.8569" y="199.8281"/><rect fill="#FFFFFF" height="29.1328" style="stroke:#181818;stroke-width:1.0;" width="10" x="841.8267" y="170.6953"/><line style="stroke:#181818;stroke-width:0.5;stroke-dasharray:5.0,5.0;" x1="78" x2="78" y1="81.2969" y2="276.0938"/><line style="stroke:#181818;stroke-width:0.5;stroke-dasharray:5.0,5.0;" x1="351.145" x2="351.145" y1="81.2969" y2="276.0938"/><line style="stroke:#181818;stroke-width:0.5;stroke-dasharray:5.0,5.0;" x1="628.6807" x2="628.6807" y1="81.2969" y2="276.0938"/><line style="stroke:#181818;stroke-width:0.5;stroke-dasharray:5.0,5.0;" x1="845.8955" x2="845.8955" y1="81.2969" y2="276.0938"/><text fill="#000000" font-family="sans-serif" font-size="14" lengthAdjust="spacing" textLength="140.376" x="5" y="77.9951">WarehouseManager</text><ellipse cx="78.188" cy="13.5" fill="#E2E2F0" rx="8" ry="8" style="stroke:#181818;stroke-width:0.5;"/><path d="M78.188,21.5 L78.188,48.5 M65.188,29.5 L91.188,29.5 M78.188,48.5 L65.188,63.5 M78.188,48.5 L91.188,63.5 " fill="none" style="stroke:#181818;stroke-width:0.5;"/><text fill="#000000" font-family="sans-serif" font-size="14" lengthAdjust="spacing" textLength="140.376" x="5" y="288.0889">WarehouseManager</text><ellipse cx="78.188" cy="299.8906" fill="#E2E2F0" rx="8" ry="8" style="stroke:#181818;stroke-width:0.5;"/><path d="M78.188,307.8906 L78.188,334.8906 M65.188,315.8906 L91.188,315.8906 M78.188,334.8906 L65.188,349.8906 M78.188,334.8906 L91.188,349.8906 " fill="none" style="stroke:#181818;stroke-width:0.5;"/><rect fill="#E2E2F0" height="30.2969" rx="2.5" ry="2.5" style="stroke:#181818;stroke-width:0.5;" width="160.8975" x="271.145" y="50"/><text fill="#000000" font-family="sans-serif" font-size="14" lengthAdjust="spacing" textLength="146.8975" x="278.145" y="69.9951">Warehouse Status UI</text><rect fill="#E2E2F0" height="30.2969" rx="2.5" ry="2.5" style="stroke:#181818;stroke-width:0.5;" width="160.8975" x="271.145" y="275.0938"/><text fill="#000000" font-family="sans-serif" font-size="14" lengthAdjust="spacing" textLength="146.8975" x="278.145" y="295.0889">Warehouse Status UI</text><rect fill="#E2E2F0" height="30.2969" rx="2.5" ry="2.5" style="stroke:#181818;stroke-width:0.5;" width="110.3525" x="573.6807" y="50"/><text fill="#000000" font-family="sans-serif" font-size="14" lengthAdjust="spacing" textLength="96.3525" x="580.6807" y="69.9951">StatusService</text><rect fill="#E2E2F0" height="30.2969" rx="2.5" ry="2.5" style="stroke:#181818;stroke-width:0.5;" width="110.3525" x="573.6807" y="275.0938"/><text fill="#000000" font-family="sans-serif" font-size="14" lengthAdjust="spacing" textLength="96.3525" x="580.6807" y="295.0889">StatusService</text><text fill="#000000" font-family="sans-serif" font-size="14" lengthAdjust="spacing" textLength="115.8623" x="785.8955" y="77.9951">Status Database</text><path d="M828.8267,29 C828.8267,19 846.8267,19 846.8267,19 C846.8267,19 864.8267,19 864.8267,29 L864.8267,55 C864.8267,65 846.8267,65 846.8267,65 C846.8267,65 828.8267,65 828.8267,55 L828.8267,29 " fill="#E2E2F0" style="stroke:#181818;stroke-width:1.5;"/><path d="M828.8267,29 C828.8267,39 846.8267,39 846.8267,39 C846.8267,39 864.8267,39 864.8267,29 " fill="none" style="stroke:#181818;stroke-width:1.5;"/><text fill="#000000" font-family="sans-serif" font-size="14" lengthAdjust="spacing" textLength="115.8623" x="785.8955" y="288.0889">Status Database</text><path d="M828.8267,301.3906 C828.8267,291.3906 846.8267,291.3906 846.8267,291.3906 C846.8267,291.3906 864.8267,291.3906 864.8267,301.3906 L864.8267,327.3906 C864.8267,337.3906 846.8267,337.3906 846.8267,337.3906 C846.8267,337.3906 828.8267,337.3906 828.8267,327.3906 L828.8267,301.3906 " fill="#E2E2F0" style="stroke:#181818;stroke-width:1.5;"/><path d="M828.8267,301.3906 C828.8267,311.3906 846.8267,311.3906 846.8267,311.3906 C846.8267,311.3906 864.8267,311.3906 864.8267,301.3906 " fill="none" style="stroke:#181818;stroke-width:1.5;"/><rect fill="#FFFFFF" height="29.1328" style="stroke:#181818;stroke-width:1.0;" width="10" x="346.5938" y="112.4297"/><rect fill="#FFFFFF" height="29.1328" style="stroke:#181818;stroke-width:1.0;" width="10" x="346.5938" y="228.9609"/><rect fill="#FFFFFF" height="29.1328" style="stroke:#181818;stroke-width:1.0;" width="10" x="623.8569" y="141.5625"/><rect fill="#FFFFFF" height="29.1328" style="stroke:#181818;stroke-width:1.0;" width="10" x="623.8569" y="199.8281"/><rect fill="#FFFFFF" height="29.1328" style="stroke:#181818;stroke-width:1.0;" width="10" x="841.8267" y="170.6953"/><polygon fill="#181818" points="334.5938,108.4297,344.5938,112.4297,334.5938,116.4297,338.5938,112.4297" style="stroke:#181818;stroke-width:1.0;"/><line style="stroke:#181818;stroke-width:1.0;" x1="78.188" x2="340.5938" y1="112.4297" y2="112.4297"/><text fill="#000000" font-family="sans-serif" font-size="13" lengthAdjust="spacing" textLength="249.4058" x="85.188" y="107.3638">Select specific date and update status</text><polygon fill="#181818" points="611.8569,137.5625,621.8569,141.5625,611.8569,145.5625,615.8569,141.5625" style="stroke:#181818;stroke-width:1.0;"/><line style="stroke:#181818;stroke-width:1.0;" x1="351.5938" x2="617.8569" y1="141.5625" y2="141.5625"/><text fill="#000000" font-family="sans-serif" font-size="13" lengthAdjust="spacing" textLength="248.2632" x="358.5938" y="136.4966">updateWarehouseStatus(date, status)</text><polygon fill="#181818" points="829.8267,166.6953,839.8267,170.6953,829.8267,174.6953,833.8267,170.6953" style="stroke:#181818;stroke-width:1.0;"/><line style="stroke:#181818;stroke-width:1.0;" x1="628.8569" x2="835.8267" y1="170.6953" y2="170.6953"/><text fill="#000000" font-family="sans-serif" font-size="13" lengthAdjust="spacing" textLength="188.9697" x="635.8569" y="165.6294">save status for selected date</text><polygon fill="#181818" points="644.8569,195.8281,634.8569,199.8281,644.8569,203.8281,640.8569,199.8281" style="stroke:#181818;stroke-width:1.0;"/><line style="stroke:#181818;stroke-width:1.0;stroke-dasharray:2.0,2.0;" x1="638.8569" x2="845.8267" y1="199.8281" y2="199.8281"/><text fill="#000000" font-family="sans-serif" font-size="13" lengthAdjust="spacing" textLength="187.8906" x="650.8569" y="194.7622">Confirmation of saved status</text><polygon fill="#181818" points="367.5938,224.9609,357.5938,228.9609,367.5938,232.9609,363.5938,228.9609" style="stroke:#181818;stroke-width:1.0;"/><line style="stroke:#181818;stroke-width:1.0;stroke-dasharray:2.0,2.0;" x1="361.5938" x2="627.8569" y1="228.9609" y2="228.9609"/><text fill="#000000" font-family="sans-serif" font-size="13" lengthAdjust="spacing" textLength="208.9014" x="373.5938" y="223.895">Status update success message</text><polygon fill="#181818" points="89.188,254.0938,79.188,258.0938,89.188,262.0938,85.188,258.0938" style="stroke:#181818;stroke-width:1.0;"/><line style="stroke:#181818;stroke-width:1.0;" x1="83.188" x2="350.5938" y1="258.0938" y2="258.0938"/><text fill="#000000" font-family="sans-serif" font-size="13" lengthAdjust="spacing" textLength="183.0474" x="95.188" y="253.0278">"Status saved successfully."</text><!--SRC=[TP6_RiCW4CPtdkBaAPMQF8273gcN39rEKUOB72sIWot-MEhR5mDsOaiTZ82xxxiVdqc6mS6D7FyCqVCNMVfc9qPomKWpaWtGh5N0G25wk5uQ80ytl5wsdQMEx2OZEVSW2aM1xfJKjGnTlIWDtLc8_NmuVcJt5f1xbW7yoD9e8o6PCP1L4CUyzTbIa0ncci-PQLvc2yIszgq32i9XldkluZUXUAjVJuaUCJjrvnOyJSj0q2ardzbOPQXNaoHxxjFxqWV7olCvM6tSWu8PB0mwcwhb6QyUIRVdUAPI89OCefJiFJpIajBxZsGJpJxnTlqx5QXuwjZtlwTcdz0V]--></g></svg>