<svg xmlns="http://www.w3.org/2000/svg" xmlns:xlink="http://www.w3.org/1999/xlink" contentStyleType="text/css" height="490px" preserveAspectRatio="none" style="width:1136px;height:490px;background:#FFFFFF;" version="1.1" viewBox="0 0 1136 490" width="1136px" zoomAndPan="magnify"><defs/><g><rect fill="#FFFFFF" height="29.1328" style="stroke:#181818;stroke-width:1.0;" width="10" x="387.1094" y="112.4297"/><rect fill="#FFFFFF" height="29.1328" style="stroke:#181818;stroke-width:1.0;" width="10" x="387.1094" y="253.0938"/><rect fill="#FFFFFF" height="29.1328" style="stroke:#181818;stroke-width:1.0;" width="10" x="387.1094" y="355.2969"/><rect fill="#FFFFFF" height="29.1328" style="stroke:#181818;stroke-width:1.0;" width="10" x="828.0024" y="141.5625"/><rect fill="#FFFFFF" height="29.1328" style="stroke:#181818;stroke-width:1.0;" width="10" x="828.0024" y="223.9609"/><rect fill="#FFFFFF" height="29.1328" style="stroke:#181818;stroke-width:1.0;" width="10" x="828.0024" y="326.1641"/><rect fill="#FFFFFF" height="155.4688" style="stroke:#181818;stroke-width:1.0;" width="10" x="1053.0688" y="170.6953"/><rect fill="none" height="206.7344" style="stroke:#000000;stroke-width:1.5;" width="1119" x="10" y="185.6953"/><line style="stroke:#181818;stroke-width:0.5;stroke-dasharray:5.0,5.0;" x1="93" x2="93" y1="81.2969" y2="409.4297"/><line style="stroke:#181818;stroke-width:0.5;stroke-dasharray:5.0,5.0;" x1="391.6606" x2="391.6606" y1="81.2969" y2="409.4297"/><line style="stroke:#181818;stroke-width:0.5;stroke-dasharray:5.0,5.0;" x1="832.8262" x2="832.8262" y1="81.2969" y2="409.4297"/><line style="stroke:#181818;stroke-width:0.5;stroke-dasharray:5.0,5.0;" x1="1057.1377" x2="1057.1377" y1="81.2969" y2="409.4297"/><text fill="#000000" font-family="sans-serif" font-size="14" lengthAdjust="spacing" textLength="140.376" x="20" y="77.9951">WarehouseManager</text><ellipse cx="93.188" cy="13.5" fill="#E2E2F0" rx="8" ry="8" style="stroke:#181818;stroke-width:0.5;"/><path d="M93.188,21.5 L93.188,48.5 M80.188,29.5 L106.188,29.5 M93.188,48.5 L80.188,63.5 M93.188,48.5 L106.188,63.5 " fill="none" style="stroke:#181818;stroke-width:0.5;"/><text fill="#000000" font-family="sans-serif" font-size="14" lengthAdjust="spacing" textLength="140.376" x="20" y="421.4248">WarehouseManager</text><ellipse cx="93.188" cy="433.2266" fill="#E2E2F0" rx="8" ry="8" style="stroke:#181818;stroke-width:0.5;"/><path d="M93.188,441.2266 L93.188,468.2266 M80.188,449.2266 L106.188,449.2266 M93.188,468.2266 L80.188,483.2266 M93.188,468.2266 L106.188,483.2266 " fill="none" style="stroke:#181818;stroke-width:0.5;"/><rect fill="#E2E2F0" height="30.2969" rx="2.5" ry="2.5" style="stroke:#181818;stroke-width:0.5;" width="160.8975" x="311.6606" y="50"/><text fill="#000000" font-family="sans-serif" font-size="14" lengthAdjust="spacing" textLength="146.8975" x="318.6606" y="69.9951">Warehouse Status UI</text><rect fill="#E2E2F0" height="30.2969" rx="2.5" ry="2.5" style="stroke:#181818;stroke-width:0.5;" width="160.8975" x="311.6606" y="408.4297"/><text fill="#000000" font-family="sans-serif" font-size="14" lengthAdjust="spacing" textLength="146.8975" x="318.6606" y="428.4248">Warehouse Status UI</text><rect fill="#E2E2F0" height="30.2969" rx="2.5" ry="2.5" style="stroke:#181818;stroke-width:0.5;" width="110.3525" x="777.8262" y="50"/><text fill="#000000" font-family="sans-serif" font-size="14" lengthAdjust="spacing" textLength="96.3525" x="784.8262" y="69.9951">StatusService</text><rect fill="#E2E2F0" height="30.2969" rx="2.5" ry="2.5" style="stroke:#181818;stroke-width:0.5;" width="110.3525" x="777.8262" y="408.4297"/><text fill="#000000" font-family="sans-serif" font-size="14" lengthAdjust="spacing" textLength="96.3525" x="784.8262" y="428.4248">StatusService</text><text fill="#000000" font-family="sans-serif" font-size="14" lengthAdjust="spacing" textLength="115.8623" x="997.1377" y="77.9951">Status Database</text><path d="M1040.0688,29 C1040.0688,19 1058.0688,19 1058.0688,19 C1058.0688,19 1076.0688,19 1076.0688,29 L1076.0688,55 C1076.0688,65 1058.0688,65 1058.0688,65 C1058.0688,65 1040.0688,65 1040.0688,55 L1040.0688,29 " fill="#E2E2F0" style="stroke:#181818;stroke-width:1.5;"/><path d="M1040.0688,29 C1040.0688,39 1058.0688,39 1058.0688,39 C1058.0688,39 1076.0688,39 1076.0688,29 " fill="none" style="stroke:#181818;stroke-width:1.5;"/><text fill="#000000" font-family="sans-serif" font-size="14" lengthAdjust="spacing" textLength="115.8623" x="997.1377" y="421.4248">Status Database</text><path d="M1040.0688,434.7266 C1040.0688,424.7266 1058.0688,424.7266 1058.0688,424.7266 C1058.0688,424.7266 1076.0688,424.7266 1076.0688,434.7266 L1076.0688,460.7266 C1076.0688,470.7266 1058.0688,470.7266 1058.0688,470.7266 C1058.0688,470.7266 1040.0688,470.7266 1040.0688,460.7266 L1040.0688,434.7266 " fill="#E2E2F0" style="stroke:#181818;stroke-width:1.5;"/><path d="M1040.0688,434.7266 C1040.0688,444.7266 1058.0688,444.7266 1058.0688,444.7266 C1058.0688,444.7266 1076.0688,444.7266 1076.0688,434.7266 " fill="none" style="stroke:#181818;stroke-width:1.5;"/><rect fill="#FFFFFF" height="29.1328" style="stroke:#181818;stroke-width:1.0;" width="10" x="387.1094" y="112.4297"/><rect fill="#FFFFFF" height="29.1328" style="stroke:#181818;stroke-width:1.0;" width="10" x="387.1094" y="253.0938"/><rect fill="#FFFFFF" height="29.1328" style="stroke:#181818;stroke-width:1.0;" width="10" x="387.1094" y="355.2969"/><rect fill="#FFFFFF" height="29.1328" style="stroke:#181818;stroke-width:1.0;" width="10" x="828.0024" y="141.5625"/><rect fill="#FFFFFF" height="29.1328" style="stroke:#181818;stroke-width:1.0;" width="10" x="828.0024" y="223.9609"/><rect fill="#FFFFFF" height="29.1328" style="stroke:#181818;stroke-width:1.0;" width="10" x="828.0024" y="326.1641"/><rect fill="#FFFFFF" height="155.4688" style="stroke:#181818;stroke-width:1.0;" width="10" x="1053.0688" y="170.6953"/><polygon fill="#181818" points="375.1094,108.4297,385.1094,112.4297,375.1094,116.4297,379.1094,112.4297" style="stroke:#181818;stroke-width:1.0;"/><line style="stroke:#181818;stroke-width:1.0;" x1="93.188" x2="381.1094" y1="112.4297" y2="112.4297"/><text fill="#000000" font-family="sans-serif" font-size="13" lengthAdjust="spacing" textLength="222.1299" x="100.188" y="107.3638">Select specific date to view status</text><polygon fill="#181818" points="816.0024,137.5625,826.0024,141.5625,816.0024,145.5625,820.0024,141.5625" style="stroke:#181818;stroke-width:1.0;"/><line style="stroke:#181818;stroke-width:1.0;" x1="392.1094" x2="822.0024" y1="141.5625" y2="141.5625"/><text fill="#000000" font-family="sans-serif" font-size="13" lengthAdjust="spacing" textLength="145.9072" x="399.1094" y="136.4966">getStatusReport(date)</text><polygon fill="#181818" points="1041.0688,166.6953,1051.0688,170.6953,1041.0688,174.6953,1045.0688,170.6953" style="stroke:#181818;stroke-width:1.0;"/><line style="stroke:#181818;stroke-width:1.0;" x1="833.0024" x2="1047.0688" y1="170.6953" y2="170.6953"/><text fill="#000000" font-family="sans-serif" font-size="13" lengthAdjust="spacing" textLength="196.0664" x="840.0024" y="165.6294">query status for selected date</text><path d="M10,185.6953 L74.4429,185.6953 L74.4429,192.8281 L64.4429,202.8281 L10,202.8281 L10,185.6953 " fill="#EEEEEE" style="stroke:#000000;stroke-width:1.5;"/><rect fill="none" height="206.7344" style="stroke:#000000;stroke-width:1.5;" width="1119" x="10" y="185.6953"/><text fill="#000000" font-family="sans-serif" font-size="13" font-weight="bold" lengthAdjust="spacing" textLength="19.4429" x="25" y="198.7622">alt</text><text fill="#000000" font-family="sans-serif" font-size="11" font-weight="bold" lengthAdjust="spacing" textLength="99.2041" x="89.4429" y="197.9058">[Data available]</text><polygon fill="#181818" points="849.0024,219.9609,839.0024,223.9609,849.0024,227.9609,845.0024,223.9609" style="stroke:#181818;stroke-width:1.0;"/><line style="stroke:#181818;stroke-width:1.0;stroke-dasharray:2.0,2.0;" x1="843.0024" x2="1052.0688" y1="223.9609" y2="223.9609"/><text fill="#000000" font-family="sans-serif" font-size="13" lengthAdjust="spacing" textLength="74.8389" x="855.0024" y="218.895">Status data</text><polygon fill="#181818" points="408.1094,249.0938,398.1094,253.0938,408.1094,257.0938,404.1094,253.0938" style="stroke:#181818;stroke-width:1.0;"/><line style="stroke:#181818;stroke-width:1.0;stroke-dasharray:2.0,2.0;" x1="402.1094" x2="832.0024" y1="253.0938" y2="253.0938"/><text fill="#000000" font-family="sans-serif" font-size="13" lengthAdjust="spacing" textLength="411.8931" x="414.1094" y="248.0278">Status report (current orders, pending orders, inventory levels)</text><polygon fill="#181818" points="104.188,278.2266,94.188,282.2266,104.188,286.2266,100.188,282.2266" style="stroke:#181818;stroke-width:1.0;"/><line style="stroke:#181818;stroke-width:1.0;" x1="98.188" x2="391.1094" y1="282.2266" y2="282.2266"/><text fill="#000000" font-family="sans-serif" font-size="13" lengthAdjust="spacing" textLength="136.1191" x="110.188" y="277.1606">Display status report</text><line style="stroke:#000000;stroke-width:1.0;stroke-dasharray:2.0,2.0;" x1="10" x2="1129" y1="291.2266" y2="291.2266"/><text fill="#000000" font-family="sans-serif" font-size="11" font-weight="bold" lengthAdjust="spacing" textLength="118.54" x="15" y="301.437">[No data available]</text><polygon fill="#181818" points="849.0024,322.1641,839.0024,326.1641,849.0024,330.1641,845.0024,326.1641" style="stroke:#181818;stroke-width:1.0;"/><line style="stroke:#181818;stroke-width:1.0;stroke-dasharray:2.0,2.0;" x1="843.0024" x2="1057.0688" y1="326.1641" y2="326.1641"/><text fill="#000000" font-family="sans-serif" font-size="13" lengthAdjust="spacing" textLength="92.4854" x="855.0024" y="321.0981">No data found</text><polygon fill="#181818" points="408.1094,351.2969,398.1094,355.2969,408.1094,359.2969,404.1094,355.2969" style="stroke:#181818;stroke-width:1.0;"/><line style="stroke:#181818;stroke-width:1.0;stroke-dasharray:2.0,2.0;" x1="402.1094" x2="832.0024" y1="355.2969" y2="355.2969"/><text fill="#000000" font-family="sans-serif" font-size="13" lengthAdjust="spacing" textLength="94.7578" x="414.1094" y="350.231">Error message</text><polygon fill="#181818" points="104.188,380.4297,94.188,384.4297,104.188,388.4297,100.188,384.4297" style="stroke:#181818;stroke-width:1.0;"/><line style="stroke:#181818;stroke-width:1.0;" x1="98.188" x2="391.1094" y1="384.4297" y2="384.4297"/><text fill="#000000" font-family="sans-serif" font-size="13" lengthAdjust="spacing" textLength="269.9214" x="110.188" y="379.3638">"No data available for the selected date."</text><!--SRC=[hL4nRiCm3Dpr2i9J0ZHzW8SEWJjaQ8OAGMP6OX81hkHAiel-lZJjk75Ij4iz29PuTpmUqUGGOO-Hpg5Dz88UJnHLWp4xunhq6Ogf2ZfZRXFiDWLWWhtURUR8eQufTiwGOBHM5ZCUaDbZ6QhnOG1KQwLk-yFgITHBq5IJoP0QCkxe3B0OGGxGEVg097eAJNPT_ow6-gFdQrt2YVBGyvMQ4FEYPo-LfJbZkh5PhOLRhKjuRob-ZZtWo2abyK9MJ5ohCE_xd-V1EikGW1sw6WyrAU2FIx0QdOrHzDb8xLfBi5gWOmW3ECeGi31jZCHnXsWffWTeo5ldJzFT-OxBWStNr56Tbg8uzplhAIdqBvViRlTHGkLIK-CKns3bLbTqk271DiXelmHmGHn3w-sTGGxnprIUO-Ibl55ARF4VHYpkJClMyvdcctyiVfxRsoy0]--></g></svg>