<svg xmlns="http://www.w3.org/2000/svg" xmlns:xlink="http://www.w3.org/1999/xlink" contentStyleType="text/css" height="490px" preserveAspectRatio="none" style="width:948px;height:490px;background:#FFFFFF;" version="1.1" viewBox="0 0 948 490" width="948px" zoomAndPan="magnify"><defs/><g><rect fill="#FFFFFF" height="29.1328" style="stroke:#181818;stroke-width:1.0;" width="10" x="496.6826" y="112.4297"/><rect fill="#FFFFFF" height="29.1328" style="stroke:#181818;stroke-width:1.0;" width="10" x="496.6826" y="253.0938"/><rect fill="#FFFFFF" height="29.1328" style="stroke:#181818;stroke-width:1.0;" width="10" x="496.6826" y="355.2969"/><rect fill="#FFFFFF" height="29.1328" style="stroke:#181818;stroke-width:1.0;" width="10" x="688.5063" y="141.5625"/><rect fill="#FFFFFF" height="29.1328" style="stroke:#181818;stroke-width:1.0;" width="10" x="688.5063" y="223.9609"/><rect fill="#FFFFFF" height="29.1328" style="stroke:#181818;stroke-width:1.0;" width="10" x="688.5063" y="326.1641"/><rect fill="#FFFFFF" height="155.4688" style="stroke:#181818;stroke-width:1.0;" width="10" x="854.4507" y="170.6953"/><rect fill="none" height="206.7344" style="stroke:#000000;stroke-width:1.5;" width="931.5107" x="10" y="185.6953"/><line style="stroke:#181818;stroke-width:0.5;stroke-dasharray:5.0,5.0;" x1="93" x2="93" y1="81.2969" y2="409.4297"/><line style="stroke:#181818;stroke-width:0.5;stroke-dasharray:5.0,5.0;" x1="501.4761" x2="501.4761" y1="81.2969" y2="409.4297"/><line style="stroke:#181818;stroke-width:0.5;stroke-dasharray:5.0,5.0;" x1="693.2012" x2="693.2012" y1="81.2969" y2="409.4297"/><line style="stroke:#181818;stroke-width:0.5;stroke-dasharray:5.0,5.0;" x1="859.3906" x2="859.3906" y1="81.2969" y2="409.4297"/><text fill="#000000" font-family="sans-serif" font-size="14" lengthAdjust="spacing" textLength="140.376" x="20" y="77.9951">WarehouseManager</text><ellipse cx="93.188" cy="13.5" fill="#E2E2F0" rx="8" ry="8" style="stroke:#181818;stroke-width:0.5;"/><path d="M93.188,21.5 L93.188,48.5 M80.188,29.5 L106.188,29.5 M93.188,48.5 L80.188,63.5 M93.188,48.5 L106.188,63.5 " fill="none" style="stroke:#181818;stroke-width:0.5;"/><text fill="#000000" font-family="sans-serif" font-size="14" lengthAdjust="spacing" textLength="140.376" x="20" y="421.4248">WarehouseManager</text><ellipse cx="93.188" cy="433.2266" fill="#E2E2F0" rx="8" ry="8" style="stroke:#181818;stroke-width:0.5;"/><path d="M93.188,441.2266 L93.188,468.2266 M80.188,449.2266 L106.188,449.2266 M93.188,468.2266 L80.188,483.2266 M93.188,468.2266 L106.188,483.2266 " fill="none" style="stroke:#181818;stroke-width:0.5;"/><rect fill="#E2E2F0" height="30.2969" rx="2.5" ry="2.5" style="stroke:#181818;stroke-width:0.5;" width="142.4131" x="430.4761" y="50"/><text fill="#000000" font-family="sans-serif" font-size="14" lengthAdjust="spacing" textLength="128.4131" x="437.4761" y="69.9951">Asset Inventory UI</text><rect fill="#E2E2F0" height="30.2969" rx="2.5" ry="2.5" style="stroke:#181818;stroke-width:0.5;" width="142.4131" x="430.4761" y="408.4297"/><text fill="#000000" font-family="sans-serif" font-size="14" lengthAdjust="spacing" textLength="128.4131" x="437.4761" y="428.4248">Asset Inventory UI</text><rect fill="#E2E2F0" height="30.2969" rx="2.5" ry="2.5" style="stroke:#181818;stroke-width:0.5;" width="132.6104" x="627.2012" y="50"/><text fill="#000000" font-family="sans-serif" font-size="14" lengthAdjust="spacing" textLength="118.6104" x="634.2012" y="69.9951">InventoryService</text><rect fill="#E2E2F0" height="30.2969" rx="2.5" ry="2.5" style="stroke:#181818;stroke-width:0.5;" width="132.6104" x="627.2012" y="408.4297"/><text fill="#000000" font-family="sans-serif" font-size="14" lengthAdjust="spacing" textLength="118.6104" x="634.2012" y="428.4248">InventoryService</text><text fill="#000000" font-family="sans-serif" font-size="14" lengthAdjust="spacing" textLength="138.1201" x="787.3906" y="77.9951">Inventory Database</text><path d="M841.4507,29 C841.4507,19 859.4507,19 859.4507,19 C859.4507,19 877.4507,19 877.4507,29 L877.4507,55 C877.4507,65 859.4507,65 859.4507,65 C859.4507,65 841.4507,65 841.4507,55 L841.4507,29 " fill="#E2E2F0" style="stroke:#181818;stroke-width:1.5;"/><path d="M841.4507,29 C841.4507,39 859.4507,39 859.4507,39 C859.4507,39 877.4507,39 877.4507,29 " fill="none" style="stroke:#181818;stroke-width:1.5;"/><text fill="#000000" font-family="sans-serif" font-size="14" lengthAdjust="spacing" textLength="138.1201" x="787.3906" y="421.4248">Inventory Database</text><path d="M841.4507,434.7266 C841.4507,424.7266 859.4507,424.7266 859.4507,424.7266 C859.4507,424.7266 877.4507,424.7266 877.4507,434.7266 L877.4507,460.7266 C877.4507,470.7266 859.4507,470.7266 859.4507,470.7266 C859.4507,470.7266 841.4507,470.7266 841.4507,460.7266 L841.4507,434.7266 " fill="#E2E2F0" style="stroke:#181818;stroke-width:1.5;"/><path d="M841.4507,434.7266 C841.4507,444.7266 859.4507,444.7266 859.4507,444.7266 C859.4507,444.7266 877.4507,444.7266 877.4507,434.7266 " fill="none" style="stroke:#181818;stroke-width:1.5;"/><rect fill="#FFFFFF" height="29.1328" style="stroke:#181818;stroke-width:1.0;" width="10" x="496.6826" y="112.4297"/><rect fill="#FFFFFF" height="29.1328" style="stroke:#181818;stroke-width:1.0;" width="10" x="496.6826" y="253.0938"/><rect fill="#FFFFFF" height="29.1328" style="stroke:#181818;stroke-width:1.0;" width="10" x="496.6826" y="355.2969"/><rect fill="#FFFFFF" height="29.1328" style="stroke:#181818;stroke-width:1.0;" width="10" x="688.5063" y="141.5625"/><rect fill="#FFFFFF" height="29.1328" style="stroke:#181818;stroke-width:1.0;" width="10" x="688.5063" y="223.9609"/><rect fill="#FFFFFF" height="29.1328" style="stroke:#181818;stroke-width:1.0;" width="10" x="688.5063" y="326.1641"/><rect fill="#FFFFFF" height="155.4688" style="stroke:#181818;stroke-width:1.0;" width="10" x="854.4507" y="170.6953"/><polygon fill="#181818" points="484.6826,108.4297,494.6826,112.4297,484.6826,116.4297,488.6826,112.4297" style="stroke:#181818;stroke-width:1.0;"/><line style="stroke:#181818;stroke-width:1.0;" x1="93.188" x2="490.6826" y1="112.4297" y2="112.4297"/><text fill="#000000" font-family="sans-serif" font-size="13" lengthAdjust="spacing" textLength="215.1919" x="100.188" y="107.3638">Select "Asset Inventory" function</text><polygon fill="#181818" points="676.5063,137.5625,686.5063,141.5625,676.5063,145.5625,680.5063,141.5625" style="stroke:#181818;stroke-width:1.0;"/><line style="stroke:#181818;stroke-width:1.0;" x1="501.6826" x2="682.5063" y1="141.5625" y2="141.5625"/><text fill="#000000" font-family="sans-serif" font-size="13" lengthAdjust="spacing" textLength="158.8564" x="508.6826" y="136.4966">retrieveAssetInventory()</text><polygon fill="#181818" points="842.4507,166.6953,852.4507,170.6953,842.4507,174.6953,846.4507,170.6953" style="stroke:#181818;stroke-width:1.0;"/><line style="stroke:#181818;stroke-width:1.0;" x1="693.5063" x2="848.4507" y1="170.6953" y2="170.6953"/><text fill="#000000" font-family="sans-serif" font-size="13" lengthAdjust="spacing" textLength="136.9443" x="700.5063" y="165.6294">query inventory data</text><path d="M10,185.6953 L74.4429,185.6953 L74.4429,192.8281 L64.4429,202.8281 L10,202.8281 L10,185.6953 " fill="#EEEEEE" style="stroke:#000000;stroke-width:1.5;"/><rect fill="none" height="206.7344" style="stroke:#000000;stroke-width:1.5;" width="931.5107" x="10" y="185.6953"/><text fill="#000000" font-family="sans-serif" font-size="13" font-weight="bold" lengthAdjust="spacing" textLength="19.4429" x="25" y="198.7622">alt</text><text fill="#000000" font-family="sans-serif" font-size="11" font-weight="bold" lengthAdjust="spacing" textLength="164.5918" x="89.4429" y="197.9058">[Successful data retrieval]</text><polygon fill="#181818" points="709.5063,219.9609,699.5063,223.9609,709.5063,227.9609,705.5063,223.9609" style="stroke:#181818;stroke-width:1.0;"/><line style="stroke:#181818;stroke-width:1.0;stroke-dasharray:2.0,2.0;" x1="703.5063" x2="853.4507" y1="223.9609" y2="223.9609"/><text fill="#000000" font-family="sans-serif" font-size="13" lengthAdjust="spacing" textLength="95.5068" x="715.5063" y="218.895">Inventory data</text><polygon fill="#181818" points="517.6826,249.0938,507.6826,253.0938,517.6826,257.0938,513.6826,253.0938" style="stroke:#181818;stroke-width:1.0;"/><line style="stroke:#181818;stroke-width:1.0;stroke-dasharray:2.0,2.0;" x1="511.6826" x2="692.5063" y1="253.0938" y2="253.0938"/><text fill="#000000" font-family="sans-serif" font-size="13" lengthAdjust="spacing" textLength="162.8237" x="523.6826" y="248.0278">Asset inventory checklist</text><polygon fill="#181818" points="104.188,278.2266,94.188,282.2266,104.188,286.2266,100.188,282.2266" style="stroke:#181818;stroke-width:1.0;"/><line style="stroke:#181818;stroke-width:1.0;" x1="98.188" x2="500.6826" y1="282.2266" y2="282.2266"/><text fill="#000000" font-family="sans-serif" font-size="13" lengthAdjust="spacing" textLength="379.4946" x="110.188" y="277.1606">Display inventory checklist (with note and reason options)</text><line style="stroke:#000000;stroke-width:1.0;stroke-dasharray:2.0,2.0;" x1="10" x2="941.5107" y1="291.2266" y2="291.2266"/><text fill="#000000" font-family="sans-serif" font-size="11" font-weight="bold" lengthAdjust="spacing" textLength="126.4087" x="15" y="301.437">[Data retrieval fails]</text><polygon fill="#181818" points="709.5063,322.1641,699.5063,326.1641,709.5063,330.1641,705.5063,326.1641" style="stroke:#181818;stroke-width:1.0;"/><line style="stroke:#181818;stroke-width:1.0;stroke-dasharray:2.0,2.0;" x1="703.5063" x2="858.4507" y1="326.1641" y2="326.1641"/><text fill="#000000" font-family="sans-serif" font-size="13" lengthAdjust="spacing" textLength="32.2017" x="715.5063" y="321.0981">Error</text><polygon fill="#181818" points="517.6826,351.2969,507.6826,355.2969,517.6826,359.2969,513.6826,355.2969" style="stroke:#181818;stroke-width:1.0;"/><line style="stroke:#181818;stroke-width:1.0;stroke-dasharray:2.0,2.0;" x1="511.6826" x2="692.5063" y1="355.2969" y2="355.2969"/><text fill="#000000" font-family="sans-serif" font-size="13" lengthAdjust="spacing" textLength="94.7578" x="523.6826" y="350.231">Error message</text><polygon fill="#181818" points="104.188,380.4297,94.188,384.4297,104.188,388.4297,100.188,384.4297" style="stroke:#181818;stroke-width:1.0;"/><line style="stroke:#181818;stroke-width:1.0;" x1="98.188" x2="500.6826" y1="384.4297" y2="384.4297"/><text fill="#000000" font-family="sans-serif" font-size="13" lengthAdjust="spacing" textLength="226.8271" x="110.188" y="379.3638">"Failed to retrieve inventory data."</text><!--SRC=[hPBDReCm48JlVeeLf-IGFW27Iebe9HzoigAUjsPfhBesjGrLthwBIKWWaNef1txCD-kP0TJ91tZ3G4VVHTgZmmyAeiMGZ3OjkWJ5DaPA85rFZk4J76G1664h3t8EJeYYq1jD6PDAr9Zm7IFT452TrqQcsWcnD06Rvxn72OeiwNiZ1JITqybu9v0lFIOQJGsdGIrL2O5ICDHJraxIrLhKD1TDJsnOgYolTYLyTyHkpUHxo7AhPVfwpp7G9b2TrXHZqzcCNpoW5S07Kx0vkvFpkSFhsyaPLvaUcnWRkBhHHzAVriIKqRcjsR0SSLYvTBDikuJAnDRYwT5qMFsOT0JdUHAwcWDXz0vyEvGVrylDysPa-ODNi_ZGeB7nheIN47ou2y1T_bb7Li8NTyqH_g62ufKDKWt9J__DujC_5O_3kleN]--></g></svg>