<svg xmlns="http://www.w3.org/2000/svg" xmlns:xlink="http://www.w3.org/1999/xlink" contentStyleType="text/css" height="490px" preserveAspectRatio="none" style="width:881px;height:490px;background:#FFFFFF;" version="1.1" viewBox="0 0 881 490" width="881px" zoomAndPan="magnify"><defs/><g><rect fill="#FFFFFF" height="29.1328" style="stroke:#181818;stroke-width:1.0;" width="10" x="339.3535" y="112.4297"/><rect fill="#FFFFFF" height="29.1328" style="stroke:#181818;stroke-width:1.0;" width="10" x="339.3535" y="253.0938"/><rect fill="#FFFFFF" height="29.1328" style="stroke:#181818;stroke-width:1.0;" width="10" x="339.3535" y="355.2969"/><rect fill="#FFFFFF" height="29.1328" style="stroke:#181818;stroke-width:1.0;" width="10" x="571.9355" y="141.5625"/><rect fill="#FFFFFF" height="29.1328" style="stroke:#181818;stroke-width:1.0;" width="10" x="571.9355" y="223.9609"/><rect fill="#FFFFFF" height="29.1328" style="stroke:#181818;stroke-width:1.0;" width="10" x="571.9355" y="326.1641"/><rect fill="#FFFFFF" height="155.4688" style="stroke:#181818;stroke-width:1.0;" width="10" x="797.0464" y="170.6953"/><rect fill="none" height="206.7344" style="stroke:#000000;stroke-width:1.5;" width="864.1909" x="10" y="185.6953"/><line style="stroke:#181818;stroke-width:0.5;stroke-dasharray:5.0,5.0;" x1="45" x2="45" y1="81.2969" y2="409.4297"/><line style="stroke:#181818;stroke-width:0.5;stroke-dasharray:5.0,5.0;" x1="343.8906" x2="343.8906" y1="81.2969" y2="409.4297"/><line style="stroke:#181818;stroke-width:0.5;stroke-dasharray:5.0,5.0;" x1="576.5459" x2="576.5459" y1="81.2969" y2="409.4297"/><line style="stroke:#181818;stroke-width:0.5;stroke-dasharray:5.0,5.0;" x1="801.9019" x2="801.9019" y1="81.2969" y2="409.4297"/><text fill="#000000" font-family="sans-serif" font-size="14" lengthAdjust="spacing" textLength="44.8643" x="20" y="77.9951">Admin</text><ellipse cx="45.4321" cy="13.5" fill="#E2E2F0" rx="8" ry="8" style="stroke:#181818;stroke-width:0.5;"/><path d="M45.4321,21.5 L45.4321,48.5 M32.4321,29.5 L58.4321,29.5 M45.4321,48.5 L32.4321,63.5 M45.4321,48.5 L58.4321,63.5 " fill="none" style="stroke:#181818;stroke-width:0.5;"/><text fill="#000000" font-family="sans-serif" font-size="14" lengthAdjust="spacing" textLength="44.8643" x="20" y="421.4248">Admin</text><ellipse cx="45.4321" cy="433.2266" fill="#E2E2F0" rx="8" ry="8" style="stroke:#181818;stroke-width:0.5;"/><path d="M45.4321,441.2266 L45.4321,468.2266 M32.4321,449.2266 L58.4321,449.2266 M45.4321,468.2266 L32.4321,483.2266 M45.4321,468.2266 L58.4321,483.2266 " fill="none" style="stroke:#181818;stroke-width:0.5;"/><rect fill="#E2E2F0" height="30.2969" rx="2.5" ry="2.5" style="stroke:#181818;stroke-width:0.5;" width="128.9258" x="279.8906" y="50"/><text fill="#000000" font-family="sans-serif" font-size="14" lengthAdjust="spacing" textLength="114.9258" x="286.8906" y="69.9951">Status Report UI</text><rect fill="#E2E2F0" height="30.2969" rx="2.5" ry="2.5" style="stroke:#181818;stroke-width:0.5;" width="128.9258" x="279.8906" y="408.4297"/><text fill="#000000" font-family="sans-serif" font-size="14" lengthAdjust="spacing" textLength="114.9258" x="286.8906" y="428.4248">Status Report UI</text><rect fill="#E2E2F0" height="30.2969" rx="2.5" ry="2.5" style="stroke:#181818;stroke-width:0.5;" width="112.7793" x="520.5459" y="50"/><text fill="#000000" font-family="sans-serif" font-size="14" lengthAdjust="spacing" textLength="98.7793" x="527.5459" y="69.9951">ReportService</text><rect fill="#E2E2F0" height="30.2969" rx="2.5" ry="2.5" style="stroke:#181818;stroke-width:0.5;" width="112.7793" x="520.5459" y="408.4297"/><text fill="#000000" font-family="sans-serif" font-size="14" lengthAdjust="spacing" textLength="98.7793" x="527.5459" y="428.4248">ReportService</text><text fill="#000000" font-family="sans-serif" font-size="14" lengthAdjust="spacing" textLength="118.2891" x="739.9019" y="77.9951">Report Database</text><path d="M784.0464,29 C784.0464,19 802.0464,19 802.0464,19 C802.0464,19 820.0464,19 820.0464,29 L820.0464,55 C820.0464,65 802.0464,65 802.0464,65 C802.0464,65 784.0464,65 784.0464,55 L784.0464,29 " fill="#E2E2F0" style="stroke:#181818;stroke-width:1.5;"/><path d="M784.0464,29 C784.0464,39 802.0464,39 802.0464,39 C802.0464,39 820.0464,39 820.0464,29 " fill="none" style="stroke:#181818;stroke-width:1.5;"/><text fill="#000000" font-family="sans-serif" font-size="14" lengthAdjust="spacing" textLength="118.2891" x="739.9019" y="421.4248">Report Database</text><path d="M784.0464,434.7266 C784.0464,424.7266 802.0464,424.7266 802.0464,424.7266 C802.0464,424.7266 820.0464,424.7266 820.0464,434.7266 L820.0464,460.7266 C820.0464,470.7266 802.0464,470.7266 802.0464,470.7266 C802.0464,470.7266 784.0464,470.7266 784.0464,460.7266 L784.0464,434.7266 " fill="#E2E2F0" style="stroke:#181818;stroke-width:1.5;"/><path d="M784.0464,434.7266 C784.0464,444.7266 802.0464,444.7266 802.0464,444.7266 C802.0464,444.7266 820.0464,444.7266 820.0464,434.7266 " fill="none" style="stroke:#181818;stroke-width:1.5;"/><rect fill="#FFFFFF" height="29.1328" style="stroke:#181818;stroke-width:1.0;" width="10" x="339.3535" y="112.4297"/><rect fill="#FFFFFF" height="29.1328" style="stroke:#181818;stroke-width:1.0;" width="10" x="339.3535" y="253.0938"/><rect fill="#FFFFFF" height="29.1328" style="stroke:#181818;stroke-width:1.0;" width="10" x="339.3535" y="355.2969"/><rect fill="#FFFFFF" height="29.1328" style="stroke:#181818;stroke-width:1.0;" width="10" x="571.9355" y="141.5625"/><rect fill="#FFFFFF" height="29.1328" style="stroke:#181818;stroke-width:1.0;" width="10" x="571.9355" y="223.9609"/><rect fill="#FFFFFF" height="29.1328" style="stroke:#181818;stroke-width:1.0;" width="10" x="571.9355" y="326.1641"/><rect fill="#FFFFFF" height="155.4688" style="stroke:#181818;stroke-width:1.0;" width="10" x="797.0464" y="170.6953"/><polygon fill="#181818" points="327.3535,108.4297,337.3535,112.4297,327.3535,116.4297,331.3535,112.4297" style="stroke:#181818;stroke-width:1.0;"/><line style="stroke:#181818;stroke-width:1.0;" x1="45.4321" x2="333.3535" y1="112.4297" y2="112.4297"/><text fill="#000000" font-family="sans-serif" font-size="13" lengthAdjust="spacing" textLength="266.2524" x="52.4321" y="107.3638">Select specific date to view status report</text><polygon fill="#181818" points="559.9355,137.5625,569.9355,141.5625,559.9355,145.5625,563.9355,141.5625" style="stroke:#181818;stroke-width:1.0;"/><line style="stroke:#181818;stroke-width:1.0;" x1="344.3535" x2="565.9355" y1="141.5625" y2="141.5625"/><text fill="#000000" font-family="sans-serif" font-size="13" lengthAdjust="spacing" textLength="145.9072" x="351.3535" y="136.4966">getStatusReport(date)</text><polygon fill="#181818" points="785.0464,166.6953,795.0464,170.6953,785.0464,174.6953,789.0464,170.6953" style="stroke:#181818;stroke-width:1.0;"/><line style="stroke:#181818;stroke-width:1.0;" x1="576.9355" x2="791.0464" y1="170.6953" y2="170.6953"/><text fill="#000000" font-family="sans-serif" font-size="13" lengthAdjust="spacing" textLength="196.1108" x="583.9355" y="165.6294">query report for selected date</text><path d="M10,185.6953 L74.4429,185.6953 L74.4429,192.8281 L64.4429,202.8281 L10,202.8281 L10,185.6953 " fill="#EEEEEE" style="stroke:#000000;stroke-width:1.5;"/><rect fill="none" height="206.7344" style="stroke:#000000;stroke-width:1.5;" width="864.1909" x="10" y="185.6953"/><text fill="#000000" font-family="sans-serif" font-size="13" font-weight="bold" lengthAdjust="spacing" textLength="19.4429" x="25" y="198.7622">alt</text><text fill="#000000" font-family="sans-serif" font-size="11" font-weight="bold" lengthAdjust="spacing" textLength="99.2041" x="89.4429" y="197.9058">[Data available]</text><polygon fill="#181818" points="592.9355,219.9609,582.9355,223.9609,592.9355,227.9609,588.9355,223.9609" style="stroke:#181818;stroke-width:1.0;"/><line style="stroke:#181818;stroke-width:1.0;stroke-dasharray:2.0,2.0;" x1="586.9355" x2="796.0464" y1="223.9609" y2="223.9609"/><text fill="#000000" font-family="sans-serif" font-size="13" lengthAdjust="spacing" textLength="77.0923" x="598.9355" y="218.895">Report data</text><polygon fill="#181818" points="360.3535,249.0938,350.3535,253.0938,360.3535,257.0938,356.3535,253.0938" style="stroke:#181818;stroke-width:1.0;"/><line style="stroke:#181818;stroke-width:1.0;stroke-dasharray:2.0,2.0;" x1="354.3535" x2="575.9355" y1="253.0938" y2="253.0938"/><text fill="#000000" font-family="sans-serif" font-size="13" lengthAdjust="spacing" textLength="203.582" x="366.3535" y="248.0278">Status report of all warehouses</text><polygon fill="#181818" points="56.4321,278.2266,46.4321,282.2266,56.4321,286.2266,52.4321,282.2266" style="stroke:#181818;stroke-width:1.0;"/><line style="stroke:#181818;stroke-width:1.0;" x1="50.4321" x2="343.3535" y1="282.2266" y2="282.2266"/><text fill="#000000" font-family="sans-serif" font-size="13" lengthAdjust="spacing" textLength="136.1191" x="62.4321" y="277.1606">Display status report</text><line style="stroke:#000000;stroke-width:1.0;stroke-dasharray:2.0,2.0;" x1="10" x2="874.1909" y1="291.2266" y2="291.2266"/><text fill="#000000" font-family="sans-serif" font-size="11" font-weight="bold" lengthAdjust="spacing" textLength="118.54" x="15" y="301.437">[No data available]</text><polygon fill="#181818" points="592.9355,322.1641,582.9355,326.1641,592.9355,330.1641,588.9355,326.1641" style="stroke:#181818;stroke-width:1.0;"/><line style="stroke:#181818;stroke-width:1.0;stroke-dasharray:2.0,2.0;" x1="586.9355" x2="801.0464" y1="326.1641" y2="326.1641"/><text fill="#000000" font-family="sans-serif" font-size="13" lengthAdjust="spacing" textLength="92.4854" x="598.9355" y="321.0981">No data found</text><polygon fill="#181818" points="360.3535,351.2969,350.3535,355.2969,360.3535,359.2969,356.3535,355.2969" style="stroke:#181818;stroke-width:1.0;"/><line style="stroke:#181818;stroke-width:1.0;stroke-dasharray:2.0,2.0;" x1="354.3535" x2="575.9355" y1="355.2969" y2="355.2969"/><text fill="#000000" font-family="sans-serif" font-size="13" lengthAdjust="spacing" textLength="94.7578" x="366.3535" y="350.231">Error message</text><polygon fill="#181818" points="56.4321,380.4297,46.4321,384.4297,56.4321,388.4297,52.4321,384.4297" style="stroke:#181818;stroke-width:1.0;"/><line style="stroke:#181818;stroke-width:1.0;" x1="50.4321" x2="343.3535" y1="384.4297" y2="384.4297"/><text fill="#000000" font-family="sans-serif" font-size="13" lengthAdjust="spacing" textLength="269.9214" x="62.4321" y="379.3638">"No data available for the selected date."</text><!--SRC=[dL4nRiCm3Dpr2i9JEwGFy52WWJjawM0X3s0aEX6WM8uaEyZlAz5sQoT52rI38Ol7uzqHLNGUtlJPjA937uqo7ROH2XanzW5gwfoFiDyLW05alT-jOMDTaX-C8iRKKcYCUC10SncgwM44L5iXU29iNfco14cML8JGaJADKP0O2AA3mT0LmYZ5CvT05SsGoomcVp9DBKiuKXnLZrEVCicpqBJk-FfBGcl9lTMsX4jF_ZRDW2Pb4bWIQTQoP4bzt_Va1Ure4710O_5WIK0wgGIRITaKGyw5Qqiknag6JbaixO9h0As5AtewkJvGu8Qrd1KbcymlSpGSTGcL2Pt5srsQTsJSJ3QjxiEnt5zCpOZ6zQr-K9M2-TFfk_Sfw3E5W4Vwhw_YGIclBvvelSANucUphVu4]--></g></svg>